<?xml version='1.0' encoding='utf-8'?>
<svg xmlns="http://www.w3.org/2000/svg" width="436" height="364" viewBox="70.0 822.0 436.0 364.0" version="1.1"><path fill="rgb(23,24,23)" stroke="rgb(23,24,23)" stroke-width="1" opacity="1" d="M 268 876 L 276.5 876 L 277 876.5 L 277 947 L 268.5 947 L 268 946.5 L 268 876 Z " /><path fill="rgb(23,24,23)" stroke="rgb(23,24,23)" stroke-width="1" opacity="1" d="M 346.5 918 L 365.5 918 L 374.5 920 Q 387.8 924.8 396 934.5 L 404 949.5 L 405 958 L 385.5 958 L 384 956.5 L 382 949.5 L 376 941 L 364.5 935 L 352.5 934 Q 337 936.5 330 947.5 Q 321.4 958.9 321 978.5 L 322 979.5 L 323 993.5 L 326 1002.5 Q 330 1011.5 337.5 1017 L 348.5 1022 L 363.5 1022 Q 372 1019.5 377 1013.5 Q 383.9 1005.7 385 993 L 405 993 L 405 999.5 Q 400.7 1018.7 387.5 1029 L 375.5 1036 L 360.5 1039 L 351.5 1039 L 333.5 1035 Q 322.4 1030.1 315 1021.5 Q 306.7 1011.7 303 997.5 L 301 987.5 L 301 970.5 L 303 959.5 L 308 946.5 L 320.5 930 L 335.5 921 L 346.5 918 Z " /><path fill="rgb(23,24,23)" stroke="rgb(23,24,23)" stroke-width="1" opacity="1" d="M 166 920 L 244.5 920 L 245 920.5 L 245 938 L 185 938 L 185 966.5 L 186.5 968 L 238 968 L 238 983.5 L 236.5 985 L 186.5 985 L 185 986.5 L 186 988.5 L 185 991.5 L 186 1036 L 165 1036 L 165 1024.5 L 166 1023.5 L 166 920 Z " /><path fill="rgb(23,24,23)" stroke="rgb(23,24,23)" stroke-width="1" opacity="1" d="M 258 953 L 266 953 L 266 969 L 279 969 L 279 953 L 287 953 L 287 969 L 292.5 969 L 293 969.5 L 293 992.5 Q 290.5 1001.5 283.5 1006 L 277 1008.5 L 277 1081.5 L 276.5 1082 L 267 1082 L 267 1007.5 L 264.5 1007 L 255 1000.5 L 251 991.5 L 251 970.5 Q 252.6 967.5 258 969 L 258 953 Z " /><path fill="rgb(253,253,253)" stroke="rgb(253,253,253)" stroke-width="1" opacity="1" d="M 392 832 L 394 832.5 L 394 840 L 392 839.5 L 392 832 Z " /><path fill="rgb(253,253,253)" stroke="rgb(253,253,253)" stroke-width="1" opacity="1" d="M 336 840 L 338 840.5 L 338 848 L 336 847.5 L 336 840 Z " /><path fill="rgb(253,253,253)" stroke="rgb(253,253,253)" stroke-width="1" opacity="1" d="M 334 856 L 336 856.5 L 336 864 L 334 863.5 L 334 856 Z " /><path fill="rgb(253,253,253)" stroke="rgb(253,253,253)" stroke-width="1" opacity="1" d="M 160 864 L 176 864 L 176 880 L 160 880 L 160 864 Z " /><path fill="rgb(253,253,253)" stroke="rgb(253,253,253)" stroke-width="1" opacity="1" d="M 192 864 L 208 864 L 208 896 L 192 896 L 192 864 Z " /><path fill="rgb(253,253,253)" stroke="rgb(253,253,253)" stroke-width="1" opacity="1" d="M 280 864 L 287.5 864 L 288 866 L 280.5 866 L 280 864 Z " /><path fill="rgb(253,253,253)" stroke="rgb(253,253,253)" stroke-width="1" opacity="1" d="M 392 864 L 394 864.5 L 394 888 L 392 887.5 L 392 864 Z " /><path fill="rgb(253,253,253)" stroke="rgb(253,253,253)" stroke-width="1" opacity="1" d="M 274.5 872 L 277 872.5 Q 277.7 875.5 274 874 L 274.5 872 Z " /><path fill="rgb(253,253,253)" stroke="rgb(253,253,253)" stroke-width="1" opacity="1" d="M 272.5 874 L 273.5 876 L 272.5 874 Z " /><path fill="rgb(253,253,253)" stroke="rgb(253,253,253)" stroke-width="1" opacity="1" d="M 256 880 L 258 880.5 L 258 888 L 256 887.5 L 256 880 Z " /><path fill="rgb(253,253,253)" stroke="rgb(253,253,253)" stroke-width="1" opacity="1" d="M 278.5 888 L 279 895.5 L 278 895.5 L 278.5 888 Z " /><path fill="rgb(253,253,253)" stroke="rgb(253,253,253)" stroke-width="1" opacity="1" d="M 110 896 L 112 896.5 L 112 904 L 110 903.5 L 110 896 Z " /><path fill="rgb(253,253,253)" stroke="rgb(253,253,253)" stroke-width="1" opacity="1" d="M 136 896 L 138 896.5 L 138 904 L 136 903.5 L 136 896 Z " /><path fill="rgb(253,253,253)" stroke="rgb(253,253,253)" stroke-width="1" opacity="1" d="M 240 896 L 242 896.5 L 242 904 L 240 903.5 L 240 896 Z " /><path fill="rgb(253,253,253)" stroke="rgb(253,253,253)" stroke-width="1" opacity="1" d="M 256 896 L 258 896.5 L 258 912 L 256 911.5 L 256 896 Z " /><path fill="rgb(253,253,253)" stroke="rgb(253,253,253)" stroke-width="1" opacity="1" d="M 336 896 L 338 896.5 L 338 904 L 336 903.5 L 336 896 Z " /><path fill="rgb(253,253,253)" stroke="rgb(253,253,253)" stroke-width="1" opacity="1" d="M 352 896 L 354 896.5 L 354 904 L 352 903.5 L 352 896 Z " /><path fill="rgb(253,253,253)" stroke="rgb(253,253,253)" stroke-width="1" opacity="1" d="M 265.5 904 L 266 943.5 L 264 944.5 L 265 943.5 L 265.5 904 Z " /><path fill="rgb(253,253,253)" stroke="rgb(253,253,253)" stroke-width="1" opacity="1" d="M 392 904 L 394 904.5 L 394 912 L 392 911.5 L 392 904 Z " /><path fill="rgb(253,253,253)" stroke="rgb(253,253,253)" stroke-width="1" opacity="1" d="M 160 912 L 162 912.5 L 162 920 L 160 919.5 L 160 912 Z " /><path fill="rgb(253,253,253)" stroke="rgb(253,253,253)" stroke-width="1" opacity="1" d="M 168 912 L 175.5 912 L 176 914 L 168.5 914 L 168 912 Z " /><path fill="rgb(253,253,253)" stroke="rgb(253,253,253)" stroke-width="1" opacity="1" d="M 232 912 L 239.5 912 L 240 914 L 232.5 914 L 232 912 Z " /><path fill="rgb(253,253,253)" stroke="rgb(253,253,253)" stroke-width="1" opacity="1" d="M 336.5 912 L 339 912.5 L 336.5 913 L 336.5 912 Z " /><path fill="rgb(253,253,253)" stroke="rgb(253,253,253)" stroke-width="1" opacity="1" d="M 344.5 912 L 349 912.5 L 344.5 913 L 344.5 912 Z " /><path fill="rgb(253,253,253)" stroke="rgb(253,253,253)" stroke-width="1" opacity="1" d="M 352.5 912 L 351.5 914 L 352.5 912 Z " /><path fill="rgb(253,253,253)" stroke="rgb(253,253,253)" stroke-width="1" opacity="1" d="M 358.5 912 L 364 913.5 Q 362.8 916.3 361.5 914 Q 357.8 913.7 358.5 912 Z " /><path fill="rgb(253,253,253)" stroke="rgb(253,253,253)" stroke-width="1" opacity="1" d="M 365.5 912 L 372.5 913 L 374.5 913 L 378 912 L 378 919.5 L 376 920 L 375 916.5 L 376 914 L 372 914 L 372 915.5 L 373 917.5 L 372 917.5 L 370 914.5 Q 369.3 912.3 365.5 913 L 365.5 912 Z " /><path fill="rgb(253,253,253)" stroke="rgb(253,253,253)" stroke-width="1" opacity="1" d="M 355.5 913 Q 358.1 912.3 357 915 L 351.5 916 L 351.5 915 L 355.5 913 Z " /><path fill="rgb(253,253,253)" stroke="rgb(253,253,253)" stroke-width="1" opacity="1" d="M 344.5 914 L 349 914.5 L 342.5 916 L 342.5 915 L 344.5 914 Z " /><path fill="rgb(253,253,253)" stroke="rgb(253,253,253)" stroke-width="1" opacity="1" d="M 367.5 914 L 368.5 916 L 367.5 914 Z " /><path fill="rgb(253,253,253)" stroke="rgb(253,253,253)" stroke-width="1" opacity="1" d="M 345.5 916 L 346 918 L 344 917.5 L 345.5 916 Z " /><path fill="rgb(253,253,253)" stroke="rgb(253,253,253)" stroke-width="1" opacity="1" d="M 349.5 916 L 348.5 918 L 349.5 916 Z " /><path fill="rgb(253,253,253)" stroke="rgb(253,253,253)" stroke-width="1" opacity="1" d="M 355.5 916 L 360 916.5 L 355.5 917 L 355.5 916 Z " /><path fill="rgb(253,253,253)" stroke="rgb(253,253,253)" stroke-width="1" opacity="1" d="M 364 916 L 367 916.5 L 364.5 918 L 364 916 Z " /><path fill="rgb(253,253,253)" stroke="rgb(253,253,253)" stroke-width="1" opacity="1" d="M 336.5 917 Q 341.3 915.7 340 919 Q 335.8 919 336.5 917 Z " /><path fill="rgb(253,253,253)" stroke="rgb(253,253,253)" stroke-width="1" opacity="1" d="M 341.5 917 L 342.5 919 L 341.5 917 Z " /><path fill="rgb(253,253,253)" stroke="rgb(253,253,253)" stroke-width="1" opacity="1" d="M 112 920 L 114 920.5 L 114 928 L 112 927.5 L 112 920 Z " /><path fill="rgb(253,253,253)" stroke="rgb(253,253,253)" stroke-width="1" opacity="1" d="M 323.5 920 Q 328.9 918.1 328 921.5 L 328.5 923 Q 325.9 923.7 327 921 L 323.5 921 L 324.5 923 L 326 922.5 L 325.5 925 L 320 921.5 Q 321.8 923.1 323.5 920 Z " /><path fill="rgb(253,253,253)" stroke="rgb(253,253,253)" stroke-width="1" opacity="1" d="M 330.5 920 L 331.5 922 L 330.5 920 Z " /><path fill="rgb(253,253,253)" stroke="rgb(253,253,253)" stroke-width="1" opacity="1" d="M 382 920 Q 384.7 918.9 384 921.5 L 382 922.5 L 382 920 Z " /><path fill="rgb(253,253,253)" stroke="rgb(253,253,253)" stroke-width="1" opacity="1" d="M 160.5 921 L 163 924.5 L 161 923.5 L 160.5 921 Z " /><path fill="rgb(253,253,253)" stroke="rgb(253,253,253)" stroke-width="1" opacity="1" d="M 387.5 921 L 390 921.5 L 385.5 924 L 387.5 921 Z " /><path fill="rgb(253,253,253)" stroke="rgb(253,253,253)" stroke-width="1" opacity="1" d="M 387.5 925 L 390 925.5 Q 387.9 928.8 387.5 925 Z " /><path fill="rgb(253,253,253)" stroke="rgb(253,253,253)" stroke-width="1" opacity="1" d="M 163 926 Q 165.7 924.9 165 927.5 L 163 936.5 L 163 1023.5 L 165 1034.5 L 164 1034.5 L 163.5 1032 L 161.5 1033 L 161.5 1032 L 163 1031.5 L 163 1024.5 L 162 1023.5 L 161.5 936 L 160.5 1024 L 160 936.5 L 161 935.5 L 161.5 927 L 162.5 936 L 163 926 Z " /><path fill="rgb(253,253,253)" stroke="rgb(253,253,253)" stroke-width="1" opacity="1" d="M 247.5 927 L 248 939.5 L 247 939.5 L 246 936.5 L 247 935.5 L 247.5 927 Z " /><path fill="rgb(253,253,253)" stroke="rgb(253,253,253)" stroke-width="1" opacity="1" d="M 136 928 L 138 928.5 L 138 936 L 136 935.5 L 136 928 Z " /><path fill="rgb(253,253,253)" stroke="rgb(253,253,253)" stroke-width="1" opacity="1" d="M 315.5 928 L 316 929.5 L 315 932 L 313 931.5 L 315.5 928 Z " /><path fill="rgb(253,253,253)" stroke="rgb(253,253,253)" stroke-width="1" opacity="1" d="M 318.5 931 L 316.5 934 L 318.5 931 Z " /><path fill="rgb(253,253,253)" stroke="rgb(253,253,253)" stroke-width="1" opacity="1" d="M 314.5 933 L 315 934.5 L 312 936.5 L 314.5 933 Z " /><path fill="rgb(253,253,253)" stroke="rgb(253,253,253)" stroke-width="1" opacity="1" d="M 278.5 936 L 279 943.5 L 278 943.5 L 278.5 936 Z " /><path fill="rgb(253,253,253)" stroke="rgb(253,253,253)" stroke-width="1" opacity="1" d="M 304.5 936 Q 307.5 935.1 306 939.5 L 304 940.5 L 305 937.5 L 304.5 936 Z " /><path fill="rgb(253,253,253)" stroke="rgb(253,253,253)" stroke-width="1" opacity="1" d="M 307.5 936 L 308.5 938 L 307.5 936 Z " /><path fill="rgb(253,253,253)" stroke="rgb(253,253,253)" stroke-width="1" opacity="1" d="M 347.5 936 L 351 938 L 352 941.5 L 349 939.5 L 347.5 936 Z " /><path fill="rgb(253,253,253)" stroke="rgb(253,253,253)" stroke-width="1" opacity="1" d="M 364.5 937 L 367 937.5 L 363.5 942 L 361 938.5 L 363.5 940 Q 365.8 940.8 365 938.5 L 364.5 937 Z " /><path fill="rgb(253,253,253)" stroke="rgb(253,253,253)" stroke-width="1" opacity="1" d="M 368.5 937 L 371 940.5 L 369.5 940 L 368 939.5 L 368.5 937 Z " /><path fill="rgb(253,253,253)" stroke="rgb(253,253,253)" stroke-width="1" opacity="1" d="M 191.5 938 L 192 940 L 241 940.5 L 191 941 L 191.5 938 Z " /><path fill="rgb(253,253,253)" stroke="rgb(253,253,253)" stroke-width="1" opacity="1" d="M 241.5 938 L 244 939.5 L 242.5 943 L 242.5 939 L 241.5 938 Z " /><path fill="rgb(253,253,253)" stroke="rgb(253,253,253)" stroke-width="1" opacity="1" d="M 186.5 940 L 190 941.5 L 189.5 943 L 189 941 Q 185.7 941.8 186.5 940 Z " /><path fill="rgb(253,253,253)" stroke="rgb(253,253,253)" stroke-width="1" opacity="1" d="M 348.5 941 L 349 943 L 345.5 944 L 343 943.5 Q 344.3 940.8 345.5 943 L 348.5 941 Z " /><path fill="rgb(253,253,253)" stroke="rgb(253,253,253)" stroke-width="1" opacity="1" d="M 307.5 942 Q 310.5 943.5 307.5 945 Q 305.3 945.8 306 943.5 L 307.5 942 Z " /><path fill="rgb(253,253,253)" stroke="rgb(253,253,253)" stroke-width="1" opacity="1" d="M 365.5 942 L 368 942.5 L 365.5 943 L 365.5 942 Z " /><path fill="rgb(253,253,253)" stroke="rgb(253,253,253)" stroke-width="1" opacity="1" d="M 371.5 942 L 374 943.5 L 372.5 944 L 371.5 942 Z " /><path fill="rgb(253,253,253)" stroke="rgb(253,253,253)" stroke-width="1" opacity="1" d="M 334.5 943 L 335.5 945 L 333 944.5 L 334.5 943 Z " /><path fill="rgb(253,253,253)" stroke="rgb(253,253,253)" stroke-width="1" opacity="1" d="M 375.5 943 L 376.5 945 L 375.5 943 Z " /><path fill="rgb(253,253,253)" stroke="rgb(253,253,253)" stroke-width="1" opacity="1" d="M 405.5 944 L 404.5 948 Q 401 946 405.5 944 Z " /><path fill="rgb(253,253,253)" stroke="rgb(253,253,253)" stroke-width="1" opacity="1" d="M 407.5 945 L 408 948.5 L 406 953 L 408 953.5 L 405.5 955 L 405 952.5 L 406 950.5 L 405.5 949 Q 407.8 949.8 407 947.5 Q 404.8 946.3 407.5 945 Z " /><path fill="rgb(253,253,253)" stroke="rgb(253,253,253)" stroke-width="1" opacity="1" d="M 304.5 947 L 306.5 950 L 304.5 951 L 305 949.5 L 304.5 947 Z " /><path fill="rgb(253,253,253)" stroke="rgb(253,253,253)" stroke-width="1" opacity="1" d="M 269.5 949 L 271 949.5 L 268.5 951 L 269.5 949 Z " /><path fill="rgb(253,253,253)" stroke="rgb(253,253,253)" stroke-width="1" opacity="1" d="M 279.5 949 L 280 951.5 L 279 951.5 L 279.5 949 Z " /><path fill="rgb(253,253,253)" stroke="rgb(253,253,253)" stroke-width="1" opacity="1" d="M 379.5 949 L 380 950.5 L 376 953 L 376 951 Q 379.8 952.3 379.5 949 Z " /><path fill="rgb(253,253,253)" stroke="rgb(253,253,253)" stroke-width="1" opacity="1" d="M 200 950 L 255.5 950 L 256 952 L 200.5 952 L 200 952.5 L 200 960 L 198 960 L 198 952.5 Q 200.7 953.1 200 950 Z " /><path fill="rgb(253,253,253)" stroke="rgb(253,253,253)" stroke-width="1" opacity="1" d="M 271.5 951 L 272 952.5 L 270.5 955 L 270 953.5 L 271.5 951 Z " /><path fill="rgb(253,253,253)" stroke="rgb(253,253,253)" stroke-width="1" opacity="1" d="M 274.5 951 L 275.5 953 L 274.5 951 Z " /><path fill="rgb(253,253,253)" stroke="rgb(253,253,253)" stroke-width="1" opacity="1" d="M 189.5 952 L 190 959.5 L 189 959.5 L 189.5 952 Z " /><path fill="rgb(253,253,253)" stroke="rgb(253,253,253)" stroke-width="1" opacity="1" d="M 297.5 952 L 296.5 954 L 297.5 952 Z " /><path fill="rgb(253,253,253)" stroke="rgb(253,253,253)" stroke-width="1" opacity="1" d="M 299.5 952 Q 302.3 953.2 300 954.5 Q 300.8 956.8 298.5 956 L 299 954.5 L 299.5 952 Z " /><path fill="rgb(253,253,253)" stroke="rgb(253,253,253)" stroke-width="1" opacity="1" d="M 303.5 952 L 304 954.5 L 302 955.5 L 303.5 952 Z " /><path fill="rgb(253,253,253)" stroke="rgb(253,253,253)" stroke-width="1" opacity="1" d="M 274.5 955 L 277 956.5 L 275.5 957 L 274.5 955 Z " /><path fill="rgb(253,253,253)" stroke="rgb(253,253,253)" stroke-width="1" opacity="1" d="M 296.5 955 L 297 959.5 L 296 959.5 L 296.5 955 Z " /><path fill="rgb(253,253,253)" stroke="rgb(253,253,253)" stroke-width="1" opacity="1" d="M 379.5 955 L 381 958.5 L 379 958.5 L 378.5 960 L 377.5 958 L 376.5 960 L 376 958.5 L 379 957.5 L 379.5 955 Z " /><path fill="rgb(253,253,253)" stroke="rgb(253,253,253)" stroke-width="1" opacity="1" d="M 381.5 956 L 384 957.5 L 382.5 958 L 381.5 956 Z " /><path fill="rgb(253,253,253)" stroke="rgb(253,253,253)" stroke-width="1" opacity="1" d="M 273.5 957 L 273 958.5 L 274.5 968 L 275.5 960 L 276 967.5 L 274.5 969 L 272 968.5 Q 274.7 966.7 273 960.5 L 272 958.5 L 273.5 957 Z " /><path fill="rgb(253,253,253)" stroke="rgb(253,253,253)" stroke-width="1" opacity="1" d="M 301.5 957 L 300 959.5 Q 300.7 962.1 298 961 Q 296.9 958.3 299.5 959 L 301.5 957 Z " /><path fill="rgb(253,253,253)" stroke="rgb(253,253,253)" stroke-width="1" opacity="1" d="M 325.5 957 L 328 958.5 L 327.5 960 L 327 958 L 325.5 957 Z " /><path fill="rgb(253,253,253)" stroke="rgb(253,253,253)" stroke-width="1" opacity="1" d="M 389.5 958 L 391.5 959 Q 393.3 956.3 399.5 958 L 400.5 960 Q 398.8 957.2 392.5 959 L 390.5 959 L 389.5 958 Z " /><path fill="rgb(253,253,253)" stroke="rgb(253,253,253)" stroke-width="1" opacity="1" d="M 187.5 960 L 188 966.5 L 186 967.5 L 187.5 960 Z " /><path fill="rgb(253,253,253)" stroke="rgb(253,253,253)" stroke-width="1" opacity="1" d="M 268.5 960 L 269 967.5 L 267 968.5 L 268.5 960 Z " /><path fill="rgb(253,253,253)" stroke="rgb(253,253,253)" stroke-width="1" opacity="1" d="M 270.5 960 L 271 967.5 L 270 967.5 L 270.5 960 Z " /><path fill="rgb(253,253,253)" stroke="rgb(253,253,253)" stroke-width="1" opacity="1" d="M 464 960 L 466 960.5 L 466 968 L 464 967.5 L 464 960 Z " /><path fill="rgb(253,253,253)" stroke="rgb(253,253,253)" stroke-width="1" opacity="1" d="M 190.5 961 L 191 964.5 L 190 964.5 L 190.5 961 Z " /><path fill="rgb(253,253,253)" stroke="rgb(253,253,253)" stroke-width="1" opacity="1" d="M 196.5 961 L 200 961.5 L 196.5 962 L 196.5 961 Z " /><path fill="rgb(253,253,253)" stroke="rgb(253,253,253)" stroke-width="1" opacity="1" d="M 232 961 L 237 961.5 L 232 963 L 232 961 Z " /><path fill="rgb(253,253,253)" stroke="rgb(253,253,253)" stroke-width="1" opacity="1" d="M 199.5 963 L 200.5 964 L 232 964.5 L 195.5 965 L 195.5 964 L 199.5 963 Z " /><path fill="rgb(253,253,253)" stroke="rgb(253,253,253)" stroke-width="1" opacity="1" d="M 297.5 963 L 298 965.5 L 297 967.5 L 298 969.5 L 295 971.5 L 295 969.5 L 297.5 963 Z " /><path fill="rgb(253,253,253)" stroke="rgb(253,253,253)" stroke-width="1" opacity="1" d="M 299.5 963 Q 302.3 964.3 300 965.5 L 299.5 967 L 299 965.5 L 299.5 963 Z " /><path fill="rgb(253,253,253)" stroke="rgb(253,253,253)" stroke-width="1" opacity="1" d="M 237.5 964 L 240 964.5 L 237.5 965 L 237.5 964 Z " /><path fill="rgb(253,253,253)" stroke="rgb(253,253,253)" stroke-width="1" opacity="1" d="M 324.5 964 L 325 966.5 L 324 966.5 L 324.5 964 Z " /><path fill="rgb(253,253,253)" stroke="rgb(253,253,253)" stroke-width="1" opacity="1" d="M 257.5 965 L 258 967.5 L 257 967.5 L 257.5 965 Z " /><path fill="rgb(253,253,253)" stroke="rgb(253,253,253)" stroke-width="1" opacity="1" d="M 192.5 966 L 232 966.5 L 192.5 967 L 192.5 966 Z " /><path fill="rgb(253,253,253)" stroke="rgb(253,253,253)" stroke-width="1" opacity="1" d="M 233.5 966 Q 238.3 965.3 240 967.5 L 238.5 968 L 233.5 967 L 233.5 966 Z " /><path fill="rgb(253,253,253)" stroke="rgb(253,253,253)" stroke-width="1" opacity="1" d="M 299.5 968 L 301 973.5 L 298.5 974 L 297.5 972 L 299 972 L 299.5 968 Z " /><path fill="rgb(253,253,253)" stroke="rgb(253,253,253)" stroke-width="1" opacity="1" d="M 326.5 968 L 327 970.5 L 326 970.5 L 326.5 968 Z " /><path fill="rgb(253,253,253)" stroke="rgb(253,253,253)" stroke-width="1" opacity="1" d="M 324.5 970 L 325 972.5 L 323.5 975 L 322.5 973 Q 325.4 973.7 324.5 970 Z " /><path fill="rgb(253,253,253)" stroke="rgb(253,253,253)" stroke-width="1" opacity="1" d="M 250.5 971 L 251 973.5 L 250.5 975 L 249.5 973 L 248 973.5 Q 247.3 971.3 249.5 972 L 250.5 971 Z " /><path fill="rgb(253,253,253)" stroke="rgb(253,253,253)" stroke-width="1" opacity="1" d="M 392.5 971 L 397 974.5 Q 397.7 977.5 394 976 L 394 983.5 L 392 984 L 392.5 971 Z " /><path fill="rgb(253,253,253)" stroke="rgb(253,253,253)" stroke-width="1" opacity="1" d="M 326.5 974 L 326.5 976 Q 328.8 975.3 328 977.5 L 326 978.5 L 325.5 976 L 324.5 982 L 324 976.5 L 326.5 974 Z " /><path fill="rgb(253,253,253)" stroke="rgb(253,253,253)" stroke-width="1" opacity="1" d="M 110 976 L 112 976.5 L 112 984 L 110 983.5 L 110 976 Z " /><path fill="rgb(253,253,253)" stroke="rgb(253,253,253)" stroke-width="1" opacity="1" d="M 239.5 976 L 240 986.5 L 239 986.5 L 239.5 976 Z " /><path fill="rgb(253,253,253)" stroke="rgb(253,253,253)" stroke-width="1" opacity="1" d="M 294.5 976 L 295 978.5 L 294 978.5 L 294.5 976 Z " /><path fill="rgb(253,253,253)" stroke="rgb(253,253,253)" stroke-width="1" opacity="1" d="M 296 976 Q 299 975 298 978 Q 295 979 296 976 Z " /><path fill="rgb(253,253,253)" stroke="rgb(253,253,253)" stroke-width="1" opacity="1" d="M 299.5 977 L 300 981.5 L 299 981.5 L 299.5 977 Z " /><path fill="rgb(253,253,253)" stroke="rgb(253,253,253)" stroke-width="1" opacity="1" d="M 249 979 Q 252.5 977.9 251 985.5 L 250 985.5 L 249 979 Z " /><path fill="rgb(253,253,253)" stroke="rgb(253,253,253)" stroke-width="1" opacity="1" d="M 297.5 980 L 298 984 L 300.5 983 L 300 984.5 L 298.5 987 L 297.5 984 L 295 990 Q 297.7 988.9 297 991.5 L 297.5 993 L 295 992 L 294 987.5 L 295.5 982 L 296.5 984 L 297.5 980 Z " /><path fill="rgb(253,253,253)" stroke="rgb(253,253,253)" stroke-width="1" opacity="1" d="M 323.5 983 L 324 987.5 L 323 987.5 L 323.5 983 Z " /><path fill="rgb(253,253,253)" stroke="rgb(253,253,253)" stroke-width="1" opacity="1" d="M 186.5 985 L 189 985.5 L 186.5 986 L 186.5 985 Z " /><path fill="rgb(253,253,253)" stroke="rgb(253,253,253)" stroke-width="1" opacity="1" d="M 190.5 985 L 192.5 987 L 200 987.5 L 192.5 988 L 190.5 985 Z " /><path fill="rgb(253,253,253)" stroke="rgb(253,253,253)" stroke-width="1" opacity="1" d="M 212.5 985 L 232.5 985 L 235.5 987 L 237.5 986 L 237.5 987 L 235.5 988 L 232.5 986 L 212.5 986 L 212.5 985 Z " /><path fill="rgb(253,253,253)" stroke="rgb(253,253,253)" stroke-width="1" opacity="1" d="M 248.5 985 L 251 992.5 L 249 993.5 L 249 991.5 L 248.5 985 Z " /><path fill="rgb(253,253,253)" stroke="rgb(253,253,253)" stroke-width="1" opacity="1" d="M 208.5 987 L 231.5 987 L 233 988.5 L 232.5 990 L 232 988 L 208.5 988 L 208.5 987 Z " /><path fill="rgb(253,253,253)" stroke="rgb(253,253,253)" stroke-width="1" opacity="1" d="M 300.5 988 L 302 995 Q 298.2 996.5 299 993.5 L 301 993.5 L 300.5 988 Z " /><path fill="rgb(253,253,253)" stroke="rgb(253,253,253)" stroke-width="1" opacity="1" d="M 191.5 989 L 200 989.5 L 191.5 990 L 191.5 989 Z " /><path fill="rgb(253,253,253)" stroke="rgb(253,253,253)" stroke-width="1" opacity="1" d="M 208.5 989 L 212 989.5 L 208.5 990 L 208.5 989 Z " /><path fill="rgb(253,253,253)" stroke="rgb(253,253,253)" stroke-width="1" opacity="1" d="M 187.5 990 L 189 991.5 L 189 999.5 L 188 999.5 Q 188.7 992 187.5 990 Z " /><path fill="rgb(253,253,253)" stroke="rgb(253,253,253)" stroke-width="1" opacity="1" d="M 200.5 991 L 208 991.5 L 200.5 992 L 200.5 991 Z " /><path fill="rgb(253,253,253)" stroke="rgb(253,253,253)" stroke-width="1" opacity="1" d="M 326.5 991 Q 328.8 990.3 328 992.5 L 326.5 991 Z " /><path fill="rgb(253,253,253)" stroke="rgb(253,253,253)" stroke-width="1" opacity="1" d="M 382.5 992 L 383 994.5 L 381 1000 L 379 999.5 L 380 996 Q 376.7 994.7 378 999.5 L 377 999.5 Q 376.4 994.4 379.5 993 L 380.5 996 L 382.5 992 Z " /><path fill="rgb(253,253,253)" stroke="rgb(253,253,253)" stroke-width="1" opacity="1" d="M 251.5 994 L 250.5 996 L 251.5 994 Z " /><path fill="rgb(253,253,253)" stroke="rgb(253,253,253)" stroke-width="1" opacity="1" d="M 294.5 994 Q 297.5 995.5 294.5 997 Q 291.5 995.5 294.5 994 Z " /><path fill="rgb(253,253,253)" stroke="rgb(253,253,253)" stroke-width="1" opacity="1" d="M 300.5 996 L 301 998.5 L 300 998.5 L 300.5 996 Z " /><path fill="rgb(253,253,253)" stroke="rgb(253,253,253)" stroke-width="1" opacity="1" d="M 250.5 997 L 252 997.5 L 249.5 999 L 250.5 997 Z " /><path fill="rgb(253,253,253)" stroke="rgb(253,253,253)" stroke-width="1" opacity="1" d="M 383.5 997 L 382.5 999 L 383.5 997 Z " /><path fill="rgb(253,253,253)" stroke="rgb(253,253,253)" stroke-width="1" opacity="1" d="M 291.5 998 Q 293.3 1001.1 295 999.5 Q 291.5 1001 294 1002.5 L 293 1004.5 L 296 1005.5 L 294.5 1008 L 292.5 1005 L 290.5 1005 L 288 1004.5 L 290.5 1004 Q 291.8 1006.3 293 1003.5 L 292.5 1002 L 290.5 1003 L 290.5 1002 L 293 1000.5 L 290 999.5 L 291.5 998 Z " /><path fill="rgb(253,253,253)" stroke="rgb(253,253,253)" stroke-width="1" opacity="1" d="M 253.5 999 L 253 1000.5 L 252.5 1002 L 252 1000.5 L 253.5 999 Z " /><path fill="rgb(253,253,253)" stroke="rgb(253,253,253)" stroke-width="1" opacity="1" d="M 327.5 999 L 328 1001.5 L 327 1001.5 L 327.5 999 Z " /><path fill="rgb(253,253,253)" stroke="rgb(253,253,253)" stroke-width="1" opacity="1" d="M 335.5 1000 L 336 1002.5 L 335 1005.5 L 335.5 1007 Q 332.5 1007.9 334 1003.5 L 335.5 1000 Z " /><path fill="rgb(253,253,253)" stroke="rgb(253,253,253)" stroke-width="1" opacity="1" d="M 360 1000 L 368 1000 L 368 1008 L 360 1008 L 360 1000 Z " /><path fill="rgb(253,253,253)" stroke="rgb(253,253,253)" stroke-width="1" opacity="1" d="M 377.5 1001 L 380 1001.5 Q 377.9 1004.8 377.5 1001 Z " /><path fill="rgb(253,253,253)" stroke="rgb(253,253,253)" stroke-width="1" opacity="1" d="M 254.5 1002 L 255.5 1004 L 254.5 1002 Z " /><path fill="rgb(253,253,253)" stroke="rgb(253,253,253)" stroke-width="1" opacity="1" d="M 240.5 1003 L 245 1006.5 L 245 1008 L 240 1008 L 240.5 1003 Z " /><path fill="rgb(253,253,253)" stroke="rgb(253,253,253)" stroke-width="1" opacity="1" d="M 248 1003 Q 251 1001.8 250 1005.5 L 248 1006.5 L 248 1004.5 L 248 1003 Z " /><path fill="rgb(253,253,253)" stroke="rgb(253,253,253)" stroke-width="1" opacity="1" d="M 257.5 1004 Q 259.8 1003.3 259 1005.5 L 257.5 1004 Z " /><path fill="rgb(253,253,253)" stroke="rgb(253,253,253)" stroke-width="1" opacity="1" d="M 330.5 1004 L 331 1005.5 L 330.5 1008 Q 327.8 1006.8 330 1005.5 L 330.5 1004 Z " /><path fill="rgb(253,253,253)" stroke="rgb(253,253,253)" stroke-width="1" opacity="1" d="M 376 1004 L 380 1006.5 L 376 1005.5 L 376 1004 Z " /><path fill="rgb(253,253,253)" stroke="rgb(253,253,253)" stroke-width="1" opacity="1" d="M 404.5 1004 L 405 1005.5 L 404 1007.5 L 406.5 1013 L 408 1012.5 L 406.5 1016 L 404.5 1012 Q 402.3 1011.3 403 1013.5 L 402 1013.5 L 401 1011.5 L 404 1011 L 403.5 1008 L 402 1008.5 L 404.5 1004 Z " /><path fill="rgb(253,253,253)" stroke="rgb(253,253,253)" stroke-width="1" opacity="1" d="M 283.5 1006 Q 285.8 1005.3 285 1007.5 L 283.5 1006 Z " /><path fill="rgb(253,253,253)" stroke="rgb(253,253,253)" stroke-width="1" opacity="1" d="M 288.5 1006 L 290 1006.5 L 286.5 1008 L 286.5 1007 L 288.5 1006 Z " /><path fill="rgb(253,253,253)" stroke="rgb(253,253,253)" stroke-width="1" opacity="1" d="M 304 1006 L 306 1006.5 L 304 1007.5 L 304 1006 Z " /><path fill="rgb(253,253,253)" stroke="rgb(253,253,253)" stroke-width="1" opacity="1" d="M 251.5 1007 L 254 1007.5 L 251.5 1008 L 251.5 1007 Z " /><path fill="rgb(253,253,253)" stroke="rgb(253,253,253)" stroke-width="1" opacity="1" d="M 370.5 1008 L 371 1010.5 L 370.5 1012 L 369.5 1010 L 368 1010.5 L 370.5 1008 Z " /><path fill="rgb(253,253,253)" stroke="rgb(253,253,253)" stroke-width="1" opacity="1" d="M 372.5 1008 L 375 1009.5 L 372 1010 L 372.5 1008 Z " /><path fill="rgb(253,253,253)" stroke="rgb(253,253,253)" stroke-width="1" opacity="1" d="M 331.5 1009 L 336 1012.5 L 334.5 1013 L 331.5 1009 Z " /><path fill="rgb(253,253,253)" stroke="rgb(253,253,253)" stroke-width="1" opacity="1" d="M 341 1009 Q 344 1008 343 1011 Q 340 1012 341 1009 Z " /><path fill="rgb(253,253,253)" stroke="rgb(253,253,253)" stroke-width="1" opacity="1" d="M 265.5 1010 L 267 1016 L 265 1016.5 L 265 1023.5 L 264 1023.5 L 265.5 1010 Z " /><path fill="rgb(253,253,253)" stroke="rgb(253,253,253)" stroke-width="1" opacity="1" d="M 376 1010 L 378 1010.5 Q 376 1015 374 1011.5 L 376 1011.5 L 376 1010 Z " /><path fill="rgb(253,253,253)" stroke="rgb(253,253,253)" stroke-width="1" opacity="1" d="M 304.5 1011 L 307 1012.5 L 307 1014.5 L 306.5 1016 L 304 1015.5 L 305 1012.5 L 304.5 1011 Z " /><path fill="rgb(253,253,253)" stroke="rgb(253,253,253)" stroke-width="1" opacity="1" d="M 337.5 1011 Q 341.3 1009.8 340 1013.5 L 337.5 1011 Z " /><path fill="rgb(253,253,253)" stroke="rgb(253,253,253)" stroke-width="1" opacity="1" d="M 368.5 1012 L 370 1013.5 L 368.5 1017 L 368.5 1012 Z " /><path fill="rgb(253,253,253)" stroke="rgb(253,253,253)" stroke-width="1" opacity="1" d="M 371.5 1014 L 372.5 1016 L 371.5 1014 Z " /><path fill="rgb(253,253,253)" stroke="rgb(253,253,253)" stroke-width="1" opacity="1" d="M 347.5 1016 Q 354.5 1014.5 354 1017.5 L 354.5 1019 L 351.5 1017 L 349.5 1018 L 347.5 1016 Z " /><path fill="rgb(253,253,253)" stroke="rgb(253,253,253)" stroke-width="1" opacity="1" d="M 358 1016 L 360 1016.5 L 357 1018.5 L 358 1016 Z " /><path fill="rgb(253,253,253)" stroke="rgb(253,253,253)" stroke-width="1" opacity="1" d="M 365.5 1016 L 367.5 1019 L 365.5 1016 Z " /><path fill="rgb(253,253,253)" stroke="rgb(253,253,253)" stroke-width="1" opacity="1" d="M 399.5 1016 L 400 1017.5 L 399.5 1020 Q 397.3 1020.8 398 1018.5 L 399.5 1016 Z " /><path fill="rgb(253,253,253)" stroke="rgb(253,253,253)" stroke-width="1" opacity="1" d="M 304.5 1017 L 306.5 1017 L 310 1018.5 L 304.5 1022 L 304 1020.5 L 305 1018.5 L 304.5 1017 Z " /><path fill="rgb(253,253,253)" stroke="rgb(253,253,253)" stroke-width="1" opacity="1" d="M 362.5 1018 L 365 1018.5 L 364.5 1021 L 362.5 1018 Z " /><path fill="rgb(253,253,253)" stroke="rgb(253,253,253)" stroke-width="1" opacity="1" d="M 352.5 1019 L 353.5 1021 L 351.5 1022 L 349 1020.5 L 352.5 1019 Z " /><path fill="rgb(253,253,253)" stroke="rgb(253,253,253)" stroke-width="1" opacity="1" d="M 359.5 1019 L 360 1021 L 358 1020.5 L 359.5 1019 Z " /><path fill="rgb(253,253,253)" stroke="rgb(253,253,253)" stroke-width="1" opacity="1" d="M 311 1020 L 314 1021.5 L 309 1023.5 L 308.5 1022 L 307 1022.5 Q 306.3 1020.3 308.5 1021 L 311 1022 L 311 1020 Z " /><path fill="rgb(253,253,253)" stroke="rgb(253,253,253)" stroke-width="1" opacity="1" d="M 397.5 1021 L 398.5 1023 L 397.5 1021 Z " /><path fill="rgb(253,253,253)" stroke="rgb(253,253,253)" stroke-width="1" opacity="1" d="M 186.5 1024 L 188 1034.5 L 187 1034.5 L 186.5 1024 Z " /><path fill="rgb(253,253,253)" stroke="rgb(253,253,253)" stroke-width="1" opacity="1" d="M 288 1024 L 295.5 1024 L 296 1026 L 288.5 1026 L 288 1024 Z " /><path fill="rgb(253,253,253)" stroke="rgb(253,253,253)" stroke-width="1" opacity="1" d="M 393.5 1025 L 392.5 1028 L 395 1029.5 Q 396 1033.3 393 1032 L 391 1027.5 L 393.5 1025 Z " /><path fill="rgb(253,253,253)" stroke="rgb(253,253,253)" stroke-width="1" opacity="1" d="M 396.5 1025 L 398 1028 Q 394.5 1029.1 396.5 1025 Z " /><path fill="rgb(253,253,253)" stroke="rgb(253,253,253)" stroke-width="1" opacity="1" d="M 313.5 1026 L 315.5 1026 L 317 1026.5 L 314.5 1028 L 313.5 1026 Z " /><path fill="rgb(253,253,253)" stroke="rgb(253,253,253)" stroke-width="1" opacity="1" d="M 208 1032 L 210 1032.5 L 210 1040 L 208 1039.5 L 208 1032 Z " /><path fill="rgb(253,253,253)" stroke="rgb(253,253,253)" stroke-width="1" opacity="1" d="M 265.5 1032 L 266 1039.5 L 265 1039.5 L 265.5 1032 Z " /><path fill="rgb(253,253,253)" stroke="rgb(253,253,253)" stroke-width="1" opacity="1" d="M 191.5 1035 L 190.5 1037 L 191.5 1035 Z " /><path fill="rgb(253,253,253)" stroke="rgb(253,253,253)" stroke-width="1" opacity="1" d="M 161.5 1036 Q 163.8 1035.3 163 1037.5 Q 165.3 1038.7 162.5 1040 L 161.5 1036 Z " /><path fill="rgb(253,253,253)" stroke="rgb(253,253,253)" stroke-width="1" opacity="1" d="M 379.5 1036 L 382 1036.5 L 379.5 1037 L 379.5 1036 Z " /><path fill="rgb(253,253,253)" stroke="rgb(253,253,253)" stroke-width="1" opacity="1" d="M 187.5 1037 L 191 1038 L 190.5 1040 L 187.5 1039 L 184.5 1040 L 183.5 1039 L 168.5 1039 L 166.5 1040 L 166.5 1039 L 168.5 1038 L 183.5 1038 L 187 1039 L 187.5 1037 Z " /><path fill="rgb(253,253,253)" stroke="rgb(253,253,253)" stroke-width="1" opacity="1" d="M 330.5 1037 L 331 1039 L 328.5 1040 L 330.5 1037 Z " /><path fill="rgb(253,253,253)" stroke="rgb(253,253,253)" stroke-width="1" opacity="1" d="M 334.5 1037 L 336 1039.5 L 334.5 1039 L 333 1038.5 L 334.5 1037 Z " /><path fill="rgb(253,253,253)" stroke="rgb(253,253,253)" stroke-width="1" opacity="1" d="M 337.5 1037 L 339.5 1038 L 341 1037.5 L 341.5 1039 L 344.5 1038 L 344.5 1039 L 341.5 1040 L 339.5 1039 L 337.5 1040 L 337.5 1037 Z " /><path fill="rgb(253,253,253)" stroke="rgb(253,253,253)" stroke-width="1" opacity="1" d="M 371.5 1037 L 373.5 1040 L 371.5 1037 Z " /><path fill="rgb(253,253,253)" stroke="rgb(253,253,253)" stroke-width="1" opacity="1" d="M 376.5 1037 L 380 1038.5 L 376.5 1040 L 376.5 1037 Z " /><path fill="rgb(253,253,253)" stroke="rgb(253,253,253)" stroke-width="1" opacity="1" d="M 364.5 1039 L 368 1039.5 L 364.5 1040 L 364.5 1039 Z " /><path fill="rgb(253,253,253)" stroke="rgb(253,253,253)" stroke-width="1" opacity="1" d="M 464 1040 L 466 1040.5 L 466 1048 L 464 1047.5 L 464 1040 Z " /><path fill="rgb(253,253,253)" stroke="rgb(253,253,253)" stroke-width="1" opacity="1" d="M 265.5 1048 L 266 1055.5 L 265 1056.5 L 264.5 1080 L 264 1056.5 L 265.5 1048 Z " /><path fill="rgb(253,253,253)" stroke="rgb(253,253,253)" stroke-width="1" opacity="1" d="M 277.5 1048 L 278 1052.5 L 277 1052.5 L 277.5 1048 Z " /><path fill="rgb(253,253,253)" stroke="rgb(253,253,253)" stroke-width="1" opacity="1" d="M 392 1048 L 394 1048.5 L 394 1056 L 392 1055.5 L 392 1048 Z " /><path fill="rgb(253,253,253)" stroke="rgb(253,253,253)" stroke-width="1" opacity="1" d="M 488 1054 L 495.5 1054 L 496 1056 L 488.5 1056 L 488 1054 Z " /><path fill="rgb(253,253,253)" stroke="rgb(253,253,253)" stroke-width="1" opacity="1" d="M 176 1056 L 209.5 1056 L 210 1056.5 L 210 1064 L 208 1064 L 208 1071.5 L 207.5 1072 L 176 1072 L 176 1056 Z " /><path fill="rgb(253,253,253)" stroke="rgb(253,253,253)" stroke-width="1" opacity="1" d="M 277.5 1056 L 278 1059.5 L 277 1059.5 L 277.5 1056 Z " /><path fill="rgb(253,253,253)" stroke="rgb(253,253,253)" stroke-width="1" opacity="1" d="M 110 1064 L 112 1064.5 L 112 1072 L 110 1071.5 L 110 1064 Z " /><path fill="rgb(253,253,253)" stroke="rgb(253,253,253)" stroke-width="1" opacity="1" d="M 158 1064 L 160 1064.5 L 160 1072 L 158 1071.5 L 158 1064 Z " /><path fill="rgb(253,253,253)" stroke="rgb(253,253,253)" stroke-width="1" opacity="1" d="M 392 1064 L 394 1064.5 L 394 1080 L 392 1079.5 L 392 1064 Z " /><path fill="rgb(253,253,253)" stroke="rgb(253,253,253)" stroke-width="1" opacity="1" d="M 266.5 1072 L 267 1079.5 L 266 1079.5 L 266.5 1072 Z " /><path fill="rgb(253,253,253)" stroke="rgb(253,253,253)" stroke-width="1" opacity="1" d="M 96 1080 L 103.5 1080 L 104 1082 L 96.5 1082 L 96 1080 Z " /><path fill="rgb(253,253,253)" stroke="rgb(253,253,253)" stroke-width="1" opacity="1" d="M 136 1080 L 138 1080.5 L 138 1088 L 136 1087.5 L 136 1080 Z " /><path fill="rgb(253,253,253)" stroke="rgb(253,253,253)" stroke-width="1" opacity="1" d="M 144 1080 L 159.5 1080 L 160 1082 L 144.5 1082 L 144 1080 Z " /><path fill="rgb(253,253,253)" stroke="rgb(253,253,253)" stroke-width="1" opacity="1" d="M 216 1080 L 223.5 1080 L 224 1082 L 216.5 1082 L 216 1080 Z " /><path fill="rgb(253,253,253)" stroke="rgb(253,253,253)" stroke-width="1" opacity="1" d="M 248 1080 L 255.5 1080 L 256 1082 L 248.5 1082 L 248 1080 Z " /><path fill="rgb(253,253,253)" stroke="rgb(253,253,253)" stroke-width="1" opacity="1" d="M 320 1080 L 325 1080 L 325 1081.5 L 320.5 1085 L 320 1080 Z " /><path fill="rgb(253,253,253)" stroke="rgb(253,253,253)" stroke-width="1" opacity="1" d="M 336 1080 L 359.5 1080 L 360 1082 L 336.5 1082 L 336 1080 Z " /><path fill="rgb(253,253,253)" stroke="rgb(253,253,253)" stroke-width="1" opacity="1" d="M 368 1080 L 375.5 1080 L 376 1082 L 368.5 1082 L 368 1080 Z " /><path fill="rgb(253,253,253)" stroke="rgb(253,253,253)" stroke-width="1" opacity="1" d="M 400 1080 L 415.5 1080 L 416 1082 L 400.5 1082 L 400 1080 Z " /><path fill="rgb(253,253,253)" stroke="rgb(253,253,253)" stroke-width="1" opacity="1" d="M 472 1080 L 479.5 1080 L 480 1082 L 472.5 1082 L 472 1080 Z " /><path fill="rgb(253,253,253)" stroke="rgb(253,253,253)" stroke-width="1" opacity="1" d="M 264.5 1082 L 267 1082.5 L 264.5 1083 L 264.5 1082 Z " /><path fill="rgb(253,253,253)" stroke="rgb(253,253,253)" stroke-width="1" opacity="1" d="M 277.5 1082 L 280 1082.5 L 277.5 1083 L 277.5 1082 Z " /><path fill="rgb(253,253,253)" stroke="rgb(253,253,253)" stroke-width="1" opacity="1" d="M 266.5 1085 L 268 1085.5 L 266 1086 L 265.5 1088 L 264.5 1086 L 266.5 1085 Z " /><path fill="rgb(253,253,253)" stroke="rgb(253,253,253)" stroke-width="1" opacity="1" d="M 274.5 1085 Q 278.3 1084.3 279 1086.5 L 277.5 1086 Q 273.5 1086.8 274.5 1085 Z " /><path fill="rgb(253,253,253)" stroke="rgb(253,253,253)" stroke-width="1" opacity="1" d="M 336 1088 L 338 1088.5 L 338 1096 L 336 1095.5 L 336 1088 Z " /><path fill="rgb(253,253,253)" stroke="rgb(253,253,253)" stroke-width="1" opacity="1" d="M 392 1088 L 394 1088.5 L 394 1096 L 392 1095.5 L 392 1088 Z " /><path fill="rgb(253,253,253)" stroke="rgb(253,253,253)" stroke-width="1" opacity="1" d="M 208 1104 L 210 1104.5 L 210 1112 L 208 1111.5 L 208 1104 Z " /><path fill="rgb(253,253,253)" stroke="rgb(253,253,253)" stroke-width="1" opacity="1" d="M 392 1104 L 394 1104.5 L 394 1128 L 392 1127.5 L 392 1104 Z " /><path fill="rgb(253,253,253)" stroke="rgb(253,253,253)" stroke-width="1" opacity="1" d="M 128 1112 L 135.5 1112 L 136 1114 L 128.5 1114 L 128 1112 Z " /><path fill="rgb(253,253,253)" stroke="rgb(253,253,253)" stroke-width="1" opacity="1" d="M 136 1120 L 138 1120.5 L 138 1128 L 136 1127.5 L 136 1120 Z " /><path fill="rgb(253,253,253)" stroke="rgb(253,253,253)" stroke-width="1" opacity="1" d="M 296 1120 L 298 1120.5 L 298 1128 L 296 1127.5 L 296 1120 Z " /><path fill="rgb(253,253,253)" stroke="rgb(253,253,253)" stroke-width="1" opacity="1" d="M 464 1120 L 466 1120.5 L 466 1128 L 464 1127.5 L 464 1120 Z " /><path fill="rgb(253,253,253)" stroke="rgb(253,253,253)" stroke-width="1" opacity="1" d="M 272 1128 L 274 1128.5 L 274 1144 L 272 1143.5 L 272 1128 Z " /><path fill="rgb(253,253,253)" stroke="rgb(253,253,253)" stroke-width="1" opacity="1" d="M 112 1136 L 114 1136.5 L 114 1144 L 112 1143.5 L 112 1136 Z " /><path fill="rgb(253,253,253)" stroke="rgb(253,253,253)" stroke-width="1" opacity="1" d="M 136 1136 L 138 1136.5 L 138 1144 L 136 1143.5 L 136 1136 Z " /><path fill="rgb(253,253,253)" stroke="rgb(253,253,253)" stroke-width="1" opacity="1" d="M 208 1136 L 210 1136.5 L 210 1144 L 208 1143.5 L 208 1136 Z " /><path fill="rgb(253,253,253)" stroke="rgb(253,253,253)" stroke-width="1" opacity="1" d="M 240 1136 L 242 1136.5 L 242 1144 L 240 1143.5 L 240 1136 Z " /><path fill="rgb(253,253,253)" stroke="rgb(253,253,253)" stroke-width="1" opacity="1" d="M 392 1136 L 394 1136.5 L 394 1144 L 392 1143.5 L 392 1136 Z " /><path fill="rgb(253,253,253)" stroke="rgb(253,253,253)" stroke-width="1" opacity="1" d="M 464 1136 L 466 1136.5 L 466 1144 L 464 1143.5 L 464 1136 Z " /><path fill="rgb(253,253,253)" stroke="rgb(253,253,253)" stroke-width="1" opacity="1" d="M 136 1152 L 138 1152.5 L 138 1160 L 136 1159.5 L 136 1152 Z " /><path fill="rgb(253,253,253)" stroke="rgb(253,253,253)" stroke-width="1" opacity="1" d="M 304 1152 L 311.5 1152 L 312 1154 L 304.5 1154 L 304 1152 Z " /><path fill="rgb(253,253,253)" stroke="rgb(253,253,253)" stroke-width="1" opacity="1" d="M 392 1152 L 394 1152.5 L 394 1160 L 392 1159.5 L 392 1152 Z " /><path fill="rgb(253,253,253)" stroke="rgb(253,253,253)" stroke-width="1" opacity="1" d="M 110 1160 L 112 1160.5 L 112 1168 L 110 1167.5 L 110 1160 Z " /><path fill="rgb(253,253,253)" stroke="rgb(253,253,253)" stroke-width="1" opacity="1" d="M 266.5 1168 Q 269.5 1169.5 266.5 1171 L 266.5 1168 Z " /><path fill="rgb(253,253,253)" stroke="rgb(253,253,253)" stroke-width="1" opacity="1" d="M 301.5 1168 L 302.5 1170 L 301.5 1168 Z " /><path fill="rgb(253,253,253)" stroke="rgb(253,253,253)" stroke-width="1" opacity="1" d="M 269.5 1170 L 270 1172.5 L 269 1172.5 L 269.5 1170 Z " /><path fill="rgb(253,253,253)" stroke="rgb(253,253,253)" stroke-width="1" opacity="1" d="M 264.5 1172 L 265.5 1174 L 264.5 1172 Z " /><path fill="rgb(253,253,253)" stroke="rgb(253,253,253)" stroke-width="1" opacity="1" d="M 302.5 1173 Q 305.5 1174.5 302.5 1176 L 302.5 1173 Z " /><path fill="rgb(253,253,253)" stroke="rgb(253,253,253)" stroke-width="1" opacity="1" d="M 268.5 1174 L 269.5 1176 L 267 1175.5 L 268.5 1174 Z " /><path fill="rgb(254,255,254)" stroke="rgb(254,255,254)" stroke-width="1" opacity="1" d="M 112 832 L 128 832 L 128 848 L 112 848 L 112 864 L 96 864 L 96 848 L 112 848 L 112 832 Z " /><path fill="rgb(254,255,254)" stroke="rgb(254,255,254)" stroke-width="1" opacity="1" d="M 398 832 L 400 832.5 L 400 840 L 408 840 L 408 848 L 400 848 L 400 840.5 L 398 839.5 L 398 832 Z " /><path fill="rgb(254,255,254)" stroke="rgb(254,255,254)" stroke-width="1" opacity="1" d="M 80 840 L 88 840 L 88 848 L 80 848 L 80 840 Z " /><path fill="rgb(254,255,254)" stroke="rgb(254,255,254)" stroke-width="1" opacity="1" d="M 328 856 L 330 856.5 L 330 864 L 328 863.5 L 328 856 Z " /><path fill="rgb(254,255,254)" stroke="rgb(254,255,254)" stroke-width="1" opacity="1" d="M 408 856 L 416 856 L 416 864 L 408 864 L 408 856 Z " /><path fill="rgb(254,255,254)" stroke="rgb(254,255,254)" stroke-width="1" opacity="1" d="M 128 864 L 144 864 L 144 880 L 128 880 L 128 864 Z " /><path fill="rgb(254,255,254)" stroke="rgb(254,255,254)" stroke-width="1" opacity="1" d="M 398 864 L 400 864.5 L 400 888 L 398 887.5 L 398 864 Z " /><path fill="rgb(254,255,254)" stroke="rgb(254,255,254)" stroke-width="1" opacity="1" d="M 96 880 L 112 880 L 112 896 L 106 896 L 106 903.5 L 104 904.5 L 104 912 L 96 912 L 96 880 Z " /><path fill="rgb(254,255,254)" stroke="rgb(254,255,254)" stroke-width="1" opacity="1" d="M 142 896 L 144 896.5 L 144 904 L 142 903.5 L 142 896 Z " /><path fill="rgb(254,255,254)" stroke="rgb(254,255,254)" stroke-width="1" opacity="1" d="M 398 904 L 400 904.5 L 400 920 L 416 920 L 416 928 L 408 928 L 408 936 L 416 936 L 416 959.5 L 416.5 960 L 424 960 L 424 968 L 416 968 L 416 992 L 424 992 L 424 1008 L 416 1008 L 416 1024 L 464 1024 L 464 1040 L 424 1040 L 424 1048 L 416 1048 L 416 1056 L 408 1056 L 408 1064 L 416 1064 L 416 1080 L 398 1080 L 398 1064 L 400 1063.5 L 400 1056 L 398 1055.5 L 398 1048 L 395 1048 L 395 1040 L 392 1040 L 392 1047.5 L 391.5 1048 L 368.5 1048 L 368 1053 L 360 1053 L 359.5 1056 L 336 1056 L 336 1048 L 328 1048 L 328 1056 L 320 1056 L 320 1048 L 304 1048 L 304 1040 L 312 1040 L 312 1032.5 L 312 1030.5 Q 313.5 1023.5 310.5 1024 L 310.5 1023 L 314 1021.5 L 311 1020 Q 312.1 1022.7 309.5 1022 L 307 1021 Q 305.9 1023.7 308.5 1023 L 308.5 1024 L 304 1022.5 L 308.5 1019 L 310.5 1020 L 309.5 1018 Q 307.3 1018.8 308 1016.5 L 305 1018.5 L 304.5 1020 L 304 1018.5 L 305 1015.5 L 304 1012.5 L 304 1010.5 L 305.5 1007 L 307 1009.5 L 305 1014.5 L 307 1015.5 L 306 1013.5 L 307.5 1011 L 310 1016.5 L 319.5 1027 Q 321.8 1026.3 321 1028.5 L 319 1028.5 Q 318.1 1031.5 322.5 1030 L 326.5 1032 L 330 1033.5 L 329.5 1035 L 331.5 1034 L 337 1036.5 L 333 1038.5 L 334.5 1039 L 339.5 1037 L 339.5 1038 L 337 1039.5 L 338.5 1040 L 341.5 1038 L 341.5 1040 L 350.5 1039 L 352.5 1040 L 353.5 1039 L 363.5 1039 L 367.5 1040 L 367.5 1039 L 366 1038.5 L 367.5 1038 L 369.5 1039 L 380.5 1034 L 382.5 1035 L 383.5 1032 L 391.5 1026 Q 392.8 1028.3 394 1025.5 Q 394.7 1019.7 398.5 1017 L 400 1017.5 L 399 1015.5 L 401.5 1012 L 402 1013.5 Q 399.8 1014.7 402.5 1016 L 404.5 1012 L 406.5 1016 L 408 1012.5 L 406 1012.5 L 407 1008.5 L 406 1008.5 L 405.5 1010 L 404 1006.5 L 407 1002.5 L 404 1003.5 L 405 1001 L 408 1000.5 L 405 999.5 Q 404 995.8 407 997 L 407.5 999 L 408 996.5 L 407.5 994 L 406 994 L 405.5 992 L 400 992 L 400 984.5 L 398 983.5 L 398 976 Q 401 977.3 400 973.5 L 395 969.5 L 394.5 968 L 384 968 L 384 960.5 L 384.5 958 L 390.5 959 L 392.5 959 L 404 958 L 404.5 960 L 406.5 957 L 407.5 959 L 408 956 Q 405 957 406 954 Q 408.7 955.1 408 952.5 L 406 952.5 L 404 948.5 L 405 945 L 403 944.5 L 407 941.5 L 408 939.5 L 406 939 L 404.5 942 L 403 941.5 L 402.5 943 L 401.5 941 L 403 940.5 L 401.5 937 L 400.5 940 Q 397.3 938.8 398 935 L 394 932.5 L 396 932.5 Q 396.8 930.3 394.5 931 L 393.5 928 L 392 928.5 L 392.5 930 L 389 927.5 L 392 923.5 L 389.5 925 L 385.5 923 L 383 924 L 383.5 922 L 385 922.5 L 385.5 920 L 387.5 920 L 395 920 L 395 912.5 L 398 912 L 398 904 Z M 388 921 L 387 923 L 390 922 L 391 923 Q 392 919 388 921 Z M 400 935 L 399 938 L 400 938 L 400 935 Z M 404 936 Q 401 941 406 939 L 406 936 L 405 938 L 404 936 Z M 406 945 L 407 949 L 406 948 L 405 950 Q 407 953 408 950 Q 410 944 406 945 Z M 399 1018 L 398 1020 L 400 1021 L 399 1018 Z M 398 1020 Q 395 1022 398 1023 L 399 1023 L 398 1020 Z M 315 1022 Q 312 1024 315 1025 L 316 1025 L 315 1022 Z M 397 1024 L 395 1027 Q 394 1029 397 1028 L 398 1029 Q 399 1025 397 1024 Z M 314 1025 L 313 1027 Q 314 1029 316 1027 Q 318 1028 317 1026 L 316 1026 L 314 1025 Z M 318 1027 L 317 1029 L 319 1028 L 318 1027 Z M 392 1027 Q 390 1030 394 1032 L 395 1032 L 395 1028 L 392 1027 Z M 314 1028 L 313 1030 L 317 1032 L 314 1028 Z M 399 1029 L 397 1031 Q 396 1033 399 1032 L 399 1029 Z M 408 1032 L 408 1040 L 416 1040 L 416 1032 L 408 1032 Z M 332 1035 L 328 1037 L 330 1037 L 330 1039 L 334 1037 L 332 1035 Z M 380 1036 L 380 1037 L 384 1037 L 380 1036 Z M 375 1037 L 375 1038 L 377 1038 L 375 1037 Z M 378 1038 L 378 1039 L 380 1039 L 378 1038 Z " /><path fill="rgb(254,255,254)" stroke="rgb(254,255,254)" stroke-width="1" opacity="1" d="M 370.5 912 L 373 912.5 L 370.5 913 L 370.5 912 Z " /><path fill="rgb(254,255,254)" stroke="rgb(254,255,254)" stroke-width="1" opacity="1" d="M 378 912 L 384 912 L 384 920 L 379.5 922 L 377 920.5 L 378 919.5 L 378 912 Z " /><path fill="rgb(254,255,254)" stroke="rgb(254,255,254)" stroke-width="1" opacity="1" d="M 432 912 L 448 912 L 448 928 L 432 928 L 432 912 Z " /><path fill="rgb(254,255,254)" stroke="rgb(254,255,254)" stroke-width="1" opacity="1" d="M 96 920 L 104 920 L 104 928 L 96 928 L 96 920 Z " /><path fill="rgb(254,255,254)" stroke="rgb(254,255,254)" stroke-width="1" opacity="1" d="M 246.5 926 L 247 935.5 L 246 935.5 L 246.5 926 Z " /><path fill="rgb(254,255,254)" stroke="rgb(254,255,254)" stroke-width="1" opacity="1" d="M 350.5 935 L 359.5 935 L 360 936.5 L 361.5 936 L 364.5 938 L 364.5 936 Q 367.1 935.3 366 938 L 368.5 938 L 368.5 939 L 365.5 938 L 365 940 L 371.5 939 L 371.5 940 L 370 940.5 L 374 941 L 374.5 943 Q 376.2 940.2 378 944.5 L 377 946.5 L 380 947.5 L 379 950.5 L 382 951.5 L 384 956.5 L 382 955.5 L 381.5 954 L 379 955 L 377.5 960 Q 375.3 958.3 376 953.5 L 377 953.5 L 377.5 958 L 378.5 953 L 380 953.5 L 376 945.5 Q 378.3 944.3 375.5 943 Q 374 945.5 372.5 942 L 371 942.5 L 371.5 944 L 369.5 943 Q 368.3 945.2 363.5 944 L 361.5 944 L 347.5 944 L 345.5 943 L 344 944.5 L 344 952 L 336.5 952 L 336 952.5 L 336 975.5 L 333 976.5 L 333 1001.5 L 334 1001.5 L 334.5 1000 L 336 1005.5 L 335 1005.5 Q 336.3 1001.8 332.5 1003 L 330 1004 L 329.5 1006 L 327 1002.5 L 328 999 L 325 997.5 L 325.5 996 L 327.5 997 L 326 994.5 L 325.5 993 L 324.5 995 L 324 993.5 L 324 991.5 L 323 988.5 L 324 985 Q 326.7 983.9 326 986.5 L 328 987.5 L 327 984.5 L 328 982.5 L 327 979.5 L 328 976.5 L 326.5 973 L 325 975.5 L 326 976.5 L 326 984 L 324 983.5 Q 326.5 982 325 976.5 L 324 976.5 L 322.5 985 L 322 977.5 L 322.5 975 Q 324.8 975.8 324 973.5 L 323 969.5 L 323 967.5 L 323.5 965 L 324.5 968 L 325 964.5 L 324 962.5 L 326 959.5 L 325.5 958 L 328 959.5 L 326 956.5 Q 329.2 947.2 336.5 942 Q 338.8 942.8 338 940.5 L 341.5 938 L 341.5 940 L 344.5 938 L 346.5 936 L 349 937.5 L 350.5 935 Z M 349 938 L 349 940 L 352 942 L 351 940 Q 352 937 349 938 Z M 362 938 Q 360 941 364 942 Q 366 943 365 940 L 362 938 Z M 346 939 L 346 940 L 348 940 L 346 939 Z M 349 941 L 347 943 L 349 943 L 349 941 Z M 366 942 L 366 943 L 368 943 L 366 942 Z M 327 966 L 326 971 L 327 971 L 327 966 Z M 325 970 L 324 973 L 325 973 L 325 970 Z M 326 987 L 326 993 L 328 994 L 326 987 Z M 332 1000 L 329 1001 L 330 1004 L 330 1003 L 332 1003 L 332 1000 Z " /><path fill="rgb(254,255,254)" stroke="rgb(254,255,254)" stroke-width="1" opacity="1" d="M 128 944 L 144 944 L 144 960 L 160 960 L 160 976 L 128 976 L 128 944 Z " /><path fill="rgb(254,255,254)" stroke="rgb(254,255,254)" stroke-width="1" opacity="1" d="M 432 944 L 464 944 L 464 967.5 L 466 968 L 466 960 L 480 960 L 480 944 L 496 944 L 496 976 L 432 976 L 432 944 Z " /><path fill="rgb(254,255,254)" stroke="rgb(254,255,254)" stroke-width="1" opacity="1" d="M 264.5 949 L 266 951.5 L 265 951.5 L 264.5 949 Z " /><path fill="rgb(254,255,254)" stroke="rgb(254,255,254)" stroke-width="1" opacity="1" d="M 298.5 952 L 299 954.5 L 297.5 957 L 297 954.5 L 298.5 952 Z " /><path fill="rgb(254,255,254)" stroke="rgb(254,255,254)" stroke-width="1" opacity="1" d="M 301.5 952 Q 304.8 953.8 301 955.5 L 301.5 958 L 303.5 955 L 304 956.5 L 302 959.5 L 302.5 961 L 300.5 958 L 299 958.5 L 301.5 952 Z " /><path fill="rgb(254,255,254)" stroke="rgb(254,255,254)" stroke-width="1" opacity="1" d="M 287.5 954 L 288 956.5 L 287 956.5 L 287.5 954 Z " /><path fill="rgb(254,255,254)" stroke="rgb(254,255,254)" stroke-width="1" opacity="1" d="M 380.5 957 L 383 958.5 L 382.5 960 L 380.5 957 Z " /><path fill="rgb(254,255,254)" stroke="rgb(254,255,254)" stroke-width="1" opacity="1" d="M 287.5 958 L 288 967.5 L 289 968.5 L 287 967.5 L 287.5 958 Z " /><path fill="rgb(254,255,254)" stroke="rgb(254,255,254)" stroke-width="1" opacity="1" d="M 297.5 958 L 298 961 L 302 962.5 L 300.5 968 L 300 965.5 L 301 962.5 L 299.5 963 L 296 960.5 L 297.5 958 Z " /><path fill="rgb(254,255,254)" stroke="rgb(254,255,254)" stroke-width="1" opacity="1" d="M 352 960 L 368 960 L 368 976 L 352 976 L 352 960 Z " /><path fill="rgb(254,255,254)" stroke="rgb(254,255,254)" stroke-width="1" opacity="1" d="M 298.5 964 L 299 967.5 L 298 967.5 L 298.5 964 Z " /><path fill="rgb(254,255,254)" stroke="rgb(254,255,254)" stroke-width="1" opacity="1" d="M 293.5 968 Q 296.5 967.5 295 974.5 L 296 974.5 L 296.5 971 L 297 975.5 L 296 978 L 298 978 Q 296.3 972.8 300 974 L 298.5 982 L 297.5 979 L 296.5 981 L 295 980.5 L 294.5 987 L 294 980.5 L 295 975.5 L 293.5 968 Z " /><path fill="rgb(254,255,254)" stroke="rgb(254,255,254)" stroke-width="1" opacity="1" d="M 296.5 982 L 297.5 984 L 299.5 983 Q 301.8 983.8 301 987.5 L 299 994.5 L 300 1000 L 297 999.5 L 299 999 L 298.5 995 L 297.5 997 L 296 996.5 L 295 1003.5 L 296 1004.5 L 292.5 1008 L 292 1006 Q 296 1007.4 294 1000.5 L 292.5 1001 L 288 1003 L 289 1005.5 L 288.5 1007 Q 290.8 1007.8 290 1005.5 L 292.5 1002 L 293 1003.5 Q 290.3 1004.6 291 1008 L 288 1008.5 L 288 1029 L 295.5 1029 L 296 1029.5 L 296 1088 L 288 1088 L 288 1096 L 272 1096 L 272 1136 L 256 1136 L 256 1088.5 L 255.5 1088 L 248 1088 L 248 1085 L 256 1085 L 256.5 1088 L 263.5 1088 L 266 1087.5 Q 266.8 1085.3 264.5 1086 L 264.5 1083 L 272 1084 L 272.5 1086 L 273 1084 L 280 1082.5 L 277 1080.5 L 279 1080 L 279 1072.5 L 277 1071.5 L 277 1062.5 Q 279.3 1061.3 278 1056.5 L 278 1054.5 L 278.5 1008 L 279.5 1016 L 280 1008.5 L 281.5 1007 L 287.5 1008 L 287.5 1007 L 284 1005.5 L 290 1002 Q 288.8 999 292.5 1000 L 292 998.5 Q 291 994.8 294 996 L 294.5 1000 L 296 995.5 L 293 991.5 L 295 991 Q 293.8 994 297.5 993 L 298 990.5 L 300 984 Q 297 982.8 298 986.5 L 295.5 990 L 295 988.5 L 297 984.5 L 296.5 982 Z M 280 1029 L 279 1032 L 280 1032 L 280 1029 Z M 280 1040 L 279 1048 L 280 1048 L 280 1040 Z M 280 1052 L 279 1056 L 280 1056 L 280 1052 Z M 267 1084 L 268 1088 L 268 1086 L 270 1086 L 267 1084 Z M 278 1084 L 274 1086 L 278 1086 L 278 1084 Z M 274 1086 Q 272 1089 275 1088 L 274 1086 Z " /><path fill="rgb(254,255,254)" stroke="rgb(254,255,254)" stroke-width="1" opacity="1" d="M 112 992 L 128 992 L 128 1008 L 112 1008 L 112 992 Z " /><path fill="rgb(254,255,254)" stroke="rgb(254,255,254)" stroke-width="1" opacity="1" d="M 144 992 L 160 992 L 160 1008 L 144 1008 L 144 992 Z " /><path fill="rgb(254,255,254)" stroke="rgb(254,255,254)" stroke-width="1" opacity="1" d="M 352 992 L 368 992 L 368 1000 L 360 1000 L 360 1008 L 369 1008.5 L 368 1010.5 L 372 1008.5 Q 371.1 1011.5 375.5 1010 L 375.5 1009 L 373 1008.5 L 376.5 1008 L 378 1008.5 Q 378.8 1006.3 376.5 1007 L 378 1004.5 L 377.5 1003 L 376 1003.5 L 376.5 999 L 378.5 1003 Q 381.1 1003.7 380 1001 Q 376.7 1002.3 378 997.5 L 380 996.5 L 379 999.5 L 381 1000.5 Q 380.3 996.8 382.5 996 L 384 996.5 L 382 999.5 L 383 1001.5 L 381 1001.5 L 382 1003.5 L 380 1003.5 L 381 1005.5 L 379.5 1005 L 378 1005.5 L 379 1008.5 L 376 1010 L 377 1012.5 L 374 1014 L 372.5 1017 L 368.5 1019 Q 367 1015.5 365.5 1018 Q 362.4 1023.4 352.5 1022 L 352.5 1021 L 359.5 1021 L 363 1019 L 362.5 1017 L 358.5 1020 L 353.5 1020 L 351.5 1020 L 347.5 1021 L 341.5 1017 L 339.5 1017 Q 336.5 1017.7 338 1014 L 335.5 1014 Q 337.2 1012 333.5 1010 Q 331.3 1010.8 332 1008.5 L 330 1008.5 L 333.5 1004 L 334 1006.5 L 333 1008.5 L 335.5 1007 L 337.5 1009 L 339.5 1008 L 352 1008 L 352 992 Z M 341 1009 Q 340 1012 343 1011 Q 344 1008 341 1009 Z M 370 1010 Q 369 1013 372 1012 Q 373 1009 370 1010 Z M 338 1011 L 340 1014 Q 341 1010 338 1011 Z M 375 1011 L 373 1013 L 376 1013 L 375 1011 Z M 369 1012 L 368 1015 L 370 1016 L 369 1012 Z M 373 1013 L 371 1015 L 373 1016 L 373 1013 Z M 348 1016 L 348 1017 Q 350 1016 349 1019 L 352 1019 L 352 1017 L 354 1018 Q 355 1015 348 1016 Z M 358 1016 L 358 1018 L 362 1017 L 358 1016 Z M 364 1016 L 364 1017 L 366 1017 L 364 1016 Z M 355 1018 L 355 1019 L 358 1019 L 355 1018 Z " /><path fill="rgb(254,255,254)" stroke="rgb(254,255,254)" stroke-width="1" opacity="1" d="M 377 992 L 379 992.5 L 376.5 997 L 376 994.5 L 377 992 Z " /><path fill="rgb(254,255,254)" stroke="rgb(254,255,254)" stroke-width="1" opacity="1" d="M 380 992 Q 383.3 990.9 382 995 Q 378.7 996.1 380 992 Z " /><path fill="rgb(254,255,254)" stroke="rgb(254,255,254)" stroke-width="1" opacity="1" d="M 383 992 L 385 992.5 L 383 993.5 L 383 992 Z " /><path fill="rgb(254,255,254)" stroke="rgb(254,255,254)" stroke-width="1" opacity="1" d="M 448 992 L 496 992 L 496 1008 L 448 1008 L 448 992 Z " /><path fill="rgb(254,255,254)" stroke="rgb(254,255,254)" stroke-width="1" opacity="1" d="M 301.5 995 L 302 998.5 L 301 998.5 L 301.5 995 Z " /><path fill="rgb(254,255,254)" stroke="rgb(254,255,254)" stroke-width="1" opacity="1" d="M 80 1000 L 88 1000 L 88 1008 L 80 1008 L 80 1000 Z " /><path fill="rgb(254,255,254)" stroke="rgb(254,255,254)" stroke-width="1" opacity="1" d="M 266.5 1008 L 267 1011.5 L 266 1011.5 L 266.5 1008 Z " /><path fill="rgb(254,255,254)" stroke="rgb(254,255,254)" stroke-width="1" opacity="1" d="M 402 1009 Q 405 1008 404 1011 Q 401 1012 402 1009 Z " /><path fill="rgb(254,255,254)" stroke="rgb(254,255,254)" stroke-width="1" opacity="1" d="M 214 1032 L 216 1032.5 L 216 1048 L 211 1048 L 211 1040 L 214 1040 L 214 1032 Z " /><path fill="rgb(254,255,254)" stroke="rgb(254,255,254)" stroke-width="1" opacity="1" d="M 115 1040 L 120 1040 L 120 1048 L 115 1048 L 115 1040 Z " /><path fill="rgb(254,255,254)" stroke="rgb(254,255,254)" stroke-width="1" opacity="1" d="M 470 1040 L 472 1040.5 L 472 1048 L 470 1047.5 L 470 1040 Z " /><path fill="rgb(254,255,254)" stroke="rgb(254,255,254)" stroke-width="1" opacity="1" d="M 214 1056 L 216 1056.5 L 216 1064 L 214 1063.5 L 214 1056 Z " /><path fill="rgb(254,255,254)" stroke="rgb(254,255,254)" stroke-width="1" opacity="1" d="M 224 1056 L 240 1056 L 240 1072 L 224 1072 L 224 1056 Z " /><path fill="rgb(254,255,254)" stroke="rgb(254,255,254)" stroke-width="1" opacity="1" d="M 96 1064 L 106 1064 L 106 1072 L 96 1072 L 96 1064 Z " /><path fill="rgb(254,255,254)" stroke="rgb(254,255,254)" stroke-width="1" opacity="1" d="M 144 1064 L 154 1064 L 154 1072 L 160 1072 L 160 1080 L 152 1080 L 152 1072 L 144 1072 L 144 1064 Z " /><path fill="rgb(254,255,254)" stroke="rgb(254,255,254)" stroke-width="1" opacity="1" d="M 142 1080 L 144 1080 L 144 1085 L 159.5 1085 L 160.5 1088 L 208 1088 L 208 1104 L 160 1104 L 160 1112 L 152 1112 L 152 1120 L 144 1120 L 144 1128 L 160 1128 L 160 1136 L 144 1136 L 144 1143.5 L 142 1144 L 142 1136.5 L 139 1136 L 139 1128 L 142 1128 L 142 1120.5 L 144 1119.5 L 144 1104 L 160 1104 L 160 1088 L 142 1088 L 142 1080 Z " /><path fill="rgb(254,255,254)" stroke="rgb(254,255,254)" stroke-width="1" opacity="1" d="M 327.5 1083 L 328 1088 L 323 1088 L 323 1086.5 L 327.5 1083 Z " /><path fill="rgb(254,255,254)" stroke="rgb(254,255,254)" stroke-width="1" opacity="1" d="M 96 1085 L 104 1085 L 104 1088 L 96 1088 L 96 1085 Z " /><path fill="rgb(254,255,254)" stroke="rgb(254,255,254)" stroke-width="1" opacity="1" d="M 216 1085 L 224 1085 L 224 1088 L 216 1088 L 216 1085 Z " /><path fill="rgb(254,255,254)" stroke="rgb(254,255,254)" stroke-width="1" opacity="1" d="M 336 1085 L 359.5 1085 L 360 1088 L 344 1088 L 344 1095.5 L 342 1096 L 342 1088 L 336 1088 L 336 1085 Z " /><path fill="rgb(254,255,254)" stroke="rgb(254,255,254)" stroke-width="1" opacity="1" d="M 368 1085 L 375.5 1085 L 376 1088 L 384 1088 L 384 1104 L 368 1104 L 368 1085 Z " /><path fill="rgb(254,255,254)" stroke="rgb(254,255,254)" stroke-width="1" opacity="1" d="M 400 1085 L 415.5 1085 L 416 1088 L 400 1088 L 400 1095.5 L 398 1096 L 398 1088.5 Q 401 1089.3 400 1085 Z " /><path fill="rgb(254,255,254)" stroke="rgb(254,255,254)" stroke-width="1" opacity="1" d="M 432 1088 L 464 1088 L 464 1104 L 448 1104 L 448 1120 L 432 1120 L 432 1088 Z " /><path fill="rgb(254,255,254)" stroke="rgb(254,255,254)" stroke-width="1" opacity="1" d="M 96 1104 L 109 1104 L 109 1112 L 104 1112 L 104 1120 L 96 1120 L 96 1104 Z " /><path fill="rgb(254,255,254)" stroke="rgb(254,255,254)" stroke-width="1" opacity="1" d="M 214 1104 L 216 1104.5 L 216 1112 L 214 1111.5 L 214 1104 Z " /><path fill="rgb(254,255,254)" stroke="rgb(254,255,254)" stroke-width="1" opacity="1" d="M 304 1104 L 328 1104 L 328 1120 L 320 1120 L 320 1112 L 312 1112 L 312 1120 L 304 1120 L 304 1127.5 L 302 1128 L 302 1120.5 L 304 1119.5 L 304 1104 Z " /><path fill="rgb(254,255,254)" stroke="rgb(254,255,254)" stroke-width="1" opacity="1" d="M 330 1104 L 334 1104 L 334 1112 L 330 1112 L 330 1104 Z " /><path fill="rgb(254,255,254)" stroke="rgb(254,255,254)" stroke-width="1" opacity="1" d="M 398 1104 L 416 1104 L 416 1112 L 408 1112 L 408 1120 L 400 1120 L 400 1128 L 416 1128 L 416 1136 L 408 1136 L 408 1144 L 416 1144 L 416 1152 L 408 1152 L 408 1160 L 398 1160 L 398 1152.5 L 395 1152 L 395 1144 L 398 1144 L 398 1136.5 L 400 1135.5 L 400 1128 L 398 1127.5 L 398 1104 Z " /><path fill="rgb(254,255,254)" stroke="rgb(254,255,254)" stroke-width="1" opacity="1" d="M 128 1117 L 136 1117 L 136 1120 L 128 1120 L 128 1117 Z " /><path fill="rgb(254,255,254)" stroke="rgb(254,255,254)" stroke-width="1" opacity="1" d="M 99 1128 L 109 1128 L 109 1136 L 104 1136 L 104 1144 L 112 1144 L 112 1152 L 104 1152 L 104 1160 L 106 1160.5 L 106 1168 L 96 1168 L 96 1160 L 99 1159.5 L 99 1144 L 96 1144 L 96 1136 L 99 1136 L 99 1128 Z " /><path fill="rgb(254,255,254)" stroke="rgb(254,255,254)" stroke-width="1" opacity="1" d="M 320 1128 L 328 1128 L 328 1136 L 320 1136 L 320 1128 Z " /><path fill="rgb(254,255,254)" stroke="rgb(254,255,254)" stroke-width="1" opacity="1" d="M 118 1136 L 120 1136.5 L 120 1144 L 118 1143.5 L 118 1136 Z " /><path fill="rgb(254,255,254)" stroke="rgb(254,255,254)" stroke-width="1" opacity="1" d="M 214 1136 L 216 1136.5 L 216 1144 L 214 1143.5 L 214 1136 Z " /><path fill="rgb(254,255,254)" stroke="rgb(254,255,254)" stroke-width="1" opacity="1" d="M 246 1136 L 248 1136.5 L 248 1144 L 246 1143.5 L 246 1136 Z " /><path fill="rgb(254,255,254)" stroke="rgb(254,255,254)" stroke-width="1" opacity="1" d="M 304 1144 L 312 1144 L 312 1152 L 304 1152 L 304 1144 Z " /><path fill="rgb(254,255,254)" stroke="rgb(254,255,254)" stroke-width="1" opacity="1" d="M 320 1144 L 333 1144 L 333 1152 L 320 1152 L 320 1144 Z " /><path fill="rgb(254,255,254)" stroke="rgb(254,255,254)" stroke-width="1" opacity="1" d="M 376 1144 L 384 1144 L 384 1152 L 376 1152 L 376 1144 Z " /><path fill="rgb(254,255,254)" stroke="rgb(254,255,254)" stroke-width="1" opacity="1" d="M 142 1152 L 144 1152.5 L 144 1160 L 142 1159.5 L 142 1152 Z " /><path fill="rgb(254,255,254)" stroke="rgb(254,255,254)" stroke-width="1" opacity="1" d="M 320 1160 L 328 1160 L 328 1168 L 320 1168 L 320 1160 Z " /><path fill="rgb(254,254,254)" stroke="rgb(254,254,254)" stroke-width="1" opacity="1" d="M 269.5 872 L 272 872.5 Q 269.9 875.8 269.5 872 Z " /><path fill="rgb(254,254,254)" stroke="rgb(254,254,254)" stroke-width="1" opacity="1" d="M 208 880 L 224 880 L 224 912 L 192 912 L 192 896 L 208 896 L 208 880 Z " /><path fill="rgb(254,254,254)" stroke="rgb(254,254,254)" stroke-width="1" opacity="1" d="M 242 896 L 246 896 L 246 903.5 L 248 904 L 248 896 L 256 896 L 256 911.5 L 258 912 L 258 896.5 L 262 896 L 262 911.5 L 265 912 L 265 919.5 L 264 920.5 L 264 928 L 256 928 L 256 920 L 240 920 L 240 904 L 242 903.5 L 242 896 Z " /><path fill="rgb(254,254,254)" stroke="rgb(254,254,254)" stroke-width="1" opacity="1" d="M 264.5 896 L 265 903.5 L 264 903.5 L 264.5 896 Z " /><path fill="rgb(254,254,254)" stroke="rgb(254,254,254)" stroke-width="1" opacity="1" d="M 266.5 896 L 267 903.5 L 266 903.5 L 266.5 896 Z " /><path fill="rgb(254,254,254)" stroke="rgb(254,254,254)" stroke-width="1" opacity="1" d="M 279.5 896 L 280 911.5 L 279 911.5 L 279.5 896 Z " /><path fill="rgb(254,254,254)" stroke="rgb(254,254,254)" stroke-width="1" opacity="1" d="M 338 896 L 342 896 L 342 903.5 L 344 904 L 344 896 L 352 896 L 352 912 L 336 912 L 336 904.5 L 338 903.5 L 338 896 Z " /><path fill="rgb(254,254,254)" stroke="rgb(254,254,254)" stroke-width="1" opacity="1" d="M 246.5 925 L 247.5 927 L 246.5 925 Z " /><path fill="rgb(254,254,254)" stroke="rgb(254,254,254)" stroke-width="1" opacity="1" d="M 279.5 928 L 280 935.5 L 279 935.5 L 279.5 928 Z " /><path fill="rgb(254,254,254)" stroke="rgb(254,254,254)" stroke-width="1" opacity="1" d="M 403.5 938 L 406 938.5 L 403.5 939 L 403.5 938 Z " /><path fill="rgb(254,254,254)" stroke="rgb(254,254,254)" stroke-width="1" opacity="1" d="M 401.5 940 L 404.5 942 L 406 941.5 Q 406.8 943.8 404.5 943 L 402.5 944 L 402.5 943 L 404 942.5 L 401.5 940 Z " /><path fill="rgb(254,254,254)" stroke="rgb(254,254,254)" stroke-width="1" opacity="1" d="M 256 944 L 264 944 L 264 952 L 257.5 952 L 257 953.5 L 258 955.5 L 257 955.5 L 256.5 954 L 256 960 L 200.5 960 L 200 959.5 L 200 952 L 255.5 952 L 256 950 L 200.5 950 L 200 947 L 255.5 947 L 256 944 Z " /><path fill="rgb(254,254,254)" stroke="rgb(254,254,254)" stroke-width="1" opacity="1" d="M 344 944 L 375.5 944 L 376 946.5 L 376 948.5 L 376 960 L 384 960 L 384 968 L 394.5 968 L 395 969.5 L 400 973.5 L 400 976 L 398 976.5 L 398 984 L 400 984.5 L 400 992 L 376.5 992 Q 375.5 992 376 996.5 L 377 998.5 L 376 999.5 L 376 1008 L 368 1008 L 368 992 L 352 992 L 352 1008 L 336 1008 L 336 1000 L 333 999.5 L 333 976 L 336 975.5 L 336 952 L 344 952 L 344 944 Z M 352 960 L 352 976 L 368 976 L 368 960 L 352 960 Z M 393 971 L 392 984 L 394 984 L 394 976 Q 398 977 397 975 L 393 971 Z " /><path fill="rgb(254,254,254)" stroke="rgb(254,254,254)" stroke-width="1" opacity="1" d="M 279.5 948 L 278.5 950 L 279.5 948 Z " /><path fill="rgb(254,254,254)" stroke="rgb(254,254,254)" stroke-width="1" opacity="1" d="M 272.5 949 L 274 952.5 L 273 952.5 Q 273.8 950.3 271.5 951 L 272.5 949 Z " /><path fill="rgb(254,254,254)" stroke="rgb(254,254,254)" stroke-width="1" opacity="1" d="M 194 952 L 198 952 L 198 960 L 194 960 L 194 952 Z " /><path fill="rgb(254,254,254)" stroke="rgb(254,254,254)" stroke-width="1" opacity="1" d="M 271.5 953 L 272.5 955 L 271.5 953 Z " /><path fill="rgb(254,254,254)" stroke="rgb(254,254,254)" stroke-width="1" opacity="1" d="M 300.5 960 Q 303.5 961.5 300.5 963 L 300.5 960 Z " /><path fill="rgb(254,254,254)" stroke="rgb(254,254,254)" stroke-width="1" opacity="1" d="M 324.5 967 L 323.5 969 L 324.5 967 Z " /><path fill="rgb(254,254,254)" stroke="rgb(254,254,254)" stroke-width="1" opacity="1" d="M 300.5 968 L 301 970.5 L 300 970.5 L 300.5 968 Z " /><path fill="rgb(254,254,254)" stroke="rgb(254,254,254)" stroke-width="1" opacity="1" d="M 297.5 970 L 298.5 972 Q 295.7 972.7 297.5 970 Z " /><path fill="rgb(254,254,254)" stroke="rgb(254,254,254)" stroke-width="1" opacity="1" d="M 327.5 978 L 327 979.5 L 328 983.5 L 325.5 988 L 326 986.5 Q 324.3 979.8 327.5 978 Z " /><path fill="rgb(254,254,254)" stroke="rgb(254,254,254)" stroke-width="1" opacity="1" d="M 294.5 979 L 296.5 982 Q 294.3 982.8 295 980.5 L 294.5 979 Z " /><path fill="rgb(254,254,254)" stroke="rgb(254,254,254)" stroke-width="1" opacity="1" d="M 323.5 981 L 324.5 983 Q 321.7 983.7 323.5 981 Z " /><path fill="rgb(254,254,254)" stroke="rgb(254,254,254)" stroke-width="1" opacity="1" d="M 296.5 986 L 299 987 L 297.5 991 Q 294.8 989.7 297 988.5 L 296.5 987 L 295 987.5 L 296.5 986 Z " /><path fill="rgb(254,254,254)" stroke="rgb(254,254,254)" stroke-width="1" opacity="1" d="M 326.5 989 L 327 991 L 325 990.5 L 326.5 989 Z " /><path fill="rgb(254,254,254)" stroke="rgb(254,254,254)" stroke-width="1" opacity="1" d="M 240 992 L 243 992.5 L 243 1001.5 L 248 1005.5 Q 249.1 1009.7 245 1008 L 242.5 1004 L 240 1002.5 L 240 992 Z " /><path fill="rgb(254,254,254)" stroke="rgb(254,254,254)" stroke-width="1" opacity="1" d="M 326.5 992 L 327.5 994 L 326.5 992 Z " /><path fill="rgb(254,254,254)" stroke="rgb(254,254,254)" stroke-width="1" opacity="1" d="M 377.5 995 L 378.5 997 L 377.5 995 Z " /><path fill="rgb(254,254,254)" stroke="rgb(254,254,254)" stroke-width="1" opacity="1" d="M 330.5 1001 L 331.5 1003 L 330.5 1001 Z " /><path fill="rgb(254,254,254)" stroke="rgb(254,254,254)" stroke-width="1" opacity="1" d="M 279.5 1008 L 280 1015.5 L 279 1015.5 L 279.5 1008 Z " /><path fill="rgb(254,254,254)" stroke="rgb(254,254,254)" stroke-width="1" opacity="1" d="M 403.5 1012 L 404 1014.5 L 403 1014.5 L 403.5 1012 Z " /><path fill="rgb(254,254,254)" stroke="rgb(254,254,254)" stroke-width="1" opacity="1" d="M 266.5 1016 L 267 1023.5 L 266 1023.5 L 266.5 1016 Z " /><path fill="rgb(254,254,254)" stroke="rgb(254,254,254)" stroke-width="1" opacity="1" d="M 396.5 1024 L 397.5 1026 L 396.5 1024 Z " /><path fill="rgb(254,254,254)" stroke="rgb(254,254,254)" stroke-width="1" opacity="1" d="M 395.5 1026 L 396 1027.5 L 394 1028.5 L 395.5 1026 Z " /><path fill="rgb(254,254,254)" stroke="rgb(254,254,254)" stroke-width="1" opacity="1" d="M 397.5 1028 L 399 1031.5 L 397 1030.5 L 397.5 1028 Z " /><path fill="rgb(254,254,254)" stroke="rgb(254,254,254)" stroke-width="1" opacity="1" d="M 279.5 1029 L 280 1031.5 L 279 1031.5 L 279.5 1029 Z " /><path fill="rgb(254,254,254)" stroke="rgb(254,254,254)" stroke-width="1" opacity="1" d="M 408 1032 L 416 1032 L 416 1040 L 408 1040 L 408 1032 Z " /><path fill="rgb(254,254,254)" stroke="rgb(254,254,254)" stroke-width="1" opacity="1" d="M 265.5 1040 L 266 1047.5 L 264.5 1051 L 264 1048.5 L 265.5 1040 Z " /><path fill="rgb(254,254,254)" stroke="rgb(254,254,254)" stroke-width="1" opacity="1" d="M 279.5 1040 L 280 1047.5 L 279 1047.5 L 279.5 1040 Z " /><path fill="rgb(254,254,254)" stroke="rgb(254,254,254)" stroke-width="1" opacity="1" d="M 279.5 1052 L 280 1055.5 L 279 1055.5 L 279.5 1052 Z " /><path fill="rgb(254,254,254)" stroke="rgb(254,254,254)" stroke-width="1" opacity="1" d="M 277 1072 L 279 1072.5 L 279 1080 L 277 1079.5 L 277 1072 Z " /><path fill="rgb(247,247,247)" stroke="rgb(247,247,247)" stroke-width="1" opacity="1" d="M 268.5 875 L 268 876.5 L 268 946.5 L 268.5 947 L 276.5 947 L 278 946.5 L 273.5 949 L 269.5 948 Q 267.8 950.8 266 946.5 L 267 943.5 L 267 879.5 L 266 878.5 L 268.5 875 Z " /><path fill="rgb(247,247,247)" stroke="rgb(247,247,247)" stroke-width="1" opacity="1" d="M 275.5 875 L 278 876.5 L 278 943.5 L 279 944.5 L 277 945 L 277 876.5 L 275.5 876 L 275.5 875 Z " /><path fill="rgb(247,247,247)" stroke="rgb(247,247,247)" stroke-width="1" opacity="1" d="M 339.5 913 L 342 913.5 L 339.5 914 L 339.5 913 Z " /><path fill="rgb(247,247,247)" stroke="rgb(247,247,247)" stroke-width="1" opacity="1" d="M 363.5 914 L 367 914.5 L 363.5 915 L 363.5 914 Z " /><path fill="rgb(247,247,247)" stroke="rgb(247,247,247)" stroke-width="1" opacity="1" d="M 346.5 916 L 364 917.5 L 349.5 918 L 346.5 917 L 346.5 916 Z " /><path fill="rgb(247,247,247)" stroke="rgb(247,247,247)" stroke-width="1" opacity="1" d="M 342.5 917 L 346 918.5 L 343.5 919 L 342.5 917 Z " /><path fill="rgb(247,247,247)" stroke="rgb(247,247,247)" stroke-width="1" opacity="1" d="M 368.5 917 L 374 919.5 L 371.5 920 L 366 918.5 L 368.5 917 Z " /><path fill="rgb(247,247,247)" stroke="rgb(247,247,247)" stroke-width="1" opacity="1" d="M 339.5 919 L 342 919.5 L 339.5 920 L 339.5 919 Z " /><path fill="rgb(247,247,247)" stroke="rgb(247,247,247)" stroke-width="1" opacity="1" d="M 163.5 920 L 166 920.5 L 165.5 1024 L 165 922.5 L 163.5 920 Z " /><path fill="rgb(247,247,247)" stroke="rgb(247,247,247)" stroke-width="1" opacity="1" d="M 245.5 920 L 246.5 923 L 248 923.5 L 246 924 L 246 937.5 L 244.5 939 L 245 937.5 L 245.5 920 Z " /><path fill="rgb(247,247,247)" stroke="rgb(247,247,247)" stroke-width="1" opacity="1" d="M 375.5 920 L 378.5 921 L 380.5 921 L 382 921.5 L 380 922.5 L 379.5 921 L 377.5 922 L 375.5 920 Z " /><path fill="rgb(247,247,247)" stroke="rgb(247,247,247)" stroke-width="1" opacity="1" d="M 329.5 921 L 331 923.5 L 329 922.5 L 329.5 921 Z " /><path fill="rgb(247,247,247)" stroke="rgb(247,247,247)" stroke-width="1" opacity="1" d="M 390.5 922 Q 393.3 923.3 391 924.5 L 392 926.5 L 390 925.5 L 391 923.5 L 390.5 922 Z " /><path fill="rgb(247,247,247)" stroke="rgb(247,247,247)" stroke-width="1" opacity="1" d="M 320.5 923 L 323 924.5 L 321.5 925 L 320.5 923 Z " /><path fill="rgb(247,247,247)" stroke="rgb(247,247,247)" stroke-width="1" opacity="1" d="M 388.5 923 L 387.5 925 L 385.5 926 L 384.5 924 L 388.5 923 Z " /><path fill="rgb(247,247,247)" stroke="rgb(247,247,247)" stroke-width="1" opacity="1" d="M 326.5 924 L 327 925.5 L 324 926.5 L 321.5 930 L 320 928.5 L 320.5 926 L 322.5 926 L 324.5 925 L 326 925.5 L 326.5 924 Z " /><path fill="rgb(247,247,247)" stroke="rgb(247,247,247)" stroke-width="1" opacity="1" d="M 387.5 926 L 389.5 929 L 387.5 926 Z " /><path fill="rgb(247,247,247)" stroke="rgb(247,247,247)" stroke-width="1" opacity="1" d="M 312.5 928 L 315 928.5 L 312 930.5 L 312.5 928 Z " /><path fill="rgb(247,247,247)" stroke="rgb(247,247,247)" stroke-width="1" opacity="1" d="M 395.5 928 L 397.5 928 L 400 930.5 L 398.5 933 L 399 931.5 L 397.5 929 L 396.5 931 L 395.5 929 L 394.5 932 L 392 930.5 L 395.5 928 Z " /><path fill="rgb(247,247,247)" stroke="rgb(247,247,247)" stroke-width="1" opacity="1" d="M 316.5 929 L 317 931.5 Q 317.8 933.8 315.5 933 L 315 930.5 L 316.5 929 Z " /><path fill="rgb(247,247,247)" stroke="rgb(247,247,247)" stroke-width="1" opacity="1" d="M 316.5 934 L 313.5 938 L 316.5 934 Z " /><path fill="rgb(247,247,247)" stroke="rgb(247,247,247)" stroke-width="1" opacity="1" d="M 352.5 934 L 360 934.5 L 352.5 935 L 352.5 934 Z " /><path fill="rgb(247,247,247)" stroke="rgb(247,247,247)" stroke-width="1" opacity="1" d="M 347.5 935 L 350 935.5 Q 347.9 938.8 347.5 935 Z " /><path fill="rgb(247,247,247)" stroke="rgb(247,247,247)" stroke-width="1" opacity="1" d="M 361.5 935 L 365 935.5 L 363.5 938 L 363 936 L 361.5 935 Z " /><path fill="rgb(247,247,247)" stroke="rgb(247,247,247)" stroke-width="1" opacity="1" d="M 396.5 935 L 397.5 937 L 396.5 935 Z " /><path fill="rgb(247,247,247)" stroke="rgb(247,247,247)" stroke-width="1" opacity="1" d="M 308.5 936 L 312 937.5 L 310 937.5 L 311.5 940 L 313 939.5 Q 311 943 309 938.5 L 308.5 936 Z " /><path fill="rgb(247,247,247)" stroke="rgb(247,247,247)" stroke-width="1" opacity="1" d="M 344.5 936 L 346 936.5 L 339.5 941 Q 337.8 938.3 336 942.5 L 336.5 944 L 335 942.5 L 338.5 939 L 340.5 940 L 340.5 938 L 342 938.5 Q 341.3 936.3 343.5 937 L 344.5 936 Z " /><path fill="rgb(247,247,247)" stroke="rgb(247,247,247)" stroke-width="1" opacity="1" d="M 366.5 936 Q 368.8 935.3 368 937.5 L 366.5 936 Z " /><path fill="rgb(247,247,247)" stroke="rgb(247,247,247)" stroke-width="1" opacity="1" d="M 369.5 937 L 376 941.5 L 374 942.5 Q 374.8 939.9 371.5 941 L 371.5 939 L 369.5 937 Z " /><path fill="rgb(247,247,247)" stroke="rgb(247,247,247)" stroke-width="1" opacity="1" d="M 399.5 937 L 399.5 940 Q 396.5 938.5 399.5 937 Z " /><path fill="rgb(247,247,247)" stroke="rgb(247,247,247)" stroke-width="1" opacity="1" d="M 185.5 938 L 186 966.5 L 185 966.5 L 185.5 938 Z " /><path fill="rgb(247,247,247)" stroke="rgb(247,247,247)" stroke-width="1" opacity="1" d="M 343.5 940 L 342.5 942 L 343.5 940 Z " /><path fill="rgb(247,247,247)" stroke="rgb(247,247,247)" stroke-width="1" opacity="1" d="M 400.5 941 L 402 943.5 L 401 943.5 L 400.5 941 Z " /><path fill="rgb(247,247,247)" stroke="rgb(247,247,247)" stroke-width="1" opacity="1" d="M 309 942 L 311 942.5 L 309 943.5 L 309 942 Z " /><path fill="rgb(247,247,247)" stroke="rgb(247,247,247)" stroke-width="1" opacity="1" d="M 304.5 943 L 306 946.5 L 305 946.5 L 304.5 943 Z " /><path fill="rgb(247,247,247)" stroke="rgb(247,247,247)" stroke-width="1" opacity="1" d="M 332.5 945 L 331.5 949 Q 328 947 332.5 945 Z " /><path fill="rgb(247,247,247)" stroke="rgb(247,247,247)" stroke-width="1" opacity="1" d="M 334.5 945 L 336 947.5 L 333 947.5 L 334.5 945 Z " /><path fill="rgb(247,247,247)" stroke="rgb(247,247,247)" stroke-width="1" opacity="1" d="M 377.5 945 L 380 946.5 L 379.5 948 L 382 949.5 L 384 955.5 L 383 955.5 L 381.5 951 L 379 952.5 L 381 949.5 L 378.5 948 L 377.5 951 L 377 948.5 L 378.5 946 L 377.5 945 Z " /><path fill="rgb(247,247,247)" stroke="rgb(247,247,247)" stroke-width="1" opacity="1" d="M 402 945 L 405 946.5 L 403.5 949 L 402 945 Z " /><path fill="rgb(247,247,247)" stroke="rgb(247,247,247)" stroke-width="1" opacity="1" d="M 278.5 948 L 277.5 950 L 278.5 948 Z " /><path fill="rgb(247,247,247)" stroke="rgb(247,247,247)" stroke-width="1" opacity="1" d="M 329.5 949 L 329.5 952 Q 326.5 950.5 329.5 949 Z " /><path fill="rgb(247,247,247)" stroke="rgb(247,247,247)" stroke-width="1" opacity="1" d="M 334.5 949 L 333.5 951 L 334.5 949 Z " /><path fill="rgb(247,247,247)" stroke="rgb(247,247,247)" stroke-width="1" opacity="1" d="M 266.5 950 Q 269.1 949.2 268 952.5 L 267 953.5 L 266.5 969 L 266 953 L 258.5 953 L 257.5 954 L 258.5 952 Q 263.2 953.2 264.5 951 L 267 952.5 L 266.5 950 Z " /><path fill="rgb(247,247,247)" stroke="rgb(247,247,247)" stroke-width="1" opacity="1" d="M 306.5 950 L 306 951.5 L 305.5 953 L 305 951.5 L 306.5 950 Z " /><path fill="rgb(247,247,247)" stroke="rgb(247,247,247)" stroke-width="1" opacity="1" d="M 404.5 950 L 406 953.5 L 404 952.5 L 404.5 950 Z " /><path fill="rgb(247,247,247)" stroke="rgb(247,247,247)" stroke-width="1" opacity="1" d="M 277.5 951 L 278.5 953 Q 280.3 950.2 286.5 952 L 287.5 954 L 286.5 953 L 279 953 L 278.5 969 L 278 959.5 L 276.5 958 L 275 957.5 L 276.5 957 L 278 957.5 L 277 955.5 L 278 953.5 L 277.5 951 Z " /><path fill="rgb(247,247,247)" stroke="rgb(247,247,247)" stroke-width="1" opacity="1" d="M 269.5 952 L 270 954.5 L 269 954.5 L 269.5 952 Z " /><path fill="rgb(247,247,247)" stroke="rgb(247,247,247)" stroke-width="1" opacity="1" d="M 274.5 952 L 276 954.5 L 275 954.5 L 274.5 952 Z " /><path fill="rgb(247,247,247)" stroke="rgb(247,247,247)" stroke-width="1" opacity="1" d="M 377.5 953 L 378 956.5 L 377 956.5 L 377.5 953 Z " /><path fill="rgb(247,247,247)" stroke="rgb(247,247,247)" stroke-width="1" opacity="1" d="M 326.5 954 L 327 955.5 L 325 956.5 L 326.5 954 Z " /><path fill="rgb(247,247,247)" stroke="rgb(247,247,247)" stroke-width="1" opacity="1" d="M 405.5 955 L 406 957.5 L 404 958.5 L 405.5 955 Z " /><path fill="rgb(247,247,247)" stroke="rgb(247,247,247)" stroke-width="1" opacity="1" d="M 298.5 956 L 299 958.5 L 298 958.5 L 298.5 956 Z " /><path fill="rgb(247,247,247)" stroke="rgb(247,247,247)" stroke-width="1" opacity="1" d="M 303.5 957 L 304 958.5 Q 300.5 960 303 961.5 L 302.5 963 L 300 959.5 L 303 958.5 L 303.5 957 Z " /><path fill="rgb(247,247,247)" stroke="rgb(247,247,247)" stroke-width="1" opacity="1" d="M 384.5 957 L 384.5 960 Q 381.5 958.5 384.5 957 Z " /><path fill="rgb(247,247,247)" stroke="rgb(247,247,247)" stroke-width="1" opacity="1" d="M 324.5 959 L 325 961.5 L 323.5 965 L 323 962.5 L 324.5 959 Z " /><path fill="rgb(247,247,247)" stroke="rgb(247,247,247)" stroke-width="1" opacity="1" d="M 300.5 963 L 299.5 965 L 300.5 963 Z " /><path fill="rgb(247,247,247)" stroke="rgb(247,247,247)" stroke-width="1" opacity="1" d="M 301.5 965 L 302 969.5 L 301 969.5 L 301.5 965 Z " /><path fill="rgb(247,247,247)" stroke="rgb(247,247,247)" stroke-width="1" opacity="1" d="M 322.5 966 L 323 970.5 L 322 970.5 L 322.5 966 Z " /><path fill="rgb(247,247,247)" stroke="rgb(247,247,247)" stroke-width="1" opacity="1" d="M 187.5 967 L 237.5 967 L 240 969.5 L 239 970.5 L 239 985 L 236.5 986 L 238 983.5 L 238 968.5 L 237.5 968 L 187.5 968 L 187.5 967 Z " /><path fill="rgb(247,247,247)" stroke="rgb(247,247,247)" stroke-width="1" opacity="1" d="M 251 968 L 253 968.5 L 250 970.5 L 251 968 Z " /><path fill="rgb(247,247,247)" stroke="rgb(247,247,247)" stroke-width="1" opacity="1" d="M 292.5 968 L 294 969.5 Q 292.8 974.2 295 975.5 L 294 976.5 L 293.5 991 L 293 969.5 L 292.5 968 Z " /><path fill="rgb(247,247,247)" stroke="rgb(247,247,247)" stroke-width="1" opacity="1" d="M 297.5 973 L 298 975.5 L 297 975.5 L 297.5 973 Z " /><path fill="rgb(247,247,247)" stroke="rgb(247,247,247)" stroke-width="1" opacity="1" d="M 300.5 974 L 301 982.5 L 300 982.5 Q 301.2 977.7 299 976.5 L 300.5 974 Z " /><path fill="rgb(247,247,247)" stroke="rgb(247,247,247)" stroke-width="1" opacity="1" d="M 321.5 974 L 322 978.5 L 321 978.5 L 321.5 974 Z " /><path fill="rgb(247,247,247)" stroke="rgb(247,247,247)" stroke-width="1" opacity="1" d="M 322.5 985 L 323 988.5 L 322 988.5 L 322.5 985 Z " /><path fill="rgb(247,247,247)" stroke="rgb(247,247,247)" stroke-width="1" opacity="1" d="M 301.5 988 L 302 991.5 L 301 991.5 L 301.5 988 Z " /><path fill="rgb(247,247,247)" stroke="rgb(247,247,247)" stroke-width="1" opacity="1" d="M 185.5 989 Q 188.3 990.2 186 991.5 L 185.5 1008 L 185 991.5 L 185.5 989 Z " /><path fill="rgb(247,247,247)" stroke="rgb(247,247,247)" stroke-width="1" opacity="1" d="M 323.5 990 L 324 993.5 L 323 993.5 L 323.5 990 Z " /><path fill="rgb(247,247,247)" stroke="rgb(247,247,247)" stroke-width="1" opacity="1" d="M 293.5 992 L 293 993.5 L 290.5 999 L 291 997.5 L 293.5 992 Z " /><path fill="rgb(247,247,247)" stroke="rgb(247,247,247)" stroke-width="1" opacity="1" d="M 385.5 992 L 405.5 992 L 406 995.5 L 406.5 997 L 405 997 L 404.5 993 L 385 993 L 384.5 996 L 384 993.5 L 385.5 992 Z " /><path fill="rgb(247,247,247)" stroke="rgb(247,247,247)" stroke-width="1" opacity="1" d="M 325.5 993 L 326 995.5 L 324 996.5 L 325.5 993 Z " /><path fill="rgb(247,247,247)" stroke="rgb(247,247,247)" stroke-width="1" opacity="1" d="M 249.5 994 L 250 996 L 253 996.5 L 250.5 997 L 249.5 994 Z " /><path fill="rgb(247,247,247)" stroke="rgb(247,247,247)" stroke-width="1" opacity="1" d="M 302.5 994 L 303 996.5 L 302 996.5 L 302.5 994 Z " /><path fill="rgb(247,247,247)" stroke="rgb(247,247,247)" stroke-width="1" opacity="1" d="M 252.5 998 L 255 999.5 L 258 1003.5 L 254 1001.5 L 255 1003.5 L 253 1002.5 L 254 999 L 251 1000.5 L 252 1003.5 L 250 1004 Q 249 999.3 252.5 998 Z " /><path fill="rgb(247,247,247)" stroke="rgb(247,247,247)" stroke-width="1" opacity="1" d="M 325.5 998 L 326.5 1000 Q 323.7 1000.7 325.5 998 Z " /><path fill="rgb(247,247,247)" stroke="rgb(247,247,247)" stroke-width="1" opacity="1" d="M 383.5 998 L 384 1000 L 382 999.5 L 383.5 998 Z " /><path fill="rgb(247,247,247)" stroke="rgb(247,247,247)" stroke-width="1" opacity="1" d="M 289.5 1000 L 290 1002 L 286 1004.5 L 286.5 1006 L 285 1004.5 L 289.5 1000 Z " /><path fill="rgb(247,247,247)" stroke="rgb(247,247,247)" stroke-width="1" opacity="1" d="M 380.5 1000 L 382.5 1003 Q 380.3 1003.8 381 1001.5 L 380.5 1000 Z " /><path fill="rgb(247,247,247)" stroke="rgb(247,247,247)" stroke-width="1" opacity="1" d="M 404 1000 L 406 1000.5 L 404 1001.5 L 404 1000 Z " /><path fill="rgb(247,247,247)" stroke="rgb(247,247,247)" stroke-width="1" opacity="1" d="M 304.5 1001 L 306 1005.5 L 305 1005.5 L 304.5 1001 Z " /><path fill="rgb(247,247,247)" stroke="rgb(247,247,247)" stroke-width="1" opacity="1" d="M 326.5 1001 L 329 1005.5 L 327 1004.5 L 326.5 1001 Z " /><path fill="rgb(247,247,247)" stroke="rgb(247,247,247)" stroke-width="1" opacity="1" d="M 329.5 1001 L 330 1003.5 L 329 1003.5 L 329.5 1001 Z " /><path fill="rgb(247,247,247)" stroke="rgb(247,247,247)" stroke-width="1" opacity="1" d="M 259.5 1004 Q 262.5 1005.5 259.5 1007 L 259.5 1004 Z " /><path fill="rgb(247,247,247)" stroke="rgb(247,247,247)" stroke-width="1" opacity="1" d="M 293.5 1004 L 292.5 1006 L 293.5 1004 Z " /><path fill="rgb(247,247,247)" stroke="rgb(247,247,247)" stroke-width="1" opacity="1" d="M 381.5 1004 L 382 1005.5 L 381 1008 L 379 1007.5 L 381.5 1004 Z " /><path fill="rgb(247,247,247)" stroke="rgb(247,247,247)" stroke-width="1" opacity="1" d="M 257.5 1005 L 256.5 1007 L 257.5 1005 Z " /><path fill="rgb(247,247,247)" stroke="rgb(247,247,247)" stroke-width="1" opacity="1" d="M 249.5 1006 L 251 1006.5 L 248.5 1008 L 249.5 1006 Z " /><path fill="rgb(247,247,247)" stroke="rgb(247,247,247)" stroke-width="1" opacity="1" d="M 262.5 1006 L 265 1007.5 L 263.5 1008 L 262.5 1006 Z " /><path fill="rgb(247,247,247)" stroke="rgb(247,247,247)" stroke-width="1" opacity="1" d="M 278.5 1007 L 281 1007.5 L 278 1008 L 277.5 1048 L 277 1008.5 L 278.5 1007 Z " /><path fill="rgb(247,247,247)" stroke="rgb(247,247,247)" stroke-width="1" opacity="1" d="M 306.5 1007 L 305.5 1009 L 306.5 1007 Z " /><path fill="rgb(247,247,247)" stroke="rgb(247,247,247)" stroke-width="1" opacity="1" d="M 333.5 1007 L 335 1009.5 L 334 1012.5 L 335.5 1014 L 338 1015.5 L 337.5 1017 L 330 1009.5 L 331.5 1008 L 332.5 1011 Q 335.3 1009.7 333 1008.5 L 333.5 1007 Z " /><path fill="rgb(247,247,247)" stroke="rgb(247,247,247)" stroke-width="1" opacity="1" d="M 377.5 1007 L 378 1009 L 380 1009.5 L 377 1011.5 L 378 1009.5 L 377.5 1007 Z " /><path fill="rgb(247,247,247)" stroke="rgb(247,247,247)" stroke-width="1" opacity="1" d="M 402.5 1007 L 403.5 1009 L 402.5 1007 Z " /><path fill="rgb(247,247,247)" stroke="rgb(247,247,247)" stroke-width="1" opacity="1" d="M 369.5 1008 L 368.5 1010 L 369.5 1008 Z " /><path fill="rgb(247,247,247)" stroke="rgb(247,247,247)" stroke-width="1" opacity="1" d="M 373.5 1012 L 375 1012.5 L 373 1013 L 372.5 1015 L 372 1013.5 L 373.5 1012 Z " /><path fill="rgb(247,247,247)" stroke="rgb(247,247,247)" stroke-width="1" opacity="1" d="M 368.5 1013 L 369.5 1015 L 368.5 1013 Z " /><path fill="rgb(247,247,247)" stroke="rgb(247,247,247)" stroke-width="1" opacity="1" d="M 376.5 1013 L 373.5 1017 L 374 1015.5 Q 373.3 1013.3 375.5 1014 L 376.5 1013 Z " /><path fill="rgb(247,247,247)" stroke="rgb(247,247,247)" stroke-width="1" opacity="1" d="M 399.5 1014 L 401.5 1014 L 403 1014.5 L 400.5 1016 L 399.5 1014 Z " /><path fill="rgb(247,247,247)" stroke="rgb(247,247,247)" stroke-width="1" opacity="1" d="M 310.5 1015 L 315 1020.5 L 310 1016.5 L 310.5 1015 Z " /><path fill="rgb(247,247,247)" stroke="rgb(247,247,247)" stroke-width="1" opacity="1" d="M 340.5 1016 L 346 1020.5 L 344.5 1020 L 339 1017.5 L 340.5 1016 Z " /><path fill="rgb(247,247,247)" stroke="rgb(247,247,247)" stroke-width="1" opacity="1" d="M 360.5 1016 L 360.5 1018 L 362.5 1017 L 360.5 1020 L 359 1017.5 L 360.5 1016 Z " /><path fill="rgb(247,247,247)" stroke="rgb(247,247,247)" stroke-width="1" opacity="1" d="M 370.5 1016 Q 373.5 1017.5 370.5 1019 Q 367.5 1017.5 370.5 1016 Z " /><path fill="rgb(247,247,247)" stroke="rgb(247,247,247)" stroke-width="1" opacity="1" d="M 398.5 1016 L 397.5 1018 L 398.5 1016 Z " /><path fill="rgb(247,247,247)" stroke="rgb(247,247,247)" stroke-width="1" opacity="1" d="M 352.5 1017 L 351.5 1019 L 347.5 1020 L 347.5 1019 L 352.5 1017 Z " /><path fill="rgb(247,247,247)" stroke="rgb(247,247,247)" stroke-width="1" opacity="1" d="M 365.5 1018 L 369 1019.5 L 365.5 1021 L 365.5 1020 L 367 1019.5 L 365.5 1018 Z " /><path fill="rgb(247,247,247)" stroke="rgb(247,247,247)" stroke-width="1" opacity="1" d="M 396.5 1019 L 398 1020.5 L 397.5 1023 Q 393 1021 396.5 1019 Z " /><path fill="rgb(247,247,247)" stroke="rgb(247,247,247)" stroke-width="1" opacity="1" d="M 354.5 1020 L 358 1020.5 L 354.5 1021 L 354.5 1020 Z " /><path fill="rgb(247,247,247)" stroke="rgb(247,247,247)" stroke-width="1" opacity="1" d="M 362.5 1020 Q 365.1 1019.3 364 1022 L 360 1021.5 L 362.5 1020 Z " /><path fill="rgb(247,247,247)" stroke="rgb(247,247,247)" stroke-width="1" opacity="1" d="M 348.5 1021 L 351 1021.5 L 348.5 1022 L 348.5 1021 Z " /><path fill="rgb(247,247,247)" stroke="rgb(247,247,247)" stroke-width="1" opacity="1" d="M 314.5 1022 L 315 1024 L 313 1023.5 L 314.5 1022 Z " /><path fill="rgb(247,247,247)" stroke="rgb(247,247,247)" stroke-width="1" opacity="1" d="M 316.5 1023 L 320 1026.5 L 319 1027.5 L 320.5 1030 L 317.5 1028 L 316 1028.5 L 319 1026.5 L 316 1025.5 L 316.5 1023 Z " /><path fill="rgb(247,247,247)" stroke="rgb(247,247,247)" stroke-width="1" opacity="1" d="M 393.5 1023 L 394 1024.5 L 384.5 1032 L 386.5 1029 L 393.5 1023 Z " /><path fill="rgb(247,247,247)" stroke="rgb(247,247,247)" stroke-width="1" opacity="1" d="M 321.5 1027 L 324.5 1031 Q 325.8 1028.8 327 1031.5 L 324.5 1032 L 322 1029.5 L 321.5 1027 Z " /><path fill="rgb(247,247,247)" stroke="rgb(247,247,247)" stroke-width="1" opacity="1" d="M 314.5 1030 L 317 1031.5 L 315.5 1031 L 314.5 1030 Z " /><path fill="rgb(247,247,247)" stroke="rgb(247,247,247)" stroke-width="1" opacity="1" d="M 382.5 1032 Q 385.5 1033.5 382.5 1035 L 382.5 1032 Z " /><path fill="rgb(247,247,247)" stroke="rgb(247,247,247)" stroke-width="1" opacity="1" d="M 161 1033 L 163 1033.5 L 161 1034.5 L 161 1033 Z " /><path fill="rgb(247,247,247)" stroke="rgb(247,247,247)" stroke-width="1" opacity="1" d="M 330.5 1033 L 331 1035 L 329 1034.5 L 330.5 1033 Z " /><path fill="rgb(247,247,247)" stroke="rgb(247,247,247)" stroke-width="1" opacity="1" d="M 378.5 1034 L 377.5 1036 L 376 1035.5 L 378.5 1034 Z " /><path fill="rgb(247,247,247)" stroke="rgb(247,247,247)" stroke-width="1" opacity="1" d="M 164.5 1035 L 165.5 1036 L 185.5 1036 Q 186.7 1033.8 188 1036.5 L 186 1036.5 Q 186.8 1038.8 184.5 1038 L 183.5 1037 L 165.5 1037 L 164.5 1035 Z " /><path fill="rgb(247,247,247)" stroke="rgb(247,247,247)" stroke-width="1" opacity="1" d="M 328.5 1036 L 333 1036.5 L 328.5 1037 L 328.5 1036 Z " /><path fill="rgb(247,247,247)" stroke="rgb(247,247,247)" stroke-width="1" opacity="1" d="M 337.5 1036 L 339 1036.5 L 335.5 1038 L 335.5 1037 L 337.5 1036 Z " /><path fill="rgb(247,247,247)" stroke="rgb(247,247,247)" stroke-width="1" opacity="1" d="M 368 1037 L 371 1037.5 L 368.5 1039 L 368 1037 Z " /><path fill="rgb(247,247,247)" stroke="rgb(247,247,247)" stroke-width="1" opacity="1" d="M 345.5 1038 L 351 1038.5 L 345.5 1039 L 345.5 1038 Z " /><path fill="rgb(247,247,247)" stroke="rgb(247,247,247)" stroke-width="1" opacity="1" d="M 361.5 1038 L 366 1038.5 L 361.5 1039 L 361.5 1038 Z " /><path fill="rgb(247,247,247)" stroke="rgb(247,247,247)" stroke-width="1" opacity="1" d="M 266.5 1081 L 267.5 1082 L 276.5 1082 L 278 1081.5 L 271.5 1084 L 267.5 1083 L 266.5 1081 Z " /><path fill="rgb(247,247,247)" stroke="rgb(247,247,247)" stroke-width="1" opacity="1" d="M 271.5 1168 L 271.5 1171 Q 268.5 1169.5 271.5 1168 Z " /><path fill="rgb(247,247,247)" stroke="rgb(247,247,247)" stroke-width="1" opacity="1" d="M 276.5 1168 L 277.5 1170 L 275.5 1171 L 276 1169.5 L 276.5 1168 Z " /><path fill="rgb(247,247,247)" stroke="rgb(247,247,247)" stroke-width="1" opacity="1" d="M 292 1168 L 295 1169.5 L 296.5 1172 L 297 1170.5 L 296.5 1169 L 297.5 1170 L 300 1168.5 L 298 1171.5 L 301 1175.5 L 299.5 1176 L 293.5 1169 L 292 1169.5 L 292 1168 Z " /><path fill="rgb(247,247,247)" stroke="rgb(247,247,247)" stroke-width="1" opacity="1" d="M 273.5 1170 L 274 1171.5 L 269 1175 L 270.5 1172 Q 271.8 1174.3 273 1171.5 L 273.5 1170 Z " /><path fill="rgb(247,247,247)" stroke="rgb(247,247,247)" stroke-width="1" opacity="1" d="M 266.5 1171 L 269 1171.5 L 266.5 1175 L 267 1173.5 L 266.5 1171 Z " /><path fill="rgb(247,247,247)" stroke="rgb(247,247,247)" stroke-width="1" opacity="1" d="M 300.5 1171 L 301.5 1173 L 300.5 1171 Z " /></svg>