<?xml version='1.0' encoding='utf-8'?>
<svg xmlns="http://www.w3.org/2000/svg" width="428" height="428" viewBox="54.0 406.0 428.0 428.0" version="1.1"><path fill="rgb(23,24,23)" stroke="rgb(23,24,23)" stroke-width="1" opacity="1" d="M 339.5 517 L 341 518.5 L 341 579 L 348.5 579 L 349 578.5 L 349 551 L 381 551 L 381 568 L 407 568 L 407 588.5 L 393.5 606 L 359.5 606 L 359 607.5 L 360 608.5 L 360 651.5 L 325 686.5 L 325 738 L 297 738 L 297 688.5 L 295.5 688 L 255 666.5 L 255 616.5 L 256.5 615 L 294.5 615 L 297.5 616 L 326.5 645 L 330 637.5 L 303 609.5 L 316 588.5 L 316 541.5 L 339.5 517 Z " /><path fill="rgb(23,24,23)" stroke="rgb(23,24,23)" stroke-width="1" opacity="1" d="M 364.5 517 L 365 543 L 349 543 L 349 533.5 L 364.5 517 Z " /><path fill="rgb(23,24,23)" stroke="rgb(23,24,23)" stroke-width="1" opacity="1" d="M 162 580 L 163.5 580 L 198.5 615 L 240.5 615 L 241.5 616 L 243.5 615 L 247 616.5 L 247 666.5 L 242 674 Q 239.3 672.9 240 675.5 L 224 690.5 L 222 693.5 L 213 702.5 L 213 736.5 L 211.5 738 L 186 738 L 186 692.5 L 201 677.5 L 201 630.5 L 199.5 629 L 182.5 629 L 163 609.5 L 162 607.5 L 162 580 Z " /><path fill="rgb(23,24,23)" stroke="rgb(23,24,23)" stroke-width="1" opacity="1" d="M 358.5 664 L 360 664.5 L 360 736.5 L 358.5 738 L 333 738 L 333 689.5 L 358.5 664 Z " /><path fill="rgb(23,24,23)" stroke="rgb(23,24,23)" stroke-width="1" opacity="1" d="M 252.5 674 L 269 682.5 L 260.5 692 L 254 697.5 L 253 699.5 L 253 738 L 227 738 L 227 699.5 L 237.5 688 L 252.5 674 Z " /><path fill="rgb(253,253,253)" stroke="rgb(253,253,253)" stroke-width="1" opacity="1" d="M 136 464 L 138 464.5 L 138 472 L 136 471.5 L 136 464 Z " /><path fill="rgb(253,253,253)" stroke="rgb(253,253,253)" stroke-width="1" opacity="1" d="M 286 464 L 288 464.5 L 288 472 L 286 471.5 L 286 464 Z " /><path fill="rgb(253,253,253)" stroke="rgb(253,253,253)" stroke-width="1" opacity="1" d="M 136 480 L 138 480.5 L 138 488 L 136 487.5 L 136 480 Z " /><path fill="rgb(253,253,253)" stroke="rgb(253,253,253)" stroke-width="1" opacity="1" d="M 392 480 L 394 480.5 L 394 488 L 392 487.5 L 392 480 Z " /><path fill="rgb(253,253,253)" stroke="rgb(253,253,253)" stroke-width="1" opacity="1" d="M 110 488 L 112 488.5 L 112 496 L 110 495.5 L 110 488 Z " /><path fill="rgb(253,253,253)" stroke="rgb(253,253,253)" stroke-width="1" opacity="1" d="M 240.5 488 L 241 495.5 L 240 495.5 L 240.5 488 Z " /><path fill="rgb(253,253,253)" stroke="rgb(253,253,253)" stroke-width="1" opacity="1" d="M 392 496 L 394 496.5 L 394 504 L 392 503.5 L 392 496 Z " /><path fill="rgb(253,253,253)" stroke="rgb(253,253,253)" stroke-width="1" opacity="1" d="M 408 496 L 415.5 496 L 416 498 L 408.5 498 L 408 496 Z " /><path fill="rgb(253,253,253)" stroke="rgb(253,253,253)" stroke-width="1" opacity="1" d="M 464 496 L 466 496.5 L 466 504 L 464 503.5 L 464 496 Z " /><path fill="rgb(253,253,253)" stroke="rgb(253,253,253)" stroke-width="1" opacity="1" d="M 352 504 L 354 504.5 L 354 512 L 352 511.5 L 352 504 Z " /><path fill="rgb(253,253,253)" stroke="rgb(253,253,253)" stroke-width="1" opacity="1" d="M 136 512 L 138 512.5 L 138 520 L 136 519.5 L 136 512 Z " /><path fill="rgb(253,253,253)" stroke="rgb(253,253,253)" stroke-width="1" opacity="1" d="M 208 512 L 210 512.5 L 210 536 L 208 535.5 L 208 512 Z " /><path fill="rgb(253,253,253)" stroke="rgb(253,253,253)" stroke-width="1" opacity="1" d="M 363.5 512 L 364 514 L 366 514.5 L 363 516.5 L 364 514.5 L 362 514.5 L 363.5 512 Z " /><path fill="rgb(253,253,253)" stroke="rgb(253,253,253)" stroke-width="1" opacity="1" d="M 341.5 513 L 344 513.5 L 339 515.5 Q 338.3 513.3 340.5 514 L 341.5 513 Z " /><path fill="rgb(253,253,253)" stroke="rgb(253,253,253)" stroke-width="1" opacity="1" d="M 367.5 518 L 368 519.5 L 366.5 526 L 366 520.5 L 367.5 518 Z " /><path fill="rgb(253,253,253)" stroke="rgb(253,253,253)" stroke-width="1" opacity="1" d="M 408 518 L 415.5 518 L 416 520 L 408.5 520 L 408 518 Z " /><path fill="rgb(253,253,253)" stroke="rgb(253,253,253)" stroke-width="1" opacity="1" d="M 110 520 L 112 520.5 L 112 527.5 L 114 528.5 L 114 536 L 110 535.5 L 110 520 Z " /><path fill="rgb(253,253,253)" stroke="rgb(253,253,253)" stroke-width="1" opacity="1" d="M 224 520 L 226 520.5 L 226 528 L 224 527.5 L 224 520 Z " /><path fill="rgb(253,253,253)" stroke="rgb(253,253,253)" stroke-width="1" opacity="1" d="M 259 520 L 261 520.5 L 261 528 L 259 527.5 L 259 520 Z " /><path fill="rgb(253,253,253)" stroke="rgb(253,253,253)" stroke-width="1" opacity="1" d="M 329.5 522 L 329.5 524 L 331 524.5 L 328 525 L 329.5 522 Z " /><path fill="rgb(253,253,253)" stroke="rgb(253,253,253)" stroke-width="1" opacity="1" d="M 355.5 522 L 358 523.5 L 356.5 523 L 355.5 522 Z " /><path fill="rgb(253,253,253)" stroke="rgb(253,253,253)" stroke-width="1" opacity="1" d="M 342.5 523 L 343.5 525 L 342.5 523 Z " /><path fill="rgb(253,253,253)" stroke="rgb(253,253,253)" stroke-width="1" opacity="1" d="M 353.5 523 L 352.5 525 L 353.5 523 Z " /><path fill="rgb(253,253,253)" stroke="rgb(253,253,253)" stroke-width="1" opacity="1" d="M 286 528 L 289 528 L 289 536 L 286 536 L 286 528 Z " /><path fill="rgb(253,253,253)" stroke="rgb(253,253,253)" stroke-width="1" opacity="1" d="M 295.5 528 L 296 535.5 L 295 535.5 L 295.5 528 Z " /><path fill="rgb(253,253,253)" stroke="rgb(253,253,253)" stroke-width="1" opacity="1" d="M 325.5 528 L 327 528.5 L 325.5 531 L 322 529.5 L 325.5 528 Z " /><path fill="rgb(253,253,253)" stroke="rgb(253,253,253)" stroke-width="1" opacity="1" d="M 342.5 528 L 343 535.5 L 342 535.5 L 342.5 528 Z " /><path fill="rgb(253,253,253)" stroke="rgb(253,253,253)" stroke-width="1" opacity="1" d="M 345.5 528 L 346 529.5 L 344 530.5 L 345.5 528 Z " /><path fill="rgb(253,253,253)" stroke="rgb(253,253,253)" stroke-width="1" opacity="1" d="M 392 528 L 394 528.5 L 394 536 L 392 535.5 L 392 528 Z " /><path fill="rgb(253,253,253)" stroke="rgb(253,253,253)" stroke-width="1" opacity="1" d="M 464 528 L 466 528.5 L 466 536 L 464 535.5 L 464 528 Z " /><path fill="rgb(253,253,253)" stroke="rgb(253,253,253)" stroke-width="1" opacity="1" d="M 347.5 530 L 350 530.5 L 348.5 532 L 346 531.5 L 347.5 530 Z " /><path fill="rgb(253,253,253)" stroke="rgb(253,253,253)" stroke-width="1" opacity="1" d="M 321.5 532 L 320.5 534 L 321.5 532 Z " /><path fill="rgb(253,253,253)" stroke="rgb(253,253,253)" stroke-width="1" opacity="1" d="M 348.5 533 L 348 534.5 L 347.5 538 L 347 534.5 L 348.5 533 Z " /><path fill="rgb(253,253,253)" stroke="rgb(253,253,253)" stroke-width="1" opacity="1" d="M 320.5 535 L 319.5 537 L 320.5 535 Z " /><path fill="rgb(253,253,253)" stroke="rgb(253,253,253)" stroke-width="1" opacity="1" d="M 120 536 L 122 536.5 L 122 544 L 120 543.5 L 120 536 Z " /><path fill="rgb(253,253,253)" stroke="rgb(253,253,253)" stroke-width="1" opacity="1" d="M 313.5 538 L 314.5 540 L 313.5 538 Z " /><path fill="rgb(253,253,253)" stroke="rgb(253,253,253)" stroke-width="1" opacity="1" d="M 343.5 540 L 344 546.5 L 342 547.5 L 341 543.5 L 343 543.5 L 343.5 540 Z " /><path fill="rgb(253,253,253)" stroke="rgb(253,253,253)" stroke-width="1" opacity="1" d="M 383.5 544 L 384 546 L 381 545.5 L 383.5 544 Z " /><path fill="rgb(253,253,253)" stroke="rgb(253,253,253)" stroke-width="1" opacity="1" d="M 392 544 L 394 544.5 L 394 560 L 392 559.5 L 392 544 Z " /><path fill="rgb(253,253,253)" stroke="rgb(253,253,253)" stroke-width="1" opacity="1" d="M 464 544 L 466 544.5 L 466 568 L 464 567.5 L 464 544 Z " /><path fill="rgb(253,253,253)" stroke="rgb(253,253,253)" stroke-width="1" opacity="1" d="M 352.5 545 L 357 545.5 L 352.5 546 L 352.5 545 Z " /><path fill="rgb(253,253,253)" stroke="rgb(253,253,253)" stroke-width="1" opacity="1" d="M 360.5 545 L 368 545.5 L 360.5 546 L 360.5 545 Z " /><path fill="rgb(253,253,253)" stroke="rgb(253,253,253)" stroke-width="1" opacity="1" d="M 378.5 546 L 377.5 548 L 378.5 546 Z " /><path fill="rgb(253,253,253)" stroke="rgb(253,253,253)" stroke-width="1" opacity="1" d="M 349 547 L 351 547.5 L 348 549.5 L 349 547 Z " /><path fill="rgb(253,253,253)" stroke="rgb(253,253,253)" stroke-width="1" opacity="1" d="M 352.5 547 L 376 547.5 L 360 549.5 L 368 550.5 L 360.5 551 L 358 549.5 L 360 548.5 L 352.5 548 L 352.5 547 Z " /><path fill="rgb(253,253,253)" stroke="rgb(253,253,253)" stroke-width="1" opacity="1" d="M 379.5 548 L 377.5 551 L 379.5 548 Z " /><path fill="rgb(253,253,253)" stroke="rgb(253,253,253)" stroke-width="1" opacity="1" d="M 352.5 550 L 356 550.5 L 352.5 551 L 352.5 550 Z " /><path fill="rgb(253,253,253)" stroke="rgb(253,253,253)" stroke-width="1" opacity="1" d="M 373.5 550 L 376 550.5 L 373.5 551 L 373.5 550 Z " /><path fill="rgb(253,253,253)" stroke="rgb(253,253,253)" stroke-width="1" opacity="1" d="M 344.5 551 L 344 552.5 L 345 558.5 L 344 559.5 L 343.5 568 L 343 552.5 L 344.5 551 Z " /><path fill="rgb(253,253,253)" stroke="rgb(253,253,253)" stroke-width="1" opacity="1" d="M 136 552 L 138 552.5 L 138 560 L 136 559.5 L 136 552 Z " /><path fill="rgb(253,253,253)" stroke="rgb(253,253,253)" stroke-width="1" opacity="1" d="M 341.5 552 L 342 567.5 L 341 567.5 L 341.5 552 Z " /><path fill="rgb(253,253,253)" stroke="rgb(253,253,253)" stroke-width="1" opacity="1" d="M 346 552 Q 348.7 550.9 348 553.5 L 347 554.5 L 347 567.5 L 345.5 575 L 345 568.5 L 346 567.5 L 346 552 Z " /><path fill="rgb(253,253,253)" stroke="rgb(253,253,253)" stroke-width="1" opacity="1" d="M 383.5 552 L 384 559.5 L 383 559.5 L 383.5 552 Z " /><path fill="rgb(253,253,253)" stroke="rgb(253,253,253)" stroke-width="1" opacity="1" d="M 416 552 L 423.5 552 L 424 554 L 416.5 554 L 416 552 Z " /><path fill="rgb(253,253,253)" stroke="rgb(253,253,253)" stroke-width="1" opacity="1" d="M 240 560 L 242 560.5 L 242 568 L 240 567.5 L 240 560 Z " /><path fill="rgb(253,253,253)" stroke="rgb(253,253,253)" stroke-width="1" opacity="1" d="M 405 560 L 407 560.5 L 405.5 564 L 403 563.5 L 405 560 Z " /><path fill="rgb(253,253,253)" stroke="rgb(253,253,253)" stroke-width="1" opacity="1" d="M 384.5 561 L 387 561.5 L 384 562.5 L 390 563.5 L 384.5 564 Q 381.5 562.5 384.5 561 Z " /><path fill="rgb(253,253,253)" stroke="rgb(253,253,253)" stroke-width="1" opacity="1" d="M 401.5 561 L 400 563.5 L 401 564.5 L 400.5 566 L 392.5 566 L 392.5 565 L 400 564.5 L 392 563.5 L 399.5 563 L 401.5 561 Z " /><path fill="rgb(253,253,253)" stroke="rgb(253,253,253)" stroke-width="1" opacity="1" d="M 312.5 564 L 313 567.5 L 312 567.5 L 312.5 564 Z " /><path fill="rgb(253,253,253)" stroke="rgb(253,253,253)" stroke-width="1" opacity="1" d="M 382 565 L 391 565.5 L 382.5 567 L 382 565 Z " /><path fill="rgb(253,253,253)" stroke="rgb(253,253,253)" stroke-width="1" opacity="1" d="M 136 576 L 138 576.5 L 138 583.5 L 136.5 592 L 136 576 Z " /><path fill="rgb(253,253,253)" stroke="rgb(253,253,253)" stroke-width="1" opacity="1" d="M 160.5 576 L 163 576.5 Q 160.9 579.8 160.5 576 Z " /><path fill="rgb(253,253,253)" stroke="rgb(253,253,253)" stroke-width="1" opacity="1" d="M 304 576 L 306 576.5 L 306 584 L 304 583.5 L 304 576 Z " /><path fill="rgb(253,253,253)" stroke="rgb(253,253,253)" stroke-width="1" opacity="1" d="M 314.5 576 L 315 584.5 Q 313.5 587.5 312 584.5 L 314 584.5 L 314.5 576 Z " /><path fill="rgb(253,253,253)" stroke="rgb(253,253,253)" stroke-width="1" opacity="1" d="M 464 576 L 466 576.5 L 466 584 L 464 583.5 L 464 576 Z " /><path fill="rgb(253,253,253)" stroke="rgb(253,253,253)" stroke-width="1" opacity="1" d="M 344.5 577 L 343.5 579 L 344.5 577 Z " /><path fill="rgb(253,253,253)" stroke="rgb(253,253,253)" stroke-width="1" opacity="1" d="M 143.5 584 L 144 591.5 L 143 591.5 L 143.5 584 Z " /><path fill="rgb(253,253,253)" stroke="rgb(253,253,253)" stroke-width="1" opacity="1" d="M 175.5 586 L 175.5 589 L 173 588.5 L 175.5 586 Z " /><path fill="rgb(253,253,253)" stroke="rgb(253,253,253)" stroke-width="1" opacity="1" d="M 182.5 592 L 183.5 594 L 182.5 592 Z " /><path fill="rgb(253,253,253)" stroke="rgb(253,253,253)" stroke-width="1" opacity="1" d="M 181.5 594 L 184 595.5 L 182.5 596 L 180 595.5 L 181.5 594 Z " /><path fill="rgb(253,253,253)" stroke="rgb(253,253,253)" stroke-width="1" opacity="1" d="M 288 600 L 290 600.5 L 290 608 L 288 608.5 L 291.5 609 L 293.5 609 L 297 609.5 L 289.5 611 L 264.5 611 L 260.5 610 L 259.5 612 L 280 612.5 L 255.5 613 L 254 612.5 Q 254.8 614.8 252.5 614 L 254.5 611 L 256 611.5 Q 256.8 608.9 253.5 610 L 252 610.5 L 253.5 608 L 254.5 609 L 263.5 609 Q 265.2 606.2 271.5 608 L 271.5 609 L 264 609.5 L 287.5 610 L 287.5 609 L 280 608.5 L 288 608 L 288 600 Z " /><path fill="rgb(253,253,253)" stroke="rgb(253,253,253)" stroke-width="1" opacity="1" d="M 306.5 601 L 307 602.5 L 305 603.5 L 306.5 601 Z " /><path fill="rgb(253,253,253)" stroke="rgb(253,253,253)" stroke-width="1" opacity="1" d="M 188.5 602 L 189.5 604 L 188.5 602 Z " /><path fill="rgb(253,253,253)" stroke="rgb(253,253,253)" stroke-width="1" opacity="1" d="M 397.5 602 L 398 603.5 L 396 605.5 L 397.5 608 Q 392.8 605.8 397 603.5 L 397.5 602 Z " /><path fill="rgb(253,253,253)" stroke="rgb(253,253,253)" stroke-width="1" opacity="1" d="M 399.5 602 L 400 604.5 L 399 604.5 L 399.5 602 Z " /><path fill="rgb(253,253,253)" stroke="rgb(253,253,253)" stroke-width="1" opacity="1" d="M 136 608 L 138 608.5 L 138 624 L 136 623.5 L 136 608 Z " /><path fill="rgb(253,253,253)" stroke="rgb(253,253,253)" stroke-width="1" opacity="1" d="M 160.5 608 L 162 610.5 L 160 609.5 L 160.5 608 Z " /><path fill="rgb(253,253,253)" stroke="rgb(253,253,253)" stroke-width="1" opacity="1" d="M 198.5 608 L 200.5 609 L 240 609.5 L 200.5 610 L 198.5 611 L 198.5 610 L 200 609.5 L 198.5 608 Z " /><path fill="rgb(253,253,253)" stroke="rgb(253,253,253)" stroke-width="1" opacity="1" d="M 243.5 608 Q 245.8 607.3 245 609.5 L 243.5 608 Z " /><path fill="rgb(253,253,253)" stroke="rgb(253,253,253)" stroke-width="1" opacity="1" d="M 246.5 608 L 248.5 609 L 250.5 608 L 250.5 609 Q 248.3 608.3 249 610.5 L 247 611.5 L 248 609 L 246.5 608 Z " /><path fill="rgb(253,253,253)" stroke="rgb(253,253,253)" stroke-width="1" opacity="1" d="M 241.5 609 Q 245 611 240.5 613 L 200 612.5 L 239.5 612 L 241 610.5 L 241.5 609 Z " /><path fill="rgb(253,253,253)" stroke="rgb(253,253,253)" stroke-width="1" opacity="1" d="M 299.5 610 L 300 612.5 L 296.5 615 L 297.5 613 Q 300.4 613.7 299.5 610 Z " /><path fill="rgb(253,253,253)" stroke="rgb(253,253,253)" stroke-width="1" opacity="1" d="M 249 612 L 251 612.5 L 249 613.5 L 249 612 Z " /><path fill="rgb(253,253,253)" stroke="rgb(253,253,253)" stroke-width="1" opacity="1" d="M 292.5 612 L 296 612.5 L 292.5 613 L 292.5 612 Z " /><path fill="rgb(253,253,253)" stroke="rgb(253,253,253)" stroke-width="1" opacity="1" d="M 243.5 613 L 244 615 L 242 614.5 L 243.5 613 Z " /><path fill="rgb(253,253,253)" stroke="rgb(253,253,253)" stroke-width="1" opacity="1" d="M 166.5 614 L 165.5 616 L 166.5 614 Z " /><path fill="rgb(253,253,253)" stroke="rgb(253,253,253)" stroke-width="1" opacity="1" d="M 208.5 614 L 240 614.5 L 208.5 615 L 208.5 614 Z " /><path fill="rgb(253,253,253)" stroke="rgb(253,253,253)" stroke-width="1" opacity="1" d="M 260.5 614 L 264 614.5 L 260.5 615 L 260.5 614 Z " /><path fill="rgb(253,253,253)" stroke="rgb(253,253,253)" stroke-width="1" opacity="1" d="M 288.5 614 L 291 614.5 L 288.5 615 L 288.5 614 Z " /><path fill="rgb(253,253,253)" stroke="rgb(253,253,253)" stroke-width="1" opacity="1" d="M 304 614 L 306 614.5 L 305.5 617 L 304 614 Z " /><path fill="rgb(253,253,253)" stroke="rgb(253,253,253)" stroke-width="1" opacity="1" d="M 249 616 Q 252.7 614.8 251 620 Q 247.3 621.2 249 616 Z " /><path fill="rgb(253,253,253)" stroke="rgb(253,253,253)" stroke-width="1" opacity="1" d="M 302.5 617 L 301.5 619 L 302.5 617 Z " /><path fill="rgb(253,253,253)" stroke="rgb(253,253,253)" stroke-width="1" opacity="1" d="M 312.5 622 L 313 625 L 310 624.5 L 312 624 L 312.5 622 Z " /><path fill="rgb(253,253,253)" stroke="rgb(253,253,253)" stroke-width="1" opacity="1" d="M 314.5 624 L 316.5 629 L 313 626.5 L 315 625.5 L 314.5 624 Z " /><path fill="rgb(253,253,253)" stroke="rgb(253,253,253)" stroke-width="1" opacity="1" d="M 392 624 L 394 624.5 L 394 640 L 392 639.5 L 392 624 Z " /><path fill="rgb(253,253,253)" stroke="rgb(253,253,253)" stroke-width="1" opacity="1" d="M 320.5 629 Q 323.3 630.3 321 631.5 Q 320.3 633.8 322.5 633 Q 323.8 630.8 325 633.5 L 324.5 635 L 323.5 633 L 320 634 Q 321.1 631.3 318.5 632 L 318.5 631 Q 321 631.7 320.5 629 Z " /><path fill="rgb(253,253,253)" stroke="rgb(253,253,253)" stroke-width="1" opacity="1" d="M 192.5 630 L 200 630.5 L 192.5 631 L 192.5 630 Z " /><path fill="rgb(253,253,253)" stroke="rgb(253,253,253)" stroke-width="1" opacity="1" d="M 315.5 631 L 316.5 633 L 315.5 631 Z " /><path fill="rgb(253,253,253)" stroke="rgb(253,253,253)" stroke-width="1" opacity="1" d="M 136 632 L 138 632.5 L 138 640 L 136 639.5 L 136 632 Z " /><path fill="rgb(253,253,253)" stroke="rgb(253,253,253)" stroke-width="1" opacity="1" d="M 252.5 632 L 253 639.5 L 252 639.5 L 252.5 632 Z " /><path fill="rgb(253,253,253)" stroke="rgb(253,253,253)" stroke-width="1" opacity="1" d="M 326.5 637 L 328 639.5 L 326 640 L 326.5 637 Z " /><path fill="rgb(253,253,253)" stroke="rgb(253,253,253)" stroke-width="1" opacity="1" d="M 408 638 L 415.5 638 L 416 640 L 408.5 640 L 408 638 Z " /><path fill="rgb(253,253,253)" stroke="rgb(253,253,253)" stroke-width="1" opacity="1" d="M 324.5 640 L 325.5 642 L 324.5 640 Z " /><path fill="rgb(253,253,253)" stroke="rgb(253,253,253)" stroke-width="1" opacity="1" d="M 110 648 L 112 648.5 L 112 656 L 110 655.5 L 110 648 Z " /><path fill="rgb(253,253,253)" stroke="rgb(253,253,253)" stroke-width="1" opacity="1" d="M 249 648 L 251 648.5 L 251 656 L 249 655.5 L 249 648 Z " /><path fill="rgb(253,253,253)" stroke="rgb(253,253,253)" stroke-width="1" opacity="1" d="M 252.5 648 L 253 664.5 L 252 664.5 L 252.5 648 Z " /><path fill="rgb(253,253,253)" stroke="rgb(253,253,253)" stroke-width="1" opacity="1" d="M 359.5 653 L 359.5 656 Q 356.5 654.5 359.5 653 Z " /><path fill="rgb(253,253,253)" stroke="rgb(253,253,253)" stroke-width="1" opacity="1" d="M 136 656 L 138 656.5 L 138 664 L 136 663.5 L 136 656 Z " /><path fill="rgb(253,253,253)" stroke="rgb(253,253,253)" stroke-width="1" opacity="1" d="M 249.5 660 L 251 664.5 L 249 663.5 L 249.5 660 Z " /><path fill="rgb(253,253,253)" stroke="rgb(253,253,253)" stroke-width="1" opacity="1" d="M 355.5 662 Q 358.5 663.5 355.5 665 L 355.5 662 Z " /><path fill="rgb(253,253,253)" stroke="rgb(253,253,253)" stroke-width="1" opacity="1" d="M 248.5 665 L 249.5 667 L 248.5 665 Z " /><path fill="rgb(253,253,253)" stroke="rgb(253,253,253)" stroke-width="1" opacity="1" d="M 348.5 665 Q 350.8 664.3 350 666.5 L 348.5 665 Z " /><path fill="rgb(253,253,253)" stroke="rgb(253,253,253)" stroke-width="1" opacity="1" d="M 253.5 668 L 253 669.5 L 254 671.5 L 252 672.5 L 253 671.5 L 251.5 669 L 253.5 668 Z " /><path fill="rgb(253,253,253)" stroke="rgb(253,253,253)" stroke-width="1" opacity="1" d="M 248.5 670 L 248.5 672 L 250.5 671 L 251 673.5 L 249.5 675 L 249.5 673 L 247 673.5 L 247.5 675 L 244 673.5 L 246 673 Q 244.9 670.3 247.5 671 L 248.5 670 Z " /><path fill="rgb(253,253,253)" stroke="rgb(253,253,253)" stroke-width="1" opacity="1" d="M 348.5 670 L 349 672.5 L 348 672.5 L 348.5 670 Z " /><path fill="rgb(253,253,253)" stroke="rgb(253,253,253)" stroke-width="1" opacity="1" d="M 343.5 671 L 347 673.5 L 345 674 L 344.5 676 L 344 674.5 L 344.5 673 Q 341.7 673.7 343.5 671 Z " /><path fill="rgb(253,253,253)" stroke="rgb(253,253,253)" stroke-width="1" opacity="1" d="M 195.5 672 L 195.5 674 L 197 674.5 L 196 676.5 L 196.5 678 L 194 673.5 L 195.5 672 Z " /><path fill="rgb(253,253,253)" stroke="rgb(253,253,253)" stroke-width="1" opacity="1" d="M 260.5 673 Q 262.3 676.1 264 674.5 L 260 677.5 L 261 674.5 L 260.5 673 Z " /><path fill="rgb(253,253,253)" stroke="rgb(253,253,253)" stroke-width="1" opacity="1" d="M 240.5 675 L 239.5 677 L 240.5 675 Z " /><path fill="rgb(253,253,253)" stroke="rgb(253,253,253)" stroke-width="1" opacity="1" d="M 243.5 675 Q 246.5 676.5 243.5 678 L 243.5 675 Z " /><path fill="rgb(253,253,253)" stroke="rgb(253,253,253)" stroke-width="1" opacity="1" d="M 268.5 675 L 269 676.5 Q 267.5 679.5 266 676.5 L 268 676.5 L 268.5 675 Z " /><path fill="rgb(253,253,253)" stroke="rgb(253,253,253)" stroke-width="1" opacity="1" d="M 339 675 L 341 675.5 L 339 676.5 L 339 675 Z " /><path fill="rgb(253,253,253)" stroke="rgb(253,253,253)" stroke-width="1" opacity="1" d="M 270 676 L 273 677.5 L 274 679.5 L 271.5 678 Q 268.9 678.7 270 676 Z " /><path fill="rgb(253,253,253)" stroke="rgb(253,253,253)" stroke-width="1" opacity="1" d="M 246 677 L 248 677.5 L 242.5 681 L 242.5 680 L 246 679 L 246 677 Z " /><path fill="rgb(253,253,253)" stroke="rgb(253,253,253)" stroke-width="1" opacity="1" d="M 336.5 677 L 338 677.5 L 336 678 Q 334.9 680.7 337.5 680 L 338.5 682 Q 336.3 681.3 337 683.5 L 334.5 685 L 334.5 684 Q 336.8 684.8 336 682.5 Q 338.5 681 335 679.5 L 336.5 677 Z " /><path fill="rgb(253,253,253)" stroke="rgb(253,253,253)" stroke-width="1" opacity="1" d="M 341.5 678 L 342 679.5 Q 340.5 682.5 339 679.5 L 341 679.5 L 341.5 678 Z " /><path fill="rgb(253,253,253)" stroke="rgb(253,253,253)" stroke-width="1" opacity="1" d="M 236.5 679 L 238.5 679 L 240 679.5 L 238 680 L 237.5 682 L 236.5 679 Z " /><path fill="rgb(253,253,253)" stroke="rgb(253,253,253)" stroke-width="1" opacity="1" d="M 266.5 679 L 269 679.5 Q 266.9 682.8 266.5 679 Z " /><path fill="rgb(253,253,253)" stroke="rgb(253,253,253)" stroke-width="1" opacity="1" d="M 190.5 681 L 194 682.5 Q 192.3 686.8 190.5 684 L 188 682.5 L 190.5 681 Z " /><path fill="rgb(253,253,253)" stroke="rgb(253,253,253)" stroke-width="1" opacity="1" d="M 282 682 Q 285 681 284 684 Q 281 685 282 682 Z " /><path fill="rgb(253,253,253)" stroke="rgb(253,253,253)" stroke-width="1" opacity="1" d="M 330.5 682 L 333 683.5 L 331 684.5 L 330.5 682 Z " /><path fill="rgb(253,253,253)" stroke="rgb(253,253,253)" stroke-width="1" opacity="1" d="M 186.5 684 L 187.5 686 L 185.5 686 L 184 685.5 L 186.5 684 Z " /><path fill="rgb(253,253,253)" stroke="rgb(253,253,253)" stroke-width="1" opacity="1" d="M 329.5 684 L 329 685.5 L 328.5 687 L 328 685.5 L 329.5 684 Z " /><path fill="rgb(253,253,253)" stroke="rgb(253,253,253)" stroke-width="1" opacity="1" d="M 232.5 685 L 234 685.5 L 232 686.5 L 232.5 688 Q 229.5 686.5 232.5 685 Z " /><path fill="rgb(253,253,253)" stroke="rgb(253,253,253)" stroke-width="1" opacity="1" d="M 280.5 685 L 282.5 688 L 280 687 L 280.5 685 Z " /><path fill="rgb(253,253,253)" stroke="rgb(253,253,253)" stroke-width="1" opacity="1" d="M 285.5 685 L 287 685.5 L 285 686.5 L 285.5 688 Q 282.5 686.5 285.5 685 Z " /><path fill="rgb(253,253,253)" stroke="rgb(253,253,253)" stroke-width="1" opacity="1" d="M 267.5 686 L 269 686.5 L 266.5 688 L 267.5 686 Z " /><path fill="rgb(253,253,253)" stroke="rgb(253,253,253)" stroke-width="1" opacity="1" d="M 236.5 687 L 237 688.5 L 235 689.5 L 236.5 687 Z " /><path fill="rgb(253,253,253)" stroke="rgb(253,253,253)" stroke-width="1" opacity="1" d="M 176 688 L 178 688.5 L 178 696 L 176 695.5 L 176 688 Z " /><path fill="rgb(253,253,253)" stroke="rgb(253,253,253)" stroke-width="1" opacity="1" d="M 227.5 688 L 228.5 690 L 227.5 688 Z " /><path fill="rgb(253,253,253)" stroke="rgb(253,253,253)" stroke-width="1" opacity="1" d="M 330.5 688 L 331 690.5 L 330 690.5 L 330.5 688 Z " /><path fill="rgb(253,253,253)" stroke="rgb(253,253,253)" stroke-width="1" opacity="1" d="M 232.5 689 L 233.5 691 L 232.5 689 Z " /><path fill="rgb(253,253,253)" stroke="rgb(253,253,253)" stroke-width="1" opacity="1" d="M 225.5 691 L 227 691.5 L 224.5 693 L 225.5 691 Z " /><path fill="rgb(253,253,253)" stroke="rgb(253,253,253)" stroke-width="1" opacity="1" d="M 228.5 691 L 230.5 691 L 232 691.5 L 229.5 693 L 228.5 691 Z " /><path fill="rgb(253,253,253)" stroke="rgb(253,253,253)" stroke-width="1" opacity="1" d="M 263.5 693 L 262.5 695 L 263.5 693 Z " /><path fill="rgb(253,253,253)" stroke="rgb(253,253,253)" stroke-width="1" opacity="1" d="M 224.5 694 Q 227.5 695.5 224.5 697 L 224.5 694 Z " /><path fill="rgb(253,253,253)" stroke="rgb(253,253,253)" stroke-width="1" opacity="1" d="M 222.5 698 L 224 700.5 L 222.5 700 L 218.5 701 L 219.5 699 L 222.5 698 Z " /><path fill="rgb(253,253,253)" stroke="rgb(253,253,253)" stroke-width="1" opacity="1" d="M 218.5 702 L 220 702.5 L 217.5 704 L 218.5 702 Z " /><path fill="rgb(253,253,253)" stroke="rgb(253,253,253)" stroke-width="1" opacity="1" d="M 224.5 702 Q 227.3 704.7 226 711.5 L 225 711.5 L 225 704.5 L 223.5 704 L 224.5 702 Z " /><path fill="rgb(253,253,253)" stroke="rgb(253,253,253)" stroke-width="1" opacity="1" d="M 214.5 703 L 214 704.5 L 213.5 736 L 213 704.5 L 214.5 703 Z " /><path fill="rgb(253,253,253)" stroke="rgb(253,253,253)" stroke-width="1" opacity="1" d="M 136 704 L 138 704.5 L 138 736 L 136 735.5 L 136 704 Z " /><path fill="rgb(253,253,253)" stroke="rgb(253,253,253)" stroke-width="1" opacity="1" d="M 176 704 L 178 704.5 L 178 712 L 176 711.5 L 176 704 Z " /><path fill="rgb(253,253,253)" stroke="rgb(253,253,253)" stroke-width="1" opacity="1" d="M 288 704 L 290 704.5 L 290 720 L 288 719.5 L 288 704 Z " /><path fill="rgb(253,253,253)" stroke="rgb(253,253,253)" stroke-width="1" opacity="1" d="M 296.5 704 L 297 711.5 L 296 711.5 L 296.5 704 Z " /><path fill="rgb(253,253,253)" stroke="rgb(253,253,253)" stroke-width="1" opacity="1" d="M 331.5 704 L 332 711.5 L 331 711.5 L 331.5 704 Z " /><path fill="rgb(253,253,253)" stroke="rgb(253,253,253)" stroke-width="1" opacity="1" d="M 464 704 L 466 704.5 L 466 720 L 464 719.5 L 464 704 Z " /><path fill="rgb(253,253,253)" stroke="rgb(253,253,253)" stroke-width="1" opacity="1" d="M 255.5 708 L 256 711.5 L 255 711.5 L 255.5 708 Z " /><path fill="rgb(253,253,253)" stroke="rgb(253,253,253)" stroke-width="1" opacity="1" d="M 215.5 712 L 216 736.5 L 215 736.5 L 215.5 712 Z " /><path fill="rgb(253,253,253)" stroke="rgb(253,253,253)" stroke-width="1" opacity="1" d="M 328.5 712 L 331 731.5 L 330 731.5 L 329 720.5 L 328 719.5 L 328.5 712 Z " /><path fill="rgb(253,253,253)" stroke="rgb(253,253,253)" stroke-width="1" opacity="1" d="M 110 720 L 112 720.5 L 112 728 L 110 727.5 L 110 720 Z " /><path fill="rgb(253,253,253)" stroke="rgb(253,253,253)" stroke-width="1" opacity="1" d="M 225.5 720 L 226 727.5 L 225 727.5 L 225.5 720 Z " /><path fill="rgb(253,253,253)" stroke="rgb(253,253,253)" stroke-width="1" opacity="1" d="M 254.5 720 L 255 722.5 L 254 722.5 L 254.5 720 Z " /><path fill="rgb(253,253,253)" stroke="rgb(253,253,253)" stroke-width="1" opacity="1" d="M 296.5 720 L 297 736.5 L 296 736.5 L 296.5 720 Z " /><path fill="rgb(253,253,253)" stroke="rgb(253,253,253)" stroke-width="1" opacity="1" d="M 286 728 L 288 728.5 L 288 736 L 286 735.5 L 286 728 Z " /><path fill="rgb(253,253,253)" stroke="rgb(253,253,253)" stroke-width="1" opacity="1" d="M 328.5 734 L 330 736.5 L 328 737 L 328.5 734 Z " /><path fill="rgb(253,253,253)" stroke="rgb(253,253,253)" stroke-width="1" opacity="1" d="M 189.5 738 L 189 739.5 L 188.5 741 L 188 739.5 L 189.5 738 Z " /><path fill="rgb(253,253,253)" stroke="rgb(253,253,253)" stroke-width="1" opacity="1" d="M 212.5 738 L 215 738.5 L 212 740.5 L 212.5 738 Z " /><path fill="rgb(253,253,253)" stroke="rgb(253,253,253)" stroke-width="1" opacity="1" d="M 230.5 738 L 231.5 740 Q 228.7 740.7 230.5 738 Z " /><path fill="rgb(253,253,253)" stroke="rgb(253,253,253)" stroke-width="1" opacity="1" d="M 321.5 738 L 323 740.5 L 321.5 740 L 320 739.5 L 321.5 738 Z " /><path fill="rgb(253,253,253)" stroke="rgb(253,253,253)" stroke-width="1" opacity="1" d="M 355.5 738 L 359 738.5 L 355.5 739 L 355.5 738 Z " /><path fill="rgb(253,253,253)" stroke="rgb(253,253,253)" stroke-width="1" opacity="1" d="M 299 739 L 301 739.5 L 300.5 742 Q 297.5 742.7 299 739 Z " /><path fill="rgb(253,253,253)" stroke="rgb(253,253,253)" stroke-width="1" opacity="1" d="M 302.5 739 Q 304.8 738.3 304 740.5 L 302.5 739 Z " /><path fill="rgb(253,253,253)" stroke="rgb(253,253,253)" stroke-width="1" opacity="1" d="M 329 739 L 332 739.5 L 329.5 741 L 329 739 Z " /><path fill="rgb(253,253,253)" stroke="rgb(253,253,253)" stroke-width="1" opacity="1" d="M 192.5 740 L 208 740.5 L 192 741.5 L 208 742.5 L 192.5 743 L 191.5 744 L 189 742.5 L 192.5 740 Z " /><path fill="rgb(253,253,253)" stroke="rgb(253,253,253)" stroke-width="1" opacity="1" d="M 215.5 740 L 216 742.5 L 214 743.5 L 215.5 740 Z " /><path fill="rgb(253,253,253)" stroke="rgb(253,253,253)" stroke-width="1" opacity="1" d="M 354.5 740 L 355 742 Q 357.7 743.1 357 740.5 L 358 740.5 L 359 743.5 L 358 743.5 L 357.5 742 L 355 743.5 L 354.5 742 L 353.5 744 L 353 742.5 L 354.5 740 Z " /><path fill="rgb(253,253,253)" stroke="rgb(253,253,253)" stroke-width="1" opacity="1" d="M 210.5 742 L 212 742.5 L 209.5 744 L 210.5 742 Z " /><path fill="rgb(253,253,253)" stroke="rgb(253,253,253)" stroke-width="1" opacity="1" d="M 250.5 742 L 253 742.5 L 251.5 744 L 249 743.5 L 250.5 742 Z " /><path fill="rgb(253,253,253)" stroke="rgb(253,253,253)" stroke-width="1" opacity="1" d="M 322.5 742 L 323.5 744 L 322.5 742 Z " /><path fill="rgb(253,253,253)" stroke="rgb(253,253,253)" stroke-width="1" opacity="1" d="M 327.5 742 L 328.5 744 L 326 743.5 L 327.5 742 Z " /><path fill="rgb(253,253,253)" stroke="rgb(253,253,253)" stroke-width="1" opacity="1" d="M 208 752 L 210 752.5 L 210 760 L 208 759.5 L 208 752 Z " /><path fill="rgb(253,253,253)" stroke="rgb(253,253,253)" stroke-width="1" opacity="1" d="M 286 752 L 288 752.5 L 288 768 L 286 767.5 L 286 752 Z " /><path fill="rgb(253,253,253)" stroke="rgb(253,253,253)" stroke-width="1" opacity="1" d="M 320 752 L 322 752.5 L 322 768 L 320 767.5 L 320 752 Z " /><path fill="rgb(253,253,253)" stroke="rgb(253,253,253)" stroke-width="1" opacity="1" d="M 136 768 L 138 768.5 L 138 776 L 136 775.5 L 136 768 Z " /><path fill="rgb(253,253,253)" stroke="rgb(253,253,253)" stroke-width="1" opacity="1" d="M 208 768 L 210 768.5 L 210 784 L 208 783.5 L 208 768 Z " /><path fill="rgb(253,253,253)" stroke="rgb(253,253,253)" stroke-width="1" opacity="1" d="M 286 776 L 289 776 L 289 784 L 286 784 L 286 776 Z " /><path fill="rgb(253,253,253)" stroke="rgb(253,253,253)" stroke-width="1" opacity="1" d="M 312 776 L 314 776.5 L 314 784 L 312 783.5 L 312 776 Z " /><path fill="rgb(253,253,253)" stroke="rgb(253,253,253)" stroke-width="1" opacity="1" d="M 464 776 L 466 776.5 L 466 784 L 464 783.5 L 464 776 Z " /><path fill="rgb(253,253,253)" stroke="rgb(253,253,253)" stroke-width="1" opacity="1" d="M 112 792 L 114 792.5 L 114 800 L 112 799.5 L 112 792 Z " /><path fill="rgb(253,253,253)" stroke="rgb(253,253,253)" stroke-width="1" opacity="1" d="M 136 792 L 138 792.5 L 138 800 L 136 799.5 L 136 792 Z " /><path fill="rgb(253,253,253)" stroke="rgb(253,253,253)" stroke-width="1" opacity="1" d="M 200 800 L 202 800.5 L 202 808 L 200 807.5 L 200 800 Z " /><path fill="rgb(253,253,253)" stroke="rgb(253,253,253)" stroke-width="1" opacity="1" d="M 392 800 L 394 800.5 L 394 808 L 392 807.5 L 392 800 Z " /><path fill="rgb(253,253,253)" stroke="rgb(253,253,253)" stroke-width="1" opacity="1" d="M 464 800 L 466 800.5 L 466 808 L 464 807.5 L 464 800 Z " /><path fill="rgb(253,253,253)" stroke="rgb(253,253,253)" stroke-width="1" opacity="1" d="M 240 808 L 242 808.5 L 242 816 L 240 815.5 L 240 808 Z " /><path fill="rgb(253,253,253)" stroke="rgb(253,253,253)" stroke-width="1" opacity="1" d="M 320 808 L 322 808.5 L 322 816 L 320 815.5 L 320 808 Z " /><path fill="rgb(253,253,253)" stroke="rgb(253,253,253)" stroke-width="1" opacity="1" d="M 272 816 L 274 816.5 L 274 824 L 272 823.5 L 272 816 Z " /><path fill="rgb(253,253,253)" stroke="rgb(253,253,253)" stroke-width="1" opacity="1" d="M 286 816 L 288 816.5 L 288 824 L 286 823.5 L 286 816 Z " /><path fill="rgb(253,253,253)" stroke="rgb(253,253,253)" stroke-width="1" opacity="1" d="M 392 816 L 394 816.5 L 394 824 L 392 823.5 L 392 816 Z " /><path fill="rgb(254,255,254)" stroke="rgb(254,255,254)" stroke-width="1" opacity="1" d="M 352 472 L 360 472 L 360 480 L 352 480 L 352 472 Z " /><path fill="rgb(254,255,254)" stroke="rgb(254,255,254)" stroke-width="1" opacity="1" d="M 211 488 L 216 488 L 216 496 L 211 496 L 211 488 Z " /><path fill="rgb(254,255,254)" stroke="rgb(254,255,254)" stroke-width="1" opacity="1" d="M 376 488 L 384 488 L 384 496 L 376 496 L 376 488 Z " /><path fill="rgb(254,255,254)" stroke="rgb(254,255,254)" stroke-width="1" opacity="1" d="M 128 504 L 136 504 L 136 512 L 128 512 L 128 504 Z " /><path fill="rgb(254,255,254)" stroke="rgb(254,255,254)" stroke-width="1" opacity="1" d="M 192 504 L 200 504 L 200 512 L 208 512 L 208 504 L 216 504 L 216 535.5 L 214 536 L 214 512.5 L 213.5 512 L 208 512 L 208 544 L 192 544 L 192 528 L 176 528 L 176 512 L 192 512 L 192 504 Z " /><path fill="rgb(254,255,254)" stroke="rgb(254,255,254)" stroke-width="1" opacity="1" d="M 275 504 L 285 504 L 285 512 L 275 512 L 275 504 Z " /><path fill="rgb(254,255,254)" stroke="rgb(254,255,254)" stroke-width="1" opacity="1" d="M 263.5 520 L 264 527.5 L 263 527.5 L 263.5 520 Z " /><path fill="rgb(254,255,254)" stroke="rgb(254,255,254)" stroke-width="1" opacity="1" d="M 272 520 L 285 520 L 285 528 L 282 528 L 282 535.5 L 280 536 L 280 528 L 272 528 L 272 520 Z " /><path fill="rgb(254,255,254)" stroke="rgb(254,255,254)" stroke-width="1" opacity="1" d="M 329.5 520 L 331.5 521 L 334 520 L 333.5 522 L 332 521.5 L 333 523.5 L 329.5 524 L 328 521.5 L 329.5 520 Z M 329 521 L 329 523 L 331 522 L 329 521 Z " /><path fill="rgb(254,255,254)" stroke="rgb(254,255,254)" stroke-width="1" opacity="1" d="M 329 525 L 331 525.5 L 326 529.5 L 329 525 Z " /><path fill="rgb(254,255,254)" stroke="rgb(254,255,254)" stroke-width="1" opacity="1" d="M 118 528 L 120 528.5 L 120 536 L 118 535.5 L 118 528 Z " /><path fill="rgb(254,255,254)" stroke="rgb(254,255,254)" stroke-width="1" opacity="1" d="M 126 536 L 128 536.5 L 128 544 L 126 543.5 L 126 536 Z " /><path fill="rgb(254,255,254)" stroke="rgb(254,255,254)" stroke-width="1" opacity="1" d="M 382.5 563 L 384.5 564 L 400 564.5 L 384.5 565 L 382.5 563 Z " /><path fill="rgb(254,255,254)" stroke="rgb(254,255,254)" stroke-width="1" opacity="1" d="M 139 584 L 141 584.5 L 141 592 L 139 591.5 L 139 584 Z " /><path fill="rgb(254,255,254)" stroke="rgb(254,255,254)" stroke-width="1" opacity="1" d="M 448 600 L 456 600 L 456 608 L 448 608 L 448 600 Z " /><path fill="rgb(254,255,254)" stroke="rgb(254,255,254)" stroke-width="1" opacity="1" d="M 360.5 606 L 368 606.5 L 360.5 607 L 360.5 606 Z " /><path fill="rgb(254,255,254)" stroke="rgb(254,255,254)" stroke-width="1" opacity="1" d="M 305.5 615 L 310 618.5 Q 307.8 619.8 310.5 621 Q 311.8 618.8 313 621.5 L 311.5 624 L 310 623.5 L 310.5 626 L 313 625 L 313.5 623 L 314.5 625 Q 315.8 622.7 317 625.5 L 317.5 628 Q 318.8 625.8 320 628.5 L 319.5 631 L 318 630.5 L 317.5 634 L 315.5 630 L 315 631.5 L 315.5 633 L 314 630 L 311 628.5 Q 311.7 625.9 309 627 L 309 623 L 306.5 623 L 303 620.5 L 305.5 615 Z M 305 616 L 306 619 L 307 617 L 305 616 Z M 306 619 L 307 622 L 308 620 L 306 619 Z M 314 625 L 311 627 L 314 627 L 315 630 L 316 626 L 314 625 Z " /><path fill="rgb(254,255,254)" stroke="rgb(254,255,254)" stroke-width="1" opacity="1" d="M 464 624 L 472 624 L 472 632 L 464 632 L 464 624 Z " /><path fill="rgb(254,255,254)" stroke="rgb(254,255,254)" stroke-width="1" opacity="1" d="M 321 631 L 323 631.5 L 321 632.5 L 321 631 Z " /><path fill="rgb(254,255,254)" stroke="rgb(254,255,254)" stroke-width="1" opacity="1" d="M 319.5 633 L 322.5 637 L 323 635.5 Q 320.7 634.3 323.5 633 L 324.5 636 L 325.5 635 L 329 638.5 L 328.5 640 L 326.5 637 L 324 640.5 L 326 641.5 L 326.5 640 L 327.5 642 L 326 642.5 L 326.5 644 L 324 642.5 L 322 638 L 320 637.5 Q 322.5 636 319 634.5 L 319.5 633 Z " /><path fill="rgb(254,255,254)" stroke="rgb(254,255,254)" stroke-width="1" opacity="1" d="M 317.5 635 L 318.5 637 L 317.5 635 Z " /><path fill="rgb(254,255,254)" stroke="rgb(254,255,254)" stroke-width="1" opacity="1" d="M 96 640 L 104 640 L 104 647.5 L 106 648.5 L 106 656 L 96 656 L 96 640 Z " /><path fill="rgb(254,255,254)" stroke="rgb(254,255,254)" stroke-width="1" opacity="1" d="M 250 656 Q 253.3 654.7 252 659.5 L 251 659.5 L 250 656 Z " /><path fill="rgb(254,255,254)" stroke="rgb(254,255,254)" stroke-width="1" opacity="1" d="M 246.5 669 Q 248.8 668.3 248 670.5 L 246 670.5 L 245.5 673 L 245 670.5 L 246.5 669 Z " /><path fill="rgb(254,255,254)" stroke="rgb(254,255,254)" stroke-width="1" opacity="1" d="M 96 672 L 104 672 L 104 680 L 112 680 L 112 704 L 104 704 L 104 712 L 96 712 L 96 672 Z " /><path fill="rgb(254,255,254)" stroke="rgb(254,255,254)" stroke-width="1" opacity="1" d="M 448 672 L 463.5 672 L 464 672.5 L 464 752 L 432 752 L 432 736 L 447.5 736 L 448 735.5 L 448 672 Z " /><path fill="rgb(254,255,254)" stroke="rgb(254,255,254)" stroke-width="1" opacity="1" d="M 243.5 673 L 249 675.5 L 246 677.5 L 245.5 679 L 245 677.5 L 245.5 676 L 242.5 677 L 241 676.5 L 242 679.5 L 241 680.5 L 242.5 683 L 237.5 680 L 237 683 L 239.5 682 L 241 684.5 L 238 686 L 237.5 688 L 237 686 L 234 684.5 Q 232.9 681.2 235.5 682 L 235.5 680 L 237.5 679 L 240.5 680 L 239.5 678 L 238 677.5 L 243.5 673 Z M 244 674 L 242 676 L 244 676 L 244 674 Z M 235 683 Q 234 686 237 685 Q 238 682 235 683 Z M 240 683 L 238 685 L 240 685 L 240 683 Z " /><path fill="rgb(254,255,254)" stroke="rgb(254,255,254)" stroke-width="1" opacity="1" d="M 196 675 L 201 675 L 201 676.5 L 195.5 681 L 195.5 680 L 197 679.5 L 195 679 L 196 675 Z M 198 676 L 196 678 L 198 678 L 198 676 Z " /><path fill="rgb(254,255,254)" stroke="rgb(254,255,254)" stroke-width="1" opacity="1" d="M 243.5 678 L 245 680.5 L 243 679.5 L 243.5 678 Z " /><path fill="rgb(254,255,254)" stroke="rgb(254,255,254)" stroke-width="1" opacity="1" d="M 470 704 L 472 704.5 L 472 720 L 470 719.5 L 470 704 Z " /><path fill="rgb(254,255,254)" stroke="rgb(254,255,254)" stroke-width="1" opacity="1" d="M 96 720 L 106 720 L 106 728 L 96 728 L 96 720 Z " /><path fill="rgb(254,255,254)" stroke="rgb(254,255,254)" stroke-width="1" opacity="1" d="M 280 728 L 282 728.5 L 282 736 L 280 735.5 L 280 728 Z " /><path fill="rgb(254,255,254)" stroke="rgb(254,255,254)" stroke-width="1" opacity="1" d="M 96 736 L 104 736 L 104 752 L 96 752 L 96 736 Z " /><path fill="rgb(254,255,254)" stroke="rgb(254,255,254)" stroke-width="1" opacity="1" d="M 184.5 738 Q 186.8 737.3 186 739.5 L 187 739.5 Q 186.3 737.3 188.5 738 L 188 739.5 Q 187.3 741.8 189.5 741 L 189.5 742 L 184 740.5 L 184.5 738 Z " /><path fill="rgb(254,255,254)" stroke="rgb(254,255,254)" stroke-width="1" opacity="1" d="M 184.5 742 L 190 743.5 L 186.5 744 L 184.5 742 Z " /><path fill="rgb(254,255,254)" stroke="rgb(254,255,254)" stroke-width="1" opacity="1" d="M 275 752 L 282 752 L 282 767.5 L 285 768 L 285 776 L 282 776 L 282 784 L 285 784 L 285 792 L 275 792 L 275 768 L 280 768 L 280 760 L 275 760 L 275 752 Z " /><path fill="rgb(254,255,254)" stroke="rgb(254,255,254)" stroke-width="1" opacity="1" d="M 214 768 L 216 768.5 L 216 784 L 214 783.5 L 214 768 Z " /><path fill="rgb(254,255,254)" stroke="rgb(254,255,254)" stroke-width="1" opacity="1" d="M 304 776 L 312 776 L 312 800 L 304 800 L 304 776 Z " /><path fill="rgb(254,255,254)" stroke="rgb(254,255,254)" stroke-width="1" opacity="1" d="M 470 776 L 472 776.5 L 472 784 L 470 783.5 L 470 776 Z " /><path fill="rgb(254,255,254)" stroke="rgb(254,255,254)" stroke-width="1" opacity="1" d="M 118 792 L 120 792.5 L 120 800 L 118 799.5 L 118 792 Z " /><path fill="rgb(254,255,254)" stroke="rgb(254,255,254)" stroke-width="1" opacity="1" d="M 326 808 L 328 808.5 L 328 816 L 326 815.5 L 326 808 Z " /><path fill="rgb(254,254,254)" stroke="rgb(254,254,254)" stroke-width="1" opacity="1" d="M 114 416 L 118 416 L 118 423.5 L 120 424.5 L 120 432 L 128 432 L 128 440 L 139 440 L 139 463.5 L 142 464 L 142 472 L 139 472 L 139 480 L 142 480 L 142 488 L 139 488.5 L 139 512 L 142 512 L 142 520 L 139 520.5 L 139 536 L 144 536 L 144.5 533 L 152 533 L 152 536 L 144 536 L 144 551.5 L 142 552.5 L 142 560 L 138 560 L 138 552.5 L 136 552 L 136 559.5 L 135.5 560 L 88 560 L 88 544 L 96 544 L 96 536 L 106 536 L 106 520 L 88 520 L 88 512 L 119.5 512 L 120 511.5 L 120 504 L 88.5 504 L 88 503.5 L 88 496 L 106 496 L 106 488 L 88 488 L 88 480 L 109 480 L 109 472 L 104 472 L 104 464 L 112 464 L 112 456 L 120 456 L 120 448 L 112 448 L 112 440.5 L 110 440 L 110 448 L 106 448 L 106 440.5 L 104 439.5 L 104 432 L 112 432 L 112 424.5 L 114 423.5 L 114 416 Z M 128 448 L 128 456 L 136 456 L 136 448 L 128 448 Z M 120 456 L 120 464 L 128 464 L 128 456 L 120 456 Z M 136 464 L 136 472 L 138 472 L 138 465 L 136 464 Z M 136 480 L 136 488 L 138 488 L 138 481 L 136 480 Z M 110 488 L 110 496 L 112 496 L 112 489 L 110 488 Z M 128 504 L 128 512 L 136 512 L 136 504 L 128 504 Z M 136 512 L 136 520 L 138 520 L 138 513 L 136 512 Z M 110 520 L 110 536 L 114 536 L 114 529 L 112 528 L 112 521 L 110 520 Z M 118 528 L 118 536 L 120 536 L 120 529 L 118 528 Z M 120 536 L 120 544 L 122 544 L 122 537 L 120 536 Z M 126 536 L 126 544 L 128 544 L 128 537 L 126 536 Z " /><path fill="rgb(254,254,254)" stroke="rgb(254,254,254)" stroke-width="1" opacity="1" d="M 168 432 L 176 432 L 176 448 L 184 448 L 184 440 L 192 440 L 192 464 L 208 464 L 208 480 L 240 480 L 240 504 L 224 504 L 224 512 L 248 512 L 248 520 L 243 520 L 243 527.5 L 240 528 L 240 536 L 243 536 L 243 544 L 248 544 L 248 560 L 256 560 L 256 568 L 248 568 L 248 560.5 L 246 560 L 246 568 L 242 568 L 242 560.5 L 240 560 L 240 576 L 256 576 L 256 584 L 232 584 L 232 592 L 256 592 L 256 608 L 263.5 608 L 263.5 609 Q 257.3 610.8 255.5 608 L 208.5 608 Q 206.8 610.8 200.5 609 L 200.5 608 L 208 608 L 208 592 L 224 592 L 224 576 L 192.5 576 L 192 576.5 L 192 583.5 L 191.5 584 L 168 584 L 168 568 L 144 568 L 144 560 L 176 560 L 176 544 L 160 544 L 160 520 L 144 520 L 144 512 L 160 512 L 160 504 L 152 504 L 152 496 L 160 496 L 160 464 L 176 464 L 176 448 L 168 448 L 168 432 Z M 211 488 L 211 496 L 216 496 L 216 488 L 211 488 Z M 192 504 L 192 512 L 176 512 L 176 528 L 192 528 L 192 544 L 208 544 L 208 537 L 210 536 L 210 512 L 214 513 L 214 536 L 216 536 L 216 504 L 208 504 L 208 512 L 200 512 L 200 504 L 192 504 Z M 224 520 L 224 528 L 226 528 L 226 521 L 224 520 Z M 230 520 L 230 528 L 240 528 L 240 520 L 230 520 Z " /><path fill="rgb(254,254,254)" stroke="rgb(254,254,254)" stroke-width="1" opacity="1" d="M 320 448 L 323 448 L 323 456 L 320 456 L 320 448 Z " /><path fill="rgb(254,254,254)" stroke="rgb(254,254,254)" stroke-width="1" opacity="1" d="M 232 464 L 243 464 L 243 472 L 232 472 L 232 464 Z " /><path fill="rgb(254,254,254)" stroke="rgb(254,254,254)" stroke-width="1" opacity="1" d="M 256 464 L 264 464 L 264 472 L 256 472 L 256 464 Z " /><path fill="rgb(254,254,254)" stroke="rgb(254,254,254)" stroke-width="1" opacity="1" d="M 282 464 L 286 464 L 286 472 L 282 472 L 282 464 Z " /><path fill="rgb(254,254,254)" stroke="rgb(254,254,254)" stroke-width="1" opacity="1" d="M 288 464 L 291 464 L 291 472 L 288 472 L 288 464 Z " /><path fill="rgb(254,254,254)" stroke="rgb(254,254,254)" stroke-width="1" opacity="1" d="M 392 464 L 395 464 L 395 472 L 392 472 L 392 464 Z " /><path fill="rgb(254,254,254)" stroke="rgb(254,254,254)" stroke-width="1" opacity="1" d="M 272 472 L 275 472 L 275 480 L 288 480 L 288 488 L 256.5 488 L 256 487.5 L 256 480 L 272 480 L 272 472 Z " /><path fill="rgb(254,254,254)" stroke="rgb(254,254,254)" stroke-width="1" opacity="1" d="M 77 488 L 80 488 L 80 496 L 77 496 L 77 488 Z " /><path fill="rgb(254,254,254)" stroke="rgb(254,254,254)" stroke-width="1" opacity="1" d="M 241.5 488 L 242 495.5 L 241 495.5 L 241.5 488 Z " /><path fill="rgb(254,254,254)" stroke="rgb(254,254,254)" stroke-width="1" opacity="1" d="M 320 512 L 336 512 L 336 520.5 L 334.5 520 L 328 520 L 328 524.5 L 328 526.5 L 327.5 528 L 320 528 L 320 512 Z " /><path fill="rgb(254,254,254)" stroke="rgb(254,254,254)" stroke-width="1" opacity="1" d="M 367.5 528 L 368 535.5 L 367 535.5 L 367.5 528 Z " /><path fill="rgb(254,254,254)" stroke="rgb(254,254,254)" stroke-width="1" opacity="1" d="M 324.5 530 L 323.5 532 L 324.5 530 Z " /><path fill="rgb(254,254,254)" stroke="rgb(254,254,254)" stroke-width="1" opacity="1" d="M 343.5 536 L 344 539.5 L 343 539.5 L 343.5 536 Z " /><path fill="rgb(254,254,254)" stroke="rgb(254,254,254)" stroke-width="1" opacity="1" d="M 341.5 540 L 342 542.5 L 341 542.5 L 341.5 540 Z " /><path fill="rgb(254,254,254)" stroke="rgb(254,254,254)" stroke-width="1" opacity="1" d="M 367.5 543 L 372 544 Q 373.2 547.7 368 546 L 367.5 543 Z " /><path fill="rgb(254,254,254)" stroke="rgb(254,254,254)" stroke-width="1" opacity="1" d="M 72 544 L 80 544 L 80 552 L 72 552 L 72 544 Z " /><path fill="rgb(254,254,254)" stroke="rgb(254,254,254)" stroke-width="1" opacity="1" d="M 313.5 544 L 314 551.5 L 313 551.5 L 313.5 544 Z " /><path fill="rgb(254,254,254)" stroke="rgb(254,254,254)" stroke-width="1" opacity="1" d="M 357.5 545 L 360 545.5 L 357.5 546 L 357.5 545 Z " /><path fill="rgb(254,254,254)" stroke="rgb(254,254,254)" stroke-width="1" opacity="1" d="M 360.5 549 L 368 549.5 L 360.5 550 L 360.5 549 Z " /><path fill="rgb(254,254,254)" stroke="rgb(254,254,254)" stroke-width="1" opacity="1" d="M 72 560 L 80 560 L 80 568 L 72 568 L 72 560 Z " /><path fill="rgb(254,254,254)" stroke="rgb(254,254,254)" stroke-width="1" opacity="1" d="M 344.5 560 L 345 567.5 L 344 567.5 L 344.5 560 Z " /><path fill="rgb(254,254,254)" stroke="rgb(254,254,254)" stroke-width="1" opacity="1" d="M 312.5 561 L 313 563.5 L 312 563.5 L 312.5 561 Z " /><path fill="rgb(254,254,254)" stroke="rgb(254,254,254)" stroke-width="1" opacity="1" d="M 387.5 561 L 390 561.5 L 387.5 562 L 387.5 561 Z " /><path fill="rgb(254,254,254)" stroke="rgb(254,254,254)" stroke-width="1" opacity="1" d="M 342.5 568 L 343 575.5 L 342 575.5 L 342.5 568 Z " /><path fill="rgb(254,254,254)" stroke="rgb(254,254,254)" stroke-width="1" opacity="1" d="M 144 576 L 152 576 L 152 584 L 144 584 L 144 576 Z " /><path fill="rgb(254,254,254)" stroke="rgb(254,254,254)" stroke-width="1" opacity="1" d="M 306 576 L 310 576 L 310 583.5 L 312 584 L 312.5 576 L 313 583.5 L 312 585.5 L 312 587.5 L 312 592 L 304 592 L 304 584.5 L 306 583.5 L 306 576 Z " /><path fill="rgb(254,254,254)" stroke="rgb(254,254,254)" stroke-width="1" opacity="1" d="M 160.5 578 L 163 578.5 L 160.5 579 L 160.5 578 Z " /><path fill="rgb(254,254,254)" stroke="rgb(254,254,254)" stroke-width="1" opacity="1" d="M 173.5 586 L 172.5 588 L 173.5 586 Z " /><path fill="rgb(254,254,254)" stroke="rgb(254,254,254)" stroke-width="1" opacity="1" d="M 77 592 L 80 592 L 80 600 L 77 600 L 77 592 Z " /><path fill="rgb(254,254,254)" stroke="rgb(254,254,254)" stroke-width="1" opacity="1" d="M 160 600 L 162 600.5 L 162 608 L 160 607.5 L 160 600 Z " /><path fill="rgb(254,254,254)" stroke="rgb(254,254,254)" stroke-width="1" opacity="1" d="M 368.5 606 L 392 606.5 L 360.5 608 L 360.5 607 Q 366.8 608.8 368.5 606 Z " /><path fill="rgb(254,254,254)" stroke="rgb(254,254,254)" stroke-width="1" opacity="1" d="M 272.5 608 L 280 608.5 L 272.5 609 L 272.5 608 Z " /><path fill="rgb(254,254,254)" stroke="rgb(254,254,254)" stroke-width="1" opacity="1" d="M 293.5 608 L 297 608.5 L 293.5 609 L 293.5 608 Z " /><path fill="rgb(254,254,254)" stroke="rgb(254,254,254)" stroke-width="1" opacity="1" d="M 424 608 L 432 608 L 432 616 L 424 616 L 424 608 Z " /><path fill="rgb(254,254,254)" stroke="rgb(254,254,254)" stroke-width="1" opacity="1" d="M 208 610 L 239.5 610 L 240 612 L 208.5 612 L 208 610 Z " /><path fill="rgb(254,254,254)" stroke="rgb(254,254,254)" stroke-width="1" opacity="1" d="M 260.5 610 L 262 610.5 L 259.5 612 L 260.5 610 Z " /><path fill="rgb(254,254,254)" stroke="rgb(254,254,254)" stroke-width="1" opacity="1" d="M 290.5 610 L 290.5 612 L 292 612.5 L 287.5 614 L 264.5 614 L 264.5 613 L 279.5 613 Q 281.3 610.2 287.5 612 L 290.5 610 Z " /><path fill="rgb(254,254,254)" stroke="rgb(254,254,254)" stroke-width="1" opacity="1" d="M 200.5 614 L 208 614.5 L 200.5 615 L 200.5 614 Z " /><path fill="rgb(254,254,254)" stroke="rgb(254,254,254)" stroke-width="1" opacity="1" d="M 257.5 614 L 260 614.5 L 257.5 615 L 257.5 614 Z " /><path fill="rgb(254,254,254)" stroke="rgb(254,254,254)" stroke-width="1" opacity="1" d="M 160 616 L 168 616 L 168 624 L 160 624 L 160 616 Z " /><path fill="rgb(254,254,254)" stroke="rgb(254,254,254)" stroke-width="1" opacity="1" d="M 384 616 L 395 616 L 395 624 L 398 624.5 L 398 640 L 395 640.5 L 395 664 L 376 664 L 376 656 L 384 656 L 384 640 L 376 640 L 376 624 L 384 624 L 384 616 Z M 392 624 L 392 640 L 394 640 L 394 625 L 392 624 Z " /><path fill="rgb(254,254,254)" stroke="rgb(254,254,254)" stroke-width="1" opacity="1" d="M 72 624 L 80 624 L 80 640 L 72 640 L 72 624 Z " /><path fill="rgb(254,254,254)" stroke="rgb(254,254,254)" stroke-width="1" opacity="1" d="M 249 624 Q 251.7 622.9 251 625.5 L 250 626.5 L 250 639.5 L 251.5 648 L 252.5 640 L 253 647.5 L 251.5 656 L 251 648 L 249 647.5 L 249 624 Z " /><path fill="rgb(254,254,254)" stroke="rgb(254,254,254)" stroke-width="1" opacity="1" d="M 253.5 624 L 254 625.5 L 252.5 629 L 252 626.5 L 253.5 624 Z " /><path fill="rgb(254,254,254)" stroke="rgb(254,254,254)" stroke-width="1" opacity="1" d="M 152 632 L 160 632 L 160 640 L 152 640 L 152 632 Z " /><path fill="rgb(254,254,254)" stroke="rgb(254,254,254)" stroke-width="1" opacity="1" d="M 192 632 L 201 632 L 201 640 L 192 640 L 192 632 Z " /><path fill="rgb(254,254,254)" stroke="rgb(254,254,254)" stroke-width="1" opacity="1" d="M 416 632 L 424 632 L 424 640 L 416.5 640 L 415.5 638 L 408 638 L 407.5 640 L 400 640 L 400 637 L 407.5 637 L 408.5 635 L 416 635 L 416 632 Z " /><path fill="rgb(254,254,254)" stroke="rgb(254,254,254)" stroke-width="1" opacity="1" d="M 360 640 L 363 640 L 363 648 L 360 648 L 360 640 Z " /><path fill="rgb(254,254,254)" stroke="rgb(254,254,254)" stroke-width="1" opacity="1" d="M 192 656 L 200 656 L 200 664 L 192 664 L 192 656 Z " /><path fill="rgb(254,254,254)" stroke="rgb(254,254,254)" stroke-width="1" opacity="1" d="M 249.5 656 Q 252.5 658 252 663.5 L 251 663.5 Q 248 660.8 249.5 656 Z " /><path fill="rgb(254,254,254)" stroke="rgb(254,254,254)" stroke-width="1" opacity="1" d="M 248.5 661 L 249 663.5 L 248 663.5 L 248.5 661 Z " /><path fill="rgb(254,254,254)" stroke="rgb(254,254,254)" stroke-width="1" opacity="1" d="M 257.5 669 L 256.5 671 L 257.5 669 Z " /><path fill="rgb(254,254,254)" stroke="rgb(254,254,254)" stroke-width="1" opacity="1" d="M 277 680 L 280 680 L 280 688 L 277 688 L 277 680 Z " /><path fill="rgb(254,254,254)" stroke="rgb(254,254,254)" stroke-width="1" opacity="1" d="M 384 680 L 394.5 680 L 395 680.5 L 395 760 L 376.5 760 L 376 760.5 L 376 768 L 368 768 L 368 752 L 384 752 L 384 728.5 L 384.5 728 L 392 728 L 392 720 L 384 720 L 384 704.5 L 383.5 704 L 376 704 L 376 688 L 384 688 L 384 680 Z " /><path fill="rgb(254,254,254)" stroke="rgb(254,254,254)" stroke-width="1" opacity="1" d="M 157 688 L 160 688 L 160 696 L 157 696 L 157 688 Z " /><path fill="rgb(254,254,254)" stroke="rgb(254,254,254)" stroke-width="1" opacity="1" d="M 326.5 688 L 327 695.5 L 326 695.5 L 326.5 688 Z " /><path fill="rgb(254,254,254)" stroke="rgb(254,254,254)" stroke-width="1" opacity="1" d="M 329.5 688 L 328.5 690 L 329.5 688 Z " /><path fill="rgb(254,254,254)" stroke="rgb(254,254,254)" stroke-width="1" opacity="1" d="M 328.5 694 L 330 696.5 L 331 711.5 L 330 711.5 L 330 704.5 L 328.5 694 Z " /><path fill="rgb(254,254,254)" stroke="rgb(254,254,254)" stroke-width="1" opacity="1" d="M 64 696 L 67 696 L 67 704 L 64 704 L 64 696 Z " /><path fill="rgb(254,254,254)" stroke="rgb(254,254,254)" stroke-width="1" opacity="1" d="M 77 696 L 80 696.5 L 80 712 L 77 711.5 L 77 696 Z " /><path fill="rgb(254,254,254)" stroke="rgb(254,254,254)" stroke-width="1" opacity="1" d="M 256 696 L 259 696 L 259 704 Q 254.5 702.3 256 707.5 L 255 707.5 L 254 704 L 256 703.5 L 256 696 Z " /><path fill="rgb(254,254,254)" stroke="rgb(254,254,254)" stroke-width="1" opacity="1" d="M 223.5 697 Q 226.5 698.5 223.5 700 L 223.5 697 Z " /><path fill="rgb(254,254,254)" stroke="rgb(254,254,254)" stroke-width="1" opacity="1" d="M 178 704 L 182 704 L 182 712 L 178 712 L 178 704 Z " /><path fill="rgb(254,254,254)" stroke="rgb(254,254,254)" stroke-width="1" opacity="1" d="M 184.5 704 L 185 711.5 L 184 711.5 L 184.5 704 Z " /><path fill="rgb(254,254,254)" stroke="rgb(254,254,254)" stroke-width="1" opacity="1" d="M 370 704 L 374 704 L 374 712 L 370 712 L 370 704 Z " /><path fill="rgb(254,254,254)" stroke="rgb(254,254,254)" stroke-width="1" opacity="1" d="M 144 712 L 152 712 L 152 720 L 144 720 L 144 712 Z " /><path fill="rgb(254,254,254)" stroke="rgb(254,254,254)" stroke-width="1" opacity="1" d="M 224.5 712 L 225 719.5 L 224 719.5 L 224.5 712 Z " /><path fill="rgb(254,254,254)" stroke="rgb(254,254,254)" stroke-width="1" opacity="1" d="M 296.5 712 L 297 719.5 L 296 719.5 L 296.5 712 Z " /><path fill="rgb(254,254,254)" stroke="rgb(254,254,254)" stroke-width="1" opacity="1" d="M 327.5 712 L 328 719.5 L 327 719.5 L 327.5 712 Z " /><path fill="rgb(254,254,254)" stroke="rgb(254,254,254)" stroke-width="1" opacity="1" d="M 176 720 L 179 720 L 179 728 L 176 728 L 176 720 Z " /><path fill="rgb(254,254,254)" stroke="rgb(254,254,254)" stroke-width="1" opacity="1" d="M 331.5 720 L 332 728.5 L 331 728.5 L 331.5 720 Z " /><path fill="rgb(254,254,254)" stroke="rgb(254,254,254)" stroke-width="1" opacity="1" d="M 400 720 L 408 720 L 408 723 L 400 723 L 400 720 Z " /><path fill="rgb(254,254,254)" stroke="rgb(254,254,254)" stroke-width="1" opacity="1" d="M 327 728 Q 331 726.6 329 733.5 L 327.5 736 L 327 728 Z " /><path fill="rgb(254,254,254)" stroke="rgb(254,254,254)" stroke-width="1" opacity="1" d="M 176 736 L 184 736 L 184 743.5 L 186.5 744 Q 190.3 744.8 191 742.5 L 190 740.5 L 191 740.5 L 192 742.5 L 192 744.5 L 192 752 L 176 752 L 176 736 Z " /><path fill="rgb(254,254,254)" stroke="rgb(254,254,254)" stroke-width="1" opacity="1" d="M 312 739 L 319.5 739 L 320 741 L 312.5 741 L 312 739 Z " /><path fill="rgb(254,254,254)" stroke="rgb(254,254,254)" stroke-width="1" opacity="1" d="M 356.5 739 L 358 742.5 L 356 741.5 L 356.5 739 Z " /><path fill="rgb(254,254,254)" stroke="rgb(254,254,254)" stroke-width="1" opacity="1" d="M 72 752 L 80 752 L 80 760 L 72 760 L 72 752 Z " /><path fill="rgb(254,254,254)" stroke="rgb(254,254,254)" stroke-width="1" opacity="1" d="M 344 752 L 352 752 L 352 760 L 344 760 L 344 752 Z " /><path fill="rgb(254,254,254)" stroke="rgb(254,254,254)" stroke-width="1" opacity="1" d="M 77 784 L 80 784 L 80 792 L 77 792 L 77 784 Z " /><path fill="rgb(254,254,254)" stroke="rgb(254,254,254)" stroke-width="1" opacity="1" d="M 246 792 L 248 792.5 L 248 800 L 246 799.5 L 246 792 Z " /><path fill="rgb(254,254,254)" stroke="rgb(254,254,254)" stroke-width="1" opacity="1" d="M 400 808 L 416 808 L 416 816 L 400 816 L 400 808 Z " /><path fill="rgb(247,247,247)" stroke="rgb(247,247,247)" stroke-width="1" opacity="1" d="M 366.5 512 Q 369.3 513.3 367 514.5 L 368 516.5 L 366 518.5 L 366 540 L 368 540.5 L 366 541.5 L 367 543.5 L 364.5 544 L 348.5 544 L 348 541.5 L 347 539.5 L 348 534.5 L 345 535.5 L 347.5 532 Q 350.7 535.4 349 543 L 365 543 L 365 516.5 L 367 513.5 L 366.5 512 Z " /><path fill="rgb(247,247,247)" stroke="rgb(247,247,247)" stroke-width="1" opacity="1" d="M 361.5 514 L 362 516.5 L 362.5 518 L 364 517.5 L 361 519 L 360.5 521 L 360 519.5 L 361 516.5 Q 358.8 515.3 361.5 514 Z " /><path fill="rgb(247,247,247)" stroke="rgb(247,247,247)" stroke-width="1" opacity="1" d="M 342.5 515 L 343.5 517 Q 342.3 514.8 341 517.5 L 341.5 519 L 340 516 L 342.5 515 Z " /><path fill="rgb(247,247,247)" stroke="rgb(247,247,247)" stroke-width="1" opacity="1" d="M 331.5 520 L 333.5 523 L 331.5 520 Z " /><path fill="rgb(247,247,247)" stroke="rgb(247,247,247)" stroke-width="1" opacity="1" d="M 353.5 520 L 355.5 521 L 357.5 520 L 359 522.5 L 358 522.5 Q 358.8 520.3 356.5 521 L 353.5 523 L 353.5 520 Z " /><path fill="rgb(247,247,247)" stroke="rgb(247,247,247)" stroke-width="1" opacity="1" d="M 348.5 528 L 350.5 529 L 352 528.5 L 352 530.5 L 349.5 533 L 350.5 530 L 348.5 529 L 346 530.5 L 348.5 528 Z " /><path fill="rgb(247,247,247)" stroke="rgb(247,247,247)" stroke-width="1" opacity="1" d="M 320.5 530 L 323 530.5 Q 320.9 533.8 320.5 530 Z " /><path fill="rgb(247,247,247)" stroke="rgb(247,247,247)" stroke-width="1" opacity="1" d="M 325.5 531 L 316 541.5 L 315.5 589 L 313 587.5 L 312.5 589 L 312 587.5 L 315 586.5 L 314.5 541 L 313 541.5 L 316 540.5 L 313 536.5 L 315.5 538 L 317.5 539 L 318 537 L 321 535.5 L 323.5 532 L 325.5 531 Z " /><path fill="rgb(247,247,247)" stroke="rgb(247,247,247)" stroke-width="1" opacity="1" d="M 345.5 541 L 347 543.5 L 344 545.5 L 344.5 543 L 346 543.5 L 345.5 541 Z " /><path fill="rgb(247,247,247)" stroke="rgb(247,247,247)" stroke-width="1" opacity="1" d="M 348.5 545 L 346.5 548 L 344.5 549 L 345.5 547 L 348.5 545 Z " /><path fill="rgb(247,247,247)" stroke="rgb(247,247,247)" stroke-width="1" opacity="1" d="M 381.5 548 L 384 548.5 L 381.5 549 L 381.5 548 Z " /><path fill="rgb(247,247,247)" stroke="rgb(247,247,247)" stroke-width="1" opacity="1" d="M 347.5 549 L 347.5 551 L 349.5 550 L 349 551.5 L 348.5 579 L 348 552.5 L 346 550.5 L 347.5 549 Z " /><path fill="rgb(247,247,247)" stroke="rgb(247,247,247)" stroke-width="1" opacity="1" d="M 377.5 549 L 378.5 551 L 377.5 549 Z " /><path fill="rgb(247,247,247)" stroke="rgb(247,247,247)" stroke-width="1" opacity="1" d="M 356.5 550 L 360 550.5 L 356.5 551 L 356.5 550 Z " /><path fill="rgb(247,247,247)" stroke="rgb(247,247,247)" stroke-width="1" opacity="1" d="M 368.5 550 L 373 550.5 L 368.5 551 L 368.5 550 Z " /><path fill="rgb(247,247,247)" stroke="rgb(247,247,247)" stroke-width="1" opacity="1" d="M 380.5 550 L 382 551.5 L 382 559.5 L 383 560.5 L 382 563.5 L 382.5 567 L 404.5 567 L 407.5 565 L 407.5 566 L 406 566.5 L 408 567 L 407.5 588 L 407 568 L 381 568 L 381 551.5 L 380.5 550 Z " /><path fill="rgb(247,247,247)" stroke="rgb(247,247,247)" stroke-width="1" opacity="1" d="M 165.5 578 L 168 580.5 L 168 582.5 L 170 585.5 L 176 590 L 176 592 Q 178.7 590.9 178 593.5 L 184 598 L 184 600 Q 186.7 598.9 186 601.5 L 188 601.5 Q 185.3 603.2 189.5 605 L 191.5 604 L 191.5 605 L 190 605.5 L 192 606 L 192 608 L 194 608 L 194 610 Q 196.7 608.9 196 611.5 L 198.5 612 L 200 612.5 L 198 613.5 L 198.5 615 L 162 579.5 L 163.5 579 L 166.5 581 L 165.5 578 Z " /><path fill="rgb(247,247,247)" stroke="rgb(247,247,247)" stroke-width="1" opacity="1" d="M 161.5 581 L 160.5 583 L 161.5 581 Z " /><path fill="rgb(247,247,247)" stroke="rgb(247,247,247)" stroke-width="1" opacity="1" d="M 406.5 589 L 407 591.5 L 405.5 594 L 403 594.5 L 404.5 599 L 403.5 598 L 401 599.5 L 402.5 597 L 399 599.5 L 399.5 601 L 398 599.5 L 401.5 596 L 403 595.5 Q 400.3 593.8 404.5 592 L 406 592.5 L 405 590.5 L 406.5 589 Z " /><path fill="rgb(247,247,247)" stroke="rgb(247,247,247)" stroke-width="1" opacity="1" d="M 313 590 L 315 590.5 L 313 591.5 L 313 590 Z " /><path fill="rgb(247,247,247)" stroke="rgb(247,247,247)" stroke-width="1" opacity="1" d="M 308.5 592 L 311 592.5 L 310 593.5 L 311.5 596 L 308 593.5 L 310 596.5 L 308 597 L 307 593.5 L 308.5 592 Z " /><path fill="rgb(247,247,247)" stroke="rgb(247,247,247)" stroke-width="1" opacity="1" d="M 305.5 596 L 307 598.5 L 306 599.5 L 307.5 602 Q 303.3 600.3 306 598.5 L 305.5 596 Z " /><path fill="rgb(247,247,247)" stroke="rgb(247,247,247)" stroke-width="1" opacity="1" d="M 405.5 596 L 407.5 599 L 405.5 596 Z " /><path fill="rgb(247,247,247)" stroke="rgb(247,247,247)" stroke-width="1" opacity="1" d="M 309.5 598 L 308.5 600 L 309.5 598 Z " /><path fill="rgb(247,247,247)" stroke="rgb(247,247,247)" stroke-width="1" opacity="1" d="M 189.5 600 L 192 600.5 L 189 602.5 L 189.5 600 Z " /><path fill="rgb(247,247,247)" stroke="rgb(247,247,247)" stroke-width="1" opacity="1" d="M 397.5 601 L 398.5 603 Q 397.2 600.8 396 603.5 L 394.5 608 L 394 605.5 L 397.5 601 Z " /><path fill="rgb(247,247,247)" stroke="rgb(247,247,247)" stroke-width="1" opacity="1" d="M 305.5 602 Q 308.5 603.5 305.5 605 L 304 604.5 L 306 603.5 L 305.5 602 Z " /><path fill="rgb(247,247,247)" stroke="rgb(247,247,247)" stroke-width="1" opacity="1" d="M 301.5 608 L 304 608.5 L 303 610.5 L 330 638.5 L 327 636.5 L 323.5 632 L 322 632.5 Q 324.8 630.8 320.5 629 L 318 630.5 L 318 626.5 L 315.5 624 L 313 622.5 L 312.5 621 L 311.5 622 L 309 620.5 L 311 623.5 L 308 621.5 Q 308.8 619.3 306.5 620 L 305 617.5 Q 309.3 615.3 304.5 613 L 303 613.5 Q 305.3 612.3 302.5 611 L 302 614.5 L 302.5 616 L 300.5 615 L 299.5 617 L 301 617 L 301 619 Q 303.7 617.9 303 620.5 L 305 620.5 L 304.5 622 L 306.5 621 L 306.5 623 L 308 623.5 L 307.5 625 L 309 625.5 L 307.5 626 L 298 616.5 L 301 613.5 L 302 609.5 L 301.5 608 Z M 307 617 Q 305 620 308 619 L 307 617 Z " /><path fill="rgb(247,247,247)" stroke="rgb(247,247,247)" stroke-width="1" opacity="1" d="M 251.5 610 L 252 612 L 250 611.5 L 251.5 610 Z " /><path fill="rgb(247,247,247)" stroke="rgb(247,247,247)" stroke-width="1" opacity="1" d="M 160.5 611 L 163 615.5 L 160 615.5 L 161 613.5 L 160.5 611 Z " /><path fill="rgb(247,247,247)" stroke="rgb(247,247,247)" stroke-width="1" opacity="1" d="M 162.5 611 L 165 611.5 Q 162.9 614.8 162.5 611 Z " /><path fill="rgb(247,247,247)" stroke="rgb(247,247,247)" stroke-width="1" opacity="1" d="M 165.5 613 L 164.5 615 L 165.5 613 Z " /><path fill="rgb(247,247,247)" stroke="rgb(247,247,247)" stroke-width="1" opacity="1" d="M 246 613 L 248 613.5 L 248 615.5 L 248 666.5 L 247 667.5 L 249 668.5 L 249.5 667 L 250 668.5 Q 248.8 671.3 247.5 669 L 246 669.5 L 246.5 671 Q 245.3 668.8 244 671.5 L 244.5 673 L 242 672.5 L 247 666.5 L 247 616.5 L 246 613 Z " /><path fill="rgb(247,247,247)" stroke="rgb(247,247,247)" stroke-width="1" opacity="1" d="M 167.5 614 L 182.5 629 L 200 629.5 L 182.5 630 L 180.5 632 Q 182.1 630.3 179 628.5 L 178.5 626 L 176.5 627 L 176.5 626 L 178 625.5 L 175 623.5 L 173 620.5 L 171 621.5 L 174 623.5 L 172.5 624 L 170 623.5 Q 172.3 622.3 169.5 621 L 168 621.5 L 172 619.5 L 169 617.5 L 168.5 619 L 168 617.5 L 169 616.5 L 167.5 614 Z " /><path fill="rgb(247,247,247)" stroke="rgb(247,247,247)" stroke-width="1" opacity="1" d="M 240.5 614 L 241.5 616 L 240.5 614 Z " /><path fill="rgb(247,247,247)" stroke="rgb(247,247,247)" stroke-width="1" opacity="1" d="M 255.5 614 L 256 615.5 L 255 616.5 L 255 663.5 L 254 664.5 L 256.5 668 L 258 668.5 L 256.5 669 L 253 664.5 L 254 663.5 L 254 615.5 L 255.5 614 Z " /><path fill="rgb(247,247,247)" stroke="rgb(247,247,247)" stroke-width="1" opacity="1" d="M 312.5 628 L 312.5 630 Q 314.8 630.8 314 628.5 L 315 628.5 L 315.5 630 L 317 629.5 L 316.5 632 L 314 630.5 L 315.5 633 L 317.5 634 L 320 632.5 L 319 634.5 L 321 634.5 L 320.5 638 L 322 638.5 L 320.5 639 L 318.5 635 L 311 629.5 L 312.5 628 Z " /><path fill="rgb(247,247,247)" stroke="rgb(247,247,247)" stroke-width="1" opacity="1" d="M 323.5 634 L 325.5 637 L 323 635.5 L 324 637.5 L 322 636.5 L 323.5 634 Z " /><path fill="rgb(247,247,247)" stroke="rgb(247,247,247)" stroke-width="1" opacity="1" d="M 323.5 639 L 323.5 642 Q 320.5 640.5 323.5 639 Z " /><path fill="rgb(247,247,247)" stroke="rgb(247,247,247)" stroke-width="1" opacity="1" d="M 359.5 652 L 358 654.5 L 357 657.5 L 358.5 658 L 360 657.5 L 357.5 659 L 356 658.5 L 355.5 660 L 353.5 659 L 354.5 662 L 351 661.5 Q 351.8 663.8 349.5 663 L 347 667 L 344 668.5 L 344.5 670 L 343 669.5 L 342.5 671 L 342 669.5 L 359.5 652 Z " /><path fill="rgb(247,247,247)" stroke="rgb(247,247,247)" stroke-width="1" opacity="1" d="M 358.5 660 L 357.5 662 L 358.5 660 Z " /><path fill="rgb(247,247,247)" stroke="rgb(247,247,247)" stroke-width="1" opacity="1" d="M 359.5 662 L 360 664 L 357.5 665 L 359.5 662 Z " /><path fill="rgb(247,247,247)" stroke="rgb(247,247,247)" stroke-width="1" opacity="1" d="M 348.5 667 L 346.5 670 L 348.5 667 Z " /><path fill="rgb(247,247,247)" stroke="rgb(247,247,247)" stroke-width="1" opacity="1" d="M 350.5 668 L 350.5 670 L 352.5 669 L 351.5 671 Q 349.3 670.3 350 672.5 L 333 689.5 L 333 737.5 L 333.5 739 L 332 737.5 L 332 692.5 L 331 690.5 Q 334.1 688.8 332.5 687 L 334.5 687 L 344 677.5 L 342.5 676 L 340 677.5 L 342.5 673 L 344.5 677 L 345 675 L 347 675 L 347 673 Q 349.7 674.1 349 671.5 L 350.5 668 Z " /><path fill="rgb(247,247,247)" stroke="rgb(247,247,247)" stroke-width="1" opacity="1" d="M 259.5 669 L 258.5 671 L 259.5 669 Z " /><path fill="rgb(247,247,247)" stroke="rgb(247,247,247)" stroke-width="1" opacity="1" d="M 261.5 670 L 264 671.5 L 262.5 672 L 261.5 670 Z " /><path fill="rgb(247,247,247)" stroke="rgb(247,247,247)" stroke-width="1" opacity="1" d="M 340.5 671 L 341 672.5 L 338 674.5 L 340.5 671 Z " /><path fill="rgb(247,247,247)" stroke="rgb(247,247,247)" stroke-width="1" opacity="1" d="M 249.5 673 L 252 674.5 L 238 687.5 L 237.5 686 L 235 687.5 Q 238.5 686 236 684.5 L 238.5 681 L 242.5 679 L 241 681.5 L 242.5 683 L 248 676 Q 250.7 677.1 250 674.5 L 248 674.5 L 249.5 673 Z M 240 682 L 240 685 L 241 685 Q 242 681 240 682 Z M 237 683 L 237 685 L 240 686 L 239 685 Q 240 682 237 683 Z " /><path fill="rgb(247,247,247)" stroke="rgb(247,247,247)" stroke-width="1" opacity="1" d="M 254.5 673 L 259 675.5 L 257 676.5 L 257.5 675 L 255.5 676 L 254.5 674 L 253 674.5 L 254.5 673 Z " /><path fill="rgb(247,247,247)" stroke="rgb(247,247,247)" stroke-width="1" opacity="1" d="M 267.5 673 L 268 675 L 263.5 677 L 263.5 676 L 265 675.5 L 264.5 674 Q 266 676.5 267.5 673 Z " /><path fill="rgb(247,247,247)" stroke="rgb(247,247,247)" stroke-width="1" opacity="1" d="M 240.5 674 L 242.5 675 L 244 674.5 L 241.5 678 L 241 676.5 L 241.5 675 L 240.5 674 Z " /><path fill="rgb(247,247,247)" stroke="rgb(247,247,247)" stroke-width="1" opacity="1" d="M 269.5 674 L 274 676 L 274.5 678 L 276.5 678 L 285 682.5 L 284.5 684 L 284 682 L 281.5 682 L 275.5 678 L 274.5 679 L 271.5 676 L 269.5 674 Z " /><path fill="rgb(247,247,247)" stroke="rgb(247,247,247)" stroke-width="1" opacity="1" d="M 336.5 675 L 338.5 678 L 336.5 676 L 332 680.5 L 334 681.5 Q 333.3 679.3 335.5 680 L 337 679.5 Q 333.9 681.2 335.5 683 L 331.5 681 L 327 685.5 Q 329.5 687 326 688.5 L 326 735.5 L 327 736.5 L 325 737 L 325 688.5 L 326 687.5 L 325 686.5 L 336.5 675 Z " /><path fill="rgb(247,247,247)" stroke="rgb(247,247,247)" stroke-width="1" opacity="1" d="M 199.5 676 L 201 677.5 L 186 692.5 L 186 737.5 L 187 738.5 L 185.5 738 L 184 737.5 L 185 736.5 L 185 695.5 L 185 693.5 Q 183.9 690.2 186.5 691 L 190 686 L 195 682.5 Q 191.2 680.8 194.5 679 L 194.5 681 Q 199.5 681.5 200 677.5 L 199.5 676 Z " /><path fill="rgb(247,247,247)" stroke="rgb(247,247,247)" stroke-width="1" opacity="1" d="M 260.5 676 L 259.5 678 L 260.5 676 Z " /><path fill="rgb(247,247,247)" stroke="rgb(247,247,247)" stroke-width="1" opacity="1" d="M 261.5 678 L 263.5 679 L 265.5 678 L 265.5 679 L 263.5 680 L 261.5 678 Z " /><path fill="rgb(247,247,247)" stroke="rgb(247,247,247)" stroke-width="1" opacity="1" d="M 271.5 678 L 270.5 684 Q 269.3 681.8 268 684.5 L 270 685.5 L 268.5 686 L 266 685.5 L 270.5 680 L 267.5 682 L 265 680.5 L 266.5 680 Q 268 682.5 269.5 679 L 271.5 678 Z " /><path fill="rgb(247,247,247)" stroke="rgb(247,247,247)" stroke-width="1" opacity="1" d="M 234.5 680 L 235.5 682 Q 232.9 681.2 234 684.5 L 234.5 686 L 232.5 683 L 232 685 L 230 685.5 L 230.5 687 L 229 686.5 Q 228.3 688.8 230.5 688 L 231.5 690 L 227.5 688 L 228.5 690 L 230 690.5 L 228.5 691 L 226.5 690 L 224 691.5 L 234.5 680 Z " /><path fill="rgb(247,247,247)" stroke="rgb(247,247,247)" stroke-width="1" opacity="1" d="M 281.5 683 L 280.5 685 L 281.5 683 Z " /><path fill="rgb(247,247,247)" stroke="rgb(247,247,247)" stroke-width="1" opacity="1" d="M 290.5 685 L 289.5 687 L 290.5 685 Z " /><path fill="rgb(247,247,247)" stroke="rgb(247,247,247)" stroke-width="1" opacity="1" d="M 330.5 685 L 332 685.5 L 330 686.5 L 330.5 688 Q 327.5 686.5 330.5 685 Z " /><path fill="rgb(247,247,247)" stroke="rgb(247,247,247)" stroke-width="1" opacity="1" d="M 287.5 686 L 286.5 688 L 287.5 686 Z " /><path fill="rgb(247,247,247)" stroke="rgb(247,247,247)" stroke-width="1" opacity="1" d="M 292.5 686 L 291.5 688 L 292.5 686 Z " /><path fill="rgb(247,247,247)" stroke="rgb(247,247,247)" stroke-width="1" opacity="1" d="M 227.5 692 L 225.5 695 L 225 693 L 227.5 692 Z " /><path fill="rgb(247,247,247)" stroke="rgb(247,247,247)" stroke-width="1" opacity="1" d="M 230.5 692 L 233 692.5 Q 231 696.2 229 694.5 L 228 696.5 Q 230.3 697.8 227.5 699 L 226 699.5 L 227 700.5 L 227 738 L 229 738.5 L 227 739 Q 228.1 741.7 225.5 741 L 227 738.5 L 226 737.5 L 226 700.5 L 225 699.5 L 225 697.5 L 230.5 692 Z " /><path fill="rgb(247,247,247)" stroke="rgb(247,247,247)" stroke-width="1" opacity="1" d="M 259.5 692 L 256 696.5 L 255 698.5 Q 257.5 700 254 701.5 L 254 737.5 L 253 738.5 L 254 740.5 L 253 740.5 Q 253.8 738.3 251.5 739 L 251.5 738 L 253 737.5 L 253 699.5 L 259.5 692 Z " /><path fill="rgb(247,247,247)" stroke="rgb(247,247,247)" stroke-width="1" opacity="1" d="M 262.5 693 L 262 694.5 L 261.5 696 L 260.5 694 L 262.5 693 Z " /><path fill="rgb(247,247,247)" stroke="rgb(247,247,247)" stroke-width="1" opacity="1" d="M 220.5 695 L 221.5 697 L 220.5 695 Z " /><path fill="rgb(247,247,247)" stroke="rgb(247,247,247)" stroke-width="1" opacity="1" d="M 218.5 697 L 219.5 699 Q 218.3 696.8 217 699.5 Q 219.7 701.2 215.5 703 L 213 702.5 L 218.5 697 Z " /><path fill="rgb(247,247,247)" stroke="rgb(247,247,247)" stroke-width="1" opacity="1" d="M 213.5 736 L 214 738 L 211.5 739 L 213.5 736 Z " /><path fill="rgb(247,247,247)" stroke="rgb(247,247,247)" stroke-width="1" opacity="1" d="M 296.5 737 Q 299.5 738.5 296.5 740 L 296.5 737 Z " /><path fill="rgb(247,247,247)" stroke="rgb(247,247,247)" stroke-width="1" opacity="1" d="M 323.5 738 L 326 739.5 L 325.5 741 L 325 739 L 323.5 738 Z " /><path fill="rgb(247,247,247)" stroke="rgb(247,247,247)" stroke-width="1" opacity="1" d="M 327.5 738 L 330 738.5 L 327.5 739 L 327.5 738 Z " /><path fill="rgb(247,247,247)" stroke="rgb(247,247,247)" stroke-width="1" opacity="1" d="M 249.5 739 L 251 741.5 L 250 741.5 L 249.5 739 Z " /><path fill="rgb(247,247,247)" stroke="rgb(247,247,247)" stroke-width="1" opacity="1" d="M 185.5 741 L 189 742.5 L 187.5 743 L 185.5 741 Z " /><path fill="rgb(247,247,247)" stroke="rgb(247,247,247)" stroke-width="1" opacity="1" d="M 296.5 741 L 299 741.5 L 296.5 742 L 296.5 741 Z " /></svg>