<?xml version='1.0' encoding='utf-8'?>
<svg xmlns="http://www.w3.org/2000/svg" width="463" height="509" viewBox="1646.0 62.0 463.0 509.0" version="1.1"><path fill="rgb(23,24,23)" stroke="rgb(23,24,23)" stroke-width="1" opacity="1" d="M 1848 220 L 1858.5 220 L 1859 220.5 L 1859 291 L 1848 290.5 Q 1850.2 289.2 1847.5 288 Q 1844.5 292 1837.5 292 L 1833.5 291 L 1830 287.5 L 1828 282.5 L 1828 247.5 L 1832.5 241 Q 1834.8 238.3 1840.5 239 L 1847.5 243 L 1848 220 Z M 1841 250 L 1838 255 L 1838 276 L 1839 279 Q 1840 282 1846 281 L 1848 279 L 1848 253 Q 1847 249 1841 250 Z " /><path fill="rgb(23,24,23)" stroke="rgb(23,24,23)" stroke-width="1" opacity="1" d="M 1878.5 239 Q 1891.1 238.4 1895 246.5 L 1897 252.5 L 1897 269 L 1876 269 L 1876 277.5 L 1877 280 L 1883.5 281 Q 1886.8 279.8 1886 276 L 1897 276 L 1897 279.5 Q 1895.2 286.7 1889.5 290 L 1879.5 292 Q 1871.7 290.8 1868 285.5 L 1866 280.5 L 1866 250.5 Q 1867.5 244 1872.5 241 L 1878.5 239 Z M 1879 250 Q 1875 254 1876 261 L 1886 261 L 1886 253 Q 1885 249 1879 250 Z " /><path fill="rgb(23,24,23)" stroke="rgb(23,24,23)" stroke-width="1" opacity="1" d="M 1921.5 239 L 1926.5 239 L 1933.5 244 Q 1936.8 238.8 1945.5 239 Q 1951.3 240.3 1954 244.5 L 1955 247.5 L 1955 291 L 1945.5 291 L 1945 290.5 L 1945 253.5 L 1942.5 250 Q 1936.3 248.8 1935 252.5 L 1935 290.5 L 1934.5 291 L 1924 291 L 1924 252.5 L 1921.5 250 Q 1915.4 248.8 1916 251.5 L 1914 254.5 L 1914 291 L 1904.5 291 L 1904 290.5 L 1904 240 L 1914 240 L 1914 243.5 L 1917.5 241 L 1921.5 239 Z " /><path fill="rgb(23,24,23)" stroke="rgb(23,24,23)" stroke-width="1" opacity="1" d="M 1975.5 239 Q 1986.7 238.8 1991 245.5 L 1993 250.5 L 1993 280.5 L 1987.5 289 L 1983.5 291 L 1976.5 292 L 1969.5 290 L 1964 284.5 L 1962 279.5 L 1962 252.5 Q 1963.4 244.4 1969.5 241 L 1975.5 239 Z M 1976 250 L 1973 253 L 1973 279 Q 1974 282 1980 281 L 1983 277 L 1983 254 L 1982 252 Q 1981 249 1976 250 Z " /><path fill="rgb(23,24,23)" stroke="rgb(23,24,23)" stroke-width="1" opacity="1" d="M 2011.5 239 Q 2022.3 238.3 2026 244.5 L 2029 250.5 L 2029 255 L 2020.5 255 L 2019 253.5 L 2018 250 L 2012.5 249 L 2010 250 L 2009 255.5 L 2011.5 259 L 2026 265 L 2029 270.5 L 2029 281.5 L 2022.5 290 L 2012.5 292 L 2003 288 L 1999 280.5 L 1999 276 L 2008.5 276 L 2009 278.5 Q 2010 283 2016.5 282 Q 2019.8 280.3 2020 275.5 L 2016.5 271 L 2004.5 266 L 2002 263.5 L 1999 253.5 L 2001 246.5 L 2006.5 241 L 2011.5 239 Z " /><path fill="rgb(23,24,23)" stroke="rgb(23,24,23)" stroke-width="1" opacity="1" d="M 1791 258 L 1820 258 L 1820 268 L 1791 268 L 1791 258 Z " /><path fill="rgb(253,253,253)" stroke="rgb(253,253,253)" stroke-width="1" opacity="1" d="M 2064 88 L 2066 88.5 L 2066 96 L 2064 95.5 L 2064 88 Z " /><path fill="rgb(253,253,253)" stroke="rgb(253,253,253)" stroke-width="1" opacity="1" d="M 2094 88 L 2096 88.5 L 2096 95.5 Q 2098.8 97.2 2097 103.5 L 2096 103.5 L 2096 96.5 L 2094 95.5 L 2094 88 Z " /><path fill="rgb(253,253,253)" stroke="rgb(253,253,253)" stroke-width="1" opacity="1" d="M 2078 96 L 2080 96.5 L 2080 104 L 2078 103.5 L 2078 96 Z " /><path fill="rgb(253,253,253)" stroke="rgb(253,253,253)" stroke-width="1" opacity="1" d="M 1904 112 L 1906 112.5 L 1906 120 L 1904 119.5 L 1904 112 Z " /><path fill="rgb(253,253,253)" stroke="rgb(253,253,253)" stroke-width="1" opacity="1" d="M 2096.5 112 L 2097 127.5 L 2096 127.5 L 2096.5 112 Z " /><path fill="rgb(253,253,253)" stroke="rgb(253,253,253)" stroke-width="1" opacity="1" d="M 1920 120 L 1922 120.5 L 1922 128 L 1920 127.5 L 1920 120 Z " /><path fill="rgb(253,253,253)" stroke="rgb(253,253,253)" stroke-width="1" opacity="1" d="M 1856.5 144 L 1857 151.5 L 1856 151.5 L 1856.5 144 Z " /><path fill="rgb(253,253,253)" stroke="rgb(253,253,253)" stroke-width="1" opacity="1" d="M 1904 152 L 1906 152.5 L 1906 160 L 1904 159.5 L 1904 152 Z " /><path fill="rgb(253,253,253)" stroke="rgb(253,253,253)" stroke-width="1" opacity="1" d="M 1920 152 L 1922 152.5 L 1922 160 L 1920 159.5 L 1920 152 Z " /><path fill="rgb(253,253,253)" stroke="rgb(253,253,253)" stroke-width="1" opacity="1" d="M 2078 160 L 2080 160.5 L 2080 176 L 2078 175.5 L 2078 160 Z " /><path fill="rgb(253,253,253)" stroke="rgb(253,253,253)" stroke-width="1" opacity="1" d="M 1904 176 L 1906 176.5 L 1906 192 L 1904 191.5 L 1904 176 Z " /><path fill="rgb(253,253,253)" stroke="rgb(253,253,253)" stroke-width="1" opacity="1" d="M 1920 176 L 1922 176.5 L 1922 184 L 1920 183.5 L 1920 176 Z " /><path fill="rgb(253,253,253)" stroke="rgb(253,253,253)" stroke-width="1" opacity="1" d="M 1853.5 216 L 1854.5 218 L 1853.5 217 L 1851 218.5 Q 1850.3 216.3 1852.5 217 L 1853.5 216 Z " /><path fill="rgb(253,253,253)" stroke="rgb(253,253,253)" stroke-width="1" opacity="1" d="M 1859.5 216 L 1860.5 218 Q 1857.7 218.7 1859.5 216 Z " /><path fill="rgb(253,253,253)" stroke="rgb(253,253,253)" stroke-width="1" opacity="1" d="M 1862.5 221 L 1861.5 223 L 1862.5 221 Z " /><path fill="rgb(253,253,253)" stroke="rgb(253,253,253)" stroke-width="1" opacity="1" d="M 1861.5 224 L 1862 279.5 L 1861 279.5 L 1861.5 224 Z " /><path fill="rgb(253,253,253)" stroke="rgb(253,253,253)" stroke-width="1" opacity="1" d="M 1840.5 232 L 1845 233.5 L 1843.5 234 L 1840.5 233 L 1840.5 232 Z " /><path fill="rgb(253,253,253)" stroke="rgb(253,253,253)" stroke-width="1" opacity="1" d="M 1863.5 232 L 1864 247.5 L 1863 247.5 L 1863.5 232 Z " /><path fill="rgb(253,253,253)" stroke="rgb(253,253,253)" stroke-width="1" opacity="1" d="M 1880.5 232 L 1888 234.5 L 1885.5 235 L 1880 234 L 1880.5 232 Z " /><path fill="rgb(253,253,253)" stroke="rgb(253,253,253)" stroke-width="1" opacity="1" d="M 1904.5 232 L 1908 232.5 L 1904.5 233 L 1904.5 232 Z " /><path fill="rgb(253,253,253)" stroke="rgb(253,253,253)" stroke-width="1" opacity="1" d="M 1943.5 232 L 1946 233.5 L 1944.5 234 L 1943.5 232 Z " /><path fill="rgb(253,253,253)" stroke="rgb(253,253,253)" stroke-width="1" opacity="1" d="M 1976.5 232 L 1979 232.5 L 1976.5 233 L 1976.5 232 Z " /><path fill="rgb(253,253,253)" stroke="rgb(253,253,253)" stroke-width="1" opacity="1" d="M 2022.5 232 L 2024 232.5 L 2022 233.5 L 2024 234 Q 2025.3 237.3 2020.5 236 L 2019 236.5 L 2022 234.5 L 2019 233.5 L 2022.5 232 Z " /><path fill="rgb(253,253,253)" stroke="rgb(253,253,253)" stroke-width="1" opacity="1" d="M 1834.5 233 L 1835.5 235 L 1833 234.5 L 1834.5 233 Z " /><path fill="rgb(253,253,253)" stroke="rgb(253,253,253)" stroke-width="1" opacity="1" d="M 1914.5 233 L 1920.5 235 Q 1921.7 232.8 1926.5 234 L 1928 237 L 1931 238.5 Q 1931.7 241.5 1928 240 L 1927 235 L 1921 235 L 1921 237.5 L 1918 239.5 Q 1917.3 236.9 1920 238 L 1920 236 L 1914.5 234 L 1914.5 233 Z " /><path fill="rgb(253,253,253)" stroke="rgb(253,253,253)" stroke-width="1" opacity="1" d="M 1938.5 233 Q 1942.9 231.5 1942 234.5 L 1942.5 236 Q 1939.9 236.7 1941 234 L 1938.5 234 L 1938.5 233 Z " /><path fill="rgb(253,253,253)" stroke="rgb(253,253,253)" stroke-width="1" opacity="1" d="M 1968.5 233 L 1972 234.5 L 1970.5 234 Q 1967.5 234.5 1968.5 233 Z " /><path fill="rgb(253,253,253)" stroke="rgb(253,253,253)" stroke-width="1" opacity="1" d="M 2011.5 233 L 2016 233.5 L 2009.5 235 L 2009.5 234 L 2011.5 233 Z " /><path fill="rgb(253,253,253)" stroke="rgb(253,253,253)" stroke-width="1" opacity="1" d="M 1839.5 234 L 1840 236 L 1845.5 235 L 1845.5 236 L 1840.5 237 L 1837 235.5 L 1839.5 234 Z " /><path fill="rgb(253,253,253)" stroke="rgb(253,253,253)" stroke-width="1" opacity="1" d="M 1872.5 234 Q 1876.9 232.5 1876 235.5 L 1874.5 235 Q 1871.5 235.5 1872.5 234 Z " /><path fill="rgb(253,253,253)" stroke="rgb(253,253,253)" stroke-width="1" opacity="1" d="M 1907.5 234 Q 1913.3 233.2 1915 236.5 L 1912 237 Q 1913.3 233.3 1907.5 235 L 1907.5 234 Z " /><path fill="rgb(253,253,253)" stroke="rgb(253,253,253)" stroke-width="1" opacity="1" d="M 1983.5 234 L 1982.5 236 L 1981 236.5 L 1982 238.5 L 1981 238.5 Q 1981.8 235.9 1978.5 237 L 1978.5 236 L 1983.5 234 Z " /><path fill="rgb(253,253,253)" stroke="rgb(253,253,253)" stroke-width="1" opacity="1" d="M 1881.5 235 L 1884 236.5 L 1882.5 237 L 1881.5 235 Z " /><path fill="rgb(253,253,253)" stroke="rgb(253,253,253)" stroke-width="1" opacity="1" d="M 1946.5 235 L 1952 235.5 L 1947 236 Q 1948.7 240.1 1944.5 239 L 1942.5 239 L 1941 238.5 L 1946.5 235 Z " /><path fill="rgb(253,253,253)" stroke="rgb(253,253,253)" stroke-width="1" opacity="1" d="M 1833.5 236 L 1838 237 Q 1839.1 239.7 1836.5 239 L 1833.5 236 Z " /><path fill="rgb(253,253,253)" stroke="rgb(253,253,253)" stroke-width="1" opacity="1" d="M 1886.5 236 Q 1888.8 235.3 1888 237.5 L 1887.5 240 L 1882 238.5 L 1887 237.5 L 1886.5 236 Z " /><path fill="rgb(253,253,253)" stroke="rgb(253,253,253)" stroke-width="1" opacity="1" d="M 1904.5 236 L 1909 236.5 L 1904.5 237 L 1904.5 236 Z " /><path fill="rgb(253,253,253)" stroke="rgb(253,253,253)" stroke-width="1" opacity="1" d="M 1936.5 236 L 1940 237.5 L 1938.5 237 Q 1935.5 237.5 1936.5 236 Z " /><path fill="rgb(253,253,253)" stroke="rgb(253,253,253)" stroke-width="1" opacity="1" d="M 2008.5 236 L 2012 236.5 L 2008.5 237 L 2008.5 236 Z " /><path fill="rgb(253,253,253)" stroke="rgb(253,253,253)" stroke-width="1" opacity="1" d="M 2016.5 236 L 2016.5 238 L 2020 238.5 L 2016.5 239 L 2014.5 238 L 2010.5 239 L 2010.5 238 Q 2015.1 238.6 2016.5 236 Z " /><path fill="rgb(253,253,253)" stroke="rgb(253,253,253)" stroke-width="1" opacity="1" d="M 1846 237 L 1848 237.5 L 1846 238.5 L 1846 237 Z " /><path fill="rgb(253,253,253)" stroke="rgb(253,253,253)" stroke-width="1" opacity="1" d="M 1970.5 237 Q 1973.1 236.2 1972 239.5 L 1970.5 239 L 1968.5 240 L 1970.5 237 Z " /><path fill="rgb(253,253,253)" stroke="rgb(253,253,253)" stroke-width="1" opacity="1" d="M 1907.5 238 L 1912 238.5 L 1907.5 239 L 1907.5 238 Z " /><path fill="rgb(253,253,253)" stroke="rgb(253,253,253)" stroke-width="1" opacity="1" d="M 1937.5 238 L 1938.5 240 L 1937.5 238 Z " /><path fill="rgb(253,253,253)" stroke="rgb(253,253,253)" stroke-width="1" opacity="1" d="M 1977.5 238 L 1980 238.5 L 1977.5 239 L 1977.5 238 Z " /><path fill="rgb(253,253,253)" stroke="rgb(253,253,253)" stroke-width="1" opacity="1" d="M 1951.5 239 Q 1953.3 242.1 1955 240.5 L 1955 242.5 L 1956 244.5 L 1954 243.5 L 1951.5 239 Z " /><path fill="rgb(253,253,253)" stroke="rgb(253,253,253)" stroke-width="1" opacity="1" d="M 1892.5 240 L 1895 240.5 L 1895 242.5 L 1898 248 Q 1895.3 249.1 1896 246.5 L 1892.5 241 L 1891 241.5 L 1892.5 240 Z " /><path fill="rgb(253,253,253)" stroke="rgb(253,253,253)" stroke-width="1" opacity="1" d="M 1903.5 240 L 1904 249.5 L 1902 250.5 L 1903 248.5 Q 1900.8 247.2 1902 242.5 L 1903.5 240 Z " /><path fill="rgb(253,253,253)" stroke="rgb(253,253,253)" stroke-width="1" opacity="1" d="M 1960.5 240 L 1959.5 242 L 1960.5 240 Z " /><path fill="rgb(253,253,253)" stroke="rgb(253,253,253)" stroke-width="1" opacity="1" d="M 1991.5 240 L 1992 242.5 L 1990.5 244 L 1990 241.5 L 1991.5 240 Z " /><path fill="rgb(253,253,253)" stroke="rgb(253,253,253)" stroke-width="1" opacity="1" d="M 2003.5 240 L 2003.5 243 Q 2001.3 243.8 2002 241.5 L 2003.5 240 Z " /><path fill="rgb(253,253,253)" stroke="rgb(253,253,253)" stroke-width="1" opacity="1" d="M 1933.5 241 L 1932.5 243 L 1933.5 241 Z " /><path fill="rgb(253,253,253)" stroke="rgb(253,253,253)" stroke-width="1" opacity="1" d="M 1826.5 242 L 1827.5 244 L 1824 243.5 L 1826.5 242 Z " /><path fill="rgb(253,253,253)" stroke="rgb(253,253,253)" stroke-width="1" opacity="1" d="M 2029 242 L 2032 243.5 L 2029 243.5 L 2029 242 Z " /><path fill="rgb(253,253,253)" stroke="rgb(253,253,253)" stroke-width="1" opacity="1" d="M 1957.5 243 L 1958 245.5 L 1957 245.5 L 1957.5 243 Z " /><path fill="rgb(253,253,253)" stroke="rgb(253,253,253)" stroke-width="1" opacity="1" d="M 1959.5 243 L 1961.5 243 L 1964 245.5 Q 1959.7 247.8 1961.5 250 L 1960 249.5 L 1961 252.5 L 1960 252.5 L 1959 249.5 L 1961 246 L 1963 245.5 Q 1961.8 242.7 1960.5 245 L 1959.5 243 Z " /><path fill="rgb(253,253,253)" stroke="rgb(253,253,253)" stroke-width="1" opacity="1" d="M 1825.5 245 L 1828 245.5 Q 1825.9 248.8 1825.5 245 Z " /><path fill="rgb(253,253,253)" stroke="rgb(253,253,253)" stroke-width="1" opacity="1" d="M 2029.5 245 L 2029 246.5 L 2028.5 248 L 2028 246.5 L 2029.5 245 Z " /><path fill="rgb(253,253,253)" stroke="rgb(253,253,253)" stroke-width="1" opacity="1" d="M 1824.5 247 L 1825 253.5 L 1824 253.5 L 1824.5 247 Z " /><path fill="rgb(253,253,253)" stroke="rgb(253,253,253)" stroke-width="1" opacity="1" d="M 1899.5 248 L 1900 251.5 L 1899 251.5 L 1899.5 248 Z " /><path fill="rgb(253,253,253)" stroke="rgb(253,253,253)" stroke-width="1" opacity="1" d="M 1994 248 Q 1997 247 1996 250 Q 1993 251 1994 248 Z " /><path fill="rgb(253,253,253)" stroke="rgb(253,253,253)" stroke-width="1" opacity="1" d="M 1826.5 249 L 1827 252.5 L 1826 252.5 L 1826.5 249 Z " /><path fill="rgb(253,253,253)" stroke="rgb(253,253,253)" stroke-width="1" opacity="1" d="M 2014.5 249 L 2013.5 251 L 2014.5 249 Z " /><path fill="rgb(253,253,253)" stroke="rgb(253,253,253)" stroke-width="1" opacity="1" d="M 1864.5 250 L 1866 252.5 L 1864 253.5 L 1864.5 250 Z " /><path fill="rgb(253,253,253)" stroke="rgb(253,253,253)" stroke-width="1" opacity="1" d="M 1897.5 250 L 1899 254.5 L 1897 253.5 L 1897.5 250 Z " /><path fill="rgb(253,253,253)" stroke="rgb(253,253,253)" stroke-width="1" opacity="1" d="M 1917.5 250 L 1919 253.5 L 1918 253.5 L 1917.5 250 Z " /><path fill="rgb(253,253,253)" stroke="rgb(253,253,253)" stroke-width="1" opacity="1" d="M 1940.5 250 L 1941.5 252 L 1940 251.5 L 1939.5 253 L 1939 251.5 L 1940.5 250 Z " /><path fill="rgb(253,253,253)" stroke="rgb(253,253,253)" stroke-width="1" opacity="1" d="M 1977.5 250 L 1979 250.5 L 1976 252.5 L 1977.5 250 Z " /><path fill="rgb(253,253,253)" stroke="rgb(253,253,253)" stroke-width="1" opacity="1" d="M 1882.5 251 L 1884 253.5 L 1883.5 256 L 1882 255.5 Q 1881.2 258.1 1884.5 257 L 1886 259.5 L 1885 259.5 Q 1885.9 256.5 1881.5 258 L 1879.5 261 L 1879 259.5 L 1883 253.5 L 1882.5 251 Z " /><path fill="rgb(253,253,253)" stroke="rgb(253,253,253)" stroke-width="1" opacity="1" d="M 2029.5 251 L 2031 254.5 L 2030 254.5 L 2029.5 251 Z " /><path fill="rgb(253,253,253)" stroke="rgb(253,253,253)" stroke-width="1" opacity="1" d="M 1936.5 252 L 1937.5 254 L 1936.5 252 Z " /><path fill="rgb(253,253,253)" stroke="rgb(253,253,253)" stroke-width="1" opacity="1" d="M 1995.5 252 L 1995 253.5 L 1994.5 255 L 1994 253.5 L 1995.5 252 Z " /><path fill="rgb(253,253,253)" stroke="rgb(253,253,253)" stroke-width="1" opacity="1" d="M 1845.5 253 Q 1847.8 252.3 1847 254.5 L 1845.5 253 Z " /><path fill="rgb(253,253,253)" stroke="rgb(253,253,253)" stroke-width="1" opacity="1" d="M 1877.5 253 L 1880 254.5 L 1878.5 254 L 1877.5 253 Z " /><path fill="rgb(253,253,253)" stroke="rgb(253,253,253)" stroke-width="1" opacity="1" d="M 1941.5 253 L 1942.5 255 L 1940.5 255 L 1939 254.5 L 1941.5 253 Z " /><path fill="rgb(253,253,253)" stroke="rgb(253,253,253)" stroke-width="1" opacity="1" d="M 1826.5 254 L 1827 255.5 L 1825.5 264 L 1825 255.5 L 1826.5 254 Z " /><path fill="rgb(253,253,253)" stroke="rgb(253,253,253)" stroke-width="1" opacity="1" d="M 1843.5 254 L 1842.5 256 L 1843.5 254 Z " /><path fill="rgb(253,253,253)" stroke="rgb(253,253,253)" stroke-width="1" opacity="1" d="M 1901.5 254 L 1902 260.5 L 1901 260.5 L 1901.5 254 Z " /><path fill="rgb(253,253,253)" stroke="rgb(253,253,253)" stroke-width="1" opacity="1" d="M 1957.5 254 L 1957 255.5 L 1956.5 264 L 1956 255.5 L 1957.5 254 Z " /><path fill="rgb(253,253,253)" stroke="rgb(253,253,253)" stroke-width="1" opacity="1" d="M 1961.5 254 L 1960.5 256 L 1961.5 254 Z " /><path fill="rgb(253,253,253)" stroke="rgb(253,253,253)" stroke-width="1" opacity="1" d="M 1980.5 254 L 1980.5 256 Q 1982.8 255.3 1982 257.5 L 1980 258.5 L 1979.5 256 L 1978.5 272 L 1978 256.5 L 1980.5 254 Z " /><path fill="rgb(253,253,253)" stroke="rgb(253,253,253)" stroke-width="1" opacity="1" d="M 1916.5 255 L 1918 256.5 L 1919 271.5 L 1918 272.5 L 1918 289.5 L 1918.5 292 Q 1921.1 291.3 1920 294 L 1922 294 L 1922 295.5 L 1919 295.5 L 1920 294.5 L 1917 291.5 L 1917 289.5 L 1918 264.5 L 1916.5 255 Z " /><path fill="rgb(253,253,253)" stroke="rgb(253,253,253)" stroke-width="1" opacity="1" d="M 2014.5 255 L 2015.5 257 Q 2014.3 254.8 2013 257.5 L 2013.5 259 L 2012 256 L 2014.5 255 Z " /><path fill="rgb(253,253,253)" stroke="rgb(253,253,253)" stroke-width="1" opacity="1" d="M 2021 255 Q 2024 254 2023 257 Q 2020 258 2021 255 Z " /><path fill="rgb(253,253,253)" stroke="rgb(253,253,253)" stroke-width="1" opacity="1" d="M 2025.5 255 L 2028 255.5 L 2025.5 256 L 2025.5 255 Z " /><path fill="rgb(253,253,253)" stroke="rgb(253,253,253)" stroke-width="1" opacity="1" d="M 1859.5 256 L 1860 271.5 L 1859 271.5 L 1859.5 256 Z " /><path fill="rgb(253,253,253)" stroke="rgb(253,253,253)" stroke-width="1" opacity="1" d="M 1935.5 256 L 1936 287.5 L 1935 287.5 L 1935.5 256 Z " /><path fill="rgb(253,253,253)" stroke="rgb(253,253,253)" stroke-width="1" opacity="1" d="M 1996.5 256 L 1998 260.5 L 1997 260.5 Q 1997.8 258.3 1995.5 259 L 1996 257.5 L 1996.5 256 Z " /><path fill="rgb(253,253,253)" stroke="rgb(253,253,253)" stroke-width="1" opacity="1" d="M 2019.5 256 L 2020 258 L 2024 258.5 L 2023.5 263 L 2020 261.5 L 2023 260.5 L 2020.5 259 L 2019 259.5 L 2019.5 256 Z " /><path fill="rgb(253,253,253)" stroke="rgb(253,253,253)" stroke-width="1" opacity="1" d="M 1822.5 257 L 1823.5 259 Q 1820.7 259.7 1822.5 257 Z " /><path fill="rgb(253,253,253)" stroke="rgb(253,253,253)" stroke-width="1" opacity="1" d="M 2017.5 257 L 2017.5 260 Q 2014.5 258.5 2017.5 257 Z " /><path fill="rgb(253,253,253)" stroke="rgb(253,253,253)" stroke-width="1" opacity="1" d="M 1883.5 259 L 1882.5 261 L 1883.5 259 Z " /><path fill="rgb(253,253,253)" stroke="rgb(253,253,253)" stroke-width="1" opacity="1" d="M 1976.5 259 L 1977 263.5 L 1976 263.5 L 1976.5 259 Z " /><path fill="rgb(253,253,253)" stroke="rgb(253,253,253)" stroke-width="1" opacity="1" d="M 1897 260 Q 1900.7 258.8 1899 264 Q 1895.3 265.2 1897 260 Z " /><path fill="rgb(253,253,253)" stroke="rgb(253,253,253)" stroke-width="1" opacity="1" d="M 1958 263 L 1960 263.5 L 1959 264.5 L 1958.5 288 L 1958 263 Z " /><path fill="rgb(253,253,253)" stroke="rgb(253,253,253)" stroke-width="1" opacity="1" d="M 1920.5 264 L 1922 279.5 L 1921 279.5 L 1920.5 264 Z " /><path fill="rgb(253,253,253)" stroke="rgb(253,253,253)" stroke-width="1" opacity="1" d="M 1998.5 264 L 1999 271.5 L 1997 272.5 L 1998.5 264 Z " /><path fill="rgb(253,253,253)" stroke="rgb(253,253,253)" stroke-width="1" opacity="1" d="M 1897.5 265 L 1899.5 268 L 1897 267.5 L 1897.5 265 Z " /><path fill="rgb(253,253,253)" stroke="rgb(253,253,253)" stroke-width="1" opacity="1" d="M 1821.5 267 L 1824 267.5 Q 1821.9 270.8 1821.5 267 Z " /><path fill="rgb(253,253,253)" stroke="rgb(253,253,253)" stroke-width="1" opacity="1" d="M 2000.5 267 L 2004.5 269 L 2006 269.5 L 2004 270.5 L 2002.5 268 L 2001.5 270 L 2000.5 267 Z " /><path fill="rgb(253,253,253)" stroke="rgb(253,253,253)" stroke-width="1" opacity="1" d="M 2028.5 267 L 2029.5 269 Q 2026.7 269.7 2028.5 267 Z " /><path fill="rgb(253,253,253)" stroke="rgb(253,253,253)" stroke-width="1" opacity="1" d="M 1792.5 269 L 1816 269.5 L 1792.5 270 L 1792.5 269 Z " /><path fill="rgb(253,253,253)" stroke="rgb(253,253,253)" stroke-width="1" opacity="1" d="M 1899.5 269 L 1902 269.5 L 1900 272.5 L 1902 273.5 L 1900.5 274 L 1899.5 271 L 1898 270.5 L 1899.5 269 Z " /><path fill="rgb(253,253,253)" stroke="rgb(253,253,253)" stroke-width="1" opacity="1" d="M 2007.5 269 L 2009.5 272 L 2007 271.5 L 2007.5 269 Z " /><path fill="rgb(253,253,253)" stroke="rgb(253,253,253)" stroke-width="1" opacity="1" d="M 1822.5 270 L 1821.5 272 L 1822.5 270 Z " /><path fill="rgb(253,253,253)" stroke="rgb(253,253,253)" stroke-width="1" opacity="1" d="M 1879.5 270 L 1888 270.5 L 1879.5 271 L 1879.5 270 Z " /><path fill="rgb(253,253,253)" stroke="rgb(253,253,253)" stroke-width="1" opacity="1" d="M 1891.5 270 L 1896 270.5 L 1891.5 271 L 1891.5 270 Z " /><path fill="rgb(253,253,253)" stroke="rgb(253,253,253)" stroke-width="1" opacity="1" d="M 2030.5 271 L 2032 273.5 L 2031 273.5 L 2030.5 271 Z " /><path fill="rgb(253,253,253)" stroke="rgb(253,253,253)" stroke-width="1" opacity="1" d="M 1826.5 272 L 1827 275.5 L 1826 275.5 L 1826.5 272 Z " /><path fill="rgb(253,253,253)" stroke="rgb(253,253,253)" stroke-width="1" opacity="1" d="M 1840.5 272 L 1843 272.5 Q 1840.9 275.8 1840.5 272 Z " /><path fill="rgb(253,253,253)" stroke="rgb(253,253,253)" stroke-width="1" opacity="1" d="M 1896.5 272 L 1895.5 274 L 1888 273.5 L 1896.5 272 Z " /><path fill="rgb(253,253,253)" stroke="rgb(253,253,253)" stroke-width="1" opacity="1" d="M 1995.5 272 L 1996.5 275 L 1998 274.5 L 1995 275.5 L 1994.5 277 L 1994 275.5 L 1995.5 272 Z " /><path fill="rgb(253,253,253)" stroke="rgb(253,253,253)" stroke-width="1" opacity="1" d="M 1877.5 273 L 1878 275.5 L 1877 275.5 L 1877.5 273 Z " /><path fill="rgb(253,253,253)" stroke="rgb(253,253,253)" stroke-width="1" opacity="1" d="M 1881.5 273 L 1882.5 275 L 1881.5 273 Z " /><path fill="rgb(253,253,253)" stroke="rgb(253,253,253)" stroke-width="1" opacity="1" d="M 2011.5 273 L 2011.5 276 Q 2009.3 276.8 2010 274.5 L 2011.5 273 Z " /><path fill="rgb(253,253,253)" stroke="rgb(253,253,253)" stroke-width="1" opacity="1" d="M 1844.5 274 L 1845 275.5 L 1842 277.5 L 1844.5 274 Z " /><path fill="rgb(253,253,253)" stroke="rgb(253,253,253)" stroke-width="1" opacity="1" d="M 1879.5 274 L 1881 276.5 L 1879 277.5 L 1880 275.5 L 1879.5 274 Z " /><path fill="rgb(253,253,253)" stroke="rgb(253,253,253)" stroke-width="1" opacity="1" d="M 1979.5 274 L 1980 275.5 L 1978.5 278 L 1978 275.5 L 1979.5 274 Z " /><path fill="rgb(253,253,253)" stroke="rgb(253,253,253)" stroke-width="1" opacity="1" d="M 1961.5 275 L 1962 278 L 1960 277.5 L 1961.5 275 Z " /><path fill="rgb(253,253,253)" stroke="rgb(253,253,253)" stroke-width="1" opacity="1" d="M 2004.5 275 L 2008 275.5 L 2004.5 276 L 2004.5 275 Z " /><path fill="rgb(253,253,253)" stroke="rgb(253,253,253)" stroke-width="1" opacity="1" d="M 2015.5 275 L 2017 275.5 L 2015.5 279 L 2015.5 277 Q 2013.3 276.3 2014 278.5 L 2012 279.5 L 2012.5 278 L 2010.5 279 L 2011.5 277 L 2015.5 275 Z " /><path fill="rgb(253,253,253)" stroke="rgb(253,253,253)" stroke-width="1" opacity="1" d="M 1975 276 Q 1978 275 1977 278 Q 1974 279 1975 276 Z " /><path fill="rgb(253,253,253)" stroke="rgb(253,253,253)" stroke-width="1" opacity="1" d="M 1824.5 277 L 1825 281 L 1828 281.5 L 1825.5 282 Q 1822.8 280.8 1824.5 277 Z " /><path fill="rgb(253,253,253)" stroke="rgb(253,253,253)" stroke-width="1" opacity="1" d="M 1897.5 277 L 1900 277.5 L 1897.5 278 L 1897.5 277 Z " /><path fill="rgb(253,253,253)" stroke="rgb(253,253,253)" stroke-width="1" opacity="1" d="M 1844 278 L 1846 278.5 L 1844 279.5 L 1844 278 Z " /><path fill="rgb(253,253,253)" stroke="rgb(253,253,253)" stroke-width="1" opacity="1" d="M 1995.5 278 L 1997 278.5 L 1994 280.5 L 1992.5 283 L 1993 281.5 L 1995.5 278 Z " /><path fill="rgb(253,253,253)" stroke="rgb(253,253,253)" stroke-width="1" opacity="1" d="M 2018.5 278 L 2017.5 280 L 2018.5 278 Z " /><path fill="rgb(253,253,253)" stroke="rgb(253,253,253)" stroke-width="1" opacity="1" d="M 2031.5 278 L 2032 279.5 L 2032 281.5 L 2031.5 283 L 2030 280.5 L 2031.5 278 Z " /><path fill="rgb(253,253,253)" stroke="rgb(253,253,253)" stroke-width="1" opacity="1" d="M 1978.5 279 L 1979 281 L 1977 280.5 L 1978.5 279 Z " /><path fill="rgb(253,253,253)" stroke="rgb(253,253,253)" stroke-width="1" opacity="1" d="M 1865.5 280 L 1865 281.5 L 1864.5 283 L 1864 281.5 L 1865.5 280 Z " /><path fill="rgb(253,253,253)" stroke="rgb(253,253,253)" stroke-width="1" opacity="1" d="M 1900.5 280 L 1901.5 282 Q 1898.7 282.7 1900.5 280 Z " /><path fill="rgb(253,253,253)" stroke="rgb(253,253,253)" stroke-width="1" opacity="1" d="M 1897.5 281 L 1897 282.5 L 1897.5 284 L 1899 283.5 Q 1896.8 284.7 1899.5 286 L 1902.5 284 L 1902 285.5 Q 1902.8 287.8 1900.5 287 L 1898.5 290 L 1897.5 285 L 1896 285.5 L 1896 283.5 L 1897.5 281 Z " /><path fill="rgb(253,253,253)" stroke="rgb(253,253,253)" stroke-width="1" opacity="1" d="M 1960.5 283 L 1962 286.5 L 1961 286.5 L 1960.5 283 Z " /><path fill="rgb(253,253,253)" stroke="rgb(253,253,253)" stroke-width="1" opacity="1" d="M 1825 285 L 1827 285 Q 1825.9 287.7 1828.5 287 L 1828.5 288 L 1825.5 287 L 1824 287.5 L 1825 285 Z " /><path fill="rgb(253,253,253)" stroke="rgb(253,253,253)" stroke-width="1" opacity="1" d="M 1997.5 285 L 1998 287 L 2001.5 286 L 2002 288.5 L 2001.5 290 L 2001 288 L 1997 286.5 L 1997.5 285 Z " /><path fill="rgb(253,253,253)" stroke="rgb(253,253,253)" stroke-width="1" opacity="1" d="M 2028.5 285 L 2029 287.5 L 2028.5 289 L 2027 286.5 L 2028.5 285 Z " /><path fill="rgb(253,253,253)" stroke="rgb(253,253,253)" stroke-width="1" opacity="1" d="M 2030.5 286 L 2031.5 288 L 2030.5 286 Z " /><path fill="rgb(253,253,253)" stroke="rgb(253,253,253)" stroke-width="1" opacity="1" d="M 1893.5 287 L 1892.5 289 L 1893.5 287 Z " /><path fill="rgb(253,253,253)" stroke="rgb(253,253,253)" stroke-width="1" opacity="1" d="M 1965.5 287 L 1964.5 289 L 1963 288.5 L 1965.5 287 Z " /><path fill="rgb(253,253,253)" stroke="rgb(253,253,253)" stroke-width="1" opacity="1" d="M 1990.5 287 L 1992 288.5 Q 1988.9 290.3 1990.5 292 L 1989 289 L 1991 288.5 L 1990.5 287 Z " /><path fill="rgb(253,253,253)" stroke="rgb(253,253,253)" stroke-width="1" opacity="1" d="M 1902.5 288 L 1904 291.5 L 1902 290.5 L 1902.5 288 Z " /><path fill="rgb(253,253,253)" stroke="rgb(253,253,253)" stroke-width="1" opacity="1" d="M 2003.5 288 L 2004.5 290 L 2003.5 288 Z " /><path fill="rgb(253,253,253)" stroke="rgb(253,253,253)" stroke-width="1" opacity="1" d="M 1826.5 289 L 1827.5 291 L 1826.5 289 Z " /><path fill="rgb(253,253,253)" stroke="rgb(253,253,253)" stroke-width="1" opacity="1" d="M 1961.5 289 Q 1964.3 290.3 1962 291.5 L 1961.5 293 L 1961.5 289 Z " /><path fill="rgb(253,253,253)" stroke="rgb(253,253,253)" stroke-width="1" opacity="1" d="M 1824.5 290 L 1826 292.5 L 1824 293 L 1824.5 290 Z " /><path fill="rgb(253,253,253)" stroke="rgb(253,253,253)" stroke-width="1" opacity="1" d="M 1830.5 290 L 1831.5 292 L 1830.5 290 Z " /><path fill="rgb(253,253,253)" stroke="rgb(253,253,253)" stroke-width="1" opacity="1" d="M 1859.5 290 L 1860.5 292 L 1859.5 290 Z " /><path fill="rgb(253,253,253)" stroke="rgb(253,253,253)" stroke-width="1" opacity="1" d="M 1895.5 290 L 1894 292.5 L 1895 293.5 L 1892.5 296 L 1891 295.5 L 1894 293.5 Q 1891.3 291.8 1895.5 290 Z " /><path fill="rgb(253,253,253)" stroke="rgb(253,253,253)" stroke-width="1" opacity="1" d="M 1964 290 L 1967.5 292 L 1969 291.5 L 1967.5 295 L 1965.5 291 L 1964 291.5 L 1964 290 Z " /><path fill="rgb(253,253,253)" stroke="rgb(253,253,253)" stroke-width="1" opacity="1" d="M 1843.5 291 L 1842.5 293 L 1843.5 291 Z " /><path fill="rgb(253,253,253)" stroke="rgb(253,253,253)" stroke-width="1" opacity="1" d="M 1856.5 291 L 1857 293 L 1863 293.5 L 1859 294 Q 1860 297 1857 296 L 1856.5 291 Z " /><path fill="rgb(253,253,253)" stroke="rgb(253,253,253)" stroke-width="1" opacity="1" d="M 1953.5 291 L 1952.5 293 L 1953.5 291 Z " /><path fill="rgb(253,253,253)" stroke="rgb(253,253,253)" stroke-width="1" opacity="1" d="M 2001.5 291 Q 2004.3 292.3 2002 293.5 Q 2003.1 296.8 2000.5 296 L 2000.5 293 L 2002 292.5 L 2001.5 291 Z " /><path fill="rgb(253,253,253)" stroke="rgb(253,253,253)" stroke-width="1" opacity="1" d="M 2022.5 291 L 2024 291.5 L 2021.5 293 L 2022.5 291 Z " /><path fill="rgb(253,253,253)" stroke="rgb(253,253,253)" stroke-width="1" opacity="1" d="M 2027.5 291 L 2026.5 293 L 2025 292.5 L 2027.5 291 Z " /><path fill="rgb(253,253,253)" stroke="rgb(253,253,253)" stroke-width="1" opacity="1" d="M 1833.5 292 L 1835.5 292 L 1837 292.5 L 1834 294.5 Q 1834.7 297.5 1831 296 L 1830 293.5 L 1832 293 L 1832.5 295 L 1833.5 292 Z " /><path fill="rgb(253,253,253)" stroke="rgb(253,253,253)" stroke-width="1" opacity="1" d="M 1854.5 292 L 1853.5 294 L 1854.5 292 Z " /><path fill="rgb(253,253,253)" stroke="rgb(253,253,253)" stroke-width="1" opacity="1" d="M 1868.5 292 L 1869 295 L 1866 294.5 L 1868 294 L 1868.5 292 Z " /><path fill="rgb(253,253,253)" stroke="rgb(253,253,253)" stroke-width="1" opacity="1" d="M 1873.5 292 L 1873.5 294 L 1875 294.5 L 1873.5 295 Q 1870.5 293.5 1873.5 292 Z " /><path fill="rgb(253,253,253)" stroke="rgb(253,253,253)" stroke-width="1" opacity="1" d="M 1913.5 292 L 1915 295.5 L 1914 295.5 L 1913.5 292 Z " /><path fill="rgb(253,253,253)" stroke="rgb(253,253,253)" stroke-width="1" opacity="1" d="M 1932.5 292 L 1935 293.5 L 1933.5 294 L 1932.5 292 Z " /><path fill="rgb(253,253,253)" stroke="rgb(253,253,253)" stroke-width="1" opacity="1" d="M 1978.5 292 L 1977.5 294 L 1978.5 292 Z " /><path fill="rgb(253,253,253)" stroke="rgb(253,253,253)" stroke-width="1" opacity="1" d="M 1985.5 292 L 1985 293.5 Q 1984.3 295.8 1986.5 295 L 1986.5 296 L 1984.5 295 L 1983 295.5 L 1983.5 294 L 1980.5 295 L 1981.5 293 L 1985.5 292 Z " /><path fill="rgb(253,253,253)" stroke="rgb(253,253,253)" stroke-width="1" opacity="1" d="M 2011 292 Q 2014 291 2013 294 L 2009.5 296 L 2011 293.5 L 2011 292 Z " /><path fill="rgb(253,253,253)" stroke="rgb(253,253,253)" stroke-width="1" opacity="1" d="M 1876.5 293 L 1880 294.5 L 1877.5 296 L 1876.5 293 Z " /><path fill="rgb(253,253,253)" stroke="rgb(253,253,253)" stroke-width="1" opacity="1" d="M 1889.5 293 L 1890 294.5 L 1888 295.5 L 1889.5 293 Z " /><path fill="rgb(253,253,253)" stroke="rgb(253,253,253)" stroke-width="1" opacity="1" d="M 1927.5 293 L 1929 293.5 L 1927 294 L 1926.5 296 L 1926 294.5 L 1927.5 293 Z " /><path fill="rgb(253,253,253)" stroke="rgb(253,253,253)" stroke-width="1" opacity="1" d="M 1971.5 293 L 1970.5 295 L 1969 294.5 L 1971.5 293 Z " /><path fill="rgb(253,253,253)" stroke="rgb(253,253,253)" stroke-width="1" opacity="1" d="M 2030 293 L 2032 293.5 L 2029 295.5 L 2030 293 Z " /><path fill="rgb(253,253,253)" stroke="rgb(253,253,253)" stroke-width="1" opacity="1" d="M 1953.5 294 Q 1956.8 292.9 1956 295.5 L 1954.5 295 L 1952.5 296 L 1953.5 294 Z " /><path fill="rgb(253,253,253)" stroke="rgb(253,253,253)" stroke-width="1" opacity="1" d="M 1975.5 294 L 1974.5 296 L 1973 295.5 L 1975.5 294 Z " /><path fill="rgb(253,253,253)" stroke="rgb(253,253,253)" stroke-width="1" opacity="1" d="M 1988.5 294 L 1992 295.5 L 1989.5 296 L 1988.5 294 Z " /><path fill="rgb(253,253,253)" stroke="rgb(253,253,253)" stroke-width="1" opacity="1" d="M 2017.5 294 L 2016.5 296 L 2017.5 294 Z " /><path fill="rgb(253,253,253)" stroke="rgb(253,253,253)" stroke-width="1" opacity="1" d="M 1904 320 L 1906 320.5 L 1906 344 L 1904 343.5 L 1904 320 Z " /><path fill="rgb(253,253,253)" stroke="rgb(253,253,253)" stroke-width="1" opacity="1" d="M 2078 328 L 2080 328.5 L 2080 336 L 2078 335.5 L 2078 328 Z " /><path fill="rgb(253,253,253)" stroke="rgb(253,253,253)" stroke-width="1" opacity="1" d="M 2064 334 L 2071.5 334 L 2072 336 L 2066 336 L 2066 343.5 L 2064 344 L 2064 334 Z " /><path fill="rgb(253,253,253)" stroke="rgb(253,253,253)" stroke-width="1" opacity="1" d="M 2096.5 352 L 2097 359.5 L 2096 359.5 L 2096.5 352 Z " /><path fill="rgb(253,253,253)" stroke="rgb(253,253,253)" stroke-width="1" opacity="1" d="M 1920 360 L 1922 360.5 L 1922 368 L 1920 367.5 L 1920 360 Z " /><path fill="rgb(253,253,253)" stroke="rgb(253,253,253)" stroke-width="1" opacity="1" d="M 2096.5 376 L 2097 391.5 L 2096 391.5 L 2096.5 376 Z " /><path fill="rgb(253,253,253)" stroke="rgb(253,253,253)" stroke-width="1" opacity="1" d="M 2000 384 L 2002 384.5 L 2002 392 L 2000 391.5 L 2000 384 Z " /><path fill="rgb(253,253,253)" stroke="rgb(253,253,253)" stroke-width="1" opacity="1" d="M 2064 392 L 2066 392.5 L 2066 400 L 2064 399.5 L 2064 392 Z " /><path fill="rgb(253,253,253)" stroke="rgb(253,253,253)" stroke-width="1" opacity="1" d="M 2078 400 L 2080 400.5 L 2080 416 L 2078 415.5 L 2078 400 Z " /><path fill="rgb(253,253,253)" stroke="rgb(253,253,253)" stroke-width="1" opacity="1" d="M 1904 408 L 1906 408.5 L 1906 416 L 1904 415.5 L 1904 408 Z " /><path fill="rgb(253,253,253)" stroke="rgb(253,253,253)" stroke-width="1" opacity="1" d="M 1928 408 L 1930 408.5 L 1930 416 L 1928 415.5 L 1928 408 Z " /><path fill="rgb(253,253,253)" stroke="rgb(253,253,253)" stroke-width="1" opacity="1" d="M 2000 408 L 2002 408.5 L 2002 424 L 2000 423.5 L 2000 408 Z " /><path fill="rgb(253,253,253)" stroke="rgb(253,253,253)" stroke-width="1" opacity="1" d="M 1824 416 L 1826 416.5 L 1826 424 L 1824 423.5 L 1824 416 Z " /><path fill="rgb(253,253,253)" stroke="rgb(253,253,253)" stroke-width="1" opacity="1" d="M 2064 416 L 2066 416.5 L 2066 424 L 2064 423.5 L 2064 416 Z " /><path fill="rgb(253,253,253)" stroke="rgb(253,253,253)" stroke-width="1" opacity="1" d="M 2096.5 416 L 2097 423.5 L 2096 423.5 L 2096.5 416 Z " /><path fill="rgb(253,253,253)" stroke="rgb(253,253,253)" stroke-width="1" opacity="1" d="M 2078 424 L 2080 424.5 L 2080 434 L 2077 432.5 L 2078 431.5 L 2078 424 Z " /><path fill="rgb(253,253,253)" stroke="rgb(253,253,253)" stroke-width="1" opacity="1" d="M 1904 432 L 1906 432.5 L 1906 440 L 1904 439.5 L 1904 432 Z " /><path fill="rgb(253,253,253)" stroke="rgb(253,253,253)" stroke-width="1" opacity="1" d="M 1928 432 L 1930 432.5 L 1930 440 L 1928 439.5 L 1928 432 Z " /><path fill="rgb(253,253,253)" stroke="rgb(253,253,253)" stroke-width="1" opacity="1" d="M 2000 432 L 2002 432.5 L 2002 440 L 2000 439.5 L 2000 432 Z " /><path fill="rgb(253,253,253)" stroke="rgb(253,253,253)" stroke-width="1" opacity="1" d="M 2096.5 440 L 2097 447.5 L 2096 447.5 L 2096.5 440 Z " /><path fill="rgb(254,255,254)" stroke="rgb(254,255,254)" stroke-width="1" opacity="1" d="M 1910 112 L 1920 112 L 1920 120 L 1910 120 L 1910 112 Z " /><path fill="rgb(254,255,254)" stroke="rgb(254,255,254)" stroke-width="1" opacity="1" d="M 1847.5 238 L 1845.5 241 L 1844.5 239 L 1847.5 238 Z " /><path fill="rgb(254,255,254)" stroke="rgb(254,255,254)" stroke-width="1" opacity="1" d="M 1844.5 250 L 1848 253.5 L 1848 274.5 L 1848 276.5 Q 1848.8 278.8 1846.5 278 Q 1845.3 275.8 1844 278.5 L 1843.5 280 L 1843 278.5 L 1845 274.5 L 1843 275.5 L 1841.5 280 L 1840.5 276 L 1839.5 278 L 1839 275.5 L 1840 273.5 L 1839 272.5 L 1839 255 L 1841 254.5 L 1839 253.5 L 1841.5 253 L 1846.5 256 L 1847 253.5 L 1845 252.5 L 1844.5 254 L 1840 251.5 L 1844.5 250 Z M 1842 273 L 1841 276 L 1842 276 L 1842 273 Z " /><path fill="rgb(254,255,254)" stroke="rgb(254,255,254)" stroke-width="1" opacity="1" d="M 1881.5 250 L 1886 253.5 L 1885 255.5 L 1886 257.5 L 1885 261 L 1883 260.5 L 1883.5 259 L 1880.5 260 L 1879 259.5 L 1878.5 261 L 1877 256.5 L 1877.5 254 L 1879.5 255 L 1878 252.5 Q 1877.3 250.3 1879.5 251 L 1883 253.5 Q 1880.8 254.8 1883.5 256 L 1884 252.5 L 1881.5 250 Z M 1880 255 L 1882 258 Q 1886 259 1885 257 L 1884 257 Q 1881 258 1882 255 L 1880 255 Z M 1879 256 Q 1877 259 1880 258 L 1879 256 Z " /><path fill="rgb(254,255,254)" stroke="rgb(254,255,254)" stroke-width="1" opacity="1" d="M 1976.5 250 L 1975.5 252 L 1974 251.5 L 1976.5 250 Z " /><path fill="rgb(254,255,254)" stroke="rgb(254,255,254)" stroke-width="1" opacity="1" d="M 1978.5 251 L 1980 251.5 L 1979.5 253 L 1981.5 252 L 1980 256.5 L 1980.5 261 L 1982 260.5 L 1982 271.5 L 1981 272.5 L 1982 274.5 L 1981 276.5 L 1981 278.5 L 1980.5 280 L 1979 276.5 L 1981 273.5 L 1978 274.5 L 1977 272.5 L 1976.5 255 L 1975.5 262 L 1974.5 259 L 1974 264 L 1976 264.5 L 1976 271.5 L 1975 274 Q 1978 273 1977 276 L 1973 275 L 1974 272.5 L 1973 271.5 L 1973 259.5 L 1974 255.5 Q 1971.8 254.3 1974.5 253 L 1978.5 251 Z M 1978 255 L 1979 273 L 1979 257 L 1980 256 L 1978 255 Z M 1981 264 L 1980 272 L 1981 272 L 1981 264 Z " /><path fill="rgb(254,255,254)" stroke="rgb(254,255,254)" stroke-width="1" opacity="1" d="M 1826.5 256 L 1827 262.5 L 1826 262.5 L 1826.5 256 Z " /><path fill="rgb(254,255,254)" stroke="rgb(254,255,254)" stroke-width="1" opacity="1" d="M 2017.5 258 L 2019 258.5 L 2014.5 260 L 2014.5 259 L 2017.5 258 Z " /><path fill="rgb(254,255,254)" stroke="rgb(254,255,254)" stroke-width="1" opacity="1" d="M 1897.5 266 L 1899 268.5 L 1898 271 L 1900.5 272 Q 1903.1 270.6 1902.5 266 L 1903 270.5 L 1903 272.5 Q 1904.5 278 1902 279.5 L 1903 282.5 L 1902 282.5 Q 1903.1 279.2 1900.5 280 L 1897.5 284 L 1897 282.5 L 1898 280.5 L 1897 278.5 L 1898 278.5 L 1898.5 280 L 1900 277 L 1893 274.5 L 1896.5 274 Q 1898.3 276.8 1900 272.5 L 1898.5 272 L 1897 272.5 L 1897.5 271 L 1896 271 L 1895.5 273 L 1888.5 273 L 1888.5 274 L 1891 274.5 L 1888.5 275 L 1884.5 272 L 1884 274 L 1886 274.5 L 1885 276.5 Q 1887.2 277.8 1884.5 279 Q 1881.9 278.3 1883 281 L 1881 281 L 1880.5 279 Q 1878.8 281.8 1877 277.5 L 1878 272.5 L 1877 270 Q 1880 269 1879 272 L 1881.5 272 L 1889.5 270 Q 1890.8 272.3 1895.5 271 L 1898 267.5 L 1897.5 266 Z M 1902 272 L 1899 276 L 1902 278 L 1901 276 L 1902 274 L 1902 272 Z M 1879 273 L 1879 275 L 1881 274 L 1883 275 L 1883 277 Q 1885 278 1884 274 L 1879 273 Z M 1881 275 L 1878 277 L 1881 278 L 1881 275 Z " /><path fill="rgb(254,255,254)" stroke="rgb(254,255,254)" stroke-width="1" opacity="1" d="M 1973.5 276 L 1976.5 278 L 1978 277.5 L 1977.5 280 L 1973.5 276 Z " /><path fill="rgb(254,255,254)" stroke="rgb(254,255,254)" stroke-width="1" opacity="1" d="M 2012.5 278 L 2012.5 281 Q 2009.5 279.5 2012.5 278 Z " /><path fill="rgb(254,255,254)" stroke="rgb(254,255,254)" stroke-width="1" opacity="1" d="M 1900.5 282 L 1901 284.5 L 1899 285.5 L 1900.5 282 Z " /><path fill="rgb(254,255,254)" stroke="rgb(254,255,254)" stroke-width="1" opacity="1" d="M 1926 360 L 1959.5 360 L 1960 360.5 L 1960 368 L 1926.5 368 L 1926 367.5 L 1926 360 Z " /><path fill="rgb(254,255,254)" stroke="rgb(254,255,254)" stroke-width="1" opacity="1" d="M 1968 360 L 1976 360 L 1976 368 L 1968 368 L 1968 360 Z " /><path fill="rgb(254,255,254)" stroke="rgb(254,255,254)" stroke-width="1" opacity="1" d="M 2064 360 L 2072 360 L 2072 368 L 2064 368 L 2064 360 Z " /><path fill="rgb(254,255,254)" stroke="rgb(254,255,254)" stroke-width="1" opacity="1" d="M 1984 368 L 2000 368 L 2000 384 L 1984 384 L 1984 400 L 1968 400 L 1968 432 L 1952 432 L 1952 384 L 1984 384 L 1984 368 Z " /><path fill="rgb(254,255,254)" stroke="rgb(254,255,254)" stroke-width="1" opacity="1" d="M 1824 376 L 1832 376 L 1832 384 L 1824 384 L 1824 376 Z " /><path fill="rgb(254,255,254)" stroke="rgb(254,255,254)" stroke-width="1" opacity="1" d="M 1888 384 L 1904 384 L 1904 400 L 1888 400 L 1888 384 Z " /><path fill="rgb(254,255,254)" stroke="rgb(254,255,254)" stroke-width="1" opacity="1" d="M 2006 384 L 2008 384.5 L 2008 392 L 2006 391.5 L 2006 384 Z " /><path fill="rgb(254,255,254)" stroke="rgb(254,255,254)" stroke-width="1" opacity="1" d="M 1814 392 L 1816 392.5 L 1816 400 L 1814 399.5 L 1814 392 Z " /><path fill="rgb(254,255,254)" stroke="rgb(254,255,254)" stroke-width="1" opacity="1" d="M 1910 408 L 1912 408.5 L 1912 416 L 1910 415.5 L 1910 408 Z " /><path fill="rgb(254,255,254)" stroke="rgb(254,255,254)" stroke-width="1" opacity="1" d="M 1934 408 L 1936 408.5 L 1936 416 L 1944 416 L 1944 424 L 1936 424 L 1936 416.5 L 1934 415.5 L 1934 408 Z " /><path fill="rgb(254,255,254)" stroke="rgb(254,255,254)" stroke-width="1" opacity="1" d="M 1910 432 L 1912 432.5 L 1912 440 L 1910 439.5 L 1910 432 Z " /><path fill="rgb(254,255,254)" stroke="rgb(254,255,254)" stroke-width="1" opacity="1" d="M 1934 432 L 1936 432.5 L 1936 440 L 1934 439.5 L 1934 432 Z " /><path fill="rgb(254,254,254)" stroke="rgb(254,254,254)" stroke-width="1" opacity="1" d="M 1824 72 L 1827 72 L 1827 80 L 1824 80 L 1824 72 Z " /><path fill="rgb(254,254,254)" stroke="rgb(254,254,254)" stroke-width="1" opacity="1" d="M 1920 72 L 1923 72.5 L 1923 96 L 1920 96 L 1920 104 L 1923 104 L 1923 119.5 L 1926 120 L 1926 127.5 L 1928 128 L 1928 120 L 1952 120 L 1952 127.5 L 1952.5 128 L 2000 128 L 2000 120 L 2008 120 L 2008 112 L 2016 112 L 2016 96 L 2024 96 L 2024 88 L 2027 88 L 2027 96 L 2032 96 L 2032 104 L 2024 104 L 2024 120 L 2032 120 L 2032 136 L 2003 136 L 2003 160 L 2000 160 L 2000 168 L 1992 168 L 1992 160 L 1976 160 L 1976 152 L 1984 152 L 1984 144 L 1992 144 L 1992 136 L 1907.5 136 L 1907 136.5 L 1907 152 L 1910 152 L 1910 160 L 1907 160.5 L 1907 176 L 1910 176.5 L 1910 192 L 1907 192.5 L 1907 207.5 L 1904 208 L 1904 216 L 1896 216 L 1896 208 L 1904 208 L 1904 200 L 1896 200 L 1896 176 L 1904 176 L 1904 160 L 1896 160 L 1896 144 L 1904 144 L 1904 136 L 1896 136 L 1896 128 L 1888 128 L 1888 136 L 1880 136 L 1880 128 L 1856 128 L 1856 136 L 1848 136 L 1848 128 L 1832 128 L 1832 120 L 1879.5 120 L 1880 119.5 L 1880 112 L 1888 112 L 1888 120 L 1896 120 L 1896 104 L 1880 104 L 1880 96 L 1888 96 L 1888 88 L 1896 88 L 1896 80 L 1912 80 L 1912 88 L 1920 88 L 1920 72 Z M 1904 112 L 1904 120 L 1906 120 L 1906 113 L 1904 112 Z M 1910 112 L 1910 120 L 1920 120 L 1920 112 L 1910 112 Z M 1920 120 L 1920 128 L 1922 128 L 1922 121 L 1920 120 Z M 1904 152 L 1904 160 L 1906 160 L 1906 153 L 1904 152 Z M 1904 176 L 1904 192 L 1906 192 L 1906 177 L 1904 176 Z " /><path fill="rgb(254,254,254)" stroke="rgb(254,254,254)" stroke-width="1" opacity="1" d="M 2000 72 L 2003 72.5 L 2003 88 L 2000 88 L 2000 96 L 1984 96 L 1984 104 L 1968 104 L 1968 112 L 1960 112 L 1960 96 L 1968 96 L 1968 88 L 1984 88 L 1984 80 L 2000 80 L 2000 72 Z " /><path fill="rgb(254,254,254)" stroke="rgb(254,254,254)" stroke-width="1" opacity="1" d="M 1848 80 L 1856 80 L 1856 88 L 1848 88 L 1848 80 Z " /><path fill="rgb(254,254,254)" stroke="rgb(254,254,254)" stroke-width="1" opacity="1" d="M 2077 80 L 2080 80.5 L 2080 96 L 2078 96.5 L 2078 104 L 2074 104 L 2074 96 L 2077 95.5 L 2077 80 Z " /><path fill="rgb(254,254,254)" stroke="rgb(254,254,254)" stroke-width="1" opacity="1" d="M 1821 88 L 1824 88 L 1824 95.5 L 1827 96 L 1827 104 L 1824 104 L 1824 112 L 1827 112 L 1827 120 L 1824 120.5 L 1824 136 L 1827 136.5 L 1827 152 L 1824 151.5 L 1824 136 L 1811 136 L 1811 144 L 1808 144 L 1808 136 L 1792 136 L 1792 120 L 1821 120 L 1821 88 Z " /><path fill="rgb(254,254,254)" stroke="rgb(254,254,254)" stroke-width="1" opacity="1" d="M 1936 88 L 1952 88 L 1952 112 L 1936 112 L 1936 88 Z " /><path fill="rgb(254,254,254)" stroke="rgb(254,254,254)" stroke-width="1" opacity="1" d="M 2066 88 L 2070 88 L 2070 96 L 2066 96 L 2066 88 Z " /><path fill="rgb(254,254,254)" stroke="rgb(254,254,254)" stroke-width="1" opacity="1" d="M 1848 96 L 1856 96 L 1856 104 L 1848 104 L 1848 96 Z " /><path fill="rgb(254,254,254)" stroke="rgb(254,254,254)" stroke-width="1" opacity="1" d="M 2097.5 96 L 2099 111.5 L 2098 112.5 L 2098 127.5 L 2099 128.5 L 2099 168 L 2096 167.5 L 2096 128.5 L 2097 127.5 L 2097 112.5 Q 2094.2 110.8 2096 104.5 L 2097.5 96 Z " /><path fill="rgb(254,254,254)" stroke="rgb(254,254,254)" stroke-width="1" opacity="1" d="M 2048 120 L 2080 120 L 2080 160 L 2078 160.5 L 2078 176 L 2074 176 L 2074 160 L 2048.5 160 L 2048 159.5 L 2048 152 L 2056 152 L 2056 144 L 2064 144 L 2064 128 L 2048 128 L 2048 120 Z " /><path fill="rgb(254,254,254)" stroke="rgb(254,254,254)" stroke-width="1" opacity="1" d="M 1857.5 144 L 1858 151.5 L 1857 151.5 L 1857.5 144 Z " /><path fill="rgb(254,254,254)" stroke="rgb(254,254,254)" stroke-width="1" opacity="1" d="M 1920 144 L 1923 144 L 1923 151.5 L 1926 152 L 1926 160 L 1923 160 L 1923 168 L 1920 168 L 1920 160.5 L 1922 159.5 L 1922 152 L 1920 151.5 L 1920 144 Z " /><path fill="rgb(254,254,254)" stroke="rgb(254,254,254)" stroke-width="1" opacity="1" d="M 1736 152 L 1747 152 L 1747 159.5 Q 1744.3 161.3 1746 167.5 L 1747 168.5 L 1747 184 L 1744 184 L 1744 192 L 1751.5 192 L 1752 194 L 1753.5 194 Q 1754.3 191.2 1758.5 192 L 1755.5 196 L 1752 197 L 1753 200.5 L 1750 201.5 Q 1747.2 203.5 1748 208 L 1744 208 L 1744 215.5 L 1742 216.5 L 1742 223.5 Q 1739.3 225.3 1741 231.5 Q 1743.8 233.2 1742 239.5 L 1741 239.5 L 1741 232 L 1738 232 L 1738 239.5 L 1736 240 L 1736 232.5 L 1734 232 L 1734 239.5 L 1732.5 240 Q 1731.3 242.3 1730 239.5 L 1730 232.5 L 1728 232 L 1728 240.5 L 1729 241.5 L 1728 242.5 L 1728 272.5 L 1728 276.5 L 1729 279.5 L 1728 280.5 L 1728 304 L 1712 304 L 1712 328 L 1736 328 L 1736 304 L 1744 304 L 1744 335.5 L 1747 336 L 1747 344 L 1744 344 L 1744 352 L 1775.5 352 L 1776 352.5 L 1776 360 L 1768 360 L 1768 368 L 1776 368 L 1776 384 L 1792 384 L 1792 368 L 1808 368 L 1808 352 L 1816 352 L 1816 360 L 1811 360 L 1811 368 L 1814 368 L 1814 375.5 L 1816 376 L 1816 368 L 1847.5 368 L 1848 367.5 L 1848 360 L 1832 360 L 1832 352 L 1856 352 L 1856 368 L 1872 368 L 1872 360 L 1864 360 L 1864 352 L 1880 352 L 1880 336 L 1872 336 L 1872 333 L 1880 333 L 1880 328 L 1888 328 L 1888 352 L 1896 352 L 1896 304.5 L 1896.5 304 L 1904 304 L 1904 312 L 1912 312 L 1912 320 L 1920 320 L 1920 323 L 1912.5 323 L 1912 320 L 1910 320 L 1910 343.5 L 1912 344.5 L 1912 352 L 1952 352 L 1952 344 L 1960 344 L 1960 336 L 1968 336 L 1968.5 333 L 1984 333 L 1984 336 L 1992 336 L 1992 328 L 2000 328 L 2000 336 L 2008 336 L 2008 344 L 2000 344 L 2000 352 L 2031.5 352 L 2032 352.5 L 2032 360 L 2016 360 L 2016 368 L 2024 368 L 2024 384 L 2040 384 L 2040 376 L 2048 376 L 2048 352.5 L 2048.5 352 L 2056 352 L 2056 344 L 2048 344 L 2048 336 L 2056 336 L 2056 328 L 2064 328 L 2064 331 L 2072 331 L 2072 334 L 2064.5 334 L 2063.5 336 L 2056 336 L 2056 344 L 2066 344 L 2066 336 L 2070 336 L 2070 343.5 L 2072 344 L 2072 336.5 L 2074 335.5 L 2074 328 L 2072 327.5 L 2072 320 L 2077 319.5 L 2077 304.5 L 2080 303.5 L 2080 280 L 2077 280 L 2077 272 L 2080 271.5 L 2080 232 L 2077 231.5 L 2077 216 L 2080 216 L 2080 208 L 2077 207.5 L 2077 192 L 2080 191.5 L 2080 176 L 2099 176 L 2099 184 L 2096 184.5 L 2096 208 L 2099 208 L 2099 216 L 2096 216.5 L 2096 232 L 2099 232 L 2099 240 L 2096 240.5 L 2096 288 L 2099 288 L 2099 296 L 2096 296 L 2096 304 L 2099 304 L 2099 312 L 2096 312 L 2096 320 L 2099 320.5 L 2099 351.5 Q 2096.3 353.3 2098 359.5 L 2099 360.5 L 2099 375.5 L 2098 376.5 L 2098 391.5 L 2099 392.5 L 2099 415.5 Q 2096.3 417.3 2098 423.5 L 2099 424.5 L 2099 432 L 2096 432 L 2096 424.5 Q 2098.8 422.8 2097 416.5 L 2096 415.5 L 2096 392.5 L 2097 391.5 L 2097 376.5 L 2096 375.5 L 2096 360.5 Q 2098.8 358.8 2097 352.5 L 2096 351.5 L 2096 336 L 2080 336 L 2080 384 L 2064 384 L 2064 400 L 2056 400 L 2056 408 L 2048 408 L 2048 392 L 2032 392 L 2032 400 L 2024 400 L 2024 408 L 2032 408 L 2032 411 L 2024.5 411 L 2024 408 L 2016 408 L 2016 416 L 2024 416 L 2024 424 L 2032 424 L 2032 432 L 2024 432 L 2024 448 L 2008 448 L 2008 456 L 2000 456 L 2000 464 L 2031.5 464 L 2032 464.5 L 2032 472 L 2008 472 L 2008 480 L 2032 480 L 2032 488 L 2024 488 L 2024 495.5 L 2023.5 496 L 2000 496 L 2000 512 L 1984 512 L 1984 528 L 2000 528 L 2000 520.5 L 2002 519.5 L 2002 512 L 2006 512 L 2006 519.5 L 2003 520 L 2003 528 L 2006 528.5 L 2006 544 L 2002 544 L 2002 528.5 L 2000 528 L 2000 552 L 1992 552 L 1992 544 L 1976 544 L 1976 557.5 L 1977 560 L 1973.5 561 L 1969.5 560 L 1967.5 560 L 1964.5 561 L 1960 560 L 1960 520.5 L 1959.5 520 L 1944 520 L 1944 512 L 1983.5 512 L 1984 511.5 L 1984 504 L 1907.5 504 L 1907 504.5 L 1907 512 L 1904 512 L 1904 504 L 1888 504 L 1888 480 L 1904 480 L 1904 464 L 1880 464 L 1880 432.5 L 1879.5 432 L 1872.5 432 L 1872 431.5 L 1872 408 L 1864 408 L 1864 423.5 L 1863.5 424 L 1856 424 L 1856 440 L 1859 440.5 L 1859 456 L 1856 456 L 1856 464 L 1859 464.5 L 1859 480 L 1856 480 L 1856 472 L 1848 472 L 1848 448 L 1840 448 L 1840 435 L 1832 435 L 1832 432 L 1834 431.5 L 1834 424 L 1838 424 L 1838 431.5 L 1840 432 L 1840 424 L 1848 424 L 1848 408 L 1840 408 L 1840 416 L 1830 416 L 1830 423.5 L 1827 424 L 1827 432 L 1824 432 L 1824 440 L 1808.5 440 L 1808 440.5 L 1808 448 L 1792 448 L 1792 435 L 1784 435 L 1784 432 L 1792 432 L 1792 408 L 1784 408 L 1784 392 L 1776 392 L 1776 409.5 L 1777.5 410 Q 1778.3 407.3 1782.5 408 L 1779.5 412 L 1776 413 L 1776 439.5 L 1779 440.5 L 1779 456 L 1776 456 L 1776 463.5 L 1775.5 464 L 1752 464 L 1752 448 L 1728 448 L 1728 432 L 1744 432 L 1744 424.5 L 1746 423.5 L 1746 416 L 1696 416 L 1696 400 L 1688 400 L 1688 392 L 1680 392 L 1680 400 L 1656 400 L 1656 368 L 1672 368 L 1672 376 L 1664 376 L 1664 384 L 1696 384 L 1696 400 L 1712 400 L 1712 368 L 1696 368 L 1696 352 L 1703.5 352 L 1704 351.5 L 1704 280.5 L 1704.5 280 L 1712 280 L 1712 272 L 1720 272 L 1720 264 L 1704 264 L 1704 248.5 L 1703.5 248 L 1696 248 L 1696 232 L 1704 232 L 1704 224 L 1696 224 L 1696 208 L 1704 208 L 1704 192 L 1735.5 192 L 1736 191.5 L 1736 184 L 1720 184 L 1720 168 L 1728 168 L 1728 176 L 1736 176 L 1736 168 L 1745 168 L 1745 160 L 1736 160 L 1736 152 Z M 1747 200 L 1747 203 L 1749 202 Q 1750 199 1747 200 Z M 1738 216 L 1738 224 L 1741 224 L 1741 216 L 1738 216 Z M 1737 224 L 1736 232 L 1737 232 L 1737 224 Z M 1904 320 L 1904 344 L 1906 344 L 1906 321 L 1904 320 Z M 2078 328 L 2078 336 L 2080 336 L 2080 329 L 2078 328 Z M 1968 336 L 1968 352 L 1976 352 L 1976 336 L 1968 336 Z M 1747 360 L 1747 368 L 1760 368 L 1760 360 L 1747 360 Z M 1920 360 L 1920 368 L 1922 368 L 1922 361 L 1920 360 Z M 1926 360 L 1926 368 L 1927 368 L 1960 368 L 1960 361 L 1960 360 L 1926 360 Z M 1968 360 L 1968 368 L 1976 368 L 1976 360 L 1968 360 Z M 2064 360 L 2064 368 L 2072 368 L 2072 360 L 2064 360 Z M 1728 368 L 1728 400 L 1744 400 L 1744 368 L 1728 368 Z M 1808 368 L 1808 376 L 1810 376 L 1810 369 L 1808 368 Z M 1984 368 L 1984 384 L 2000 384 L 2000 368 L 1984 368 Z M 1824 376 L 1824 384 L 1832 384 L 1832 376 L 1824 376 Z M 1888 384 L 1888 400 L 1904 400 L 1904 384 L 1888 384 Z M 1952 384 L 1952 432 L 1968 432 L 1968 400 L 1984 400 L 1984 384 L 1952 384 Z M 2000 384 L 2000 392 L 2002 392 L 2002 385 L 2000 384 Z M 2006 384 L 2006 392 L 2008 392 L 2008 385 L 2006 384 Z M 1792 392 L 1792 400 L 1794 400 L 1794 393 L 1792 392 Z M 1798 392 L 1798 400 L 1800 400 L 1800 393 L 1798 392 Z M 1808 392 L 1808 400 L 1810 400 L 1810 393 L 1808 392 Z M 1814 392 L 1814 400 L 1816 400 L 1816 393 L 1814 392 Z M 1904 408 L 1904 416 L 1906 416 L 1906 409 L 1904 408 Z M 1910 408 L 1910 416 L 1912 416 L 1912 409 L 1910 408 Z M 1928 408 L 1928 416 L 1930 416 L 1930 409 L 1928 408 Z M 1934 408 L 1934 416 L 1936 416 L 1936 409 L 1934 408 Z M 2000 408 L 2000 416 L 1984 416 L 1984 448 L 2000 448 L 2000 441 L 2002 440 L 2002 432 L 2006 432 L 2006 440 L 2016 440 L 2016 417 L 2016 416 L 2008 416 L 2008 408 L 2006 409 L 2006 416 L 2002 416 L 2002 409 L 2000 408 Z M 1750 416 L 1750 424 L 1752 424 L 1752 417 L 1750 416 Z M 1824 416 L 1824 424 L 1826 424 L 1826 417 L 1824 416 Z M 1936 416 L 1936 424 L 1944 424 L 1944 416 L 1936 416 Z M 1904 432 L 1904 440 L 1906 440 L 1906 433 L 1904 432 Z M 1910 432 L 1910 440 L 1912 440 L 1912 433 L 1910 432 Z M 1928 432 L 1928 440 L 1930 440 L 1930 433 L 1928 432 Z M 1934 432 L 1934 440 L 1936 440 L 1936 433 L 1934 432 Z M 1928 456 L 1928 464 L 1929 464 L 1960 464 L 1960 457 L 1960 456 L 1928 456 Z M 1968 456 L 1968 464 L 1976 464 L 1976 456 L 1968 456 Z M 1984 464 L 1984 496 L 2000 496 L 2000 464 L 1984 464 Z M 1931 472 L 1931 480 L 1936 480 L 1936 488 L 1931 488 L 1931 496 L 1932 496 L 1960 496 L 1960 488 L 1952 488 L 1952 480 L 1960 480 L 1960 473 L 1960 472 L 1931 472 Z M 1968 520 L 1968 528 L 1976 528 L 1976 520 L 1968 520 Z " /><path fill="rgb(254,254,254)" stroke="rgb(254,254,254)" stroke-width="1" opacity="1" d="M 2008 152 L 2016 152 L 2016 160 L 2008 160 L 2008 152 Z " /><path fill="rgb(254,254,254)" stroke="rgb(254,254,254)" stroke-width="1" opacity="1" d="M 2064 168 L 2067 168 L 2067 176 L 2064 176 L 2064 168 Z " /><path fill="rgb(254,254,254)" stroke="rgb(254,254,254)" stroke-width="1" opacity="1" d="M 1922 176 L 1926 176 L 1926 184 L 1922 184 L 1922 176 Z " /><path fill="rgb(254,254,254)" stroke="rgb(254,254,254)" stroke-width="1" opacity="1" d="M 1976 176 L 2000 176 L 2000 184 L 1976 184 L 1976 176 Z " /><path fill="rgb(254,254,254)" stroke="rgb(254,254,254)" stroke-width="1" opacity="1" d="M 1802 192 L 1806 192 L 1806 199.5 L 1808 200 L 1808 192 L 1816 192 L 1816 208 L 1832 208 L 1832 200 L 1840 200 L 1840 224 L 1824 224 L 1824 232 L 1832 232 L 1832 240 L 1813 240 L 1813 232.5 L 1810 232 L 1810 224 L 1812 223.5 L 1812 216 L 1810 215.5 L 1810 208 L 1806 208 L 1806 200 L 1802 200 L 1802 192 Z M 1814 208 L 1814 216 L 1815 217 L 1815 232 L 1816 232 L 1816 209 L 1814 208 Z M 1814 224 L 1813 232 L 1814 232 L 1814 224 Z " /><path fill="rgb(254,254,254)" stroke="rgb(254,254,254)" stroke-width="1" opacity="1" d="M 2064 192 L 2067 192.5 L 2067 208 L 2064 207.5 L 2064 192 Z " /><path fill="rgb(254,254,254)" stroke="rgb(254,254,254)" stroke-width="1" opacity="1" d="M 1860.5 218 L 1863 218.5 Q 1860.9 221.8 1860.5 218 Z " /><path fill="rgb(254,254,254)" stroke="rgb(254,254,254)" stroke-width="1" opacity="1" d="M 1863.5 224 L 1864 231.5 L 1863 231.5 L 1863.5 224 Z " /><path fill="rgb(254,254,254)" stroke="rgb(254,254,254)" stroke-width="1" opacity="1" d="M 2064 224 L 2067 224 L 2067 232 L 2064 232 L 2064 224 Z " /><path fill="rgb(254,254,254)" stroke="rgb(254,254,254)" stroke-width="1" opacity="1" d="M 1860.5 232 L 1861 247.5 L 1860 247.5 L 1860.5 232 Z " /><path fill="rgb(254,254,254)" stroke="rgb(254,254,254)" stroke-width="1" opacity="1" d="M 1876.5 232 L 1877.5 234 L 1876.5 232 Z " /><path fill="rgb(254,254,254)" stroke="rgb(254,254,254)" stroke-width="1" opacity="1" d="M 1908.5 232 L 1912.5 233 L 1914 232.5 Q 1914.8 234.8 1912.5 234 L 1908.5 233 L 1908.5 232 Z " /><path fill="rgb(254,254,254)" stroke="rgb(254,254,254)" stroke-width="1" opacity="1" d="M 1918.5 232 L 1917.5 234 L 1918.5 232 Z " /><path fill="rgb(254,254,254)" stroke="rgb(254,254,254)" stroke-width="1" opacity="1" d="M 1938.5 232 L 1937.5 234 L 1936 234.5 Q 1938.3 235.8 1935.5 237 Q 1933.3 237.8 1934 235.5 L 1938.5 232 Z " /><path fill="rgb(254,254,254)" stroke="rgb(254,254,254)" stroke-width="1" opacity="1" d="M 1970.5 232 Q 1972.8 231.3 1972 233.5 L 1970.5 232 Z " /><path fill="rgb(254,254,254)" stroke="rgb(254,254,254)" stroke-width="1" opacity="1" d="M 1839.5 233 L 1838.5 235 L 1839.5 233 Z " /><path fill="rgb(254,254,254)" stroke="rgb(254,254,254)" stroke-width="1" opacity="1" d="M 1845.5 233 L 1846.5 235 L 1845.5 233 Z " /><path fill="rgb(254,254,254)" stroke="rgb(254,254,254)" stroke-width="1" opacity="1" d="M 1979.5 233 L 1984 233.5 L 1979.5 234 L 1979.5 233 Z " /><path fill="rgb(254,254,254)" stroke="rgb(254,254,254)" stroke-width="1" opacity="1" d="M 1904.5 234 L 1907 234.5 L 1904.5 235 L 1904.5 234 Z " /><path fill="rgb(254,254,254)" stroke="rgb(254,254,254)" stroke-width="1" opacity="1" d="M 1940.5 234 L 1941 235.5 L 1939 236.5 L 1940.5 234 Z " /><path fill="rgb(254,254,254)" stroke="rgb(254,254,254)" stroke-width="1" opacity="1" d="M 1947.5 234 L 1950 234.5 L 1947.5 235 L 1947.5 234 Z " /><path fill="rgb(254,254,254)" stroke="rgb(254,254,254)" stroke-width="1" opacity="1" d="M 1843.5 235 L 1845.5 238 L 1843.5 235 Z " /><path fill="rgb(254,254,254)" stroke="rgb(254,254,254)" stroke-width="1" opacity="1" d="M 1874.5 235 L 1874.5 238 Q 1871.5 236.5 1874.5 235 Z " /><path fill="rgb(254,254,254)" stroke="rgb(254,254,254)" stroke-width="1" opacity="1" d="M 1968.5 235 L 1970 237.5 L 1968 238.5 L 1969 236.5 L 1968.5 235 Z " /><path fill="rgb(254,254,254)" stroke="rgb(254,254,254)" stroke-width="1" opacity="1" d="M 1980.5 235 L 1981.5 237 L 1980.5 235 Z " /><path fill="rgb(254,254,254)" stroke="rgb(254,254,254)" stroke-width="1" opacity="1" d="M 1909.5 236 L 1912 236.5 L 1909.5 237 L 1909.5 236 Z " /><path fill="rgb(254,254,254)" stroke="rgb(254,254,254)" stroke-width="1" opacity="1" d="M 1915.5 236 L 1918 237 L 1917.5 239 L 1915.5 236 Z " /><path fill="rgb(254,254,254)" stroke="rgb(254,254,254)" stroke-width="1" opacity="1" d="M 1928.5 236 L 1932 238.5 L 1931.5 240 L 1929.5 237 L 1928.5 236 Z " /><path fill="rgb(254,254,254)" stroke="rgb(254,254,254)" stroke-width="1" opacity="1" d="M 1879 237 L 1881 237.5 L 1879 238.5 L 1879 237 Z " /><path fill="rgb(254,254,254)" stroke="rgb(254,254,254)" stroke-width="1" opacity="1" d="M 1897.5 240 L 1898.5 242 L 1899 240 L 1901 240.5 Q 1898.3 242.8 1898.5 248 L 1896 244.5 L 1897.5 240 Z " /><path fill="rgb(254,254,254)" stroke="rgb(254,254,254)" stroke-width="1" opacity="1" d="M 1957.5 240 L 1958 242.5 L 1955.5 244 L 1957 241.5 L 1957.5 240 Z " /><path fill="rgb(254,254,254)" stroke="rgb(254,254,254)" stroke-width="1" opacity="1" d="M 1863.5 248 Q 1866.3 249.2 1864 250.5 L 1863.5 256 L 1863.5 248 Z " /><path fill="rgb(254,254,254)" stroke="rgb(254,254,254)" stroke-width="1" opacity="1" d="M 1996.5 248 L 1997 250.5 L 1996 250.5 L 1996.5 248 Z " /><path fill="rgb(254,254,254)" stroke="rgb(254,254,254)" stroke-width="1" opacity="1" d="M 1899.5 252 L 1902 253.5 L 1900.5 253 L 1898.5 254 L 1899.5 252 Z " /><path fill="rgb(254,254,254)" stroke="rgb(254,254,254)" stroke-width="1" opacity="1" d="M 1826.5 253 L 1825.5 255 L 1826.5 253 Z " /><path fill="rgb(254,254,254)" stroke="rgb(254,254,254)" stroke-width="1" opacity="1" d="M 1936.5 254 L 1937.5 256 L 1936.5 254 Z " /><path fill="rgb(254,254,254)" stroke="rgb(254,254,254)" stroke-width="1" opacity="1" d="M 1995.5 254 L 1994.5 256 L 1995.5 254 Z " /><path fill="rgb(254,254,254)" stroke="rgb(254,254,254)" stroke-width="1" opacity="1" d="M 1899 256 Q 1901.7 254.9 1901 257.5 L 1900 260 L 1897 259.5 L 1899 256 Z " /><path fill="rgb(254,254,254)" stroke="rgb(254,254,254)" stroke-width="1" opacity="1" d="M 1919 256 L 1921 256.5 L 1921 264 L 1919 263.5 L 1919 256 Z " /><path fill="rgb(254,254,254)" stroke="rgb(254,254,254)" stroke-width="1" opacity="1" d="M 1973.5 256 L 1977 264.5 L 1977 273 L 1975 272.5 L 1976 271.5 L 1976 264 Q 1972.3 265.4 1974 259.5 L 1973.5 256 Z " /><path fill="rgb(254,254,254)" stroke="rgb(254,254,254)" stroke-width="1" opacity="1" d="M 1976.5 256 L 1977 258.5 L 1976 258.5 L 1976.5 256 Z " /><path fill="rgb(254,254,254)" stroke="rgb(254,254,254)" stroke-width="1" opacity="1" d="M 1981.5 258 L 1982 259.5 L 1980 260.5 L 1981.5 258 Z " /><path fill="rgb(254,254,254)" stroke="rgb(254,254,254)" stroke-width="1" opacity="1" d="M 1881.5 259 L 1883 259.5 L 1880.5 261 L 1881.5 259 Z " /><path fill="rgb(254,254,254)" stroke="rgb(254,254,254)" stroke-width="1" opacity="1" d="M 1864.5 261 L 1865 263.5 L 1864 263.5 L 1864.5 261 Z " /><path fill="rgb(254,254,254)" stroke="rgb(254,254,254)" stroke-width="1" opacity="1" d="M 1901.5 261 L 1902 263.5 L 1901 263.5 L 1901.5 261 Z " /><path fill="rgb(254,254,254)" stroke="rgb(254,254,254)" stroke-width="1" opacity="1" d="M 1997.5 261 L 2000 262.5 L 1998.5 262 L 1997.5 261 Z " /><path fill="rgb(254,254,254)" stroke="rgb(254,254,254)" stroke-width="1" opacity="1" d="M 1823.5 262 L 1822.5 264 L 1823.5 262 Z " /><path fill="rgb(254,254,254)" stroke="rgb(254,254,254)" stroke-width="1" opacity="1" d="M 1995.5 262 L 1997 263.5 L 1997 271.5 L 1996 271.5 Q 1996.7 264 1995.5 262 Z " /><path fill="rgb(254,254,254)" stroke="rgb(254,254,254)" stroke-width="1" opacity="1" d="M 1826.5 263 L 1826 264.5 L 1825.5 272 L 1825 264.5 L 1826.5 263 Z " /><path fill="rgb(254,254,254)" stroke="rgb(254,254,254)" stroke-width="1" opacity="1" d="M 1862.5 264 L 1863 271.5 L 1862 271.5 L 1862.5 264 Z " /><path fill="rgb(254,254,254)" stroke="rgb(254,254,254)" stroke-width="1" opacity="1" d="M 1915.5 264 L 1916 287.5 L 1917 288.5 L 1915 287.5 L 1915.5 264 Z " /><path fill="rgb(254,254,254)" stroke="rgb(254,254,254)" stroke-width="1" opacity="1" d="M 1917.5 264 L 1918 271.5 L 1917 271.5 L 1917.5 264 Z " /><path fill="rgb(254,254,254)" stroke="rgb(254,254,254)" stroke-width="1" opacity="1" d="M 1923.5 264 L 1924 271.5 L 1923 271.5 L 1923.5 264 Z " /><path fill="rgb(254,254,254)" stroke="rgb(254,254,254)" stroke-width="1" opacity="1" d="M 1980.5 264 L 1981 271.5 L 1980 271.5 L 1980.5 264 Z " /><path fill="rgb(254,254,254)" stroke="rgb(254,254,254)" stroke-width="1" opacity="1" d="M 1822.5 269 L 1823.5 271 L 1822.5 269 Z " /><path fill="rgb(254,254,254)" stroke="rgb(254,254,254)" stroke-width="1" opacity="1" d="M 1879.5 271 L 1882 271.5 L 1879.5 272 L 1879.5 271 Z " /><path fill="rgb(254,254,254)" stroke="rgb(254,254,254)" stroke-width="1" opacity="1" d="M 1902.5 271 L 1901.5 273 L 1902.5 271 Z " /><path fill="rgb(254,254,254)" stroke="rgb(254,254,254)" stroke-width="1" opacity="1" d="M 1899.5 275 L 1900.5 277 L 1899.5 275 Z " /><path fill="rgb(254,254,254)" stroke="rgb(254,254,254)" stroke-width="1" opacity="1" d="M 1860.5 280 L 1861 287.5 L 1860 287.5 L 1860.5 280 Z " /><path fill="rgb(254,254,254)" stroke="rgb(254,254,254)" stroke-width="1" opacity="1" d="M 1863.5 280 L 1865 285.5 L 1863.5 288 L 1863.5 280 Z " /><path fill="rgb(254,254,254)" stroke="rgb(254,254,254)" stroke-width="1" opacity="1" d="M 1921.5 280 L 1922 287.5 L 1921 287.5 L 1921.5 280 Z " /><path fill="rgb(254,254,254)" stroke="rgb(254,254,254)" stroke-width="1" opacity="1" d="M 1923.5 280 L 1924 287.5 L 1923 287.5 L 1923.5 280 Z " /><path fill="rgb(254,254,254)" stroke="rgb(254,254,254)" stroke-width="1" opacity="1" d="M 1824.5 281 L 1826.5 284 L 1824.5 281 Z " /><path fill="rgb(254,254,254)" stroke="rgb(254,254,254)" stroke-width="1" opacity="1" d="M 1899.5 281 L 1900 283 L 1898 282.5 L 1899.5 281 Z " /><path fill="rgb(254,254,254)" stroke="rgb(254,254,254)" stroke-width="1" opacity="1" d="M 1901.5 282 L 1902.5 284 Q 1899.7 284.7 1901.5 282 Z " /><path fill="rgb(254,254,254)" stroke="rgb(254,254,254)" stroke-width="1" opacity="1" d="M 2031.5 284 L 2030.5 286 L 2031.5 284 Z " /><path fill="rgb(254,254,254)" stroke="rgb(254,254,254)" stroke-width="1" opacity="1" d="M 1894.5 286 L 1897 286.5 L 1894.5 287 L 1894.5 286 Z " /><path fill="rgb(254,254,254)" stroke="rgb(254,254,254)" stroke-width="1" opacity="1" d="M 1865.5 287 L 1867 289.5 L 1865 288.5 L 1865.5 287 Z " /><path fill="rgb(254,254,254)" stroke="rgb(254,254,254)" stroke-width="1" opacity="1" d="M 1897.5 288 L 1899 291.5 L 1897 290.5 L 1897.5 288 Z " /><path fill="rgb(254,254,254)" stroke="rgb(254,254,254)" stroke-width="1" opacity="1" d="M 2003.5 289 L 2006.5 293 Q 2004.3 293.8 2005 291.5 L 2003.5 289 Z " /><path fill="rgb(254,254,254)" stroke="rgb(254,254,254)" stroke-width="1" opacity="1" d="M 2028.5 289 L 2029 291.5 Q 2027.5 294.5 2026 291.5 L 2028 291.5 L 2028.5 289 Z " /><path fill="rgb(254,254,254)" stroke="rgb(254,254,254)" stroke-width="1" opacity="1" d="M 1890.5 291 L 1890.5 294 Q 1887.5 292.5 1890.5 291 Z " /><path fill="rgb(254,254,254)" stroke="rgb(254,254,254)" stroke-width="1" opacity="1" d="M 1902.5 291 L 1904.5 292 L 1906 291.5 Q 1906.8 295.3 1904.5 296 L 1905 294.5 Q 1905.8 292.3 1903.5 293 L 1902.5 291 Z " /><path fill="rgb(254,254,254)" stroke="rgb(254,254,254)" stroke-width="1" opacity="1" d="M 1960.5 292 L 1961.5 294 L 1960.5 292 Z " /><path fill="rgb(254,254,254)" stroke="rgb(254,254,254)" stroke-width="1" opacity="1" d="M 1912.5 293 L 1914 295.5 L 1913 295.5 L 1912.5 294 L 1910 295.5 Q 1909.3 293.3 1911.5 294 L 1912.5 293 Z " /><path fill="rgb(254,254,254)" stroke="rgb(254,254,254)" stroke-width="1" opacity="1" d="M 1918.5 293 L 1916.5 296 L 1915.5 294 L 1918.5 293 Z " /><path fill="rgb(254,254,254)" stroke="rgb(254,254,254)" stroke-width="1" opacity="1" d="M 1872.5 294 L 1875 295.5 L 1873.5 296 L 1872.5 294 Z " /><path fill="rgb(254,254,254)" stroke="rgb(254,254,254)" stroke-width="1" opacity="1" d="M 1883.5 294 L 1885 294.5 L 1881.5 296 L 1881.5 295 L 1883.5 294 Z " /><path fill="rgb(254,254,254)" stroke="rgb(254,254,254)" stroke-width="1" opacity="1" d="M 2029.5 294 L 2030.5 296 L 2029.5 294 Z " /><path fill="rgb(254,254,254)" stroke="rgb(254,254,254)" stroke-width="1" opacity="1" d="M 2064 304 L 2067 304.5 L 2067 320 L 2064 319.5 L 2064 304 Z " /><path fill="rgb(254,254,254)" stroke="rgb(254,254,254)" stroke-width="1" opacity="1" d="M 1976 312 L 1984 312 L 1984 323 L 1968.5 323 L 1968 320 L 1976 320 L 1976 312 Z " /><path fill="rgb(254,254,254)" stroke="rgb(254,254,254)" stroke-width="1" opacity="1" d="M 1808 320 L 1816 320 L 1816 323 L 1808 323 L 1808 320 Z " /><path fill="rgb(254,254,254)" stroke="rgb(254,254,254)" stroke-width="1" opacity="1" d="M 1880 320 L 1888 320 L 1888 323 L 1880 323 L 1880 320 Z " /><path fill="rgb(254,254,254)" stroke="rgb(254,254,254)" stroke-width="1" opacity="1" d="M 1928 320 L 1936 320 L 1936 323 L 1928 323 L 1928 320 Z " /><path fill="rgb(254,254,254)" stroke="rgb(254,254,254)" stroke-width="1" opacity="1" d="M 1944 320 L 1952 320 L 1952 323 L 1944 323 L 1944 320 Z " /><path fill="rgb(254,254,254)" stroke="rgb(254,254,254)" stroke-width="1" opacity="1" d="M 2024 320 L 2032 320 L 2032 323 L 2024 323 L 2024 320 Z " /><path fill="rgb(254,254,254)" stroke="rgb(254,254,254)" stroke-width="1" opacity="1" d="M 1816 333 L 1824 333 L 1824 336 L 1816 336 L 1816 333 Z " /><path fill="rgb(254,254,254)" stroke="rgb(254,254,254)" stroke-width="1" opacity="1" d="M 1912 333 L 1935.5 333 L 1936 336 L 1928 336 L 1928 344 L 1920 344 L 1920 336 L 1912 336 L 1912 333 Z " /><path fill="rgb(254,254,254)" stroke="rgb(254,254,254)" stroke-width="1" opacity="1" d="M 2016 333 L 2024 333 L 2024 336 L 2016 336 L 2016 333 Z " /><path fill="rgb(254,254,254)" stroke="rgb(254,254,254)" stroke-width="1" opacity="1" d="M 1856 336 L 1859 336 L 1859 344 L 1856 344 L 1856 336 Z " /><path fill="rgb(254,254,254)" stroke="rgb(254,254,254)" stroke-width="1" opacity="1" d="M 2056 416 L 2064 416 L 2064 440 L 2056 440 L 2056 456 L 2048 456 L 2048 424.5 L 2048.5 424 L 2056 424 L 2056 416 Z " /><path fill="rgb(247,247,247)" stroke="rgb(247,247,247)" stroke-width="1" opacity="1" d="M 1848.5 219 L 1858.5 219 L 1860 220.5 L 1858.5 220 L 1848.5 220 L 1848.5 219 Z " /><path fill="rgb(247,247,247)" stroke="rgb(247,247,247)" stroke-width="1" opacity="1" d="M 2016.5 234 L 2015.5 236 L 2016.5 234 Z " /><path fill="rgb(247,247,247)" stroke="rgb(247,247,247)" stroke-width="1" opacity="1" d="M 1838.5 237 L 1843.5 239 L 1845.5 238 L 1845.5 239 L 1844 239.5 L 1844.5 241 L 1838.5 238 L 1838.5 237 Z " /><path fill="rgb(247,247,247)" stroke="rgb(247,247,247)" stroke-width="1" opacity="1" d="M 1912.5 238 L 1917 240.5 L 1916.5 242 L 1915.5 240 L 1914.5 244 L 1914 240 L 1904 239.5 L 1912.5 238 Z " /><path fill="rgb(247,247,247)" stroke="rgb(247,247,247)" stroke-width="1" opacity="1" d="M 1921.5 238 L 1920.5 240 L 1918.5 241 L 1919.5 239 L 1921.5 238 Z " /><path fill="rgb(247,247,247)" stroke="rgb(247,247,247)" stroke-width="1" opacity="1" d="M 1926.5 238 L 1927.5 240 L 1926.5 238 Z " /><path fill="rgb(247,247,247)" stroke="rgb(247,247,247)" stroke-width="1" opacity="1" d="M 1975.5 238 L 1977 238.5 L 1972.5 240 L 1972.5 239 L 1975.5 238 Z " /><path fill="rgb(247,247,247)" stroke="rgb(247,247,247)" stroke-width="1" opacity="1" d="M 1980.5 238 L 1987.5 241 L 1989 240.5 L 1988.5 242 Q 1990.8 241.3 1990 243.5 L 1987.5 242 L 1981.5 240 L 1980.5 238 Z " /><path fill="rgb(247,247,247)" stroke="rgb(247,247,247)" stroke-width="1" opacity="1" d="M 2020.5 238 L 2022 238.5 L 2017.5 240 L 2017.5 239 L 2020.5 238 Z " /><path fill="rgb(247,247,247)" stroke="rgb(247,247,247)" stroke-width="1" opacity="1" d="M 1834.5 239 L 1836 239.5 L 1830 243.5 L 1827.5 248 L 1828 246.5 L 1827 244.5 L 1829 244.5 L 1828 241.5 L 1829 241.5 L 1829.5 243 L 1830.5 240 L 1832.5 240 L 1834.5 239 Z " /><path fill="rgb(247,247,247)" stroke="rgb(247,247,247)" stroke-width="1" opacity="1" d="M 1875.5 239 L 1878 239.5 L 1875.5 240 L 1875.5 239 Z " /><path fill="rgb(247,247,247)" stroke="rgb(247,247,247)" stroke-width="1" opacity="1" d="M 1946.5 239 Q 1952.1 239.5 1954 243.5 L 1950.5 241 L 1946.5 240 L 1946.5 239 Z " /><path fill="rgb(247,247,247)" stroke="rgb(247,247,247)" stroke-width="1" opacity="1" d="M 1871.5 240 L 1871 241.5 L 1869.5 244 L 1867.5 245 L 1867 242.5 L 1868.5 241 Q 1870 243.5 1871.5 240 Z " /><path fill="rgb(247,247,247)" stroke="rgb(247,247,247)" stroke-width="1" opacity="1" d="M 1888.5 240 L 1893 242 L 1895 245.5 L 1889.5 241 L 1888.5 240 Z " /><path fill="rgb(247,247,247)" stroke="rgb(247,247,247)" stroke-width="1" opacity="1" d="M 1929.5 240 L 1933 241.5 L 1931.5 242 L 1929.5 240 Z " /><path fill="rgb(247,247,247)" stroke="rgb(247,247,247)" stroke-width="1" opacity="1" d="M 1961.5 240 L 1964 240.5 Q 1961.8 241.8 1964.5 243 L 1965.5 241 L 1966.5 243 L 1967.5 240 L 1969.5 240 L 1971 240.5 L 1964.5 246 Q 1966.2 244 1962.5 242 L 1961 242.5 L 1961.5 240 Z " /><path fill="rgb(247,247,247)" stroke="rgb(247,247,247)" stroke-width="1" opacity="1" d="M 2001.5 240 L 2002 242.5 L 2002.5 244 L 2004 241 L 2006 241.5 L 2001 245.5 L 2001 243.5 L 2000 241.5 L 2001.5 240 Z " /><path fill="rgb(247,247,247)" stroke="rgb(247,247,247)" stroke-width="1" opacity="1" d="M 2021.5 240 L 2022.5 242 L 2021.5 240 Z " /><path fill="rgb(247,247,247)" stroke="rgb(247,247,247)" stroke-width="1" opacity="1" d="M 2027.5 240 L 2026 242.5 L 2025.5 244 L 2024.5 242 L 2027.5 240 Z " /><path fill="rgb(247,247,247)" stroke="rgb(247,247,247)" stroke-width="1" opacity="1" d="M 1846.5 241 L 1847.5 243 L 1846.5 241 Z " /><path fill="rgb(247,247,247)" stroke="rgb(247,247,247)" stroke-width="1" opacity="1" d="M 1865.5 241 L 1866 243.5 L 1865 245.5 L 1868 246.5 L 1864.5 248 L 1865 244.5 L 1864 242.5 L 1865.5 241 Z " /><path fill="rgb(247,247,247)" stroke="rgb(247,247,247)" stroke-width="1" opacity="1" d="M 2028.5 243 L 2028 244.5 Q 2027.4 249.1 2030 250.5 L 2028 249.5 L 2026 245.5 L 2028.5 243 Z " /><path fill="rgb(247,247,247)" stroke="rgb(247,247,247)" stroke-width="1" opacity="1" d="M 1954 245 L 1956 245.5 L 1954 246.5 L 1954 245 Z " /><path fill="rgb(247,247,247)" stroke="rgb(247,247,247)" stroke-width="1" opacity="1" d="M 2029.5 246 L 2032 246.5 L 2030.5 249 L 2029.5 246 Z " /><path fill="rgb(247,247,247)" stroke="rgb(247,247,247)" stroke-width="1" opacity="1" d="M 1955.5 248 L 1956 288 L 1958 288.5 L 1956 289.5 L 1956.5 291 L 1955 291.5 L 1958 292.5 L 1955.5 293 Q 1952.8 291.8 1955 290.5 L 1955.5 248 Z " /><path fill="rgb(247,247,247)" stroke="rgb(247,247,247)" stroke-width="1" opacity="1" d="M 1992.5 248 L 1994 249.5 L 1994 278.5 L 1993 278.5 L 1993 250.5 L 1992.5 248 Z " /><path fill="rgb(247,247,247)" stroke="rgb(247,247,247)" stroke-width="1" opacity="1" d="M 1827.5 249 L 1828 280.5 L 1827 280.5 L 1827.5 249 Z " /><path fill="rgb(247,247,247)" stroke="rgb(247,247,247)" stroke-width="1" opacity="1" d="M 1896.5 249 L 1897 251.5 L 1896 251.5 L 1896.5 249 Z " /><path fill="rgb(247,247,247)" stroke="rgb(247,247,247)" stroke-width="1" opacity="1" d="M 1962.5 249 L 1963 251.5 L 1961 250.5 L 1962.5 249 Z " /><path fill="rgb(247,247,247)" stroke="rgb(247,247,247)" stroke-width="1" opacity="1" d="M 2012 249 L 2014 249.5 L 2012 250.5 L 2012 249 Z " /><path fill="rgb(247,247,247)" stroke="rgb(247,247,247)" stroke-width="1" opacity="1" d="M 2015.5 249 L 2016.5 251 L 2018 250.5 L 2017.5 252 L 2019 252.5 L 2018.5 254 L 2021 255.5 L 2019.5 255 L 2017.5 256 L 2017 253.5 L 2015.5 251 L 2014 253.5 L 2016 253.5 L 2014.5 255 L 2012 254.5 L 2011 252.5 Q 2013 254.2 2015 250.5 L 2015.5 249 Z " /><path fill="rgb(247,247,247)" stroke="rgb(247,247,247)" stroke-width="1" opacity="1" d="M 1840.5 250 L 1840.5 252 L 1844 253.5 L 1842.5 254 L 1839 253 L 1840.5 250 Z " /><path fill="rgb(247,247,247)" stroke="rgb(247,247,247)" stroke-width="1" opacity="1" d="M 1843.5 250 L 1845.5 250 L 1848 252.5 L 1845.5 251 L 1844.5 252 L 1843.5 250 Z " /><path fill="rgb(247,247,247)" stroke="rgb(247,247,247)" stroke-width="1" opacity="1" d="M 1878.5 250 Q 1882.5 249.5 1883 252.5 L 1881.5 252 L 1880 252.5 L 1880.5 254 L 1879.5 251 L 1877.5 252 L 1878.5 250 Z " /><path fill="rgb(247,247,247)" stroke="rgb(247,247,247)" stroke-width="1" opacity="1" d="M 1883.5 250 L 1885.5 253 L 1883.5 250 Z " /><path fill="rgb(247,247,247)" stroke="rgb(247,247,247)" stroke-width="1" opacity="1" d="M 1903.5 250 L 1904 269.5 L 1903 269.5 L 1903.5 250 Z " /><path fill="rgb(247,247,247)" stroke="rgb(247,247,247)" stroke-width="1" opacity="1" d="M 1921.5 250 Q 1924.5 250.5 1924 254.5 L 1922 255.5 L 1923 252.5 L 1920 251.5 L 1921.5 250 Z " /><path fill="rgb(247,247,247)" stroke="rgb(247,247,247)" stroke-width="1" opacity="1" d="M 1937.5 250 L 1939 252.5 L 1938 252.5 L 1937.5 251 L 1935.5 256 L 1935 252.5 L 1937.5 250 Z " /><path fill="rgb(247,247,247)" stroke="rgb(247,247,247)" stroke-width="1" opacity="1" d="M 1941.5 250 L 1944 251.5 L 1945 253.5 L 1945 290.5 L 1946 291.5 L 1944 292.5 L 1944 290.5 L 1944 255.5 L 1943 254.5 L 1944 253.5 L 1941.5 250 Z " /><path fill="rgb(247,247,247)" stroke="rgb(247,247,247)" stroke-width="1" opacity="1" d="M 1979.5 250 L 1982 251.5 L 1979.5 253 L 1979.5 250 Z " /><path fill="rgb(247,247,247)" stroke="rgb(247,247,247)" stroke-width="1" opacity="1" d="M 1999.5 250 L 2000 252.5 L 1999 252.5 L 1999.5 250 Z " /><path fill="rgb(247,247,247)" stroke="rgb(247,247,247)" stroke-width="1" opacity="1" d="M 1917.5 252 L 1915 255.5 L 1915 290.5 L 1913.5 292 L 1914 290.5 L 1914 254.5 L 1915.5 254 L 1917.5 252 Z " /><path fill="rgb(247,247,247)" stroke="rgb(247,247,247)" stroke-width="1" opacity="1" d="M 1973.5 252 L 1974 254 L 1976 254.5 L 1974.5 255 L 1973.5 252 Z " /><path fill="rgb(247,247,247)" stroke="rgb(247,247,247)" stroke-width="1" opacity="1" d="M 2009.5 252 L 2010 255.5 L 2009 255.5 L 2009.5 252 Z " /><path fill="rgb(247,247,247)" stroke="rgb(247,247,247)" stroke-width="1" opacity="1" d="M 2029.5 252 L 2031 255.5 L 2029 254.5 L 2029.5 252 Z " /><path fill="rgb(247,247,247)" stroke="rgb(247,247,247)" stroke-width="1" opacity="1" d="M 1865.5 253 L 1866 278.5 L 1865 278.5 L 1865.5 253 Z " /><path fill="rgb(247,247,247)" stroke="rgb(247,247,247)" stroke-width="1" opacity="1" d="M 1921.5 253 L 1920.5 255 L 1921.5 253 Z " /><path fill="rgb(247,247,247)" stroke="rgb(247,247,247)" stroke-width="1" opacity="1" d="M 1982.5 253 L 1983 277 Q 1980.3 278.1 1981 275.5 L 1980 273.5 L 1982 271.5 L 1982 255.5 Q 1979.8 254.3 1982.5 253 Z " /><path fill="rgb(247,247,247)" stroke="rgb(247,247,247)" stroke-width="1" opacity="1" d="M 1838 254 L 1842 255.5 L 1840.5 255 L 1839 255.5 L 1839 272.5 L 1839 274.5 L 1838.5 276 L 1838 254 Z " /><path fill="rgb(247,247,247)" stroke="rgb(247,247,247)" stroke-width="1" opacity="1" d="M 1876.5 254 L 1879 254.5 L 1877 258.5 Q 1879.3 259.8 1876.5 261 L 1876.5 254 Z " /><path fill="rgb(247,247,247)" stroke="rgb(247,247,247)" stroke-width="1" opacity="1" d="M 1918.5 254 L 1917.5 256 L 1918.5 254 Z " /><path fill="rgb(247,247,247)" stroke="rgb(247,247,247)" stroke-width="1" opacity="1" d="M 1789.5 256 L 1790.5 258 L 1791.5 257 L 1819.5 257 L 1821 257.5 L 1821.5 256 L 1822 257.5 Q 1820.8 260.3 1819.5 258 L 1791 258 L 1791 268 L 1819.5 268 L 1820.5 267 L 1819.5 269 L 1792.5 269 L 1791.5 270 L 1791 268 L 1789 267.5 L 1790 266.5 L 1790 258 L 1788 257.5 L 1789.5 256 Z " /><path fill="rgb(247,247,247)" stroke="rgb(247,247,247)" stroke-width="1" opacity="1" d="M 1961.5 256 L 1962 274.5 L 1961 274.5 L 1961.5 256 Z " /><path fill="rgb(247,247,247)" stroke="rgb(247,247,247)" stroke-width="1" opacity="1" d="M 1999.5 256 L 2002 262.5 L 2000 261.5 L 1999.5 256 Z " /><path fill="rgb(247,247,247)" stroke="rgb(247,247,247)" stroke-width="1" opacity="1" d="M 2010.5 257 L 2011.5 259 L 2010.5 257 Z " /><path fill="rgb(247,247,247)" stroke="rgb(247,247,247)" stroke-width="1" opacity="1" d="M 2014.5 258 L 2013.5 260 L 2014.5 258 Z " /><path fill="rgb(247,247,247)" stroke="rgb(247,247,247)" stroke-width="1" opacity="1" d="M 2018.5 259 L 2017.5 261 L 2016 260.5 L 2018.5 259 Z " /><path fill="rgb(247,247,247)" stroke="rgb(247,247,247)" stroke-width="1" opacity="1" d="M 2023.5 263 L 2024.5 265 L 2023.5 263 Z " /><path fill="rgb(247,247,247)" stroke="rgb(247,247,247)" stroke-width="1" opacity="1" d="M 1820.5 264 L 1823 265.5 L 1821.5 266 L 1820.5 264 Z " /><path fill="rgb(247,247,247)" stroke="rgb(247,247,247)" stroke-width="1" opacity="1" d="M 1899.5 264 L 1898.5 266 L 1899.5 264 Z " /><path fill="rgb(247,247,247)" stroke="rgb(247,247,247)" stroke-width="1" opacity="1" d="M 2029.5 265 L 2032 268.5 L 2030 267.5 L 2029.5 266 Q 2027.8 269.8 2026 266.5 Q 2027.8 268.1 2029.5 265 Z " /><path fill="rgb(247,247,247)" stroke="rgb(247,247,247)" stroke-width="1" opacity="1" d="M 2003.5 266 L 2006 266.5 L 2006.5 268 L 2008.5 268 L 2013 269.5 Q 2011.7 272.2 2010.5 270 L 2007.5 268 L 2006.5 270 L 2006 268 L 2003.5 266 Z " /><path fill="rgb(247,247,247)" stroke="rgb(247,247,247)" stroke-width="1" opacity="1" d="M 1897.5 268 L 1898.5 270 L 1896.5 270 L 1877 270 L 1877 277.5 L 1878 279.5 L 1877 279.5 L 1876 269 L 1896.5 269 L 1897.5 268 Z " /><path fill="rgb(247,247,247)" stroke="rgb(247,247,247)" stroke-width="1" opacity="1" d="M 2030.5 270 L 2030 271.5 L 2031 277.5 Q 2029.1 286.1 2023.5 291 L 2023 289.5 L 2029 281.5 L 2029 271.5 L 2030.5 270 Z " /><path fill="rgb(247,247,247)" stroke="rgb(247,247,247)" stroke-width="1" opacity="1" d="M 1903.5 271 L 1904 278.5 L 1903 278.5 L 1903.5 271 Z " /><path fill="rgb(247,247,247)" stroke="rgb(247,247,247)" stroke-width="1" opacity="1" d="M 2016.5 271 L 2018.5 274 L 2017 273.5 L 2016.5 275 L 2015 272.5 L 2016.5 271 Z " /><path fill="rgb(247,247,247)" stroke="rgb(247,247,247)" stroke-width="1" opacity="1" d="M 1887.5 272 L 1887 273.5 L 1887.5 275 L 1896.5 275 L 1897.5 277 L 1896.5 276 L 1885 275.5 L 1887.5 272 Z " /><path fill="rgb(247,247,247)" stroke="rgb(247,247,247)" stroke-width="1" opacity="1" d="M 1998.5 272 L 1999.5 274 Q 1996.7 274.7 1998.5 272 Z " /><path fill="rgb(247,247,247)" stroke="rgb(247,247,247)" stroke-width="1" opacity="1" d="M 2009.5 272 L 2008.5 274 L 2009.5 272 Z " /><path fill="rgb(247,247,247)" stroke="rgb(247,247,247)" stroke-width="1" opacity="1" d="M 2012.5 272 L 2015 275.5 L 2013 274.5 L 2012.5 272 Z " /><path fill="rgb(247,247,247)" stroke="rgb(247,247,247)" stroke-width="1" opacity="1" d="M 1975.5 273 L 1978 274.5 L 1977.5 276 L 1977 274 L 1975.5 273 Z " /><path fill="rgb(247,247,247)" stroke="rgb(247,247,247)" stroke-width="1" opacity="1" d="M 1900.5 274 L 1902 277.5 L 1901 277.5 L 1900.5 274 Z " /><path fill="rgb(247,247,247)" stroke="rgb(247,247,247)" stroke-width="1" opacity="1" d="M 1883.5 275 L 1882.5 277 L 1883.5 275 Z " /><path fill="rgb(247,247,247)" stroke="rgb(247,247,247)" stroke-width="1" opacity="1" d="M 1974.5 275 L 1975 276.5 L 1974 278.5 L 1977 279.5 Q 1977.8 281.8 1975.5 281 L 1973 277.5 L 1974.5 275 Z " /><path fill="rgb(247,247,247)" stroke="rgb(247,247,247)" stroke-width="1" opacity="1" d="M 1997.5 275 L 2000 275.5 L 1997.5 280 L 1998 278.5 L 1997.5 275 Z " /><path fill="rgb(247,247,247)" stroke="rgb(247,247,247)" stroke-width="1" opacity="1" d="M 2008.5 275 Q 2011.5 274.1 2010 278.5 L 2012 278.5 Q 2009.8 279.8 2012.5 281 L 2013.5 279 L 2014 281 Q 2017.4 281.8 2018.5 279 L 2016.5 282 Q 2010 283 2009 278.5 L 2008.5 275 Z " /><path fill="rgb(247,247,247)" stroke="rgb(247,247,247)" stroke-width="1" opacity="1" d="M 2018 275 Q 2021 273.8 2020 277.5 L 2018 276.5 L 2018 275 Z " /><path fill="rgb(247,247,247)" stroke="rgb(247,247,247)" stroke-width="1" opacity="1" d="M 1846.5 276 L 1845.5 278 L 1846.5 276 Z " /><path fill="rgb(247,247,247)" stroke="rgb(247,247,247)" stroke-width="1" opacity="1" d="M 1884.5 277 Q 1888 279 1883.5 281 L 1883 279 L 1881 278.5 L 1882.5 278 L 1884.5 279 L 1884.5 277 Z " /><path fill="rgb(247,247,247)" stroke="rgb(247,247,247)" stroke-width="1" opacity="1" d="M 1839.5 278 L 1842 279.5 L 1842.5 278 L 1843 280 Q 1846.4 280.8 1847.5 278 L 1845.5 281 Q 1839.2 282 1839.5 278 Z " /><path fill="rgb(247,247,247)" stroke="rgb(247,247,247)" stroke-width="1" opacity="1" d="M 1898 278 L 1900 278.5 L 1896 281.5 Q 1895.3 278.9 1898 280 L 1898 278 Z " /><path fill="rgb(247,247,247)" stroke="rgb(247,247,247)" stroke-width="1" opacity="1" d="M 1978.5 278 L 1980 280.5 L 1979 280.5 L 1978.5 278 Z " /><path fill="rgb(247,247,247)" stroke="rgb(247,247,247)" stroke-width="1" opacity="1" d="M 1903.5 280 L 1904 289.5 L 1903 289.5 L 1903.5 280 Z " /><path fill="rgb(247,247,247)" stroke="rgb(247,247,247)" stroke-width="1" opacity="1" d="M 1960.5 280 L 1963 280.5 Q 1963.8 282.8 1961.5 282 L 1960.5 280 Z " /><path fill="rgb(247,247,247)" stroke="rgb(247,247,247)" stroke-width="1" opacity="1" d="M 1992.5 281 L 1994 283.5 L 1991 285.5 L 1991.5 287 Q 1988.5 285.5 1991.5 284 Q 1993.8 284.8 1993 282.5 L 1992.5 281 Z " /><path fill="rgb(247,247,247)" stroke="rgb(247,247,247)" stroke-width="1" opacity="1" d="M 1826.5 282 L 1829 283 Q 1830 286 1827 285 L 1826.5 282 Z " /><path fill="rgb(247,247,247)" stroke="rgb(247,247,247)" stroke-width="1" opacity="1" d="M 1895.5 283 Q 1898.5 284.5 1895.5 286 L 1894 286.5 L 1895 288.5 L 1894 288.5 L 1893.5 287 L 1888.5 291 L 1888.5 290 L 1896 284.5 L 1895.5 283 Z " /><path fill="rgb(247,247,247)" stroke="rgb(247,247,247)" stroke-width="1" opacity="1" d="M 1962.5 283 L 1964 283.5 L 1961.5 285 L 1962.5 283 Z " /><path fill="rgb(247,247,247)" stroke="rgb(247,247,247)" stroke-width="1" opacity="1" d="M 1998.5 283 L 2001 283.5 L 2003 286.5 L 2000.5 285 L 1998.5 283 Z " /><path fill="rgb(247,247,247)" stroke="rgb(247,247,247)" stroke-width="1" opacity="1" d="M 1964.5 285 L 1968.5 290 L 1966 288.5 Q 1966.8 286.3 1964.5 287 L 1963 287.5 L 1964.5 285 Z " /><path fill="rgb(247,247,247)" stroke="rgb(247,247,247)" stroke-width="1" opacity="1" d="M 1867.5 286 L 1875.5 291 L 1879 291 Q 1880.1 293.7 1877.5 293 L 1871 290 L 1870.5 292 Q 1867 290 1867.5 286 Z M 1870 288 Q 1868 291 1871 290 L 1870 288 Z " /><path fill="rgb(247,247,247)" stroke="rgb(247,247,247)" stroke-width="1" opacity="1" d="M 1989.5 287 L 1988.5 289 L 1989.5 287 Z " /><path fill="rgb(247,247,247)" stroke="rgb(247,247,247)" stroke-width="1" opacity="1" d="M 1830.5 288 L 1832.5 291 L 1830.5 288 Z " /><path fill="rgb(247,247,247)" stroke="rgb(247,247,247)" stroke-width="1" opacity="1" d="M 2004.5 288 L 2008 290.5 L 2006.5 291 L 2004.5 288 Z " /><path fill="rgb(247,247,247)" stroke="rgb(247,247,247)" stroke-width="1" opacity="1" d="M 1845.5 289 L 1844.5 291 L 1845.5 289 Z " /><path fill="rgb(247,247,247)" stroke="rgb(247,247,247)" stroke-width="1" opacity="1" d="M 1861.5 289 L 1862 291.5 L 1861 291.5 L 1861.5 289 Z " /><path fill="rgb(247,247,247)" stroke="rgb(247,247,247)" stroke-width="1" opacity="1" d="M 1935.5 289 L 1936 290.5 L 1933.5 292 L 1933.5 291 Q 1936 291.7 1935.5 289 Z " /><path fill="rgb(247,247,247)" stroke="rgb(247,247,247)" stroke-width="1" opacity="1" d="M 1986.5 289 L 1985.5 291 L 1984 290.5 L 1986.5 289 Z " /><path fill="rgb(247,247,247)" stroke="rgb(247,247,247)" stroke-width="1" opacity="1" d="M 2002.5 289 L 2003.5 291 L 2002.5 289 Z " /><path fill="rgb(247,247,247)" stroke="rgb(247,247,247)" stroke-width="1" opacity="1" d="M 1826.5 290 L 1827.5 292 L 1826.5 290 Z " /><path fill="rgb(247,247,247)" stroke="rgb(247,247,247)" stroke-width="1" opacity="1" d="M 1829.5 290 L 1830.5 292 L 1829.5 290 Z " /><path fill="rgb(247,247,247)" stroke="rgb(247,247,247)" stroke-width="1" opacity="1" d="M 1970.5 290 L 1976 291.5 Q 1974.8 294.3 1973.5 292 Q 1969.7 291.7 1970.5 290 Z " /><path fill="rgb(247,247,247)" stroke="rgb(247,247,247)" stroke-width="1" opacity="1" d="M 1834.5 291 L 1837 291.5 L 1834.5 292 L 1834.5 291 Z " /><path fill="rgb(247,247,247)" stroke="rgb(247,247,247)" stroke-width="1" opacity="1" d="M 1841 291 L 1843 291.5 L 1841 292.5 L 1841 291 Z " /><path fill="rgb(247,247,247)" stroke="rgb(247,247,247)" stroke-width="1" opacity="1" d="M 1847.5 291 L 1849.5 291 L 1856 291.5 L 1848.5 293 L 1847.5 291 Z " /><path fill="rgb(247,247,247)" stroke="rgb(247,247,247)" stroke-width="1" opacity="1" d="M 1883.5 291 L 1887 291.5 L 1883.5 292 L 1883.5 291 Z " /><path fill="rgb(247,247,247)" stroke="rgb(247,247,247)" stroke-width="1" opacity="1" d="M 1979.5 291 L 1983 291.5 L 1979.5 292 L 1979.5 291 Z " /><path fill="rgb(247,247,247)" stroke="rgb(247,247,247)" stroke-width="1" opacity="1" d="M 2009.5 291 L 2012 291.5 L 2009.5 292 L 2009.5 291 Z " /><path fill="rgb(247,247,247)" stroke="rgb(247,247,247)" stroke-width="1" opacity="1" d="M 2016.5 291 L 2020 291.5 L 2016.5 292 L 2016.5 291 Z " /><path fill="rgb(247,247,247)" stroke="rgb(247,247,247)" stroke-width="1" opacity="1" d="M 1832.5 292 L 1833.5 294 L 1832.5 292 Z " /><path fill="rgb(247,247,247)" stroke="rgb(247,247,247)" stroke-width="1" opacity="1" d="M 1844.5 292 L 1847 293.5 L 1845.5 293 L 1843.5 294 L 1844.5 292 Z " /><path fill="rgb(247,247,247)" stroke="rgb(247,247,247)" stroke-width="1" opacity="1" d="M 1930.5 292 L 1932 292.5 L 1930 293 L 1929.5 295 L 1929 293.5 L 1930.5 292 Z " /><path fill="rgb(247,247,247)" stroke="rgb(247,247,247)" stroke-width="1" opacity="1" d="M 1969.5 292 L 1971 292.5 L 1968.5 294 L 1969.5 292 Z " /><path fill="rgb(247,247,247)" stroke="rgb(247,247,247)" stroke-width="1" opacity="1" d="M 1825.5 293 L 1826.5 295 L 1824.5 296 L 1825 294.5 L 1825.5 293 Z " /><path fill="rgb(247,247,247)" stroke="rgb(247,247,247)" stroke-width="1" opacity="1" d="M 1839.5 293 L 1840.5 295 L 1839.5 293 Z " /><path fill="rgb(247,247,247)" stroke="rgb(247,247,247)" stroke-width="1" opacity="1" d="M 1869.5 293 L 1872 293.5 L 1869.5 294 L 1869.5 293 Z " /><path fill="rgb(247,247,247)" stroke="rgb(247,247,247)" stroke-width="1" opacity="1" d="M 2019.5 293 L 2022.5 294 L 2024 293.5 L 2023.5 296 L 2019.5 294 L 2019.5 293 Z " /></svg>