<?xml version='1.0' encoding='utf-8'?>
<svg xmlns="http://www.w3.org/2000/svg" width="388" height="412" viewBox="1046.0 54.0 388.0 412.0" version="1.1"><path fill="rgb(23,24,23)" stroke="rgb(23,24,23)" stroke-width="1" opacity="1" d="M 1177 141 L 1232 141 L 1232 204 L 1177 204 L 1177 141 Z " /><path fill="rgb(23,24,23)" stroke="rgb(23,24,23)" stroke-width="1" opacity="1" d="M 1241 141 L 1295 141 L 1295 204 L 1241 204 L 1241 141 Z " /><path fill="rgb(23,24,23)" stroke="rgb(23,24,23)" stroke-width="1" opacity="1" d="M 1153 213 L 1208 213 L 1208 263 L 1264 263 L 1264 214.5 L 1265.5 213 L 1319 213 L 1319 276 L 1264 276 L 1264 301.5 L 1263.5 302 L 1208 302 L 1208 276 L 1153 276 L 1153 213 Z " /><path fill="rgb(23,24,23)" stroke="rgb(23,24,23)" stroke-width="1" opacity="1" d="M 1130 285 L 1183.5 285 L 1185 286.5 L 1185 346.5 L 1183.5 348 L 1130 348 L 1130 285 Z " /><path fill="rgb(23,24,23)" stroke="rgb(23,24,23)" stroke-width="1" opacity="1" d="M 1288 285 L 1343 285 L 1343 348 L 1288 348 L 1288 285 Z " /><path fill="rgb(23,24,23)" stroke="rgb(23,24,23)" stroke-width="1" opacity="1" d="M 1121 368 L 1142.5 368 L 1147.5 369 Q 1156.6 370.9 1161 377.5 Q 1166.7 385.3 1166 399.5 L 1164 407.5 L 1157.5 417 L 1146.5 422 L 1121 422 L 1121 368 Z M 1134 378 L 1132 380 L 1132 412 L 1145 412 L 1149 410 Q 1153 407 1154 402 Q 1156 390 1152 385 L 1146 379 L 1134 378 Z " /><path fill="rgb(23,24,23)" stroke="rgb(23,24,23)" stroke-width="1" opacity="1" d="M 1173 368 L 1208.5 368 L 1209 368.5 L 1209 378 L 1185 378 L 1185 390 L 1208 390 L 1208 400 L 1185 400 L 1185 411.5 Q 1186.3 414.2 1187.5 412 L 1208.5 412 L 1210 413.5 L 1210 421.5 L 1209.5 422 L 1173 422 L 1173 368 Z " /><path fill="rgb(23,24,23)" stroke="rgb(23,24,23)" stroke-width="1" opacity="1" d="M 1218.5 368 L 1220.5 368 L 1231.5 368 L 1233 369.5 L 1246.5 404 L 1259 371.5 L 1261.5 368 L 1274.5 368 L 1275 368.5 L 1275 422 L 1264.5 422 L 1264 421.5 L 1264 388.5 L 1263 388.5 L 1251 422 L 1242.5 422 L 1242 419.5 L 1229.5 388 L 1229 422 L 1218.5 422 L 1218 421.5 L 1218.5 368 Z " /><path fill="rgb(23,24,23)" stroke="rgb(23,24,23)" stroke-width="1" opacity="1" d="M 1301.5 368 Q 1322.7 365.8 1329 378.5 L 1332 385.5 L 1333 399.5 L 1328 413.5 L 1322.5 419 L 1312.5 423 L 1303.5 423 Q 1291.9 421.1 1287 412.5 Q 1281 404.5 1283 388.5 Q 1284.8 378.3 1291.5 373 L 1301.5 368 Z M 1305 378 L 1301 380 L 1295 389 L 1295 403 L 1298 409 L 1303 412 L 1307 413 L 1315 411 Q 1320 408 1321 401 Q 1322 387 1317 381 L 1312 378 L 1305 378 Z " /><path fill="rgb(23,24,23)" stroke="rgb(23,24,23)" stroke-width="1" opacity="1" d="M 1341 368 L 1351.5 368 L 1352 369.5 L 1352 371.5 L 1352 416.5 L 1353 420.5 L 1351.5 422 L 1341 422 L 1341 368 Z " /><path fill="rgb(253,253,253)" stroke="rgb(253,253,253)" stroke-width="1" opacity="1" d="M 1283 88 L 1285 88.5 L 1285 96 L 1283 95.5 L 1283 88 Z " /><path fill="rgb(253,253,253)" stroke="rgb(253,253,253)" stroke-width="1" opacity="1" d="M 1136 104 L 1138 104.5 L 1138 112 L 1136 111.5 L 1136 104 Z " /><path fill="rgb(253,253,253)" stroke="rgb(253,253,253)" stroke-width="1" opacity="1" d="M 1136 120 L 1138 120.5 L 1138 128 L 1136 127.5 L 1136 120 Z " /><path fill="rgb(253,253,253)" stroke="rgb(253,253,253)" stroke-width="1" opacity="1" d="M 1160 120 L 1162 120.5 L 1162 128 L 1160 127.5 L 1160 120 Z " /><path fill="rgb(253,253,253)" stroke="rgb(253,253,253)" stroke-width="1" opacity="1" d="M 1232 120 L 1234 120.5 L 1234 128 L 1232 127.5 L 1232 120 Z " /><path fill="rgb(253,253,253)" stroke="rgb(253,253,253)" stroke-width="1" opacity="1" d="M 1312 120 L 1314 120.5 L 1314 128 L 1312 127.5 L 1312 120 Z " /><path fill="rgb(253,253,253)" stroke="rgb(253,253,253)" stroke-width="1" opacity="1" d="M 1240 128 L 1247.5 128 L 1248 130 L 1240.5 130 L 1240 128 Z " /><path fill="rgb(253,253,253)" stroke="rgb(253,253,253)" stroke-width="1" opacity="1" d="M 1200.5 136 L 1208 136.5 L 1200.5 137 L 1200.5 136 Z " /><path fill="rgb(253,253,253)" stroke="rgb(253,253,253)" stroke-width="1" opacity="1" d="M 1229.5 136 L 1232 136.5 L 1229.5 137 L 1229.5 136 Z " /><path fill="rgb(253,253,253)" stroke="rgb(253,253,253)" stroke-width="1" opacity="1" d="M 1224.5 137 L 1226 139.5 L 1224.5 139 L 1208 138.5 L 1223.5 138 L 1224.5 137 Z " /><path fill="rgb(253,253,253)" stroke="rgb(253,253,253)" stroke-width="1" opacity="1" d="M 1264.5 137 L 1279.5 137 L 1288 138.5 L 1280 139.5 L 1288 140.5 L 1264 141 L 1264.5 139 L 1279.5 139 L 1279.5 138 L 1264.5 138 L 1264.5 137 Z " /><path fill="rgb(253,253,253)" stroke="rgb(253,253,253)" stroke-width="1" opacity="1" d="M 1293.5 137 L 1295.5 140 L 1293.5 139 L 1290.5 141 L 1289 138.5 L 1290.5 138 Q 1292 140.5 1293.5 137 Z " /><path fill="rgb(253,253,253)" stroke="rgb(253,253,253)" stroke-width="1" opacity="1" d="M 1184.5 140 L 1224 140.5 L 1184.5 141 L 1184.5 140 Z " /><path fill="rgb(253,253,253)" stroke="rgb(253,253,253)" stroke-width="1" opacity="1" d="M 1136 152 L 1138 152.5 L 1138 168 L 1134 168 L 1134 160 L 1136 159.5 L 1136 152 Z " /><path fill="rgb(253,253,253)" stroke="rgb(253,253,253)" stroke-width="1" opacity="1" d="M 1160 152 L 1162 152.5 L 1162 200 L 1160 199.5 L 1160 152 Z " /><path fill="rgb(253,253,253)" stroke="rgb(253,253,253)" stroke-width="1" opacity="1" d="M 1344.5 160 L 1345 167.5 L 1344 167.5 L 1344.5 160 Z " /><path fill="rgb(253,253,253)" stroke="rgb(253,253,253)" stroke-width="1" opacity="1" d="M 1136 176 L 1138 176.5 L 1138 280 L 1136 279.5 L 1136 176 Z " /><path fill="rgb(253,253,253)" stroke="rgb(253,253,253)" stroke-width="1" opacity="1" d="M 1178.5 204 L 1182 204.5 L 1178.5 205 L 1178.5 204 Z " /><path fill="rgb(253,253,253)" stroke="rgb(253,253,253)" stroke-width="1" opacity="1" d="M 1183.5 204 L 1225 204.5 L 1183.5 205 L 1183.5 204 Z " /><path fill="rgb(253,253,253)" stroke="rgb(253,253,253)" stroke-width="1" opacity="1" d="M 1245.5 204 L 1248 204.5 L 1247.5 207 L 1245 206.5 L 1245.5 204 Z " /><path fill="rgb(253,253,253)" stroke="rgb(253,253,253)" stroke-width="1" opacity="1" d="M 1230.5 205 Q 1232.8 204.3 1232 206.5 L 1230.5 205 Z " /><path fill="rgb(253,253,253)" stroke="rgb(253,253,253)" stroke-width="1" opacity="1" d="M 1179.5 206 L 1178.5 208 L 1179.5 206 Z " /><path fill="rgb(253,253,253)" stroke="rgb(253,253,253)" stroke-width="1" opacity="1" d="M 1181.5 206 Q 1183.8 205.3 1183 207.5 L 1181.5 206 Z " /><path fill="rgb(253,253,253)" stroke="rgb(253,253,253)" stroke-width="1" opacity="1" d="M 1225.5 206 L 1229 206.5 L 1225.5 207 L 1225.5 206 Z " /><path fill="rgb(253,253,253)" stroke="rgb(253,253,253)" stroke-width="1" opacity="1" d="M 1203.5 208 L 1204 211 L 1202 210.5 L 1203.5 208 Z " /><path fill="rgb(253,253,253)" stroke="rgb(253,253,253)" stroke-width="1" opacity="1" d="M 1206.5 208 L 1208 210.5 L 1207.5 212 L 1210 213.5 L 1209.5 216 L 1209 213 L 1206 211.5 L 1206.5 208 Z " /><path fill="rgb(253,253,253)" stroke="rgb(253,253,253)" stroke-width="1" opacity="1" d="M 1209 208 Q 1212 207 1211 210 Q 1208 211 1209 208 Z " /><path fill="rgb(253,253,253)" stroke="rgb(253,253,253)" stroke-width="1" opacity="1" d="M 1214.5 208 L 1215 210.5 L 1212.5 214 L 1212 212.5 L 1214.5 208 Z " /><path fill="rgb(253,253,253)" stroke="rgb(253,253,253)" stroke-width="1" opacity="1" d="M 1268.5 208 L 1270 208.5 L 1266.5 210 L 1266.5 209 L 1268.5 208 Z " /><path fill="rgb(253,253,253)" stroke="rgb(253,253,253)" stroke-width="1" opacity="1" d="M 1154.5 209 L 1155.5 211 L 1153.5 212 L 1154 210.5 L 1154.5 209 Z " /><path fill="rgb(253,253,253)" stroke="rgb(253,253,253)" stroke-width="1" opacity="1" d="M 1176.5 209 L 1184 209.5 L 1176.5 210 L 1176.5 209 Z " /><path fill="rgb(253,253,253)" stroke="rgb(253,253,253)" stroke-width="1" opacity="1" d="M 1160.5 210 L 1176 211.5 L 1160.5 213 L 1158 212.5 L 1160.5 210 Z M 1161 211 L 1161 212 L 1168 212 L 1161 211 Z " /><path fill="rgb(253,253,253)" stroke="rgb(253,253,253)" stroke-width="1" opacity="1" d="M 1270.5 210 L 1272 210.5 L 1270.5 213 Q 1267.5 211.5 1270.5 210 Z " /><path fill="rgb(253,253,253)" stroke="rgb(253,253,253)" stroke-width="1" opacity="1" d="M 1280.5 210 L 1312 210.5 L 1280.5 211 L 1280.5 210 Z " /><path fill="rgb(253,253,253)" stroke="rgb(253,253,253)" stroke-width="1" opacity="1" d="M 1184.5 211 L 1200 211.5 L 1184.5 212 L 1184.5 211 Z " /><path fill="rgb(253,253,253)" stroke="rgb(253,253,253)" stroke-width="1" opacity="1" d="M 1272.5 212 L 1312 212.5 L 1272.5 213 L 1272.5 212 Z " /><path fill="rgb(253,253,253)" stroke="rgb(253,253,253)" stroke-width="1" opacity="1" d="M 1211.5 216 L 1212 255.5 L 1211 255.5 L 1211.5 216 Z " /><path fill="rgb(253,253,253)" stroke="rgb(253,253,253)" stroke-width="1" opacity="1" d="M 1214.5 216 L 1215 223.5 L 1214 223.5 L 1214.5 216 Z " /><path fill="rgb(253,253,253)" stroke="rgb(253,253,253)" stroke-width="1" opacity="1" d="M 1416 232 L 1418 232.5 L 1418 240 L 1416 239.5 L 1416 232 Z " /><path fill="rgb(253,253,253)" stroke="rgb(253,253,253)" stroke-width="1" opacity="1" d="M 1209.5 248 L 1210 255.5 L 1209 255.5 L 1209.5 248 Z " /><path fill="rgb(253,253,253)" stroke="rgb(253,253,253)" stroke-width="1" opacity="1" d="M 1211.5 257 L 1215 257.5 L 1211.5 258 L 1211.5 257 Z " /><path fill="rgb(253,253,253)" stroke="rgb(253,253,253)" stroke-width="1" opacity="1" d="M 1220.5 257 L 1260 257.5 L 1220.5 258 L 1220.5 257 Z " /><path fill="rgb(253,253,253)" stroke="rgb(253,253,253)" stroke-width="1" opacity="1" d="M 1211.5 259 L 1212 261.5 L 1209.5 263 L 1209.5 262 Q 1212.4 262.7 1211.5 259 Z " /><path fill="rgb(253,253,253)" stroke="rgb(253,253,253)" stroke-width="1" opacity="1" d="M 1220.5 259 L 1260 259.5 L 1258.5 261 L 1248.5 261 L 1247.5 260 L 1224.5 260 L 1221.5 261 L 1220.5 259 Z " /><path fill="rgb(253,253,253)" stroke="rgb(253,253,253)" stroke-width="1" opacity="1" d="M 1200.5 276 L 1206 276.5 L 1200.5 277 L 1200.5 276 Z " /><path fill="rgb(253,253,253)" stroke="rgb(253,253,253)" stroke-width="1" opacity="1" d="M 1312.5 276 L 1315 279.5 L 1312.5 280 L 1288 278.5 L 1303.5 278 L 1312.5 276 Z M 1305 278 L 1305 279 L 1312 279 L 1305 278 Z " /><path fill="rgb(253,253,253)" stroke="rgb(253,253,253)" stroke-width="1" opacity="1" d="M 1156.5 277 L 1155.5 279 L 1156.5 277 Z " /><path fill="rgb(253,253,253)" stroke="rgb(253,253,253)" stroke-width="1" opacity="1" d="M 1270 279 L 1272 279.5 L 1271 280.5 L 1271 296.5 L 1269.5 298 L 1269 296.5 L 1270 295.5 L 1270 279 Z " /><path fill="rgb(253,253,253)" stroke="rgb(253,253,253)" stroke-width="1" opacity="1" d="M 1129.5 280 L 1130 282 L 1128 281.5 L 1129.5 280 Z " /><path fill="rgb(253,253,253)" stroke="rgb(253,253,253)" stroke-width="1" opacity="1" d="M 1131 280 L 1136 281.5 L 1134 282.5 L 1135 284.5 L 1134 284.5 Q 1134.8 282.3 1132.5 283 L 1131 280 Z " /><path fill="rgb(253,253,253)" stroke="rgb(253,253,253)" stroke-width="1" opacity="1" d="M 1186.5 280 L 1188.5 281 L 1190.5 280 L 1191.5 282 L 1189 281 L 1191 284.5 L 1188.5 283 L 1186 282.5 L 1186.5 280 Z " /><path fill="rgb(253,253,253)" stroke="rgb(253,253,253)" stroke-width="1" opacity="1" d="M 1282.5 280 L 1284.5 283 L 1286.5 280 L 1286.5 283 Q 1284.3 282.3 1285 284.5 L 1284 284.5 Q 1284.7 281.9 1282 283 L 1281.5 287 L 1281 283.5 L 1282.5 280 Z " /><path fill="rgb(253,253,253)" stroke="rgb(253,253,253)" stroke-width="1" opacity="1" d="M 1416 280 L 1418 280.5 L 1418 288 L 1416 287.5 L 1416 280 Z " /><path fill="rgb(253,253,253)" stroke="rgb(253,253,253)" stroke-width="1" opacity="1" d="M 1304.5 281 L 1312 281.5 L 1304.5 282 L 1304.5 281 Z " /><path fill="rgb(253,253,253)" stroke="rgb(253,253,253)" stroke-width="1" opacity="1" d="M 1337.5 281 L 1338 282.5 L 1337 285 L 1320 284.5 L 1337 283 L 1337.5 281 Z " /><path fill="rgb(253,253,253)" stroke="rgb(253,253,253)" stroke-width="1" opacity="1" d="M 1288.5 282 L 1312 283 L 1311.5 285 L 1304.5 285 Q 1302.7 282.3 1296.5 284 Q 1295 286.5 1289.5 285 L 1289.5 284 L 1296 283.5 L 1288.5 283 L 1288.5 282 Z " /><path fill="rgb(253,253,253)" stroke="rgb(253,253,253)" stroke-width="1" opacity="1" d="M 1144.5 283 L 1184 284.5 L 1136.5 285 L 1136.5 284 Q 1142.8 285.8 1144.5 283 Z " /><path fill="rgb(253,253,253)" stroke="rgb(253,253,253)" stroke-width="1" opacity="1" d="M 1191.5 287 L 1191 288.5 L 1190.5 336 L 1190 288.5 L 1191.5 287 Z " /><path fill="rgb(253,253,253)" stroke="rgb(253,253,253)" stroke-width="1" opacity="1" d="M 1284.5 287 L 1285 335.5 L 1283.5 344 L 1282.5 336 L 1282 344.5 L 1283 348.5 L 1282 348.5 Q 1279.3 344.7 1281 336.5 L 1280 335.5 L 1280 320.5 L 1281 320.5 L 1281.5 336 L 1282.5 288 L 1283.5 336 L 1284.5 287 Z " /><path fill="rgb(253,253,253)" stroke="rgb(253,253,253)" stroke-width="1" opacity="1" d="M 1102 296 L 1104 296.5 L 1104 304 L 1102 303.5 L 1102 296 Z " /><path fill="rgb(253,253,253)" stroke="rgb(253,253,253)" stroke-width="1" opacity="1" d="M 1186.5 296 L 1187 311.5 L 1186 311.5 L 1186.5 296 Z " /><path fill="rgb(253,253,253)" stroke="rgb(253,253,253)" stroke-width="1" opacity="1" d="M 1265.5 297 L 1266 301.5 L 1265 301.5 L 1265.5 297 Z " /><path fill="rgb(253,253,253)" stroke="rgb(253,253,253)" stroke-width="1" opacity="1" d="M 1267.5 297 L 1268 300.5 L 1267 300.5 L 1267.5 297 Z " /><path fill="rgb(253,253,253)" stroke="rgb(253,253,253)" stroke-width="1" opacity="1" d="M 1271.5 298 L 1272 300.5 L 1271 300.5 L 1271.5 298 Z " /><path fill="rgb(253,253,253)" stroke="rgb(253,253,253)" stroke-width="1" opacity="1" d="M 1269.5 300 L 1271 303.5 L 1269 302.5 L 1269.5 300 Z " /><path fill="rgb(253,253,253)" stroke="rgb(253,253,253)" stroke-width="1" opacity="1" d="M 1267.5 302 L 1268 304 L 1266 303.5 L 1267.5 302 Z " /><path fill="rgb(253,253,253)" stroke="rgb(253,253,253)" stroke-width="1" opacity="1" d="M 1286.5 312 L 1287 335.5 L 1286 335.5 L 1286.5 312 Z " /><path fill="rgb(253,253,253)" stroke="rgb(253,253,253)" stroke-width="1" opacity="1" d="M 1102 336 L 1104 336.5 L 1104 344 L 1102 343.5 L 1102 336 Z " /><path fill="rgb(253,253,253)" stroke="rgb(253,253,253)" stroke-width="1" opacity="1" d="M 1188.5 336 L 1190 345.5 L 1188 346.5 L 1189 344.5 L 1188 343.5 L 1188.5 336 Z " /><path fill="rgb(253,253,253)" stroke="rgb(253,253,253)" stroke-width="1" opacity="1" d="M 1286.5 346 L 1287 347.5 L 1286 350.5 L 1286.5 352 Q 1283.5 352.9 1285 348.5 L 1286.5 346 Z " /><path fill="rgb(253,253,253)" stroke="rgb(253,253,253)" stroke-width="1" opacity="1" d="M 1176.5 348 L 1184 348.5 L 1176 349.5 L 1184.5 350 L 1185.5 351 L 1187.5 348 L 1188 349.5 Q 1186.2 353.8 1184.5 351 L 1160 349.5 L 1175.5 349 L 1176.5 348 Z " /><path fill="rgb(253,253,253)" stroke="rgb(253,253,253)" stroke-width="1" opacity="1" d="M 1280.5 348 L 1281 351.5 L 1280 351.5 L 1280.5 348 Z " /><path fill="rgb(253,253,253)" stroke="rgb(253,253,253)" stroke-width="1" opacity="1" d="M 1290.5 348 L 1336 348.5 L 1290.5 349 L 1290.5 348 Z " /><path fill="rgb(253,253,253)" stroke="rgb(253,253,253)" stroke-width="1" opacity="1" d="M 1135.5 349 L 1152 349.5 L 1135.5 350 L 1135.5 349 Z " /><path fill="rgb(253,253,253)" stroke="rgb(253,253,253)" stroke-width="1" opacity="1" d="M 1133.5 351 L 1136 351.5 L 1133.5 352 L 1133.5 351 Z " /><path fill="rgb(253,253,253)" stroke="rgb(253,253,253)" stroke-width="1" opacity="1" d="M 1416 352 L 1418 352.5 L 1418 360 L 1416 359.5 L 1416 352 Z " /><path fill="rgb(253,253,253)" stroke="rgb(253,253,253)" stroke-width="1" opacity="1" d="M 1160 360 L 1162 360.5 L 1162 368 L 1160 367.5 L 1160 360 Z " /><path fill="rgb(253,253,253)" stroke="rgb(253,253,253)" stroke-width="1" opacity="1" d="M 1300 360 Q 1302.7 358.9 1302 361.5 L 1302.5 363 Q 1298.3 364.1 1300 360 Z " /><path fill="rgb(253,253,253)" stroke="rgb(253,253,253)" stroke-width="1" opacity="1" d="M 1304 361 L 1306 361.5 L 1304 362.5 L 1304 361 Z " /><path fill="rgb(253,253,253)" stroke="rgb(253,253,253)" stroke-width="1" opacity="1" d="M 1304.5 364 L 1312 364.5 L 1304.5 365 L 1298.5 369 L 1298 366.5 L 1299.5 367 Q 1304 367.5 1304.5 364 Z " /><path fill="rgb(253,253,253)" stroke="rgb(253,253,253)" stroke-width="1" opacity="1" d="M 1312.5 367 L 1320 367.5 L 1312.5 368 L 1312.5 367 Z " /><path fill="rgb(253,253,253)" stroke="rgb(253,253,253)" stroke-width="1" opacity="1" d="M 1104 368 L 1106 368.5 L 1106 376 L 1104 375.5 L 1104 368 Z " /><path fill="rgb(253,253,253)" stroke="rgb(253,253,253)" stroke-width="1" opacity="1" d="M 1149.5 368 L 1151.5 368 L 1154 368.5 L 1150.5 370 L 1149.5 368 Z " /><path fill="rgb(253,253,253)" stroke="rgb(253,253,253)" stroke-width="1" opacity="1" d="M 1156.5 368 L 1155.5 370 L 1156.5 368 Z " /><path fill="rgb(253,253,253)" stroke="rgb(253,253,253)" stroke-width="1" opacity="1" d="M 1214 368 L 1216 368.5 L 1215 371 L 1213 370.5 L 1214 368 Z " /><path fill="rgb(253,253,253)" stroke="rgb(253,253,253)" stroke-width="1" opacity="1" d="M 1234 368 L 1236 368.5 L 1234 369.5 L 1234 368 Z " /><path fill="rgb(253,253,253)" stroke="rgb(253,253,253)" stroke-width="1" opacity="1" d="M 1338.5 368 Q 1341.3 369.3 1339 370.5 L 1338.5 372 L 1338.5 368 Z " /><path fill="rgb(253,253,253)" stroke="rgb(253,253,253)" stroke-width="1" opacity="1" d="M 1293.5 369 L 1292.5 371 L 1293.5 369 Z " /><path fill="rgb(253,253,253)" stroke="rgb(253,253,253)" stroke-width="1" opacity="1" d="M 1324.5 369 L 1322.5 372 L 1324.5 369 Z " /><path fill="rgb(253,253,253)" stroke="rgb(253,253,253)" stroke-width="1" opacity="1" d="M 1169 370 Q 1172 369 1171 372 Q 1168 373 1169 370 Z " /><path fill="rgb(253,253,253)" stroke="rgb(253,253,253)" stroke-width="1" opacity="1" d="M 1236.5 370 Q 1238.8 369.3 1238 371.5 Q 1241 372.5 1240 377.5 L 1239 377.5 L 1239 373.5 L 1236.5 370 Z " /><path fill="rgb(253,253,253)" stroke="rgb(253,253,253)" stroke-width="1" opacity="1" d="M 1158.5 371 L 1157.5 373 L 1158.5 371 Z " /><path fill="rgb(253,253,253)" stroke="rgb(253,253,253)" stroke-width="1" opacity="1" d="M 1356.5 371 L 1357 373 L 1355 372.5 L 1356.5 371 Z " /><path fill="rgb(253,253,253)" stroke="rgb(253,253,253)" stroke-width="1" opacity="1" d="M 1215.5 372 L 1216 374 L 1213.5 375 L 1215.5 372 Z " /><path fill="rgb(253,253,253)" stroke="rgb(253,253,253)" stroke-width="1" opacity="1" d="M 1278.5 372 Q 1281.5 373.5 1278.5 375 L 1278.5 372 Z " /><path fill="rgb(253,253,253)" stroke="rgb(253,253,253)" stroke-width="1" opacity="1" d="M 1325.5 372 L 1326 374 L 1328 374.5 L 1326.5 375 L 1325.5 372 Z " /><path fill="rgb(253,253,253)" stroke="rgb(253,253,253)" stroke-width="1" opacity="1" d="M 1353.5 372 L 1354 374.5 L 1353 374.5 L 1353.5 372 Z " /><path fill="rgb(253,253,253)" stroke="rgb(253,253,253)" stroke-width="1" opacity="1" d="M 1171.5 373 L 1169.5 376 L 1167.5 377 L 1168.5 375 L 1171.5 373 Z " /><path fill="rgb(253,253,253)" stroke="rgb(253,253,253)" stroke-width="1" opacity="1" d="M 1288.5 373 L 1289.5 375 L 1288.5 373 Z " /><path fill="rgb(253,253,253)" stroke="rgb(253,253,253)" stroke-width="1" opacity="1" d="M 1210.5 374 L 1213 377.5 L 1210 377.5 L 1210.5 374 Z " /><path fill="rgb(253,253,253)" stroke="rgb(253,253,253)" stroke-width="1" opacity="1" d="M 1164.5 376 L 1164 377.5 L 1165 380.5 L 1163 379.5 L 1162 377.5 L 1164.5 376 Z " /><path fill="rgb(253,253,253)" stroke="rgb(253,253,253)" stroke-width="1" opacity="1" d="M 1252.5 376 L 1253 378 L 1251 377.5 L 1252.5 376 Z " /><path fill="rgb(253,253,253)" stroke="rgb(253,253,253)" stroke-width="1" opacity="1" d="M 1277.5 376 L 1278.5 384 L 1279 376 Q 1281.7 374.9 1281 377.5 L 1279 384.5 L 1278.5 416 L 1277.5 384 L 1276.5 392 L 1276 384.5 L 1277.5 376 Z " /><path fill="rgb(253,253,253)" stroke="rgb(253,253,253)" stroke-width="1" opacity="1" d="M 1285.5 376 L 1282.5 380 L 1281 379.5 L 1283 378.5 L 1282.5 377 Q 1284 379.5 1285.5 376 Z " /><path fill="rgb(253,253,253)" stroke="rgb(253,253,253)" stroke-width="1" opacity="1" d="M 1355.5 376 L 1356 415.5 L 1355 415.5 L 1355.5 376 Z " /><path fill="rgb(253,253,253)" stroke="rgb(253,253,253)" stroke-width="1" opacity="1" d="M 1332.5 377 L 1336 378.5 L 1334.5 378 Q 1331.5 378.5 1332.5 377 Z " /><path fill="rgb(253,253,253)" stroke="rgb(253,253,253)" stroke-width="1" opacity="1" d="M 1248.5 378 L 1250 380.5 L 1248 379.5 L 1248.5 378 Z " /><path fill="rgb(253,253,253)" stroke="rgb(253,253,253)" stroke-width="1" opacity="1" d="M 1135.5 379 L 1136 381 L 1133 380.5 L 1135.5 379 Z " /><path fill="rgb(253,253,253)" stroke="rgb(253,253,253)" stroke-width="1" opacity="1" d="M 1137.5 379 L 1141.5 380 L 1143 379.5 L 1142.5 381 L 1144 381.5 L 1143.5 384 L 1141 382.5 L 1141.5 381 Q 1136.7 381 1137.5 379 Z " /><path fill="rgb(253,253,253)" stroke="rgb(253,253,253)" stroke-width="1" opacity="1" d="M 1167.5 379 L 1168 380.5 L 1166 381.5 L 1167.5 379 Z " /><path fill="rgb(253,253,253)" stroke="rgb(253,253,253)" stroke-width="1" opacity="1" d="M 1189.5 379 L 1191 379.5 L 1187.5 381 L 1187.5 380 L 1189.5 379 Z " /><path fill="rgb(253,253,253)" stroke="rgb(253,253,253)" stroke-width="1" opacity="1" d="M 1192.5 379 L 1200 379.5 L 1192.5 380 L 1192.5 379 Z " /><path fill="rgb(253,253,253)" stroke="rgb(253,253,253)" stroke-width="1" opacity="1" d="M 1205.5 379 L 1209 379.5 L 1205.5 380 L 1205.5 379 Z " /><path fill="rgb(253,253,253)" stroke="rgb(253,253,253)" stroke-width="1" opacity="1" d="M 1333.5 380 L 1334 382 L 1332 381.5 L 1333.5 380 Z " /><path fill="rgb(253,253,253)" stroke="rgb(253,253,253)" stroke-width="1" opacity="1" d="M 1190.5 381 L 1192 381.5 L 1189.5 383 L 1190.5 381 Z " /><path fill="rgb(253,253,253)" stroke="rgb(253,253,253)" stroke-width="1" opacity="1" d="M 1200.5 381 Q 1206.8 379.3 1208.5 382 L 1210 381.5 L 1209.5 384 Q 1207.8 380.3 1200.5 382 L 1200.5 381 Z " /><path fill="rgb(253,253,253)" stroke="rgb(253,253,253)" stroke-width="1" opacity="1" d="M 1212 382 L 1215 382.5 L 1212 384 L 1212 382 Z " /><path fill="rgb(253,253,253)" stroke="rgb(253,253,253)" stroke-width="1" opacity="1" d="M 1310.5 382 L 1313 382.5 Q 1310.9 385.8 1310.5 382 Z " /><path fill="rgb(253,253,253)" stroke="rgb(253,253,253)" stroke-width="1" opacity="1" d="M 1134.5 383 L 1135 399.5 L 1134 399.5 L 1134.5 383 Z " /><path fill="rgb(253,253,253)" stroke="rgb(253,253,253)" stroke-width="1" opacity="1" d="M 1136 383 L 1138 383.5 L 1138 392 L 1136 391.5 L 1136 383 Z " /><path fill="rgb(253,253,253)" stroke="rgb(253,253,253)" stroke-width="1" opacity="1" d="M 1146.5 383 L 1150.5 388 L 1152.5 387 L 1152.5 390 Q 1150.3 389.3 1151 391.5 L 1150 391.5 L 1150 389.5 L 1146 384.5 L 1146.5 383 Z " /><path fill="rgb(253,253,253)" stroke="rgb(253,253,253)" stroke-width="1" opacity="1" d="M 1165.5 383 L 1168 383.5 L 1167.5 387 L 1166.5 385 L 1165 385.5 L 1165.5 383 Z " /><path fill="rgb(253,253,253)" stroke="rgb(253,253,253)" stroke-width="1" opacity="1" d="M 1200 383 L 1206 383.5 L 1204 384.5 L 1206 385 Q 1204.9 387.7 1207.5 387 L 1207.5 388 L 1202.5 386 L 1199.5 387 Q 1192.7 388.3 1190 385.5 L 1191.5 385 L 1192.5 386 L 1200 386 L 1200 383 Z M 1201 384 L 1201 386 L 1203 385 L 1201 384 Z " /><path fill="rgb(253,253,253)" stroke="rgb(253,253,253)" stroke-width="1" opacity="1" d="M 1239.5 383 L 1241 385.5 L 1239 384.5 L 1239.5 383 Z " /><path fill="rgb(253,253,253)" stroke="rgb(253,253,253)" stroke-width="1" opacity="1" d="M 1333.5 383 L 1332.5 385 L 1333.5 383 Z " /><path fill="rgb(253,253,253)" stroke="rgb(253,253,253)" stroke-width="1" opacity="1" d="M 1172.5 384 L 1173 415.5 L 1172 415.5 L 1172.5 384 Z " /><path fill="rgb(253,253,253)" stroke="rgb(253,253,253)" stroke-width="1" opacity="1" d="M 1187.5 384 L 1188.5 386 L 1187.5 384 Z " /><path fill="rgb(253,253,253)" stroke="rgb(253,253,253)" stroke-width="1" opacity="1" d="M 1244.5 384 Q 1246.8 383.3 1246 385.5 L 1248 386.5 L 1249.5 384 L 1251 387 L 1253 387.5 L 1251.5 388 Q 1249.8 384.3 1248 387.5 L 1249 389.5 L 1247 388.5 L 1246.5 387 L 1244 388.5 L 1245 385.5 L 1244.5 384 Z " /><path fill="rgb(253,253,253)" stroke="rgb(253,253,253)" stroke-width="1" opacity="1" d="M 1300.5 384 Q 1303.8 382.9 1303 385.5 L 1301.5 385 L 1300.5 384 Z " /><path fill="rgb(253,253,253)" stroke="rgb(253,253,253)" stroke-width="1" opacity="1" d="M 1316.5 385 L 1318.5 389 L 1320 388.5 L 1318.5 392 L 1318 389 Q 1315.3 390.1 1316 387.5 L 1315 387.5 L 1314.5 392 Q 1311.5 391.5 1312 387.5 L 1313 387.5 L 1313.5 389 L 1316.5 385 Z " /><path fill="rgb(253,253,253)" stroke="rgb(253,253,253)" stroke-width="1" opacity="1" d="M 1334.5 385 L 1336 387.5 L 1335 387.5 L 1334.5 385 Z " /><path fill="rgb(253,253,253)" stroke="rgb(253,253,253)" stroke-width="1" opacity="1" d="M 1144.5 386 L 1147 392 Q 1143.7 393.3 1145 388.5 L 1144.5 386 Z " /><path fill="rgb(253,253,253)" stroke="rgb(253,253,253)" stroke-width="1" opacity="1" d="M 1332.5 386 L 1333.5 388 L 1332.5 386 Z " /><path fill="rgb(253,253,253)" stroke="rgb(253,253,253)" stroke-width="1" opacity="1" d="M 1192.5 388 L 1200 388.5 L 1192.5 389 L 1192.5 388 Z " /><path fill="rgb(253,253,253)" stroke="rgb(253,253,253)" stroke-width="1" opacity="1" d="M 1166.5 389 Q 1168.8 388.3 1168 390.5 L 1166.5 389 Z " /><path fill="rgb(253,253,253)" stroke="rgb(253,253,253)" stroke-width="1" opacity="1" d="M 1333 389 L 1336 390.5 L 1333 390.5 L 1333 389 Z " /><path fill="rgb(253,253,253)" stroke="rgb(253,253,253)" stroke-width="1" opacity="1" d="M 1280 390 L 1282 390.5 L 1282 392.5 Q 1282.9 397.9 1280.5 400 L 1280 398.5 Q 1282.3 397.3 1281 392.5 L 1280 390 Z " /><path fill="rgb(253,253,253)" stroke="rgb(253,253,253)" stroke-width="1" opacity="1" d="M 1152.5 392 Q 1155.5 393.5 1152.5 395 L 1152.5 392 Z " /><path fill="rgb(253,253,253)" stroke="rgb(253,253,253)" stroke-width="1" opacity="1" d="M 1214 392 L 1216 392.5 L 1216 400 L 1214 399.5 L 1214 392 Z " /><path fill="rgb(253,253,253)" stroke="rgb(253,253,253)" stroke-width="1" opacity="1" d="M 1295 392 L 1298 392 L 1298 399.5 L 1299.5 400 L 1299.5 401 L 1295 400 L 1296 394.5 L 1295 392 Z " /><path fill="rgb(253,253,253)" stroke="rgb(253,253,253)" stroke-width="1" opacity="1" d="M 1333.5 392 L 1334 395.5 L 1333 395.5 L 1333.5 392 Z " /><path fill="rgb(253,253,253)" stroke="rgb(253,253,253)" stroke-width="1" opacity="1" d="M 1339.5 392 L 1340 399.5 L 1339 399.5 L 1339.5 392 Z " /><path fill="rgb(253,253,253)" stroke="rgb(253,253,253)" stroke-width="1" opacity="1" d="M 1335.5 395 L 1336 397.5 L 1335 397.5 L 1335.5 395 Z " /><path fill="rgb(253,253,253)" stroke="rgb(253,253,253)" stroke-width="1" opacity="1" d="M 1152.5 396 Q 1154.8 395.3 1154 397.5 L 1152.5 396 Z " /><path fill="rgb(253,253,253)" stroke="rgb(253,253,253)" stroke-width="1" opacity="1" d="M 1248.5 396 L 1248 397.5 L 1247.5 399 L 1247 397.5 L 1248.5 396 Z " /><path fill="rgb(253,253,253)" stroke="rgb(253,253,253)" stroke-width="1" opacity="1" d="M 1167.5 397 L 1168 399.5 L 1167 399.5 L 1167.5 397 Z " /><path fill="rgb(253,253,253)" stroke="rgb(253,253,253)" stroke-width="1" opacity="1" d="M 1260.5 399 L 1259.5 401 L 1260.5 399 Z " /><path fill="rgb(253,253,253)" stroke="rgb(253,253,253)" stroke-width="1" opacity="1" d="M 1334.5 399 Q 1337 400 1336 404.5 L 1334.5 407 L 1334 404.5 L 1335 400.5 L 1334.5 399 Z " /><path fill="rgb(253,253,253)" stroke="rgb(253,253,253)" stroke-width="1" opacity="1" d="M 1104 400 L 1106 400.5 L 1106 408 L 1104 407.5 L 1104 400 Z " /><path fill="rgb(253,253,253)" stroke="rgb(253,253,253)" stroke-width="1" opacity="1" d="M 1136 400 L 1138 400.5 L 1138 407.5 L 1135.5 409 L 1136 407.5 L 1136 400 Z " /><path fill="rgb(253,253,253)" stroke="rgb(253,253,253)" stroke-width="1" opacity="1" d="M 1145.5 400 L 1147 400.5 L 1144.5 402 L 1145.5 400 Z " /><path fill="rgb(253,253,253)" stroke="rgb(253,253,253)" stroke-width="1" opacity="1" d="M 1148.5 400 Q 1151.2 401.2 1149 402.5 Q 1149.7 405.1 1147 404 L 1148.5 400 Z " /><path fill="rgb(253,253,253)" stroke="rgb(253,253,253)" stroke-width="1" opacity="1" d="M 1276.5 400 L 1277 415.5 L 1276 415.5 L 1276.5 400 Z " /><path fill="rgb(253,253,253)" stroke="rgb(253,253,253)" stroke-width="1" opacity="1" d="M 1337.5 400 L 1338 417 L 1336 416.5 L 1337 415.5 L 1337.5 400 Z " /><path fill="rgb(253,253,253)" stroke="rgb(253,253,253)" stroke-width="1" opacity="1" d="M 1151.5 401 L 1152.5 403 L 1151.5 401 Z " /><path fill="rgb(253,253,253)" stroke="rgb(253,253,253)" stroke-width="1" opacity="1" d="M 1282.5 401 L 1283 410.5 L 1280 412.5 Q 1279.3 409.9 1282 411 L 1282 407.5 L 1280 407.5 L 1282.5 401 Z " /><path fill="rgb(253,253,253)" stroke="rgb(253,253,253)" stroke-width="1" opacity="1" d="M 1145.5 403 L 1146 404.5 L 1144 405.5 L 1145.5 403 Z " /><path fill="rgb(253,253,253)" stroke="rgb(253,253,253)" stroke-width="1" opacity="1" d="M 1150.5 403 L 1151.5 405 L 1149.5 406 L 1150 404.5 L 1150.5 403 Z " /><path fill="rgb(253,253,253)" stroke="rgb(253,253,253)" stroke-width="1" opacity="1" d="M 1165.5 403 Q 1167.8 402.3 1167 404.5 Q 1170.3 408.2 1169 416.5 L 1168 416.5 Q 1169.2 408.8 1166.5 405 L 1165.5 407 L 1165 405.5 L 1165.5 403 Z " /><path fill="rgb(253,253,253)" stroke="rgb(253,253,253)" stroke-width="1" opacity="1" d="M 1233 403 L 1235 403.5 L 1233 404.5 L 1233 403 Z " /><path fill="rgb(253,253,253)" stroke="rgb(253,253,253)" stroke-width="1" opacity="1" d="M 1260.5 403 L 1261 406.5 L 1260 406.5 L 1260.5 403 Z " /><path fill="rgb(253,253,253)" stroke="rgb(253,253,253)" stroke-width="1" opacity="1" d="M 1303.5 403 L 1303 404.5 L 1304 408 L 1308.5 409 L 1312.5 407 Q 1313.7 409.3 1315 406.5 Q 1312.8 405.3 1315.5 404 L 1316 406.5 L 1313.5 409 L 1311.5 409 L 1307 410.5 L 1307.5 412 L 1305 410.5 L 1307 409.5 L 1303 407.5 Q 1303.8 404.9 1300.5 406 L 1298 407.5 Q 1301.1 405.8 1299.5 404 L 1301.5 404 L 1303.5 403 Z " /><path fill="rgb(253,253,253)" stroke="rgb(253,253,253)" stroke-width="1" opacity="1" d="M 1235.5 405 L 1234.5 407 L 1235.5 405 Z " /><path fill="rgb(253,253,253)" stroke="rgb(253,253,253)" stroke-width="1" opacity="1" d="M 1146.5 408 Q 1149.1 407.3 1148 410 L 1145 409.5 L 1146.5 408 Z " /><path fill="rgb(253,253,253)" stroke="rgb(253,253,253)" stroke-width="1" opacity="1" d="M 1165.5 408 L 1164.5 410 L 1165.5 408 Z " /><path fill="rgb(253,253,253)" stroke="rgb(253,253,253)" stroke-width="1" opacity="1" d="M 1170.5 408 L 1171 415.5 L 1170 415.5 L 1170.5 408 Z " /><path fill="rgb(253,253,253)" stroke="rgb(253,253,253)" stroke-width="1" opacity="1" d="M 1191 408 L 1200 408.5 L 1192 409.5 L 1207.5 410 L 1209 409.5 L 1208.5 412 L 1207.5 411 L 1192.5 411 L 1191 409.5 L 1191 408 Z " /><path fill="rgb(253,253,253)" stroke="rgb(253,253,253)" stroke-width="1" opacity="1" d="M 1213.5 408 L 1214.5 410 L 1213.5 408 Z " /><path fill="rgb(253,253,253)" stroke="rgb(253,253,253)" stroke-width="1" opacity="1" d="M 1232.5 408 L 1235 409.5 L 1232 411.5 L 1233 409.5 L 1232.5 408 Z " /><path fill="rgb(253,253,253)" stroke="rgb(253,253,253)" stroke-width="1" opacity="1" d="M 1258.5 408 L 1259 417.5 L 1260 420 L 1258 419.5 L 1258.5 408 Z " /><path fill="rgb(253,253,253)" stroke="rgb(253,253,253)" stroke-width="1" opacity="1" d="M 1260.5 408 L 1261 415.5 L 1260 415.5 L 1260.5 408 Z " /><path fill="rgb(253,253,253)" stroke="rgb(253,253,253)" stroke-width="1" opacity="1" d="M 1262.5 408 L 1263 415.5 L 1262 415.5 L 1262.5 408 Z " /><path fill="rgb(253,253,253)" stroke="rgb(253,253,253)" stroke-width="1" opacity="1" d="M 1392 408 L 1394 408.5 L 1394 424 L 1392 423.5 L 1392 408 Z " /><path fill="rgb(253,253,253)" stroke="rgb(253,253,253)" stroke-width="1" opacity="1" d="M 1133.5 409 L 1134.5 411 L 1133.5 409 Z " /><path fill="rgb(253,253,253)" stroke="rgb(253,253,253)" stroke-width="1" opacity="1" d="M 1186.5 409 L 1187.5 411 L 1186.5 409 Z " /><path fill="rgb(253,253,253)" stroke="rgb(253,253,253)" stroke-width="1" opacity="1" d="M 1284.5 411 L 1286.5 414 L 1284 412.5 Q 1282.9 415.8 1285.5 415 L 1285.5 416 L 1283.5 415 L 1282 415.5 L 1282 413.5 L 1284.5 411 Z " /><path fill="rgb(253,253,253)" stroke="rgb(253,253,253)" stroke-width="1" opacity="1" d="M 1335.5 411 L 1336 412.5 L 1334.5 416 Q 1331.8 414.8 1334 413.5 L 1335.5 411 Z " /><path fill="rgb(253,253,253)" stroke="rgb(253,253,253)" stroke-width="1" opacity="1" d="M 1166.5 412 L 1165.5 414 L 1166.5 412 Z " /><path fill="rgb(253,253,253)" stroke="rgb(253,253,253)" stroke-width="1" opacity="1" d="M 1214 412 L 1216 412.5 Q 1212.9 414.3 1214.5 416 L 1212 415.5 L 1212.5 413 L 1214 413.5 L 1214 412 Z " /><path fill="rgb(253,253,253)" stroke="rgb(253,253,253)" stroke-width="1" opacity="1" d="M 1233.5 413 L 1235 415.5 L 1232 415.5 L 1233.5 413 Z " /><path fill="rgb(253,253,253)" stroke="rgb(253,253,253)" stroke-width="1" opacity="1" d="M 1330.5 413 L 1330 414.5 Q 1330.8 416.8 1328.5 416 L 1330.5 413 Z " /><path fill="rgb(253,253,253)" stroke="rgb(253,253,253)" stroke-width="1" opacity="1" d="M 1254.5 414 L 1255.5 416 L 1254 416.5 Q 1257.8 417.8 1257 422 L 1255 421.5 L 1256 419.5 L 1253 418.5 L 1254 415.5 L 1254.5 414 Z " /><path fill="rgb(253,253,253)" stroke="rgb(253,253,253)" stroke-width="1" opacity="1" d="M 1289.5 416 L 1290.5 418 L 1288 417.5 L 1289.5 416 Z " /><path fill="rgb(253,253,253)" stroke="rgb(253,253,253)" stroke-width="1" opacity="1" d="M 1353.5 416 L 1356 417.5 L 1355 419.5 Q 1357.3 420.8 1354.5 422 Q 1352.3 422.8 1353 420.5 L 1354 418.5 L 1353.5 416 Z " /><path fill="rgb(253,253,253)" stroke="rgb(253,253,253)" stroke-width="1" opacity="1" d="M 1416 416 L 1418 416.5 L 1418 440 L 1416 439.5 L 1416 416 Z " /><path fill="rgb(253,253,253)" stroke="rgb(253,253,253)" stroke-width="1" opacity="1" d="M 1171.5 417 L 1171.5 419 Q 1173.8 418.3 1173 420.5 L 1170 418.5 L 1171.5 417 Z " /><path fill="rgb(253,253,253)" stroke="rgb(253,253,253)" stroke-width="1" opacity="1" d="M 1210.5 417 L 1212 419.5 L 1211 419.5 L 1210.5 417 Z " /><path fill="rgb(253,253,253)" stroke="rgb(253,253,253)" stroke-width="1" opacity="1" d="M 1214.5 417 Q 1217.8 415.9 1217 418.5 L 1215.5 418 L 1214.5 417 Z " /><path fill="rgb(253,253,253)" stroke="rgb(253,253,253)" stroke-width="1" opacity="1" d="M 1230.5 417 L 1232 419.5 L 1230 420 L 1230.5 417 Z " /><path fill="rgb(253,253,253)" stroke="rgb(253,253,253)" stroke-width="1" opacity="1" d="M 1326.5 417 L 1327.5 419 L 1326.5 417 Z " /><path fill="rgb(253,253,253)" stroke="rgb(253,253,253)" stroke-width="1" opacity="1" d="M 1339.5 417 L 1339.5 420 L 1336.5 422 L 1336 420 L 1338 419.5 L 1337.5 418 L 1339.5 417 Z " /><path fill="rgb(253,253,253)" stroke="rgb(253,253,253)" stroke-width="1" opacity="1" d="M 1277.5 418 L 1279 418.5 L 1278.5 420 L 1280 420.5 L 1278 421.5 Q 1278.8 419.3 1276.5 420 L 1275 420.5 L 1277.5 418 Z " /><path fill="rgb(253,253,253)" stroke="rgb(253,253,253)" stroke-width="1" opacity="1" d="M 1323.5 419 L 1322.5 421 L 1323.5 419 Z " /><path fill="rgb(253,253,253)" stroke="rgb(253,253,253)" stroke-width="1" opacity="1" d="M 1262.5 420 L 1263 421.5 L 1260 423.5 L 1262.5 420 Z " /><path fill="rgb(253,253,253)" stroke="rgb(253,253,253)" stroke-width="1" opacity="1" d="M 1150.5 421 L 1152.5 421 L 1156 422.5 L 1154.5 422 L 1151.5 423 L 1150.5 421 Z " /><path fill="rgb(253,253,253)" stroke="rgb(253,253,253)" stroke-width="1" opacity="1" d="M 1170.5 421 L 1172 423.5 L 1170 422.5 L 1170.5 421 Z " /><path fill="rgb(253,253,253)" stroke="rgb(253,253,253)" stroke-width="1" opacity="1" d="M 1241.5 421 L 1241.5 423 L 1244 423.5 L 1241.5 424 Q 1238.5 422.5 1241.5 421 Z " /><path fill="rgb(253,253,253)" stroke="rgb(253,253,253)" stroke-width="1" opacity="1" d="M 1145.5 422 L 1148 423.5 L 1146.5 423 L 1145.5 422 Z " /><path fill="rgb(253,253,253)" stroke="rgb(253,253,253)" stroke-width="1" opacity="1" d="M 1297.5 422 L 1296.5 424 L 1297.5 422 Z " /><path fill="rgb(253,253,253)" stroke="rgb(253,253,253)" stroke-width="1" opacity="1" d="M 1319.5 422 L 1318.5 424 L 1317 423.5 L 1319.5 422 Z " /><path fill="rgb(253,253,253)" stroke="rgb(253,253,253)" stroke-width="1" opacity="1" d="M 1392 432 L 1394 432.5 L 1394 440 L 1392 439.5 L 1392 432 Z " /><path fill="rgb(253,253,253)" stroke="rgb(253,253,253)" stroke-width="1" opacity="1" d="M 1296 440 L 1298 440.5 L 1298 448 L 1296 447.5 L 1296 440 Z " /><path fill="rgb(254,255,254)" stroke="rgb(254,255,254)" stroke-width="1" opacity="1" d="M 1120 112 L 1128 112 L 1128 120 L 1120 120 L 1120 112 Z " /><path fill="rgb(254,255,254)" stroke="rgb(254,255,254)" stroke-width="1" opacity="1" d="M 1208 112 L 1216 112 L 1216 120 L 1208 120 L 1208 112 Z " /><path fill="rgb(254,255,254)" stroke="rgb(254,255,254)" stroke-width="1" opacity="1" d="M 1142 120 L 1144 120.5 L 1144 128 L 1142 127.5 L 1142 120 Z " /><path fill="rgb(254,255,254)" stroke="rgb(254,255,254)" stroke-width="1" opacity="1" d="M 1144 136 L 1160 136 L 1160 144 L 1144 144 L 1144 136 Z " /><path fill="rgb(254,255,254)" stroke="rgb(254,255,254)" stroke-width="1" opacity="1" d="M 1183 139 L 1225 139.5 L 1184.5 140 L 1183.5 141 L 1183 139 Z " /><path fill="rgb(254,255,254)" stroke="rgb(254,255,254)" stroke-width="1" opacity="1" d="M 1207 208 Q 1210 206.8 1209 210.5 L 1207 211.5 L 1207 209.5 L 1207 208 Z " /><path fill="rgb(254,255,254)" stroke="rgb(254,255,254)" stroke-width="1" opacity="1" d="M 1232.5 256 L 1248 256.5 L 1232.5 257 L 1232.5 256 Z " /><path fill="rgb(254,255,254)" stroke="rgb(254,255,254)" stroke-width="1" opacity="1" d="M 1215.5 258 L 1264 258.5 L 1215.5 259 L 1215.5 258 Z " /><path fill="rgb(254,255,254)" stroke="rgb(254,255,254)" stroke-width="1" opacity="1" d="M 1224 260 L 1248 261.5 L 1224 262 L 1224 260 Z " /><path fill="rgb(254,255,254)" stroke="rgb(254,255,254)" stroke-width="1" opacity="1" d="M 1260.5 261 L 1264 261.5 L 1260.5 262 L 1260.5 261 Z " /><path fill="rgb(254,255,254)" stroke="rgb(254,255,254)" stroke-width="1" opacity="1" d="M 1088 360 L 1096 360 L 1096 368 L 1088 368 L 1088 360 Z " /><path fill="rgb(254,255,254)" stroke="rgb(254,255,254)" stroke-width="1" opacity="1" d="M 1160.5 376 L 1163 376.5 L 1162.5 379 L 1160.5 376 Z " /><path fill="rgb(254,255,254)" stroke="rgb(254,255,254)" stroke-width="1" opacity="1" d="M 1136.5 379 L 1141.5 381 L 1141.5 380 L 1140 379.5 L 1141.5 379 L 1145 380.5 L 1139 382.5 L 1142.5 383 L 1146 381.5 L 1146.5 380 L 1147.5 383 Q 1148.8 380.8 1150 383.5 L 1150 386 Q 1153 385 1152 388 L 1148.5 386 L 1148 387.5 L 1150 391 L 1148 391.5 L 1151 392 Q 1150 389 1153 390 L 1152 392.5 L 1154 395.5 L 1153 395.5 L 1152.5 394 L 1152 396.5 L 1153 398.5 L 1153 400.5 L 1151.5 404 L 1150 403.5 L 1151 406.5 Q 1149 411 1147 407.5 L 1150 405.5 L 1148.5 405 L 1146 406 L 1145 409.5 L 1145.5 411 L 1142.5 410 L 1141.5 411 L 1135 411 Q 1135.8 407.9 1133 408.5 L 1133 392.5 L 1134 392.5 L 1134.5 408 L 1136 392 L 1138 391.5 L 1138 384.5 L 1138.5 383 L 1135.5 384 L 1136 380.5 L 1136.5 379 Z M 1146 383 L 1148 386 L 1148 385 L 1146 383 Z M 1146 388 Q 1143 393 1147 392 L 1146 388 Z M 1136 400 L 1136 408 L 1136 409 L 1138 408 L 1138 401 L 1136 400 Z M 1146 400 L 1145 402 L 1147 401 L 1146 400 Z M 1148 400 L 1147 403 Q 1146 405 1149 404 L 1150 402 Q 1151 399 1148 400 Z M 1146 403 L 1144 406 L 1146 405 L 1146 403 Z M 1145 407 L 1142 409 L 1145 409 L 1145 407 Z " /><path fill="rgb(254,255,254)" stroke="rgb(254,255,254)" stroke-width="1" opacity="1" d="M 1186.5 379 L 1188 379.5 L 1185.5 381 L 1186.5 379 Z " /><path fill="rgb(254,255,254)" stroke="rgb(254,255,254)" stroke-width="1" opacity="1" d="M 1303.5 379 L 1305.5 379 L 1308.5 380 L 1310.5 379 L 1315 380.5 L 1313 381.5 Q 1315.8 382.3 1315 386.5 L 1313.5 389 L 1313 387.5 L 1314 383.5 L 1313 383.5 L 1312 390.5 L 1312.5 392 L 1304 392 L 1304 400 L 1311.5 400 L 1313 401.5 L 1313.5 403 L 1314.5 400 L 1316.5 400 Q 1318.8 399.3 1318 401.5 L 1319 404.5 L 1316 406 L 1314.5 403 L 1313 406.5 L 1315 406.5 L 1314.5 408 L 1316.5 407 L 1315.5 409 L 1312.5 407 L 1306.5 410 L 1303.5 410 L 1301.5 407 L 1300 408.5 L 1301.5 411 L 1297 405.5 L 1298 403.5 L 1296 403.5 L 1297 401.5 L 1296.5 400 Q 1298.8 399.3 1298 401.5 L 1300.5 400 L 1302 399.5 L 1302 391.5 L 1300.5 392 Q 1298.3 392.8 1299 390.5 L 1298 390.5 L 1297.5 392 L 1296 389.5 L 1298 389.5 L 1297 385.5 L 1298 383 Q 1300.7 384.1 1300 381.5 L 1302 380.5 L 1301 382.5 L 1301.5 384 L 1300 383.5 L 1299.5 386 L 1298 385.5 L 1298.5 388 L 1300 387.5 L 1300.5 391 L 1301.5 385 L 1302.5 389 L 1304 382.5 L 1303.5 379 Z M 1305 380 L 1306 383 L 1310 382 Q 1311 386 1313 383 L 1305 380 Z M 1301 401 L 1301 403 L 1303 402 L 1301 401 Z M 1300 402 L 1299 405 L 1300 405 L 1300 402 Z M 1302 404 L 1300 407 L 1303 406 Q 1304 403 1302 404 Z M 1304 406 L 1303 409 L 1307 409 L 1304 408 L 1304 406 Z " /><path fill="rgb(254,255,254)" stroke="rgb(254,255,254)" stroke-width="1" opacity="1" d="M 1133.5 381 L 1134 383.5 L 1133 383.5 L 1133.5 381 Z " /><path fill="rgb(254,255,254)" stroke="rgb(254,255,254)" stroke-width="1" opacity="1" d="M 1316.5 382 L 1317.5 384 L 1316.5 382 Z " /><path fill="rgb(254,255,254)" stroke="rgb(254,255,254)" stroke-width="1" opacity="1" d="M 1408 384 L 1424 384 L 1424 400 L 1408 400 L 1408 384 Z " /><path fill="rgb(254,255,254)" stroke="rgb(254,255,254)" stroke-width="1" opacity="1" d="M 1317.5 385 L 1320 389.5 L 1318 389.5 L 1317.5 392 L 1317 389.5 L 1318 387.5 L 1317.5 385 Z " /><path fill="rgb(254,255,254)" stroke="rgb(254,255,254)" stroke-width="1" opacity="1" d="M 1166.5 386 Q 1169.5 387.5 1166.5 389 L 1166.5 386 Z " /><path fill="rgb(254,255,254)" stroke="rgb(254,255,254)" stroke-width="1" opacity="1" d="M 1315.5 388 L 1316 391.5 L 1315 391.5 L 1315.5 388 Z " /><path fill="rgb(254,255,254)" stroke="rgb(254,255,254)" stroke-width="1" opacity="1" d="M 1166.5 390 Q 1169 391 1168 395.5 L 1166.5 401 L 1166 394.5 L 1167 392.5 L 1166.5 390 Z " /><path fill="rgb(254,255,254)" stroke="rgb(254,255,254)" stroke-width="1" opacity="1" d="M 1230.5 393 L 1233 399.5 L 1230 399.5 L 1231 396.5 L 1230.5 393 Z " /><path fill="rgb(254,255,254)" stroke="rgb(254,255,254)" stroke-width="1" opacity="1" d="M 1262.5 393 L 1263 394.5 L 1261 395.5 L 1262.5 393 Z " /><path fill="rgb(254,255,254)" stroke="rgb(254,255,254)" stroke-width="1" opacity="1" d="M 1262.5 397 L 1263 398.5 L 1262 401.5 L 1263 405.5 L 1261 404.5 Q 1262.2 399.7 1260 398.5 L 1262.5 397 Z " /><path fill="rgb(254,255,254)" stroke="rgb(254,255,254)" stroke-width="1" opacity="1" d="M 1281.5 398 L 1283 400.5 L 1281 401.5 L 1281.5 398 Z " /><path fill="rgb(254,255,254)" stroke="rgb(254,255,254)" stroke-width="1" opacity="1" d="M 1283.5 406 L 1284 409.5 L 1283 409.5 L 1283.5 406 Z " /><path fill="rgb(254,255,254)" stroke="rgb(254,255,254)" stroke-width="1" opacity="1" d="M 1331 407 L 1333 407.5 L 1331 408.5 L 1331 407 Z " /><path fill="rgb(254,255,254)" stroke="rgb(254,255,254)" stroke-width="1" opacity="1" d="M 1398 408 L 1400 408.5 L 1400 424 L 1398 423.5 L 1398 408 Z " /><path fill="rgb(254,255,254)" stroke="rgb(254,255,254)" stroke-width="1" opacity="1" d="M 1310.5 409 L 1314 410.5 L 1312.5 410 L 1311 410.5 L 1311.5 412 Q 1308.2 413.1 1309 410.5 L 1310.5 409 Z " /><path fill="rgb(254,255,254)" stroke="rgb(254,255,254)" stroke-width="1" opacity="1" d="M 1304.5 411 L 1307 411.5 L 1304.5 412 L 1304.5 411 Z " /><path fill="rgb(254,255,254)" stroke="rgb(254,255,254)" stroke-width="1" opacity="1" d="M 1398 432 L 1400 432.5 L 1400 440 L 1398 439.5 L 1398 432 Z " /><path fill="rgb(254,254,254)" stroke="rgb(254,254,254)" stroke-width="1" opacity="1" d="M 1120 64 L 1123 64.5 L 1123 80 L 1136 80 L 1136 72 L 1139 72 L 1139 80 L 1144 80 L 1144 88 L 1160 88 L 1160 80 L 1163 80 L 1163 87.5 L 1160 88 L 1160 96 L 1152 96 L 1152 104 L 1142 104 L 1142 112 L 1152 112 L 1152 120 L 1160 120 L 1160 127.5 L 1162 128 L 1162 120 L 1166 120 L 1166 127.5 L 1168 128 L 1168 120 L 1192 120 L 1192 104 L 1184 104 L 1184 96 L 1192 96 L 1192 80 L 1200 80 L 1200 96 L 1208 96 L 1208 88 L 1216 88 L 1216 96 L 1224 96 L 1224 88 L 1232 88 L 1232 80 L 1235 80 L 1235 87.5 L 1232 88 L 1232 96 L 1235 96 L 1235 104 L 1232 104.5 L 1232 128 L 1234 127.5 L 1234 120 L 1238 120 L 1238 127.5 L 1240 128 L 1240 120 L 1256 120 L 1256 112 L 1248 112 L 1248 104 L 1240 104 L 1240 88 L 1248 88 L 1248 96 L 1256 96 L 1256 104 L 1259 104.5 L 1259 119.5 L 1264 120 L 1264 128 L 1240.5 128 L 1240 130 L 1248 130 L 1248 133 L 1240 133 L 1239.5 136 L 1224 136 L 1224 128 L 1200 128 L 1200 137 L 1184.5 137 L 1184.5 136 L 1192 136 L 1192 128 L 1168 128 L 1168 136 L 1163 136.5 L 1163 152 L 1166 152.5 L 1166 200 L 1163 200 L 1163 208 L 1176 209.5 L 1168.5 210 L 1167.5 209 L 1158 208.5 L 1160 208 L 1160 200 L 1144 200 L 1144 176.5 L 1142 176 L 1142 255.5 L 1138 256 L 1138 176.5 L 1136 176 L 1136 239.5 L 1135.5 240 L 1120.5 240 L 1120 240.5 L 1120 288 L 1128 288 L 1128 303.5 Q 1130.7 305.3 1129 311.5 L 1128 311.5 L 1128 304 L 1120 304 L 1120 288 L 1104 288 L 1104 295.5 L 1102 296.5 L 1102 304 L 1104 304.5 L 1104 312 L 1096 312 L 1096 320 L 1119.5 320 L 1120 319.5 L 1120 312 L 1123 312 L 1123 319.5 L 1120 320 L 1120 328 L 1123 328 L 1123 336 L 1120 336.5 L 1120 352 L 1123 352 L 1123 360 L 1104 360 L 1104 376 L 1106 375.5 L 1106 368.5 L 1107 368.5 L 1107 376 L 1110 376 L 1110 368 L 1120 368 L 1120 400 L 1104 400 L 1104 439.5 L 1103.5 440 L 1096 440 L 1096 416 L 1080 416 L 1080 408 L 1088 408 L 1088 400 L 1064 400 L 1064 392 L 1056 392 L 1056 384 L 1080 384 L 1080 360 L 1064 360 L 1064 352 L 1096 352 L 1096 344.5 L 1098 343.5 L 1098 336 L 1088 336 L 1088 344 L 1080 344 L 1080 336 L 1072 336 L 1072 333 L 1080 333 L 1080 328 L 1088 328 L 1088 323 L 1080 323 L 1080 320 L 1088 320 L 1088 312 L 1096 312 L 1096 304 L 1080 304 L 1080 280 L 1100.5 280 L 1101 279.5 L 1101 272 L 1112 272 L 1112 248 L 1104 248 L 1104 240 L 1096 240 L 1096 232 L 1104 232 L 1104 224.5 L 1106 224 L 1106 232 L 1110 232 L 1110 224.5 L 1112 223.5 L 1112 216 L 1104 216 L 1104 208 L 1128 208 L 1128 192 L 1112 192 L 1112 176 L 1128 176 L 1128 168.5 L 1130 167.5 L 1130 160 L 1112 160 L 1112 152 L 1128 152 L 1128 136 L 1112 136 L 1112 128 L 1096 128 L 1096 120 L 1112 120 L 1112 96.5 L 1112.5 96 L 1119.5 96 L 1120 95.5 L 1120 64 Z M 1136 104 L 1136 112 L 1138 112 L 1138 105 L 1136 104 Z M 1120 112 L 1120 120 L 1128 120 L 1128 112 L 1120 112 Z M 1208 112 L 1208 120 L 1216 120 L 1216 112 L 1208 112 Z M 1136 120 L 1136 128 L 1138 128 L 1138 121 L 1136 120 Z M 1142 120 L 1142 128 L 1144 128 L 1144 121 L 1142 120 Z M 1144 136 L 1144 144 L 1160 144 L 1160 136 L 1144 136 Z M 1136 152 L 1136 160 L 1134 160 L 1134 168 L 1138 168 L 1138 153 L 1136 152 Z M 1142 152 L 1142 168 L 1144 169 L 1144 176 L 1152 176 L 1152 160 L 1144 160 L 1144 153 L 1142 152 Z M 1160 152 L 1160 200 L 1162 200 L 1162 153 L 1160 152 Z M 1088 288 L 1088 296 L 1096 296 L 1096 288 L 1088 288 Z M 1096 296 L 1096 304 L 1098 304 L 1098 297 L 1096 296 Z M 1091 320 L 1091 328 L 1088 328 L 1088 333 L 1096 333 L 1096 328 L 1104 328 L 1104 323 L 1097 323 L 1096 320 L 1091 320 Z M 1102 336 L 1102 344 L 1104 344 L 1104 337 L 1102 336 Z M 1088 360 L 1088 368 L 1096 368 L 1096 360 L 1088 360 Z " /><path fill="rgb(254,254,254)" stroke="rgb(254,254,254)" stroke-width="1" opacity="1" d="M 1144 64 L 1147 64 L 1147 72 L 1144 72 L 1144 64 Z " /><path fill="rgb(254,254,254)" stroke="rgb(254,254,254)" stroke-width="1" opacity="1" d="M 1208 64 L 1211 64.5 L 1211 80 L 1208 79.5 L 1208 64 Z " /><path fill="rgb(254,254,254)" stroke="rgb(254,254,254)" stroke-width="1" opacity="1" d="M 1232 64 L 1235 64 L 1235 72 L 1232 72 L 1232 64 Z " /><path fill="rgb(254,254,254)" stroke="rgb(254,254,254)" stroke-width="1" opacity="1" d="M 1256 64 L 1259 64.5 L 1259 88 L 1256 87.5 L 1256 64 Z " /><path fill="rgb(254,254,254)" stroke="rgb(254,254,254)" stroke-width="1" opacity="1" d="M 1416 80 L 1419 80 L 1419 88 L 1416 88 L 1416 80 Z " /><path fill="rgb(254,254,254)" stroke="rgb(254,254,254)" stroke-width="1" opacity="1" d="M 1080 88 L 1083 88 L 1083 96 L 1088 96 L 1088 88 L 1091 88 L 1091 95.5 L 1088 96 L 1088 104 L 1083 104 L 1083 112 L 1080 112 L 1080 88 Z " /><path fill="rgb(254,254,254)" stroke="rgb(254,254,254)" stroke-width="1" opacity="1" d="M 1281 88 L 1283 88 L 1283 95.5 L 1285 96 L 1285 88.5 L 1287 88 L 1288 104 L 1280 104 L 1280 96.5 L 1281 95.5 L 1281 88 Z " /><path fill="rgb(254,254,254)" stroke="rgb(254,254,254)" stroke-width="1" opacity="1" d="M 1296 88 L 1304 88 L 1304 104 L 1299 104 L 1299 112 L 1304 112 L 1304 120 L 1312 120 L 1312 128 L 1296 128 L 1296 88 Z " /><path fill="rgb(254,254,254)" stroke="rgb(254,254,254)" stroke-width="1" opacity="1" d="M 1309 88 L 1315 88 L 1315 96 L 1309 96 L 1309 88 Z " /><path fill="rgb(254,254,254)" stroke="rgb(254,254,254)" stroke-width="1" opacity="1" d="M 1336 88 L 1339 88 L 1339 96 L 1336 96 L 1336 88 Z " /><path fill="rgb(254,254,254)" stroke="rgb(254,254,254)" stroke-width="1" opacity="1" d="M 1357 88 L 1360 88 L 1360 96 L 1357 96 L 1357 88 Z " /><path fill="rgb(254,254,254)" stroke="rgb(254,254,254)" stroke-width="1" opacity="1" d="M 1408 96 L 1416 96 L 1416 104 L 1408 104 L 1408 96 Z " /><path fill="rgb(254,254,254)" stroke="rgb(254,254,254)" stroke-width="1" opacity="1" d="M 1160 104 L 1163 104 L 1163 112 L 1160 112 L 1160 104 Z " /><path fill="rgb(254,254,254)" stroke="rgb(254,254,254)" stroke-width="1" opacity="1" d="M 1072 120 L 1088 120 L 1088 128 L 1072 128 L 1072 120 Z " /><path fill="rgb(254,254,254)" stroke="rgb(254,254,254)" stroke-width="1" opacity="1" d="M 1314 120 L 1318 120 L 1318 128 L 1314 128 L 1314 120 Z " /><path fill="rgb(254,254,254)" stroke="rgb(254,254,254)" stroke-width="1" opacity="1" d="M 1320 120 L 1344 120 L 1344 128 L 1320 128 L 1320 120 Z " /><path fill="rgb(254,254,254)" stroke="rgb(254,254,254)" stroke-width="1" opacity="1" d="M 1208.5 136 L 1216 136.5 L 1208.5 137 L 1208.5 136 Z " /><path fill="rgb(254,254,254)" stroke="rgb(254,254,254)" stroke-width="1" opacity="1" d="M 1280.5 136 L 1288 136.5 L 1280.5 137 L 1280.5 136 Z " /><path fill="rgb(254,254,254)" stroke="rgb(254,254,254)" stroke-width="1" opacity="1" d="M 1178.5 138 L 1177.5 140 L 1178.5 138 Z " /><path fill="rgb(254,254,254)" stroke="rgb(254,254,254)" stroke-width="1" opacity="1" d="M 1184.5 138 L 1208 138.5 L 1184.5 139 L 1184.5 138 Z " /><path fill="rgb(254,254,254)" stroke="rgb(254,254,254)" stroke-width="1" opacity="1" d="M 1248.5 138 L 1264 138.5 L 1248.5 139 L 1248.5 138 Z " /><path fill="rgb(254,254,254)" stroke="rgb(254,254,254)" stroke-width="1" opacity="1" d="M 1088 144 L 1091 144 L 1091 152 L 1088 152 L 1088 144 Z " /><path fill="rgb(254,254,254)" stroke="rgb(254,254,254)" stroke-width="1" opacity="1" d="M 1408 152 L 1419 152 L 1419 168 L 1416 168 L 1416 160 L 1408 160 L 1408 152 Z " /><path fill="rgb(254,254,254)" stroke="rgb(254,254,254)" stroke-width="1" opacity="1" d="M 1345.5 160 L 1346 167.5 L 1345 167.5 L 1345.5 160 Z " /><path fill="rgb(254,254,254)" stroke="rgb(254,254,254)" stroke-width="1" opacity="1" d="M 1384 176 L 1392 176 L 1392 184 L 1384 184 L 1384 176 Z " /><path fill="rgb(254,254,254)" stroke="rgb(254,254,254)" stroke-width="1" opacity="1" d="M 1408 176 L 1416 176 L 1416 184 L 1408 184 L 1408 176 Z " /><path fill="rgb(254,254,254)" stroke="rgb(254,254,254)" stroke-width="1" opacity="1" d="M 1389 192 L 1392 192 L 1392 200 L 1389 200 L 1389 192 Z " /><path fill="rgb(254,254,254)" stroke="rgb(254,254,254)" stroke-width="1" opacity="1" d="M 1248.5 205 L 1256 205.5 L 1248.5 206 L 1248.5 205 Z " /><path fill="rgb(254,254,254)" stroke="rgb(254,254,254)" stroke-width="1" opacity="1" d="M 1264.5 205 L 1272 205.5 L 1264.5 206 L 1264.5 205 Z " /><path fill="rgb(254,254,254)" stroke="rgb(254,254,254)" stroke-width="1" opacity="1" d="M 1280.5 205 L 1288 205.5 L 1280.5 206 L 1280.5 205 Z " /><path fill="rgb(254,254,254)" stroke="rgb(254,254,254)" stroke-width="1" opacity="1" d="M 1291.5 206 L 1290.5 208 L 1291.5 206 Z " /><path fill="rgb(254,254,254)" stroke="rgb(254,254,254)" stroke-width="1" opacity="1" d="M 1184.5 207 L 1224 207.5 L 1203 208 L 1202.5 210 L 1202 208 L 1184.5 208 L 1184.5 207 Z " /><path fill="rgb(254,254,254)" stroke="rgb(254,254,254)" stroke-width="1" opacity="1" d="M 1280.5 207 L 1288 207.5 L 1272 209.5 L 1280 210.5 L 1272.5 211 Q 1269.5 209.5 1272.5 208 Q 1278.8 209.8 1280.5 207 Z " /><path fill="rgb(254,254,254)" stroke="rgb(254,254,254)" stroke-width="1" opacity="1" d="M 1144 208 L 1152 208 L 1152 224 L 1144 224 L 1144 208 Z " /><path fill="rgb(254,254,254)" stroke="rgb(254,254,254)" stroke-width="1" opacity="1" d="M 1304.5 208 Q 1311.3 206.2 1313 209.5 L 1311.5 209 L 1304.5 209 L 1304.5 208 Z " /><path fill="rgb(254,254,254)" stroke="rgb(254,254,254)" stroke-width="1" opacity="1" d="M 1376 208 L 1400 208 L 1400 216 L 1392 216 L 1392 224 L 1395 224 L 1395 232 L 1392 232 L 1392 240 L 1400 240 L 1400 248 L 1376 248 L 1376 240 L 1384 240 L 1384 232 L 1392 232 L 1392 224 L 1384 224 L 1384 216 L 1376 216 L 1376 208 Z " /><path fill="rgb(254,254,254)" stroke="rgb(254,254,254)" stroke-width="1" opacity="1" d="M 1184.5 209 L 1199.5 209 L 1201 210.5 L 1199.5 210 L 1184.5 210 L 1184.5 209 Z " /><path fill="rgb(254,254,254)" stroke="rgb(254,254,254)" stroke-width="1" opacity="1" d="M 1158.5 210 L 1157.5 212 L 1158.5 210 Z " /><path fill="rgb(254,254,254)" stroke="rgb(254,254,254)" stroke-width="1" opacity="1" d="M 1209.5 210 L 1211 210.5 L 1209.5 213 Q 1206.5 211.5 1209.5 210 Z " /><path fill="rgb(254,254,254)" stroke="rgb(254,254,254)" stroke-width="1" opacity="1" d="M 1176 211 L 1183.5 211 L 1184 213 L 1176.5 213 L 1176 211 Z " /><path fill="rgb(254,254,254)" stroke="rgb(254,254,254)" stroke-width="1" opacity="1" d="M 1212.5 211 L 1211.5 213 L 1212.5 211 Z " /><path fill="rgb(254,254,254)" stroke="rgb(254,254,254)" stroke-width="1" opacity="1" d="M 1214.5 211 L 1215 212.5 L 1212 214.5 L 1214.5 211 Z " /><path fill="rgb(254,254,254)" stroke="rgb(254,254,254)" stroke-width="1" opacity="1" d="M 1209.5 216 L 1210 247.5 L 1209 247.5 L 1209.5 216 Z " /><path fill="rgb(254,254,254)" stroke="rgb(254,254,254)" stroke-width="1" opacity="1" d="M 1215.5 216 L 1216 223.5 L 1215 223.5 L 1215.5 216 Z " /><path fill="rgb(254,254,254)" stroke="rgb(254,254,254)" stroke-width="1" opacity="1" d="M 1224 216 L 1232 216 L 1232 224 L 1240 224 L 1240 216 L 1256 216 L 1256 223.5 L 1259 224 L 1259 232 L 1256 232.5 L 1256 256 L 1259 256.5 L 1248.5 257 L 1247.5 256 L 1232.5 256 L 1231.5 257 L 1221 257 L 1221 248 L 1216 248 L 1216 255.5 L 1214 256 L 1214.5 232 L 1215.5 248 L 1216 240 L 1224 240 L 1224 216 Z " /><path fill="rgb(254,254,254)" stroke="rgb(254,254,254)" stroke-width="1" opacity="1" d="M 1416 216 L 1419 216 L 1419 224 L 1416 224 L 1416 216 Z " /><path fill="rgb(254,254,254)" stroke="rgb(254,254,254)" stroke-width="1" opacity="1" d="M 1344 248 L 1347 248 L 1347 256 L 1344 256 L 1344 248 Z " /><path fill="rgb(254,254,254)" stroke="rgb(254,254,254)" stroke-width="1" opacity="1" d="M 1096 256 L 1104 256 L 1104 264 L 1096 264 L 1096 256 Z " /><path fill="rgb(254,254,254)" stroke="rgb(254,254,254)" stroke-width="1" opacity="1" d="M 1384 256 L 1400 256 L 1400 264 L 1395 264.5 L 1395 280 L 1400 280 L 1400 288 L 1395 288 L 1395 296 L 1400 296 L 1400 304 L 1395 304 L 1395 312 L 1384 312 L 1384 296 L 1392 296 L 1392 288 L 1384 288 L 1384 280 L 1392 280 L 1392 264 L 1384 264 L 1384 256 Z " /><path fill="rgb(254,254,254)" stroke="rgb(254,254,254)" stroke-width="1" opacity="1" d="M 1408 256 L 1416 256 L 1416 264 L 1408 264 L 1408 256 Z " /><path fill="rgb(254,254,254)" stroke="rgb(254,254,254)" stroke-width="1" opacity="1" d="M 1215.5 257 L 1220 257.5 L 1215 258.5 L 1219.5 259 L 1224 261.5 L 1220.5 262 L 1216.5 261 L 1214 258.5 L 1215.5 257 Z " /><path fill="rgb(254,254,254)" stroke="rgb(254,254,254)" stroke-width="1" opacity="1" d="M 1260.5 257 L 1264 257.5 L 1260.5 258 L 1260.5 257 Z " /><path fill="rgb(254,254,254)" stroke="rgb(254,254,254)" stroke-width="1" opacity="1" d="M 1260.5 259 Q 1265.3 257.7 1264 261 Q 1258.4 262.9 1248.5 262 L 1247.5 261 L 1232 260.5 L 1247.5 260 L 1248.5 261 L 1258.5 261 L 1260.5 259 Z " /><path fill="rgb(254,254,254)" stroke="rgb(254,254,254)" stroke-width="1" opacity="1" d="M 1416 272 L 1419 272 L 1419 279.5 L 1422 280 L 1422 288 L 1419 288 L 1419 295.5 L 1416 296 L 1416 304 L 1419 304.5 L 1419 328 L 1416 327.5 L 1416 304 L 1408.5 304 L 1408 303.5 L 1408 280 L 1416 280 L 1416 272 Z M 1416 280 L 1416 288 L 1418 288 L 1418 281 L 1416 280 Z " /><path fill="rgb(254,254,254)" stroke="rgb(254,254,254)" stroke-width="1" opacity="1" d="M 1288.5 276 L 1304 276.5 L 1288.5 277 L 1288.5 276 Z " /><path fill="rgb(254,254,254)" stroke="rgb(254,254,254)" stroke-width="1" opacity="1" d="M 1189.5 277 L 1196 277.5 L 1192 278 Q 1193.1 280.7 1190.5 280 L 1190.5 278 L 1189.5 277 Z " /><path fill="rgb(254,254,254)" stroke="rgb(254,254,254)" stroke-width="1" opacity="1" d="M 1266.5 277 L 1267.5 279 L 1265 278.5 L 1266.5 277 Z " /><path fill="rgb(254,254,254)" stroke="rgb(254,254,254)" stroke-width="1" opacity="1" d="M 1200 278 L 1208 278.5 L 1206 279.5 L 1208 280 L 1208 288 L 1200 288 L 1200 296 L 1208 296 L 1208 304 L 1198 304 L 1198 312 L 1194 312 L 1194 304.5 L 1192 303.5 L 1192 288 L 1200 288 L 1200 278 Z " /><path fill="rgb(254,254,254)" stroke="rgb(254,254,254)" stroke-width="1" opacity="1" d="M 1272.5 278 L 1280 278.5 L 1272.5 279 L 1272.5 278 Z " /><path fill="rgb(254,254,254)" stroke="rgb(254,254,254)" stroke-width="1" opacity="1" d="M 1168.5 279 L 1176 279.5 L 1168.5 280 L 1168.5 279 Z " /><path fill="rgb(254,254,254)" stroke="rgb(254,254,254)" stroke-width="1" opacity="1" d="M 1317.5 279 L 1320 280.5 L 1312.5 281 L 1312.5 280 L 1317.5 279 Z " /><path fill="rgb(254,254,254)" stroke="rgb(254,254,254)" stroke-width="1" opacity="1" d="M 1266.5 280 L 1267 295.5 L 1266 295.5 L 1266.5 280 Z " /><path fill="rgb(254,254,254)" stroke="rgb(254,254,254)" stroke-width="1" opacity="1" d="M 1268.5 280 L 1269 295.5 L 1268 295.5 L 1268.5 280 Z " /><path fill="rgb(254,254,254)" stroke="rgb(254,254,254)" stroke-width="1" opacity="1" d="M 1281.5 280 L 1282 282.5 L 1280.5 285 L 1280 283.5 L 1281.5 280 Z " /><path fill="rgb(254,254,254)" stroke="rgb(254,254,254)" stroke-width="1" opacity="1" d="M 1368 280 L 1376 280 L 1376 283 L 1368 283 L 1368 280 Z " /><path fill="rgb(254,254,254)" stroke="rgb(254,254,254)" stroke-width="1" opacity="1" d="M 1296.5 281 L 1304 281.5 L 1296.5 282 L 1296.5 281 Z " /><path fill="rgb(254,254,254)" stroke="rgb(254,254,254)" stroke-width="1" opacity="1" d="M 1328.5 282 L 1336 282.5 L 1312.5 285 L 1312.5 284 L 1319.5 284 L 1328.5 282 Z " /><path fill="rgb(254,254,254)" stroke="rgb(254,254,254)" stroke-width="1" opacity="1" d="M 1152.5 283 L 1184 283.5 L 1152.5 284 L 1152.5 283 Z " /><path fill="rgb(254,254,254)" stroke="rgb(254,254,254)" stroke-width="1" opacity="1" d="M 1296.5 284 L 1304 284.5 L 1296.5 285 L 1296.5 284 Z " /><path fill="rgb(254,254,254)" stroke="rgb(254,254,254)" stroke-width="1" opacity="1" d="M 1186.5 286 L 1188 303.5 L 1187 303.5 L 1186.5 286 Z " /><path fill="rgb(254,254,254)" stroke="rgb(254,254,254)" stroke-width="1" opacity="1" d="M 1280.5 288 L 1282 327.5 L 1281 327.5 L 1280.5 320 L 1280 335.5 L 1281 336.5 L 1281 344.5 L 1279.5 344 L 1272 344 L 1272 352 L 1256 352 L 1256 360 L 1248 360 L 1248 368 L 1240 368 L 1240 360 L 1232 360 L 1232 352 L 1208 352 L 1208 360 L 1200 360 L 1200 344 L 1191.5 344 L 1190 344.5 L 1191 343.5 L 1191 328.5 L 1192 327.5 L 1192 320 L 1200 320 L 1200 312 L 1208 312 L 1208 319.5 L 1208.5 320 L 1240 320 L 1240 312 L 1248 312 L 1248 320 L 1272 320 L 1272 304.5 L 1272.5 304 L 1280 304 L 1280.5 288 Z M 1232 344 L 1232 352 L 1240 352 L 1240 344 L 1232 344 Z " /><path fill="rgb(254,254,254)" stroke="rgb(254,254,254)" stroke-width="1" opacity="1" d="M 1286.5 288 L 1287 311.5 L 1286 311.5 L 1286.5 288 Z " /><path fill="rgb(254,254,254)" stroke="rgb(254,254,254)" stroke-width="1" opacity="1" d="M 1357 296 L 1360 296 L 1360 304 L 1357 304 L 1357 296 Z " /><path fill="rgb(254,254,254)" stroke="rgb(254,254,254)" stroke-width="1" opacity="1" d="M 1268.5 299 L 1269 300.5 L 1266 302.5 L 1268.5 299 Z " /><path fill="rgb(254,254,254)" stroke="rgb(254,254,254)" stroke-width="1" opacity="1" d="M 1270.5 302 L 1269.5 304 L 1270.5 302 Z " /><path fill="rgb(254,254,254)" stroke="rgb(254,254,254)" stroke-width="1" opacity="1" d="M 1216.5 303 L 1240 303.5 L 1216.5 304 L 1216.5 303 Z " /><path fill="rgb(254,254,254)" stroke="rgb(254,254,254)" stroke-width="1" opacity="1" d="M 1187 312 L 1189 312.5 L 1189 336 L 1187 335.5 L 1187 312 Z " /><path fill="rgb(254,254,254)" stroke="rgb(254,254,254)" stroke-width="1" opacity="1" d="M 1128.5 320 L 1129 327.5 L 1128 327.5 L 1128.5 320 Z " /><path fill="rgb(254,254,254)" stroke="rgb(254,254,254)" stroke-width="1" opacity="1" d="M 1360 320 L 1368 320 L 1368 323 L 1360 323 L 1360 320 Z " /><path fill="rgb(254,254,254)" stroke="rgb(254,254,254)" stroke-width="1" opacity="1" d="M 1400 320 L 1408 320 L 1408 323 L 1400 323 L 1400 320 Z " /><path fill="rgb(254,254,254)" stroke="rgb(254,254,254)" stroke-width="1" opacity="1" d="M 1185.5 336 L 1186 343.5 L 1185 343.5 L 1185.5 336 Z " /><path fill="rgb(254,254,254)" stroke="rgb(254,254,254)" stroke-width="1" opacity="1" d="M 1187.5 345 L 1186.5 347 L 1187.5 345 Z " /><path fill="rgb(254,254,254)" stroke="rgb(254,254,254)" stroke-width="1" opacity="1" d="M 1288.5 348 L 1294 349.5 L 1292 350.5 L 1292.5 352 L 1290 351.5 Q 1292.3 350.3 1289.5 349 L 1288.5 348 Z " /><path fill="rgb(254,254,254)" stroke="rgb(254,254,254)" stroke-width="1" opacity="1" d="M 1152.5 349 L 1160 349.5 L 1152.5 350 L 1152.5 349 Z " /><path fill="rgb(254,254,254)" stroke="rgb(254,254,254)" stroke-width="1" opacity="1" d="M 1337.5 350 L 1336.5 352 L 1337.5 350 Z " /><path fill="rgb(254,254,254)" stroke="rgb(254,254,254)" stroke-width="1" opacity="1" d="M 1144.5 351 L 1159.5 351 L 1163 352 L 1163 359.5 L 1166 360 L 1166 367.5 L 1168 368 L 1168 369.5 L 1168 371.5 Q 1169.9 376.9 1166.5 376 L 1164 377.5 L 1164.5 376 L 1160 376 L 1160 369.5 L 1158.5 368 L 1152 368 L 1152 352 L 1144.5 352 L 1144.5 351 Z M 1160 360 L 1160 368 L 1162 368 L 1162 361 L 1160 360 Z " /><path fill="rgb(254,254,254)" stroke="rgb(254,254,254)" stroke-width="1" opacity="1" d="M 1168.5 351 L 1176 351.5 L 1168.5 352 L 1168.5 351 Z " /><path fill="rgb(254,254,254)" stroke="rgb(254,254,254)" stroke-width="1" opacity="1" d="M 1418 352 L 1422 352 L 1422 360 L 1418 360 L 1418 352 Z " /><path fill="rgb(254,254,254)" stroke="rgb(254,254,254)" stroke-width="1" opacity="1" d="M 1304.5 360 L 1308 360.5 L 1304.5 361 L 1304.5 360 Z " /><path fill="rgb(254,254,254)" stroke="rgb(254,254,254)" stroke-width="1" opacity="1" d="M 1296.5 361 L 1300 366.5 L 1298 366.5 L 1297.5 368 Q 1294.9 365.7 1296.5 361 Z " /><path fill="rgb(254,254,254)" stroke="rgb(254,254,254)" stroke-width="1" opacity="1" d="M 1302.5 361 L 1304 364 L 1301 363.5 L 1303 362.5 L 1302.5 361 Z " /><path fill="rgb(254,254,254)" stroke="rgb(254,254,254)" stroke-width="1" opacity="1" d="M 1305.5 362 L 1312 362.5 L 1305.5 363 L 1305.5 362 Z " /><path fill="rgb(254,254,254)" stroke="rgb(254,254,254)" stroke-width="1" opacity="1" d="M 1358.5 368 L 1358 369.5 L 1357.5 372 L 1357 369.5 L 1358.5 368 Z " /><path fill="rgb(254,254,254)" stroke="rgb(254,254,254)" stroke-width="1" opacity="1" d="M 1257.5 372 L 1256.5 374 L 1257.5 372 Z " /><path fill="rgb(254,254,254)" stroke="rgb(254,254,254)" stroke-width="1" opacity="1" d="M 1170.5 375 L 1171 391.5 L 1170 391.5 L 1169.5 384 L 1169 399.5 L 1167.5 401 L 1168 399.5 L 1167 396.5 Q 1169.5 395 1168 389.5 L 1168 387.5 L 1169 376.5 L 1170.5 375 Z " /><path fill="rgb(254,254,254)" stroke="rgb(254,254,254)" stroke-width="1" opacity="1" d="M 1354.5 375 L 1354 376.5 L 1353.5 384 L 1353 376.5 L 1354.5 375 Z " /><path fill="rgb(254,254,254)" stroke="rgb(254,254,254)" stroke-width="1" opacity="1" d="M 1172.5 376 L 1173 383.5 L 1172 383.5 L 1172.5 376 Z " /><path fill="rgb(254,254,254)" stroke="rgb(254,254,254)" stroke-width="1" opacity="1" d="M 1216.5 376 L 1217 383.5 L 1216 383.5 L 1216.5 376 Z " /><path fill="rgb(254,254,254)" stroke="rgb(254,254,254)" stroke-width="1" opacity="1" d="M 1276.5 376 L 1277 383.5 L 1276 383.5 L 1276.5 376 Z " /><path fill="rgb(254,254,254)" stroke="rgb(254,254,254)" stroke-width="1" opacity="1" d="M 1248.5 377 L 1251 378.5 L 1250.5 380 L 1250 378 L 1248.5 377 Z " /><path fill="rgb(254,254,254)" stroke="rgb(254,254,254)" stroke-width="1" opacity="1" d="M 1192.5 382 L 1200 382.5 L 1192.5 383 L 1192.5 382 Z " /><path fill="rgb(254,254,254)" stroke="rgb(254,254,254)" stroke-width="1" opacity="1" d="M 1133.5 384 L 1134 391.5 L 1133 391.5 L 1133.5 384 Z " /><path fill="rgb(254,254,254)" stroke="rgb(254,254,254)" stroke-width="1" opacity="1" d="M 1135.5 384 L 1136 399.5 L 1134.5 408 L 1134 400.5 L 1135 399.5 L 1135.5 384 Z " /><path fill="rgb(254,254,254)" stroke="rgb(254,254,254)" stroke-width="1" opacity="1" d="M 1336.5 384 L 1337.5 392 L 1338.5 384 L 1339 391.5 L 1337.5 400 L 1336 391.5 L 1336.5 384 Z " /><path fill="rgb(254,254,254)" stroke="rgb(254,254,254)" stroke-width="1" opacity="1" d="M 1300.5 385 L 1301 387 L 1299 386.5 L 1300.5 385 Z " /><path fill="rgb(254,254,254)" stroke="rgb(254,254,254)" stroke-width="1" opacity="1" d="M 1332.5 385 L 1333.5 387 L 1332.5 385 Z " /><path fill="rgb(254,254,254)" stroke="rgb(254,254,254)" stroke-width="1" opacity="1" d="M 1192.5 389 L 1200 389.5 L 1192.5 390 L 1192.5 389 Z " /><path fill="rgb(254,254,254)" stroke="rgb(254,254,254)" stroke-width="1" opacity="1" d="M 1298.5 390 L 1299 392 L 1302 392 L 1302 400 L 1298 400 L 1298.5 390 Z " /><path fill="rgb(254,254,254)" stroke="rgb(254,254,254)" stroke-width="1" opacity="1" d="M 1312.5 390 Q 1314 393.3 1319 392 L 1319.5 390 L 1320 400 L 1304 400 L 1304 392 L 1313 391.5 L 1312.5 390 Z " /><path fill="rgb(254,254,254)" stroke="rgb(254,254,254)" stroke-width="1" opacity="1" d="M 1216.5 392 L 1217 415.5 L 1216 415.5 L 1216.5 392 Z " /><path fill="rgb(254,254,254)" stroke="rgb(254,254,254)" stroke-width="1" opacity="1" d="M 1276.5 392 L 1277 399.5 L 1276 399.5 L 1276.5 392 Z " /><path fill="rgb(254,254,254)" stroke="rgb(254,254,254)" stroke-width="1" opacity="1" d="M 1295.5 394 L 1296 396.5 L 1295 396.5 L 1295.5 394 Z " /><path fill="rgb(254,254,254)" stroke="rgb(254,254,254)" stroke-width="1" opacity="1" d="M 1262.5 396 L 1261.5 398 L 1262.5 396 Z " /><path fill="rgb(254,254,254)" stroke="rgb(254,254,254)" stroke-width="1" opacity="1" d="M 1333.5 396 L 1334 398 L 1336 398.5 L 1334.5 399 L 1333.5 396 Z " /><path fill="rgb(254,254,254)" stroke="rgb(254,254,254)" stroke-width="1" opacity="1" d="M 1231.5 399 L 1232 415.5 L 1231 415.5 L 1230 400.5 L 1231.5 399 Z " /><path fill="rgb(254,254,254)" stroke="rgb(254,254,254)" stroke-width="1" opacity="1" d="M 1339.5 400 L 1340 407.5 L 1339 407.5 L 1339.5 400 Z " /><path fill="rgb(254,254,254)" stroke="rgb(254,254,254)" stroke-width="1" opacity="1" d="M 1353.5 400 L 1354 407.5 L 1353 407.5 L 1353.5 400 Z " /><path fill="rgb(254,254,254)" stroke="rgb(254,254,254)" stroke-width="1" opacity="1" d="M 1357 400 L 1359 400.5 L 1359 408 L 1357 407.5 L 1357 400 Z " /><path fill="rgb(254,254,254)" stroke="rgb(254,254,254)" stroke-width="1" opacity="1" d="M 1332.5 406 L 1335 407.5 L 1333.5 407 L 1332.5 406 Z " /><path fill="rgb(254,254,254)" stroke="rgb(254,254,254)" stroke-width="1" opacity="1" d="M 1167.5 413 L 1166.5 415 L 1167.5 413 Z " /><path fill="rgb(254,254,254)" stroke="rgb(254,254,254)" stroke-width="1" opacity="1" d="M 1256.5 416 L 1257 418.5 L 1256 418.5 L 1256.5 416 Z " /><path fill="rgb(254,254,254)" stroke="rgb(254,254,254)" stroke-width="1" opacity="1" d="M 1260.5 419 L 1262 421.5 L 1260.5 422 L 1258 421.5 Q 1257.3 419.3 1259.5 420 L 1260.5 419 Z " /><path fill="rgb(254,254,254)" stroke="rgb(254,254,254)" stroke-width="1" opacity="1" d="M 1155.5 421 L 1154.5 423 L 1155.5 421 Z " /><path fill="rgb(254,254,254)" stroke="rgb(254,254,254)" stroke-width="1" opacity="1" d="M 1278.5 422 L 1277.5 424 L 1278.5 422 Z " /><path fill="rgb(254,254,254)" stroke="rgb(254,254,254)" stroke-width="1" opacity="1" d="M 1080 432 L 1088 432 L 1088 448 L 1080 448 L 1080 432 Z " /><path fill="rgb(254,254,254)" stroke="rgb(254,254,254)" stroke-width="1" opacity="1" d="M 1280 440 L 1288 440 L 1288 456 L 1280 456 L 1280 440 Z " /><path fill="rgb(254,254,254)" stroke="rgb(254,254,254)" stroke-width="1" opacity="1" d="M 1298 440 L 1302 440 L 1302 448 L 1298 448 L 1298 440 Z " /><path fill="rgb(254,254,254)" stroke="rgb(254,254,254)" stroke-width="1" opacity="1" d="M 1312 440 L 1315 440 L 1315 448 L 1312 448 L 1312 456 L 1304 456 L 1304 448 L 1312 448 L 1312 440 Z " /><path fill="rgb(254,254,254)" stroke="rgb(254,254,254)" stroke-width="1" opacity="1" d="M 1336 440 L 1344 440 L 1344 456 L 1336 456 L 1336 440 Z " /><path fill="rgb(247,247,247)" stroke="rgb(247,247,247)" stroke-width="1" opacity="1" d="M 1242.5 138 L 1243.5 140 L 1242.5 138 Z " /><path fill="rgb(247,247,247)" stroke="rgb(247,247,247)" stroke-width="1" opacity="1" d="M 1176.5 139 Q 1179.3 140.3 1177 141.5 L 1177 203.5 L 1178 206 L 1176 205.5 L 1176 203.5 L 1176 141.5 L 1177 140.5 L 1176.5 139 Z " /><path fill="rgb(247,247,247)" stroke="rgb(247,247,247)" stroke-width="1" opacity="1" d="M 1247.5 139 L 1248.5 140 L 1264 140.5 L 1248.5 141 L 1247.5 139 Z " /><path fill="rgb(247,247,247)" stroke="rgb(247,247,247)" stroke-width="1" opacity="1" d="M 1241.5 140 L 1241 141.5 L 1241 203.5 L 1242 204.5 L 1240 205.5 L 1240 203.5 L 1240 141.5 L 1241.5 140 Z " /><path fill="rgb(247,247,247)" stroke="rgb(247,247,247)" stroke-width="1" opacity="1" d="M 1294.5 140 L 1296 141.5 L 1296 203.5 L 1295.5 206 Q 1292.8 204.8 1295 203.5 L 1295 141.5 L 1294.5 140 Z " /><path fill="rgb(247,247,247)" stroke="rgb(247,247,247)" stroke-width="1" opacity="1" d="M 1226.5 204 L 1231 204.5 L 1226.5 205 L 1226.5 204 Z " /><path fill="rgb(247,247,247)" stroke="rgb(247,247,247)" stroke-width="1" opacity="1" d="M 1288.5 204 L 1289.5 206 L 1288.5 204 Z " /><path fill="rgb(247,247,247)" stroke="rgb(247,247,247)" stroke-width="1" opacity="1" d="M 1242 206 L 1244 206.5 L 1242 207.5 L 1242 206 Z " /><path fill="rgb(247,247,247)" stroke="rgb(247,247,247)" stroke-width="1" opacity="1" d="M 1152.5 211 Q 1155.3 212.3 1153 213.5 L 1153 275.5 L 1154 276.5 L 1152 277.5 L 1152 275.5 L 1152 213.5 L 1153 212.5 L 1152.5 211 Z " /><path fill="rgb(247,247,247)" stroke="rgb(247,247,247)" stroke-width="1" opacity="1" d="M 1319.5 211 L 1320 213.5 L 1320 275.5 L 1319 276.5 L 1319.5 278 Q 1316.8 276.8 1319 275.5 L 1319 213.5 L 1318 212.5 L 1319.5 211 Z " /><path fill="rgb(247,247,247)" stroke="rgb(247,247,247)" stroke-width="1" opacity="1" d="M 1200.5 212 L 1204 212.5 L 1200.5 213 L 1200.5 212 Z " /><path fill="rgb(247,247,247)" stroke="rgb(247,247,247)" stroke-width="1" opacity="1" d="M 1265.5 212 L 1264.5 214 L 1265.5 212 Z " /><path fill="rgb(247,247,247)" stroke="rgb(247,247,247)" stroke-width="1" opacity="1" d="M 1208.5 213 L 1209 262.5 L 1208 262.5 L 1208.5 213 Z " /><path fill="rgb(247,247,247)" stroke="rgb(247,247,247)" stroke-width="1" opacity="1" d="M 1214.5 262 L 1264 262.5 L 1214.5 263 L 1214.5 262 Z " /><path fill="rgb(247,247,247)" stroke="rgb(247,247,247)" stroke-width="1" opacity="1" d="M 1155 276 L 1157 276.5 L 1154 278.5 L 1155 276 Z " /><path fill="rgb(247,247,247)" stroke="rgb(247,247,247)" stroke-width="1" opacity="1" d="M 1160.5 276 L 1200 276.5 L 1160.5 277 L 1158.5 278 L 1158.5 277 L 1160.5 276 Z " /><path fill="rgb(247,247,247)" stroke="rgb(247,247,247)" stroke-width="1" opacity="1" d="M 1264.5 276 Q 1267.3 277.3 1265 278.5 L 1265 295.5 L 1266 296.5 L 1265 303 L 1212.5 303 L 1211.5 304 L 1208 302.5 L 1264 302 L 1264.5 276 Z " /><path fill="rgb(247,247,247)" stroke="rgb(247,247,247)" stroke-width="1" opacity="1" d="M 1128.5 284 L 1131 284.5 L 1130 285.5 L 1130 347.5 L 1130.5 349 L 1129 347.5 L 1129 285.5 L 1128.5 284 Z " /><path fill="rgb(247,247,247)" stroke="rgb(247,247,247)" stroke-width="1" opacity="1" d="M 1184.5 284 L 1186 286.5 L 1184 285.5 L 1184.5 284 Z " /><path fill="rgb(247,247,247)" stroke="rgb(247,247,247)" stroke-width="1" opacity="1" d="M 1189.5 284 L 1189 285.5 L 1188.5 287 L 1188 285.5 L 1189.5 284 Z " /><path fill="rgb(247,247,247)" stroke="rgb(247,247,247)" stroke-width="1" opacity="1" d="M 1287.5 284 L 1288 348.5 L 1287 348.5 L 1287 287.5 L 1286 286.5 L 1287.5 284 Z " /><path fill="rgb(247,247,247)" stroke="rgb(247,247,247)" stroke-width="1" opacity="1" d="M 1340.5 284 L 1344 285.5 L 1344 347.5 L 1343 348.5 L 1343.5 350 Q 1340.8 348.7 1343 347.5 L 1343 285.5 L 1340.5 285 L 1340.5 284 Z " /><path fill="rgb(247,247,247)" stroke="rgb(247,247,247)" stroke-width="1" opacity="1" d="M 1185.5 346 L 1185 347.5 L 1184.5 349 L 1184 347.5 L 1185.5 346 Z " /><path fill="rgb(247,247,247)" stroke="rgb(247,247,247)" stroke-width="1" opacity="1" d="M 1186.5 349 L 1185.5 351 L 1186.5 349 Z " /><path fill="rgb(247,247,247)" stroke="rgb(247,247,247)" stroke-width="1" opacity="1" d="M 1303.5 366 L 1306.5 367 L 1308.5 366 L 1312 367.5 L 1302.5 368 L 1303.5 366 Z " /><path fill="rgb(247,247,247)" stroke="rgb(247,247,247)" stroke-width="1" opacity="1" d="M 1120.5 368 L 1121 422 L 1144 422.5 L 1121.5 423 L 1120 421.5 L 1120.5 368 Z " /><path fill="rgb(247,247,247)" stroke="rgb(247,247,247)" stroke-width="1" opacity="1" d="M 1143.5 368 Q 1148.8 366.8 1150 369.5 L 1148.5 370 L 1143.5 369 L 1143.5 368 Z " /><path fill="rgb(247,247,247)" stroke="rgb(247,247,247)" stroke-width="1" opacity="1" d="M 1157.5 368 L 1159.5 371 L 1158.5 370 L 1155 372.5 Q 1159.2 370.2 1157.5 368 Z " /><path fill="rgb(247,247,247)" stroke="rgb(247,247,247)" stroke-width="1" opacity="1" d="M 1171.5 368 L 1172.5 370 Q 1169.7 370.7 1171.5 368 Z " /><path fill="rgb(247,247,247)" stroke="rgb(247,247,247)" stroke-width="1" opacity="1" d="M 1209.5 368 Q 1212.3 369.3 1210 370.5 L 1211 372.5 L 1210 378 L 1212 378.5 L 1189.5 379 L 1188.5 380 L 1186.5 379 L 1187 380.5 L 1186 385.5 L 1186.5 387 Q 1183.8 387.6 1185 381.5 L 1185 379.5 L 1185.5 378 L 1209 378 L 1209.5 368 Z " /><path fill="rgb(247,247,247)" stroke="rgb(247,247,247)" stroke-width="1" opacity="1" d="M 1217.5 368 L 1218 422 L 1228.5 422 L 1229 421.5 L 1229 388.5 L 1230 388.5 L 1232 394.5 L 1231 394.5 L 1230.5 393 L 1230 395.5 L 1230 397.5 L 1230 420.5 L 1232 422.5 L 1230.5 422 L 1229 422.5 L 1229.5 424 L 1228.5 423 L 1220.5 423 L 1218.5 423 L 1217 422.5 L 1217 372.5 L 1216 369.5 L 1217.5 368 Z " /><path fill="rgb(247,247,247)" stroke="rgb(247,247,247)" stroke-width="1" opacity="1" d="M 1232.5 368 L 1234 370.5 L 1233 370.5 L 1232.5 368 Z " /><path fill="rgb(247,247,247)" stroke="rgb(247,247,247)" stroke-width="1" opacity="1" d="M 1238.5 368 L 1240 370.5 L 1238 371.5 L 1239 369.5 L 1238.5 368 Z " /><path fill="rgb(247,247,247)" stroke="rgb(247,247,247)" stroke-width="1" opacity="1" d="M 1258.5 368 L 1261 368.5 L 1259.5 371 L 1258.5 368 Z " /><path fill="rgb(247,247,247)" stroke="rgb(247,247,247)" stroke-width="1" opacity="1" d="M 1276.5 368 L 1277 369.5 L 1276 370.5 L 1276 415.5 L 1277 417.5 L 1275.5 420 L 1275 369.5 L 1276.5 368 Z " /><path fill="rgb(247,247,247)" stroke="rgb(247,247,247)" stroke-width="1" opacity="1" d="M 1288.5 368 Q 1291.5 369.5 1288.5 371 L 1288.5 368 Z " /><path fill="rgb(247,247,247)" stroke="rgb(247,247,247)" stroke-width="1" opacity="1" d="M 1319.5 368 L 1321 370.5 L 1320 370.5 L 1319.5 369 L 1318 369.5 L 1319.5 368 Z " /><path fill="rgb(247,247,247)" stroke="rgb(247,247,247)" stroke-width="1" opacity="1" d="M 1326.5 368 L 1326 369.5 L 1326.5 371 L 1328 370.5 L 1327.5 373 L 1325 369.5 L 1326.5 368 Z " /><path fill="rgb(247,247,247)" stroke="rgb(247,247,247)" stroke-width="1" opacity="1" d="M 1340.5 368 L 1341 422 L 1351.5 422 L 1352.5 421 L 1353 423 L 1340.5 423 L 1339 421.5 L 1340 420.5 L 1340.5 368 Z " /><path fill="rgb(247,247,247)" stroke="rgb(247,247,247)" stroke-width="1" opacity="1" d="M 1352.5 368 L 1355 369.5 Q 1352.2 370.2 1353 374.5 L 1353 376.5 L 1352.5 417 L 1352 371.5 L 1352 369.5 L 1352.5 368 Z " /><path fill="rgb(247,247,247)" stroke="rgb(247,247,247)" stroke-width="1" opacity="1" d="M 1294.5 369 L 1296.5 369 L 1298 369.5 L 1292.5 373 L 1291 370.5 L 1292 370.5 L 1292.5 372 L 1294.5 369 Z " /><path fill="rgb(247,247,247)" stroke="rgb(247,247,247)" stroke-width="1" opacity="1" d="M 1322.5 370 L 1327.5 376 Q 1329.8 375.3 1329 377.5 L 1323 372.5 L 1322.5 370 Z " /><path fill="rgb(247,247,247)" stroke="rgb(247,247,247)" stroke-width="1" opacity="1" d="M 1257.5 371 L 1259 373.5 L 1258 373.5 L 1257.5 371 Z " /><path fill="rgb(247,247,247)" stroke="rgb(247,247,247)" stroke-width="1" opacity="1" d="M 1159.5 372 L 1158.5 374 L 1157 373.5 L 1159.5 372 Z " /><path fill="rgb(247,247,247)" stroke="rgb(247,247,247)" stroke-width="1" opacity="1" d="M 1234.5 372 Q 1237.8 370.9 1237 373.5 L 1237.5 375 L 1236 374.5 L 1235.5 376 L 1235 374.5 L 1235.5 373 L 1234.5 372 Z " /><path fill="rgb(247,247,247)" stroke="rgb(247,247,247)" stroke-width="1" opacity="1" d="M 1336.5 375 L 1335.5 377 L 1336.5 375 Z " /><path fill="rgb(247,247,247)" stroke="rgb(247,247,247)" stroke-width="1" opacity="1" d="M 1212.5 376 L 1216 378.5 L 1214.5 379 L 1212.5 376 Z " /><path fill="rgb(247,247,247)" stroke="rgb(247,247,247)" stroke-width="1" opacity="1" d="M 1331.5 376 L 1330.5 378 L 1331.5 376 Z " /><path fill="rgb(247,247,247)" stroke="rgb(247,247,247)" stroke-width="1" opacity="1" d="M 1166.5 377 L 1167 378.5 L 1165.5 381 L 1165 379.5 L 1166.5 377 Z " /><path fill="rgb(247,247,247)" stroke="rgb(247,247,247)" stroke-width="1" opacity="1" d="M 1287.5 377 L 1287 378.5 L 1286.5 380 L 1285.5 378 L 1287.5 377 Z " /><path fill="rgb(247,247,247)" stroke="rgb(247,247,247)" stroke-width="1" opacity="1" d="M 1133.5 378 L 1141 378.5 L 1133 379 L 1133 410.5 L 1133.5 411 L 1142.5 411 L 1145 410 L 1144.5 412 L 1132 412 L 1132 379.5 L 1133.5 378 Z " /><path fill="rgb(247,247,247)" stroke="rgb(247,247,247)" stroke-width="1" opacity="1" d="M 1161.5 378 L 1164 382.5 L 1163 382.5 L 1161.5 378 Z " /><path fill="rgb(247,247,247)" stroke="rgb(247,247,247)" stroke-width="1" opacity="1" d="M 1304.5 378 Q 1311.3 376.7 1314 379.5 L 1311.5 380 Q 1310 377.5 1304.5 379 L 1304.5 378 Z " /><path fill="rgb(247,247,247)" stroke="rgb(247,247,247)" stroke-width="1" opacity="1" d="M 1332.5 378 L 1332 379.5 L 1331 382.5 L 1333 382.5 L 1331.5 385 L 1329 379.5 Q 1330.8 381.1 1332.5 378 Z " /><path fill="rgb(247,247,247)" stroke="rgb(247,247,247)" stroke-width="1" opacity="1" d="M 1143.5 379 L 1146 379.5 L 1143.5 380 L 1143.5 379 Z " /><path fill="rgb(247,247,247)" stroke="rgb(247,247,247)" stroke-width="1" opacity="1" d="M 1238.5 379 L 1237.5 381 L 1238.5 379 Z " /><path fill="rgb(247,247,247)" stroke="rgb(247,247,247)" stroke-width="1" opacity="1" d="M 1253.5 379 L 1254.5 381 L 1256 380.5 L 1255 384 L 1253 384.5 L 1254 386.5 L 1252 385.5 L 1254 381.5 L 1253.5 379 Z " /><path fill="rgb(247,247,247)" stroke="rgb(247,247,247)" stroke-width="1" opacity="1" d="M 1302.5 379 L 1304 380.5 L 1302.5 384 L 1302 381.5 L 1302.5 379 Z " /><path fill="rgb(247,247,247)" stroke="rgb(247,247,247)" stroke-width="1" opacity="1" d="M 1335.5 379 L 1335 380.5 L 1334.5 382 L 1334 380.5 L 1335.5 379 Z " /><path fill="rgb(247,247,247)" stroke="rgb(247,247,247)" stroke-width="1" opacity="1" d="M 1147.5 380 L 1153 386.5 L 1150 384.5 L 1149.5 383 Q 1148.3 385.3 1147 382.5 L 1147.5 380 Z " /><path fill="rgb(247,247,247)" stroke="rgb(247,247,247)" stroke-width="1" opacity="1" d="M 1213.5 380 L 1216 380.5 L 1213.5 381 L 1213.5 380 Z " /><path fill="rgb(247,247,247)" stroke="rgb(247,247,247)" stroke-width="1" opacity="1" d="M 1284.5 380 L 1285.5 382 L 1284 381.5 L 1285 383.5 L 1283 382.5 L 1284.5 380 Z " /><path fill="rgb(247,247,247)" stroke="rgb(247,247,247)" stroke-width="1" opacity="1" d="M 1300.5 380 L 1300 381.5 L 1301 383.5 L 1299.5 383 L 1298 382.5 L 1300.5 380 Z " /><path fill="rgb(247,247,247)" stroke="rgb(247,247,247)" stroke-width="1" opacity="1" d="M 1136.5 381 L 1138 381.5 L 1134.5 383 L 1134.5 382 L 1136.5 381 Z " /><path fill="rgb(247,247,247)" stroke="rgb(247,247,247)" stroke-width="1" opacity="1" d="M 1280.5 382 L 1281.5 384 L 1280.5 382 Z " /><path fill="rgb(247,247,247)" stroke="rgb(247,247,247)" stroke-width="1" opacity="1" d="M 1191.5 383 L 1190.5 385 L 1191.5 383 Z " /><path fill="rgb(247,247,247)" stroke="rgb(247,247,247)" stroke-width="1" opacity="1" d="M 1315.5 383 Q 1317.8 382.3 1317 384.5 L 1315.5 383 Z " /><path fill="rgb(247,247,247)" stroke="rgb(247,247,247)" stroke-width="1" opacity="1" d="M 1335.5 383 L 1334.5 385 L 1335.5 383 Z " /><path fill="rgb(247,247,247)" stroke="rgb(247,247,247)" stroke-width="1" opacity="1" d="M 1164.5 384 Q 1166.8 385.8 1166 390.5 L 1165 390.5 L 1164.5 384 Z " /><path fill="rgb(247,247,247)" stroke="rgb(247,247,247)" stroke-width="1" opacity="1" d="M 1297.5 384 L 1297 385.5 L 1296.5 387 L 1296 385.5 L 1297.5 384 Z " /><path fill="rgb(247,247,247)" stroke="rgb(247,247,247)" stroke-width="1" opacity="1" d="M 1318.5 384 L 1320 387.5 L 1319 387.5 L 1318.5 384 Z " /><path fill="rgb(247,247,247)" stroke="rgb(247,247,247)" stroke-width="1" opacity="1" d="M 1243.5 385 L 1244 386.5 L 1243 388.5 L 1244 390.5 L 1243 390.5 L 1241.5 388 L 1240 388.5 Q 1239.2 385.5 1243 387 L 1243.5 385 Z " /><path fill="rgb(247,247,247)" stroke="rgb(247,247,247)" stroke-width="1" opacity="1" d="M 1282 385 Q 1285 383.8 1284 387.5 L 1282 386.5 L 1282 385 Z " /><path fill="rgb(247,247,247)" stroke="rgb(247,247,247)" stroke-width="1" opacity="1" d="M 1302.5 386 L 1304 389.5 L 1302 388.5 L 1302.5 386 Z " /><path fill="rgb(247,247,247)" stroke="rgb(247,247,247)" stroke-width="1" opacity="1" d="M 1332.5 387 Q 1335.3 388.3 1333 389.5 L 1332.5 391 L 1332.5 387 Z " /><path fill="rgb(247,247,247)" stroke="rgb(247,247,247)" stroke-width="1" opacity="1" d="M 1263.5 388 L 1264 422 L 1274.5 422 L 1276.5 421 L 1276.5 422 L 1274.5 423 L 1263 423 L 1262 416.5 L 1263 415.5 L 1263 403.5 L 1263 401.5 L 1262 399.5 L 1263 396.5 L 1261 393.5 L 1263.5 388 Z " /><path fill="rgb(247,247,247)" stroke="rgb(247,247,247)" stroke-width="1" opacity="1" d="M 1295 388 L 1298 388.5 L 1296 389 L 1297 391.5 L 1295 392 L 1295 388 Z " /><path fill="rgb(247,247,247)" stroke="rgb(247,247,247)" stroke-width="1" opacity="1" d="M 1153.5 389 L 1154 392.5 L 1153 392.5 L 1153.5 389 Z " /><path fill="rgb(247,247,247)" stroke="rgb(247,247,247)" stroke-width="1" opacity="1" d="M 1185.5 389 L 1188 389.5 L 1185.5 390 L 1185.5 389 Z " /><path fill="rgb(247,247,247)" stroke="rgb(247,247,247)" stroke-width="1" opacity="1" d="M 1281.5 389 L 1283 390.5 L 1283 399.5 L 1282 399.5 Q 1282.8 391.3 1281.5 389 Z " /><path fill="rgb(247,247,247)" stroke="rgb(247,247,247)" stroke-width="1" opacity="1" d="M 1320.5 390 L 1321 400.5 L 1320 400.5 L 1320.5 390 Z " /><path fill="rgb(247,247,247)" stroke="rgb(247,247,247)" stroke-width="1" opacity="1" d="M 1247.5 393 L 1248 395 L 1250 394.5 L 1249.5 393 Q 1251.8 392.3 1251 394.5 L 1249.5 397 L 1247 395.5 L 1246.5 397 L 1246 395.5 L 1247.5 393 Z " /><path fill="rgb(247,247,247)" stroke="rgb(247,247,247)" stroke-width="1" opacity="1" d="M 1153.5 398 L 1154 401.5 L 1153 401.5 L 1152 399.5 L 1153.5 398 Z " /><path fill="rgb(247,247,247)" stroke="rgb(247,247,247)" stroke-width="1" opacity="1" d="M 1246.5 399 L 1248 402.5 L 1246 403.5 L 1247 401.5 L 1245 400.5 L 1246.5 399 Z " /><path fill="rgb(247,247,247)" stroke="rgb(247,247,247)" stroke-width="1" opacity="1" d="M 1259.5 399 L 1260.5 401 L 1259.5 399 Z " /><path fill="rgb(247,247,247)" stroke="rgb(247,247,247)" stroke-width="1" opacity="1" d="M 1165.5 400 L 1167 402.5 L 1165 403 L 1165.5 400 Z " /><path fill="rgb(247,247,247)" stroke="rgb(247,247,247)" stroke-width="1" opacity="1" d="M 1185.5 400 L 1186.5 412 L 1188 411.5 Q 1186.5 414.5 1185 411.5 L 1185.5 400 Z " /><path fill="rgb(247,247,247)" stroke="rgb(247,247,247)" stroke-width="1" opacity="1" d="M 1295.5 400 Q 1298.5 401.5 1295.5 403 L 1295.5 400 Z " /><path fill="rgb(247,247,247)" stroke="rgb(247,247,247)" stroke-width="1" opacity="1" d="M 1303.5 400 L 1302.5 402 L 1301 401.5 L 1303.5 400 Z " /><path fill="rgb(247,247,247)" stroke="rgb(247,247,247)" stroke-width="1" opacity="1" d="M 1332.5 400 L 1333 403.5 L 1332 403.5 L 1332.5 400 Z " /><path fill="rgb(247,247,247)" stroke="rgb(247,247,247)" stroke-width="1" opacity="1" d="M 1258.5 401 L 1260 403.5 L 1258 402.5 L 1258.5 401 Z " /><path fill="rgb(247,247,247)" stroke="rgb(247,247,247)" stroke-width="1" opacity="1" d="M 1313.5 401 L 1315 404.5 L 1313.5 407 L 1313 405.5 L 1314 403.5 L 1312 403.5 L 1313.5 401 Z " /><path fill="rgb(247,247,247)" stroke="rgb(247,247,247)" stroke-width="1" opacity="1" d="M 1316.5 401 L 1319 406.5 L 1314.5 411 L 1313 410.5 L 1312.5 412 L 1312 410.5 L 1316 408.5 L 1315.5 407 Q 1316.8 409.3 1318 406.5 L 1316.5 401 Z " /><path fill="rgb(247,247,247)" stroke="rgb(247,247,247)" stroke-width="1" opacity="1" d="M 1152.5 403 L 1153 404.5 L 1148.5 410 L 1151 406.5 L 1152.5 403 Z " /><path fill="rgb(247,247,247)" stroke="rgb(247,247,247)" stroke-width="1" opacity="1" d="M 1297.5 403 L 1299 405.5 L 1297 406.5 L 1297.5 405 L 1296 404.5 L 1297.5 403 Z " /><path fill="rgb(247,247,247)" stroke="rgb(247,247,247)" stroke-width="1" opacity="1" d="M 1234 404 L 1236 404.5 L 1234 405.5 L 1234 404 Z " /><path fill="rgb(247,247,247)" stroke="rgb(247,247,247)" stroke-width="1" opacity="1" d="M 1232.5 405 L 1235 408.5 L 1232 406.5 L 1232.5 405 Z " /><path fill="rgb(247,247,247)" stroke="rgb(247,247,247)" stroke-width="1" opacity="1" d="M 1284.5 407 Q 1286.9 414.6 1293 418.5 L 1289.5 420 L 1289.5 419 Q 1291.8 419.8 1291 417.5 L 1286 414.5 L 1286 412.5 L 1284.5 407 Z " /><path fill="rgb(247,247,247)" stroke="rgb(247,247,247)" stroke-width="1" opacity="1" d="M 1333.5 407 L 1334.5 409 L 1336 408.5 Q 1334.5 411.5 1333 408.5 L 1333.5 407 Z " /><path fill="rgb(247,247,247)" stroke="rgb(247,247,247)" stroke-width="1" opacity="1" d="M 1166.5 408 L 1167.5 410 L 1166.5 408 Z " /><path fill="rgb(247,247,247)" stroke="rgb(247,247,247)" stroke-width="1" opacity="1" d="M 1298.5 408 L 1300.5 408 Q 1303.1 407.3 1302 410 L 1304.5 410 L 1303.5 412 Q 1301.3 412.8 1302 410.5 Q 1300.7 407.8 1299.5 410 L 1298.5 408 Z " /><path fill="rgb(247,247,247)" stroke="rgb(247,247,247)" stroke-width="1" opacity="1" d="M 1330.5 408 L 1332 410.5 L 1330.5 413 L 1328 412.5 L 1330.5 408 Z " /><path fill="rgb(247,247,247)" stroke="rgb(247,247,247)" stroke-width="1" opacity="1" d="M 1236 409 L 1238 409.5 L 1235.5 413 L 1235 411.5 L 1236 409 Z " /><path fill="rgb(247,247,247)" stroke="rgb(247,247,247)" stroke-width="1" opacity="1" d="M 1255.5 409 L 1256 411.5 L 1254.5 414 L 1254 412.5 L 1255.5 409 Z " /><path fill="rgb(247,247,247)" stroke="rgb(247,247,247)" stroke-width="1" opacity="1" d="M 1162.5 410 L 1165 410.5 L 1163 413.5 Q 1165.3 414.8 1162.5 416 L 1161.5 413 L 1160 413.5 L 1163 411.5 L 1162.5 410 Z " /><path fill="rgb(247,247,247)" stroke="rgb(247,247,247)" stroke-width="1" opacity="1" d="M 1307.5 410 Q 1309.8 409.3 1309 411.5 L 1309.5 413 L 1306 412.5 L 1308 411.5 L 1307.5 410 Z " /><path fill="rgb(247,247,247)" stroke="rgb(247,247,247)" stroke-width="1" opacity="1" d="M 1209.5 411 L 1211 413.5 L 1209 412.5 L 1209.5 411 Z " /><path fill="rgb(247,247,247)" stroke="rgb(247,247,247)" stroke-width="1" opacity="1" d="M 1238.5 411 L 1239 413 L 1237 412.5 L 1238.5 411 Z " /><path fill="rgb(247,247,247)" stroke="rgb(247,247,247)" stroke-width="1" opacity="1" d="M 1327.5 414 L 1325 417.5 L 1326.5 420 Q 1324.8 416.9 1323 418.5 L 1327.5 414 Z " /><path fill="rgb(247,247,247)" stroke="rgb(247,247,247)" stroke-width="1" opacity="1" d="M 1158.5 416 L 1159.5 418 L 1158.5 416 Z " /><path fill="rgb(247,247,247)" stroke="rgb(247,247,247)" stroke-width="1" opacity="1" d="M 1156.5 417 L 1158.5 420 L 1156 418.5 Q 1156.8 421.1 1153.5 420 L 1153.5 419 L 1156.5 417 Z " /><path fill="rgb(247,247,247)" stroke="rgb(247,247,247)" stroke-width="1" opacity="1" d="M 1252 417 L 1254 417.5 L 1252 418.5 L 1252 417 Z " /><path fill="rgb(247,247,247)" stroke="rgb(247,247,247)" stroke-width="1" opacity="1" d="M 1241.5 419 L 1240.5 421 L 1241.5 419 Z " /><path fill="rgb(247,247,247)" stroke="rgb(247,247,247)" stroke-width="1" opacity="1" d="M 1294.5 419 L 1295.5 421 L 1294.5 419 Z " /><path fill="rgb(247,247,247)" stroke="rgb(247,247,247)" stroke-width="1" opacity="1" d="M 1292.5 420 L 1294.5 423 Q 1292.8 419.3 1291 422.5 L 1291.5 424 L 1289.5 421 Q 1291 423.5 1292.5 420 Z " /><path fill="rgb(247,247,247)" stroke="rgb(247,247,247)" stroke-width="1" opacity="1" d="M 1319.5 420 L 1318.5 422 L 1313.5 423 L 1313.5 422 Q 1318.1 422.6 1319.5 420 Z " /><path fill="rgb(247,247,247)" stroke="rgb(247,247,247)" stroke-width="1" opacity="1" d="M 1147.5 421 L 1150 421.5 L 1147.5 422 L 1147.5 421 Z " /><path fill="rgb(247,247,247)" stroke="rgb(247,247,247)" stroke-width="1" opacity="1" d="M 1172.5 421 L 1173.5 422 L 1209.5 422 Q 1210.8 419.8 1212 422.5 Q 1210.3 420.9 1208.5 424 L 1207.5 423 L 1173.5 423 L 1172.5 424 L 1172.5 421 Z " /><path fill="rgb(247,247,247)" stroke="rgb(247,247,247)" stroke-width="1" opacity="1" d="M 1214.5 421 Q 1217.5 422.5 1214.5 424 L 1214.5 421 Z " /><path fill="rgb(247,247,247)" stroke="rgb(247,247,247)" stroke-width="1" opacity="1" d="M 1297.5 421 L 1303 422.5 L 1298.5 423 L 1297.5 421 Z " /><path fill="rgb(247,247,247)" stroke="rgb(247,247,247)" stroke-width="1" opacity="1" d="M 1327.5 421 L 1326.5 423 L 1327.5 421 Z " /><path fill="rgb(247,247,247)" stroke="rgb(247,247,247)" stroke-width="1" opacity="1" d="M 1243.5 422 Q 1249.8 420.3 1251.5 423 L 1253.5 422 L 1254.5 424 L 1252.5 423 L 1250.5 423 L 1245.5 424 L 1243.5 422 Z " /><path fill="rgb(247,247,247)" stroke="rgb(247,247,247)" stroke-width="1" opacity="1" d="M 1306.5 423 L 1309 423.5 L 1306.5 424 L 1306.5 423 Z " /></svg>