<?xml version='1.0' encoding='utf-8'?>
<svg xmlns="http://www.w3.org/2000/svg" viewBox="1723.0 1162.0 317.0 292.1" width="317" height="292" version="1.1"><path fill="rgb(23,24,23)" stroke="rgb(23,24,23)" stroke-width="1" opacity="1" d="M 1827.5 1179 L 1835 1183.5 Q 1836.3 1191.8 1831.5 1194 L 1825.5 1194 L 1821 1190.5 Q 1819.3 1183.8 1822.5 1182 L 1827.5 1179 Z " /><path fill="rgb(23,24,23)" stroke="rgb(23,24,23)" stroke-width="1" opacity="1" d="M 1790 1185 L 1805 1193.5 Q 1801.3 1195.8 1794.5 1195 L 1790 1185 Z " /><path fill="rgb(23,24,23)" stroke="rgb(23,24,23)" stroke-width="1" opacity="1" d="M 1760.5 1190 Q 1765 1189 1766 1191.5 L 1767 1195.5 L 1766 1198 L 1761.5 1199 L 1758 1196.5 Q 1757 1191 1760.5 1190 Z " /><path fill="rgb(23,24,23)" stroke="rgb(23,24,23)" stroke-width="1" opacity="1" d="M 1840.5 1199 L 1856 1200.5 L 1845.5 1214 L 1841.5 1213 L 1834 1208 L 1838.5 1200 L 1840.5 1199 Z " /><path fill="rgb(23,24,23)" stroke="rgb(23,24,23)" stroke-width="1" opacity="1" d="M 1860.5 1203 L 1878 1226.5 L 1885 1239 Q 1865.2 1230.7 1849 1217.5 L 1860.5 1203 Z " /><path fill="rgb(23,24,23)" stroke="rgb(23,24,23)" stroke-width="1" opacity="1" d="M 1982.5 1204 L 1986 1205.5 L 1987 1210.5 L 1985.5 1212 L 1964.5 1217 L 1963 1218.5 L 1958 1232 L 1953 1229.5 L 1959 1215.5 L 1961.5 1213 L 1982.5 1204 Z " /><path fill="rgb(23,24,23)" stroke="rgb(23,24,23)" stroke-width="1" opacity="1" d="M 1810.5 1206 L 1818 1208 L 1820 1216.5 L 1812.5 1222 Q 1806.8 1220.8 1804 1216.5 L 1804 1211.5 L 1807.5 1207 L 1810.5 1206 Z " /><path fill="rgb(23,24,23)" stroke="rgb(23,24,23)" stroke-width="1" opacity="1" d="M 1776.5 1208 L 1782 1210.5 Q 1783 1216 1779.5 1217 Q 1773.8 1217.8 1773 1213.5 Q 1772.5 1208.5 1776.5 1208 Z " /><path fill="rgb(23,24,23)" stroke="rgb(23,24,23)" stroke-width="1" opacity="1" d="M 1828.5 1215 L 1852 1226 L 1849.5 1230 L 1835.5 1241 L 1827 1216.5 L 1828.5 1215 Z " /><path fill="rgb(23,24,23)" stroke="rgb(23,24,23)" stroke-width="1" opacity="1" d="M 1987.5 1225 L 2002.5 1225 L 2004 1226.5 L 2003 1234 L 1980.5 1230 L 1967 1242.5 Q 1966.3 1244.8 1968.5 1244 L 1971 1246.5 L 1979 1264.5 L 1983 1274.5 L 1983 1278.5 L 1973.5 1291 L 1933 1271.5 L 1928 1242.5 L 1943.5 1232 L 1965 1242 L 1976 1226 L 1986.5 1226 L 1987.5 1225 Z M 1947 1247 L 1950 1262 L 1965 1268 L 1966 1268 L 1962 1255 L 1960 1252 L 1947 1247 Z " /><path fill="rgb(23,24,23)" stroke="rgb(23,24,23)" stroke-width="1" opacity="1" d="M 1792.5 1227 Q 1797.8 1225.8 1799 1228.5 L 1800 1232.5 Q 1798.3 1236.5 1792 1235 L 1791 1228.5 L 1792.5 1227 Z " /><path fill="rgb(23,24,23)" stroke="rgb(23,24,23)" stroke-width="1" opacity="1" d="M 1857.5 1230 L 1884 1245.5 L 1870.5 1257 L 1842.5 1247 L 1839 1247 L 1840.5 1244 L 1857.5 1230 Z " /><path fill="rgb(23,24,23)" stroke="rgb(23,24,23)" stroke-width="1" opacity="1" d="M 1816.5 1232 Q 1823 1231 1825 1234.5 L 1827 1239.5 L 1824.5 1242 L 1812.5 1242 L 1807 1243 L 1814.5 1233 L 1816.5 1232 Z " /><path fill="rgb(23,24,23)" stroke="rgb(23,24,23)" stroke-width="1" opacity="1" d="M 1896 1246 L 1909.5 1248 L 1918.5 1251 L 1923.5 1251 L 1925 1252.5 L 1929 1273 L 1898.5 1295 L 1893.5 1295 L 1882 1292 L 1876 1314 L 1853.5 1327 L 1847 1329 L 1843 1318.5 L 1860.5 1311 L 1867 1306.5 L 1870 1290.5 L 1872 1287.5 L 1868 1282.5 L 1865 1269.5 L 1890 1249 L 1890 1267.5 L 1891.5 1268 L 1893.5 1269 L 1895 1267.5 L 1896 1246 Z " /><path fill="rgb(23,24,23)" stroke="rgb(23,24,23)" stroke-width="1" opacity="1" d="M 1823.5 1259 L 1860 1272.5 L 1865 1286.5 L 1841.5 1308 L 1825 1266.5 L 1823.5 1259 Z " /><path fill="rgb(23,24,23)" stroke="rgb(23,24,23)" stroke-width="1" opacity="1" d="M 1816.5 1260 Q 1818.8 1259.3 1818 1261.5 L 1835 1305.5 L 1833.5 1306 L 1788 1283.5 L 1816.5 1260 Z " /><path fill="rgb(23,24,23)" stroke="rgb(23,24,23)" stroke-width="1" opacity="1" d="M 1788.5 1289 L 1835 1312.5 L 1798.5 1321 L 1796 1316.5 L 1788.5 1289 Z " /><path fill="rgb(23,24,23)" stroke="rgb(23,24,23)" stroke-width="1" opacity="1" d="M 1918.5 1292 L 1945 1305 L 1945 1307.5 L 1938.5 1314 L 1935.5 1315 L 1916 1302.5 L 1915 1296.5 L 1918.5 1292 Z " /><path fill="rgb(23,24,23)" stroke="rgb(23,24,23)" stroke-width="1" opacity="1" d="M 1783.5 1293 L 1793 1323 L 1770.5 1332 L 1771 1330.5 L 1773 1321.5 L 1783.5 1293 Z " /><path fill="rgb(23,24,23)" stroke="rgb(23,24,23)" stroke-width="1" opacity="1" d="M 1897.5 1301 L 1914 1316.5 L 1901.5 1324 L 1896 1319.5 L 1896 1304.5 L 1897.5 1301 Z " /><path fill="rgb(23,24,23)" stroke="rgb(23,24,23)" stroke-width="1" opacity="1" d="M 1947.5 1313 Q 1950.1 1312.2 1949 1315.5 L 1952 1328.5 L 1949.5 1337 L 1941 1319.5 L 1947.5 1313 Z " /><path fill="rgb(23,24,23)" stroke="rgb(23,24,23)" stroke-width="1" opacity="1" d="M 1837.5 1322 Q 1841.8 1326.8 1843 1334.5 L 1826.5 1350 L 1825 1345.5 L 1835 1323 L 1837.5 1322 Z " /><path fill="rgb(23,24,23)" stroke="rgb(23,24,23)" stroke-width="1" opacity="1" d="M 1913.5 1324 L 1915 1324.5 L 1915 1340.5 L 1914 1341.5 L 1914 1348 Q 1911 1349.3 1912 1345.5 L 1904 1330.5 L 1904 1328 L 1913.5 1324 Z " /><path fill="rgb(23,24,23)" stroke="rgb(23,24,23)" stroke-width="1" opacity="1" d="M 1959.5 1335 L 1966 1343.5 L 1956.5 1344 L 1955 1340.5 L 1959.5 1335 Z " /><path fill="rgb(23,24,23)" stroke="rgb(23,24,23)" stroke-width="1" opacity="1" d="M 1814.5 1349 Q 1817.8 1347.9 1817 1350.5 L 1821 1356.5 L 1820 1359 L 1808.5 1359 L 1808 1357.5 L 1814.5 1349 Z " /><path fill="rgb(23,24,23)" stroke="rgb(23,24,23)" stroke-width="1" opacity="1" d="M 1921.5 1349 Q 1925.5 1348.5 1926 1351.5 L 1929 1358 L 1919.5 1358 L 1918 1356.5 L 1918 1350 L 1920.5 1350 L 1921.5 1349 Z " /><path fill="rgb(23,24,23)" stroke="rgb(23,24,23)" stroke-width="1" opacity="1" d="M 1818.5 1382 Q 1842.5 1379.5 1850 1393.5 Q 1855.8 1400.2 1854 1414.5 L 1852 1420.5 L 1847 1428 L 1836.5 1434 Q 1829.8 1436.3 1819.5 1435 Q 1807.9 1432.6 1802 1424.5 Q 1796.3 1417.7 1797 1404.5 Q 1799.2 1392.7 1807.5 1387 L 1818.5 1382 Z M 1821 1393 L 1817 1395 Q 1812 1398 1810 1405 Q 1809 1414 1813 1419 L 1821 1424 L 1832 1424 L 1834 1423 L 1841 1414 Q 1843 1404 1839 1400 Q 1836 1390 1821 1393 Z " /><path fill="rgb(23,24,23)" stroke="rgb(23,24,23)" stroke-width="1" opacity="1" d="M 1994.5 1382 Q 2011.8 1379.8 2020 1386.5 L 2018 1393.5 L 2015.5 1396 Q 2010.2 1390.3 1997.5 1392 L 1993 1395.5 Q 1992 1400 1994.5 1401 L 2010.5 1405 L 2020 1410.5 L 2023 1420.5 Q 2021.6 1428.6 2015.5 1432 L 2008.5 1435 L 1991.5 1435 L 1979 1429.5 L 1983.5 1420 L 1994.5 1425 L 2005.5 1425 L 2010 1421.5 Q 2010.8 1416.8 2007.5 1416 L 1988.5 1411 L 1981 1404.5 Q 1978.7 1401.3 1980 1394.5 Q 1981.3 1388.8 1985.5 1386 L 1994.5 1382 Z " /><path fill="rgb(23,24,23)" stroke="rgb(23,24,23)" stroke-width="1" opacity="1" d="M 1740 1383 L 1751.5 1383 L 1754 1385.5 L 1775.5 1412 L 1776 1383 L 1788.5 1383 L 1789 1383.5 L 1789 1434 L 1782.5 1434 L 1781.5 1435 L 1776 1432.5 L 1753.5 1404 L 1753 1434 L 1740.5 1434 L 1740 1433.5 L 1740 1383 Z " /><path fill="rgb(23,24,23)" stroke="rgb(23,24,23)" stroke-width="1" opacity="1" d="M 1863 1383 L 1893.5 1383 Q 1905.3 1385.2 1911 1393.5 Q 1916.8 1400.2 1915 1414.5 Q 1912.7 1425.2 1904.5 1430 L 1895.5 1434 L 1864.5 1434 L 1863.5 1435 L 1863 1383 Z M 1877 1393 L 1875 1395 L 1875 1424 L 1891 1424 L 1896 1422 Q 1901 1420 1902 1414 Q 1904 1404 1900 1400 Q 1894 1391 1877 1393 Z " /><path fill="rgb(23,24,23)" stroke="rgb(23,24,23)" stroke-width="1" opacity="1" d="M 1923 1383 L 1936 1383 L 1936 1415.5 L 1940.5 1423 Q 1944 1425.5 1951.5 1424 L 1957 1419.5 L 1958 1417.5 L 1958 1383 L 1971 1383 L 1971 1416.5 Q 1969.4 1427.4 1961.5 1432 Q 1954.6 1437.1 1940.5 1435 Q 1931.3 1433.3 1927 1426.5 L 1923 1416.5 L 1923 1383 Z " /></svg>
