<?xml version='1.0' encoding='utf-8'?>
<svg xmlns="http://www.w3.org/2000/svg" viewBox="653.2 868.2 295.7 229.7" width="296" height="230" version="1.1"><path fill="rgb(23,24,23)" stroke="rgb(23,24,23)" stroke-width="1" opacity="1" d="M 807 884 L 835 904.5 L 832.5 908 L 814.5 922 L 807 926 L 806.5 912 L 804.5 912 L 802.5 913 L 801.5 912 L 792.5 912 Q 790.7 914.8 784.5 913 Q 782.8 910.2 776.5 912 L 775.5 913 L 767.5 913 L 766 911.5 L 766 898 L 807 898 L 807 884 Z " /><path fill="rgb(23,24,23)" stroke="rgb(23,24,23)" stroke-width="1" opacity="1" d="M 714.5 897 L 728 897 L 728 911.5 L 726.5 913 Q 718.3 911.7 713.5 914 L 709 918.5 L 707 924.5 L 706 960.5 L 704 968.5 L 699 977 L 689 983.5 Q 697.1 985.4 701 991.5 L 704 996.5 L 707 1008.5 L 707 1040.5 L 709 1047.5 L 712.5 1051 Q 716.8 1054.7 726.5 1053 L 728 1054.5 L 728 1069 L 715.5 1069 L 702.5 1066 L 695 1060.5 Q 690.5 1054.5 689 1045.5 L 689 1008.5 L 688 1003.5 Q 686.2 996.3 680.5 993 Q 677.2 990.3 670.5 991 L 669 989.5 L 669 976.5 L 671.5 976 L 680.5 973 L 685 968.5 L 688 961.5 L 688 952.5 L 689 951.5 L 689 920.5 L 690 915.5 Q 692.1 906.6 698.5 902 L 707.5 898 Q 713 899.5 714.5 897 Z " /><path fill="rgb(23,24,23)" stroke="rgb(23,24,23)" stroke-width="1" opacity="1" d="M 875.5 897 L 887.5 897 L 897.5 899 L 907 905.5 L 910 910.5 L 913 922.5 L 913 956.5 L 914 961.5 Q 915.5 968.5 920.5 972 L 933 976.5 L 933 989.5 L 931.5 991 Q 919.7 990.7 916 998.5 L 913 1007.5 L 913 1044.5 L 910 1055.5 L 904.5 1063 L 893.5 1068 L 875.5 1069 L 874 1067.5 L 874 1056.5 L 875 1053 Q 888.5 1055.3 893 1047.5 L 895 1042.5 L 895 1010.5 Q 897.5 1009 896 1003.5 Q 898.3 993.8 904.5 988 L 912 983.5 L 901 974.5 L 896 962.5 L 896 954.5 L 895 953.5 L 895 925.5 L 893 918.5 L 888.5 914 Q 883.8 911.7 875.5 913 L 874 911.5 L 874 898.5 L 875.5 897 Z " /><path fill="rgb(23,24,23)" stroke="rgb(23,24,23)" stroke-width="1" opacity="1" d="M 841.5 939 L 858.5 941 Q 867.5 944.5 873 951.5 L 860.5 963 Q 855.5 954 839.5 956 Q 831.5 958.5 827 964.5 Q 820.9 971.9 822 986.5 L 824 995.5 L 830.5 1005 L 840.5 1010 L 850.5 1010 L 861 1003.5 Q 860.3 1001.3 862.5 1002 L 874 1012.5 Q 874.5 1017.5 870.5 1018 Q 863.9 1023.9 853.5 1026 L 837.5 1026 Q 821.8 1022.8 813 1012.5 L 804 994.5 L 803 976.5 L 805 967.5 L 809 958.5 L 817.5 949 L 831.5 941 L 841.5 939 Z " /><path fill="rgb(23,24,23)" stroke="rgb(23,24,23)" stroke-width="1" opacity="1" d="M 744 941 L 796.5 941 L 797 941.5 L 797 957 L 762.5 957 L 761 958.5 L 762 959.5 L 762 976 L 793 976 L 793 991 L 762 991 L 762 1023.5 L 760.5 1025 L 744 1025 L 744 941 Z " /><path fill="rgb(23,24,23)" stroke="rgb(23,24,23)" stroke-width="1" opacity="1" d="M 792.5 1040 L 794 1040.5 L 794 1053.5 L 794.5 1054 L 835 1054 L 835 1068 L 794.5 1068 L 794 1068.5 L 794 1081.5 L 792.5 1082 L 766 1061.5 L 767.5 1059 L 792.5 1040 Z " /></svg>
