<?xml version='1.0' encoding='utf-8'?>
<svg xmlns="http://www.w3.org/2000/svg" viewBox="147.3 502.3 274.4 250.4" width="274" height="250" version="1.1"><path fill="rgb(23,24,23)" stroke="rgb(23,24,23)" stroke-width="1" opacity="1" d="M 339.5 517 L 341 518.5 L 341 579 L 348.5 579 L 349 578.5 L 349 551 L 381 551 L 381 568 L 407 568 L 407 588.5 L 393.5 606 L 359.5 606 L 359 607.5 L 360 608.5 L 360 651.5 L 325 686.5 L 325 738 L 297 738 L 297 688.5 L 295.5 688 L 255 666.5 L 255 616.5 L 256.5 615 L 294.5 615 L 297.5 616 L 326.5 645 L 330 637.5 L 303 609.5 L 316 588.5 L 316 541.5 L 339.5 517 Z " /><path fill="rgb(23,24,23)" stroke="rgb(23,24,23)" stroke-width="1" opacity="1" d="M 364.5 517 L 365 543 L 349 543 L 349 533.5 L 364.5 517 Z " /><path fill="rgb(23,24,23)" stroke="rgb(23,24,23)" stroke-width="1" opacity="1" d="M 162 580 L 163.5 580 L 198.5 615 L 240.5 615 L 241.5 616 L 243.5 615 L 247 616.5 L 247 666.5 L 242 674 Q 239.3 672.9 240 675.5 L 224 690.5 L 222 693.5 L 213 702.5 L 213 736.5 L 211.5 738 L 186 738 L 186 692.5 L 201 677.5 L 201 630.5 L 199.5 629 L 182.5 629 L 163 609.5 L 162 607.5 L 162 580 Z " /><path fill="rgb(23,24,23)" stroke="rgb(23,24,23)" stroke-width="1" opacity="1" d="M 358.5 664 L 360 664.5 L 360 736.5 L 358.5 738 L 333 738 L 333 689.5 L 358.5 664 Z " /><path fill="rgb(23,24,23)" stroke="rgb(23,24,23)" stroke-width="1" opacity="1" d="M 252.5 674 L 269 682.5 L 260.5 692 L 254 697.5 L 253 699.5 L 253 738 L 227 738 L 227 699.5 L 237.5 688 L 252.5 674 Z " /></svg>
