<?xml version='1.0' encoding='utf-8'?>
<svg xmlns="http://www.w3.org/2000/svg" viewBox="129.6 1149.7 312.8 324.7" width="313" height="325" version="1.1"><path fill="rgb(23,24,23)" stroke="rgb(23,24,23)" stroke-width="1" opacity="1" d="M 281.5 1168 Q 295.9 1167.1 300 1176.5 Q 303.8 1181.2 302 1191.5 L 297 1199.5 L 313.5 1226 L 344.5 1226 L 345 1222.5 L 350.5 1215 Q 354.8 1209.8 365.5 1211 L 376 1217.5 Q 380.5 1222 380 1231.5 Q 377.9 1239.9 371.5 1244 L 361.5 1247 L 355.5 1245 L 344 1265.5 Q 348.3 1268.7 347 1277.5 L 344 1282.5 L 355.5 1302 Q 358.7 1299.7 365.5 1301 Q 372.4 1302.5 376 1307.5 L 379 1312.5 L 380 1319.5 L 378 1326.5 L 372.5 1333 Q 368 1337.5 357.5 1336 Q 350.8 1333.8 347 1328.5 L 344 1321 L 312.5 1321 L 310 1323.5 L 297 1345.5 L 297 1348.5 L 301 1353.5 L 303 1362.5 Q 301.4 1373.4 293.5 1378 Q 289.5 1381 281.5 1380 Q 273.8 1378.1 270 1372.5 Q 265.7 1368.3 267 1358.5 L 272 1349.5 L 272 1346.5 L 262 1329 Q 251 1330.8 248 1323.5 L 247.5 1321 L 225 1321 Q 224.1 1327.9 219.5 1332 Q 214.8 1337.8 202.5 1336 L 193 1329.5 L 190 1324.5 L 189 1317.5 L 191 1310.5 L 196.5 1304 Q 201 1299.5 211.5 1301 L 214 1302 L 226 1280.5 L 229 1272.5 L 213.5 1246 L 206.5 1247 L 197.5 1244 L 192 1238.5 Q 189 1234.5 189 1227.5 L 191 1220.5 L 195.5 1215 Q 199.8 1209.8 210.5 1211 Q 218.2 1212.8 222 1218.5 L 225.5 1226 L 247.5 1226 L 248 1223.5 L 252.5 1219 L 261.5 1218 L 263 1216.5 L 272 1201.5 L 272 1198.5 L 267 1191.5 L 267 1181.5 Q 268.8 1174.3 274.5 1171 L 281.5 1168 Z M 293 1202 L 287 1204 L 287 1226 L 306 1226 L 303 1219 L 293 1202 Z M 276 1203 L 266 1221 L 268 1226 L 282 1226 L 282 1204 L 276 1203 Z M 226 1232 L 224 1236 L 245 1248 L 251 1238 L 248 1234 L 248 1232 L 226 1232 Z M 270 1232 L 268 1235 Q 266 1240 257 1239 Q 251 1243 250 1251 L 265 1260 L 262 1264 L 247 1255 L 236 1274 L 246 1292 L 263 1284 L 264 1288 L 249 1296 L 253 1305 L 257 1308 Q 262 1307 265 1310 L 268 1315 L 282 1315 L 282 1299 L 287 1300 L 287 1315 L 296 1315 L 297 1316 Q 303 1318 305 1315 L 307 1316 L 309 1316 L 318 1301 L 319 1297 L 305 1289 Q 304 1285 308 1284 L 323 1292 L 329 1282 L 325 1276 Q 324 1269 328 1267 L 328 1264 L 323 1255 L 306 1264 L 304 1260 L 320 1251 L 310 1232 L 287 1232 L 287 1249 L 282 1249 L 282 1232 L 270 1232 Z M 317 1232 L 317 1235 L 324 1247 L 345 1236 L 345 1232 L 317 1232 Z M 349 1240 L 328 1251 L 332 1261 Q 334 1265 340 1263 L 350 1244 Q 353 1242 349 1240 Z M 221 1241 L 218 1244 L 233 1268 L 241 1253 L 225 1242 L 221 1241 Z M 233 1279 L 219 1303 Q 218 1307 222 1307 L 242 1295 L 233 1279 Z M 334 1284 L 327 1295 L 348 1307 L 350 1306 L 349 1301 L 340 1286 Q 340 1283 334 1284 Z M 243 1300 L 226 1310 L 224 1314 L 226 1315 L 248 1315 Q 247 1312 250 1311 L 246 1302 L 243 1300 Z M 325 1300 L 315 1316 L 344 1316 L 345 1310 L 325 1300 Z M 268 1321 L 266 1326 L 278 1345 L 282 1344 L 282 1321 L 268 1321 Z M 287 1321 L 287 1344 L 292 1345 L 305 1323 L 305 1321 L 287 1321 Z " /><path fill="rgb(23,24,23)" stroke="rgb(23,24,23)" stroke-width="1" opacity="1" d="M 282.5 1256 Q 294.6 1255.9 299 1263.5 Q 303.5 1268 302 1278.5 L 295.5 1288 L 284.5 1292 L 279.5 1291 L 271 1285.5 Q 265.8 1281.2 267 1270.5 Q 268.9 1262.9 274.5 1259 L 282.5 1256 Z " /><path fill="rgb(23,24,23)" stroke="rgb(23,24,23)" stroke-width="1" opacity="1" d="M 400.5 1400 L 412.5 1401 L 422 1405.5 L 417.5 1415 L 407.5 1411 L 398.5 1411 L 393 1414.5 Q 392 1420 395.5 1421 L 412.5 1425 Q 419.3 1427.3 423 1432.5 L 425 1439.5 L 423 1447.5 L 416.5 1454 L 406.5 1457 L 395.5 1457 L 383.5 1454 L 379 1450.5 L 382 1441 L 395.5 1446 L 406.5 1446 L 411 1442.5 L 410 1437 L 390.5 1432 L 382 1426.5 L 380 1423.5 L 379 1416.5 Q 380.5 1408 386.5 1404 L 400.5 1400 Z " /><path fill="rgb(23,24,23)" stroke="rgb(23,24,23)" stroke-width="1" opacity="1" d="M 148.5 1401 Q 156.7 1399.9 160 1402 L 184.5 1432 L 185 1402.5 L 186.5 1401 L 197.5 1401 L 198 1401.5 L 198 1456 L 187.5 1456 L 186 1454.5 L 161.5 1425 L 161 1456 L 147.5 1456 L 147 1455.5 L 147 1405.5 L 147 1403.5 L 148.5 1401 Z " /><path fill="rgb(23,24,23)" stroke="rgb(23,24,23)" stroke-width="1" opacity="1" d="M 211 1401 L 251.5 1401 L 253 1402.5 L 253 1412 L 224 1412 L 224 1423 L 250 1423 L 250 1433 L 224 1433 L 224 1445 L 252.5 1445 L 254 1446.5 L 254 1455.5 L 253.5 1456 L 211 1456 L 211 1401 Z " /><path fill="rgb(23,24,23)" stroke="rgb(23,24,23)" stroke-width="1" opacity="1" d="M 259 1401 L 273.5 1401 L 275 1402.5 L 285 1418 L 288 1416.5 L 298 1401 L 311.5 1401 L 312 1402.5 L 294 1427.5 L 315 1455.5 L 299.5 1456 L 286.5 1438 L 284 1439.5 L 272.5 1456 L 258.5 1456 L 258 1454.5 L 277 1429.5 L 277 1426.5 L 259 1401 Z " /><path fill="rgb(23,24,23)" stroke="rgb(23,24,23)" stroke-width="1" opacity="1" d="M 320.5 1401 L 331.5 1401 L 333 1402.5 L 333 1437.5 L 337.5 1444 Q 340.4 1446.6 346.5 1446 Q 352.3 1444.8 355 1440.5 L 357 1434.5 L 357 1401 L 368.5 1401 L 370 1402.5 L 370 1437.5 Q 368.3 1448.3 360.5 1453 L 349.5 1457 L 339.5 1457 Q 328.2 1455.3 323 1447.5 L 320 1441.5 Q 321.3 1436.8 319 1435.5 L 319 1402.5 L 320.5 1401 Z " /></svg>
