<?xml version='1.0' encoding='utf-8'?>
<svg xmlns="http://www.w3.org/2000/svg" viewBox="1721.2 497.2 295.6 313.4" width="296" height="313" version="1.1"><path fill="rgb(23,24,23)" stroke="rgb(23,24,23)" stroke-width="1" opacity="1" d="M 1796 514 L 1887.5 514 L 1888.5 515 L 1891.5 514 L 1896 517.5 L 1898.5 521 L 1901 522.5 L 1902.5 525 Q 1904.8 524.3 1904 526.5 L 1912 533.5 L 1917.5 540 L 1920 541.5 L 1921.5 544 L 1939 560.5 L 1939.5 578 L 1986.5 558 Q 1989 559.2 1988 563 L 1863 615.5 L 1872.5 619 L 1876.5 619 L 1880.5 621 L 1932 633 L 1932 593.5 L 1933.5 593 L 1939 591 L 1939 634.5 L 1940.5 635 L 1984.5 646 L 1989 648.5 L 1988 652 L 1939.5 640 L 1939 701 L 1796 701 L 1796 514 Z M 1803 521 L 1803 694 L 1927 694 L 1927 693 L 1898 663 Q 1895 664 1896 661 L 1893 660 Q 1894 657 1892 658 L 1852 619 L 1851 615 L 1932 581 L 1932 566 L 1888 566 L 1888 522 L 1809 522 L 1807 522 L 1803 521 Z M 1896 527 L 1895 559 L 1926 559 L 1926 558 L 1912 543 L 1910 543 L 1910 542 L 1896 527 Z M 1863 621 L 1910 669 Q 1909 671 1912 670 L 1912 672 L 1918 677 Q 1917 679 1920 678 L 1920 680 L 1922 680 L 1924 684 L 1931 689 L 1932 691 L 1932 638 L 1863 621 Z " /><path fill="rgb(23,24,23)" stroke="rgb(23,24,23)" stroke-width="1" opacity="1" d="M 1814.5 732 Q 1831.3 731.7 1837 742.5 L 1842 755.5 L 1842 769.5 Q 1839.7 782.7 1830.5 789 Q 1824.3 793.8 1811.5 792 Q 1803.3 790.2 1799 784.5 Q 1791.1 775.9 1792 758.5 L 1796 744.5 L 1803.5 736 L 1814.5 732 Z M 1815 741 L 1812 742 Q 1806 745 1804 753 L 1804 771 L 1808 780 L 1814 783 Q 1820 784 1824 782 L 1828 778 L 1831 768 L 1831 758 L 1827 746 Q 1824 740 1815 741 Z " /><path fill="rgb(23,24,23)" stroke="rgb(23,24,23)" stroke-width="1" opacity="1" d="M 1869.5 732 Q 1884.5 731.5 1890 740.5 Q 1893.8 745.5 1894 753 L 1884.5 753 L 1884 750.5 Q 1882.8 744.8 1878.5 742 L 1869.5 741 L 1863 746.5 Q 1858.4 754.4 1860 768.5 L 1863 777.5 L 1867.5 782 L 1876.5 783 L 1883 777.5 L 1885.5 771 L 1894 772 Q 1893.7 781.8 1887.5 787 Q 1881.3 793.8 1866.5 792 Q 1858.2 789.9 1854 783.5 Q 1846.5 773 1849 752.5 Q 1851.6 740.6 1860.5 735 L 1869.5 732 Z " /><path fill="rgb(23,24,23)" stroke="rgb(23,24,23)" stroke-width="1" opacity="1" d="M 1738 733 L 1762.5 733 L 1767.5 734 Q 1775.5 736.5 1780 742.5 Q 1787.2 750.8 1786 767.5 Q 1783.6 779.6 1775.5 786 L 1764.5 791 L 1738 791 L 1738 733 Z M 1749 741 L 1749 782 L 1763 782 L 1767 780 Q 1772 776 1774 769 Q 1776 755 1771 749 L 1764 742 L 1749 741 Z " /><path fill="rgb(23,24,23)" stroke="rgb(23,24,23)" stroke-width="1" opacity="1" d="M 1902 733 L 1912.5 733 L 1913 733.5 L 1913 775.5 L 1917.5 782 L 1927.5 783 L 1933 778.5 L 1934 776.5 L 1935 733 L 1942.5 733 L 1943 733.5 L 1943 779.5 L 1939 787 L 1929.5 792 L 1916.5 792 Q 1908.2 789.9 1904 783.5 L 1902 777.5 L 1902 733 Z " /><path fill="rgb(23,24,23)" stroke="rgb(23,24,23)" stroke-width="1" opacity="1" d="M 1968.5 733 L 1980.5 733 L 1981 734.5 L 2000 791 L 1989.5 791 L 1989 789.5 L 1985 778 L 1962.5 778 L 1962 779.5 L 1958 791 L 1949.5 791 L 1949 788.5 L 1967 734.5 L 1968.5 733 Z M 1974 744 L 1965 769 L 1981 769 L 1974 744 Z " /></svg>
